<svg width="64" height="64" viewBox="0 0 64 64" fill="none" xmlns="http://www.w3.org/2000/svg">
<rect width="62.7451" height="62.7451" transform="translate(0.799805 0.59375)" fill="#D9D9D9" fill-opacity="0.6"/>
<g clip-path="url(#clip0_226_882)">
<g clip-path="url(#clip1_226_882)">
<g clip-path="url(#clip2_226_882)">
<path d="M26.3119 35.9881C27.1241 35.9881 27.7825 35.3296 27.7825 34.5175C27.7825 33.7053 27.1241 33.0469 26.3119 33.0469C25.4997 33.0469 24.8413 33.7053 24.8413 34.5175C24.8413 35.3296 25.4997 35.9881 26.3119 35.9881Z" stroke="#5E58D0" stroke-width="1.96078" stroke-linecap="round" stroke-linejoin="round"/>
<path d="M31.7863 32.5584C31.3358 31.5262 30.5437 30.6806 29.5431 30.1638C28.5425 29.647 27.3945 29.4905 26.292 29.7206C25.1896 29.9507 24.2 30.5533 23.4897 31.4272C22.7794 32.3011 22.3916 33.393 22.3916 34.5192C22.3916 35.6453 22.7794 36.7372 23.4897 37.6111C24.2 38.485 25.1896 39.0876 26.292 39.3177C27.3945 39.5478 28.5425 39.3913 29.5431 38.8745C30.5437 38.3577 31.3358 37.5121 31.7863 36.4799H35.6314L37.5922 37.9505L39.553 36.4799H42.0039L42.9843 32.5584H31.7863Z" stroke="#5E58D0" stroke-width="1.96078" stroke-linecap="round" stroke-linejoin="round"/>
<path d="M17.978 25.6953H46.4094" stroke="#5E58D0" stroke-width="1.96078" stroke-linecap="round" stroke-linejoin="round"/>
<path d="M46.4094 19.8125H17.978V43.3419H46.4094V19.8125Z" stroke="#5E58D0" stroke-width="1.96078" stroke-linecap="round" stroke-linejoin="round"/>
<path d="M21.4091 23.7342C21.9506 23.7342 22.3895 23.2953 22.3895 22.7538C22.3895 22.2124 21.9506 21.7734 21.4091 21.7734C20.8676 21.7734 20.4287 22.2124 20.4287 22.7538C20.4287 23.2953 20.8676 23.7342 21.4091 23.7342Z" fill="#5E58D0"/>
<path d="M25.331 23.7342C25.8724 23.7342 26.3114 23.2953 26.3114 22.7538C26.3114 22.2124 25.8724 21.7734 25.331 21.7734C24.7895 21.7734 24.3506 22.2124 24.3506 22.7538C24.3506 23.2953 24.7895 23.7342 25.331 23.7342Z" fill="#5E58D0"/>
</g>
</g>
</g>
<defs>
<clipPath id="clip0_226_882">
<rect width="31.3726" height="31.3725" fill="white" transform="translate(16.5083 15.8906)"/>
</clipPath>
<clipPath id="clip1_226_882">
<rect width="31.3726" height="31.3725" fill="white" transform="translate(16.5078 15.8906)"/>
</clipPath>
<clipPath id="clip2_226_882">
<rect width="31.3726" height="31.3725" fill="white" transform="translate(16.5078 15.8906)"/>
</clipPath>
</defs>
</svg>
