<svg width="150" height="151" viewBox="0 0 150 151" fill="none" xmlns="http://www.w3.org/2000/svg">
<rect width="124" height="124" transform="translate(14.5 15.1831)" fill="#D9D9D9" fill-opacity="0.6"/>
<g clip-path="url(#clip0_1498_59386)">
<g clip-path="url(#clip1_1498_59386)">
<g clip-path="url(#clip2_1498_59386)">
<path fill-rule="evenodd" clip-rule="evenodd" d="M60.3991 83.889C59.6582 83.889 59.0577 84.4896 59.0577 85.2304C59.0577 85.9712 59.6582 86.5717 60.3991 86.5717C61.1399 86.5717 61.7404 85.9712 61.7404 85.2304C61.7404 84.4896 61.1399 83.889 60.3991 83.889ZM53.6923 85.2304C53.6923 81.5263 56.695 78.5236 60.3991 78.5236C64.1031 78.5236 67.1058 81.5263 67.1058 85.2304C67.1058 88.9344 64.1031 91.9371 60.3991 91.9371C56.695 91.9371 53.6923 88.9344 53.6923 85.2304Z" fill="#5E58D0"/>
<path fill-rule="evenodd" clip-rule="evenodd" d="M59.7982 69.4746C63.4181 68.7191 67.1878 69.2331 70.4734 70.9301C73.2223 72.3499 75.4921 74.5254 77.0265 77.1832H106.022C106.848 77.1832 107.628 77.5638 108.137 78.2149C108.645 78.866 108.825 79.7151 108.625 80.5165L105.942 91.2473C105.644 92.4415 104.57 93.2793 103.339 93.2793H97.527L92.877 96.7668C91.9231 97.4822 90.6116 97.4822 89.6577 96.7668L85.0077 93.2793H77.0265C75.4921 95.9371 73.2223 98.1126 70.4734 99.5325C67.1878 101.229 63.4181 101.743 59.7982 100.988C56.1783 100.232 52.9289 98.2534 50.5964 95.3839C48.2639 92.5144 46.9907 88.9292 46.9907 85.2313C46.9907 81.5333 48.2639 77.9482 50.5964 75.0786C52.9289 72.2091 56.1783 70.2302 59.7982 69.4746ZM68.0112 75.6971C65.8208 74.5658 63.3077 74.2232 60.8944 74.7268C58.4811 75.2305 56.3149 76.5498 54.7599 78.4628C53.2049 80.3759 52.356 82.766 52.356 85.2313C52.356 87.6965 53.2049 90.0867 54.7599 91.9997C56.3149 93.9127 58.4811 95.232 60.8944 95.7357C63.3077 96.2394 65.8208 95.8967 68.0112 94.7654C70.2016 93.6341 71.9356 91.783 72.9217 89.5236C73.3484 88.5459 74.3138 87.9139 75.3805 87.9139H85.902C86.4824 87.9139 87.0472 88.1022 87.5116 88.4505L91.2674 91.2673L95.0231 88.4505C95.4875 88.1022 96.0523 87.9139 96.6327 87.9139H101.245L102.586 82.5486H75.3805C74.3138 82.5486 73.3484 81.9166 72.9217 80.939C71.9356 78.6795 70.2016 76.8284 68.0112 75.6971Z" fill="#5E58D0"/>
<path fill-rule="evenodd" clip-rule="evenodd" d="M34.9116 61.0863C34.9116 59.6047 36.1126 58.4036 37.5943 58.4036H115.392C116.874 58.4036 118.075 59.6047 118.075 61.0863C118.075 62.5679 116.874 63.769 115.392 63.769H37.5943C36.1126 63.769 34.9116 62.5679 34.9116 61.0863Z" fill="#5E58D0"/>
<path fill-rule="evenodd" clip-rule="evenodd" d="M34.9115 44.9892C34.9115 43.5076 36.1126 42.3065 37.5942 42.3065H115.392C116.874 42.3065 118.075 43.5076 118.075 44.9892V109.374C118.075 110.855 116.874 112.056 115.392 112.056H37.5942C36.1126 112.056 34.9115 110.855 34.9115 109.374V44.9892ZM40.2769 47.6719V106.691H112.71V47.6719H40.2769Z" fill="#5E58D0"/>
<path d="M46.9835 55.719C48.4651 55.719 49.6662 54.518 49.6662 53.0363C49.6662 51.5547 48.4651 50.3537 46.9835 50.3537C45.5019 50.3537 44.3008 51.5547 44.3008 53.0363C44.3008 54.518 45.5019 55.719 46.9835 55.719Z" fill="#5E58D0"/>
<path d="M57.7149 55.719C59.1965 55.719 60.3975 54.518 60.3975 53.0363C60.3975 51.5547 59.1965 50.3537 57.7149 50.3537C56.2332 50.3537 55.0322 51.5547 55.0322 53.0363C55.0322 54.518 56.2332 55.719 57.7149 55.719Z" fill="#5E58D0"/>
</g>
</g>
</g>
<defs>
<clipPath id="clip0_1498_59386">
<rect width="149.623" height="149.623" fill="white" transform="translate(0.194092 0.875549)"/>
</clipPath>
<clipPath id="clip1_1498_59386">
<rect width="85.8461" height="85.8461" fill="white" transform="translate(33.5763 34.2601)"/>
</clipPath>
<clipPath id="clip2_1498_59386">
<rect width="149.623" height="149.623" fill="white" transform="translate(33.5725 34.2594)"/>
</clipPath>
</defs>
</svg>
