<svg width="270" height="270" viewBox="0 0 270 270" fill="none" xmlns="http://www.w3.org/2000/svg">
<mask id="mask0_339_1296" style="mask-type:alpha" maskUnits="userSpaceOnUse" x="28" y="140" width="98" height="98">
<path d="M28.4974 140.752H125.481V237.735H28.4974V140.752Z" fill="#D9D9D9"/>
</mask>
<g mask="url(#mask0_339_1296)">
<path d="M48.7025 225.612V177.12H60.8254V169.038C60.8254 164.536 62.394 160.716 65.5311 157.58C68.6676 154.443 72.487 152.874 76.9893 152.874C81.4916 152.874 85.311 154.443 88.4475 157.58C91.5846 160.716 93.1532 164.536 93.1532 169.038V177.12H105.276V225.612H48.7025ZM52.7434 221.571H101.235V181.161H52.7434V221.571ZM76.9893 207.427C78.6939 207.427 80.1301 206.843 81.298 205.675C82.4665 204.507 83.0507 203.071 83.0507 201.366C83.0507 199.661 82.4665 198.225 81.298 197.057C80.1301 195.889 78.6939 195.305 76.9893 195.305C75.2847 195.305 73.8484 195.889 72.6806 197.057C71.5121 198.225 70.9278 199.661 70.9278 201.366C70.9278 203.071 71.5121 204.507 72.6806 205.675C73.8484 206.843 75.2847 207.427 76.9893 207.427ZM64.8664 177.12H89.1122V169.038C89.1122 165.671 87.9336 162.808 85.5764 160.451C83.2191 158.094 80.3568 156.915 76.9893 156.915C73.6218 156.915 70.7594 158.094 68.4022 160.451C66.045 162.808 64.8664 165.671 64.8664 169.038V177.12Z" fill="url(#paint0_linear_339_1296)"/>
<path d="M48.7025 225.612V177.12H60.8254V169.038C60.8254 164.536 62.394 160.716 65.5311 157.58C68.6676 154.443 72.487 152.874 76.9893 152.874C81.4916 152.874 85.311 154.443 88.4475 157.58C91.5846 160.716 93.1532 164.536 93.1532 169.038V177.12H105.276V225.612H48.7025ZM52.7434 221.571H101.235V181.161H52.7434V221.571ZM76.9893 207.427C78.6939 207.427 80.1301 206.843 81.298 205.675C82.4665 204.507 83.0507 203.071 83.0507 201.366C83.0507 199.661 82.4665 198.225 81.298 197.057C80.1301 195.889 78.6939 195.305 76.9893 195.305C75.2847 195.305 73.8484 195.889 72.6806 197.057C71.5121 198.225 70.9278 199.661 70.9278 201.366C70.9278 203.071 71.5121 204.507 72.6806 205.675C73.8484 206.843 75.2847 207.427 76.9893 207.427ZM64.8664 177.12H89.1122V169.038C89.1122 165.671 87.9336 162.808 85.5764 160.451C83.2191 158.094 80.3568 156.915 76.9893 156.915C73.6218 156.915 70.7594 158.094 68.4022 160.451C66.045 162.808 64.8664 165.671 64.8664 169.038V177.12Z" fill="url(#paint1_radial_339_1296)" style="mix-blend-mode:overlay"/>
</g>
<path fill-rule="evenodd" clip-rule="evenodd" d="M75.7487 61.7512H148.999V64.2512H78.2487V148.251H75.7487V61.7512Z" fill="url(#paint2_linear_339_1296)"/>
<path fill-rule="evenodd" clip-rule="evenodd" d="M75.7487 61.7512H148.999V64.2512H78.2487V148.251H75.7487V61.7512Z" fill="url(#paint3_radial_339_1296)" style="mix-blend-mode:overlay"/>
<path fill-rule="evenodd" clip-rule="evenodd" d="M184.751 119.499V205.999H110.501V203.499H182.251V119.499H184.751Z" fill="url(#paint4_linear_339_1296)"/>
<path fill-rule="evenodd" clip-rule="evenodd" d="M184.751 119.499V205.999H110.501V203.499H182.251V119.499H184.751Z" fill="url(#paint5_radial_339_1296)" style="mix-blend-mode:overlay"/>
<path fill-rule="evenodd" clip-rule="evenodd" d="M91.7513 80.2507H145.501V81.7507H91.7513V80.2507Z" fill="url(#paint6_linear_339_1296)"/>
<path fill-rule="evenodd" clip-rule="evenodd" d="M91.7513 80.2507H145.501V81.7507H91.7513V80.2507Z" fill="url(#paint7_radial_339_1296)" style="mix-blend-mode:overlay"/>
<path fill-rule="evenodd" clip-rule="evenodd" d="M133.75 86.9988H147.25V88.4988H133.75V86.9988Z" fill="url(#paint8_linear_339_1296)"/>
<path fill-rule="evenodd" clip-rule="evenodd" d="M133.75 86.9988H147.25V88.4988H133.75V86.9988Z" fill="url(#paint9_radial_339_1296)" style="mix-blend-mode:overlay"/>
<path fill-rule="evenodd" clip-rule="evenodd" d="M91.7529 86.8718L130.878 86.9952L130.873 88.4952L91.7482 88.3718L91.7529 86.8718Z" fill="url(#paint10_linear_339_1296)"/>
<path fill-rule="evenodd" clip-rule="evenodd" d="M91.7529 86.8718L130.878 86.9952L130.873 88.4952L91.7482 88.3718L91.7529 86.8718Z" fill="url(#paint11_radial_339_1296)" style="mix-blend-mode:overlay"/>
<path fill-rule="evenodd" clip-rule="evenodd" d="M91.7513 93.4993H148.501V94.9993H91.7513V93.4993Z" fill="url(#paint12_linear_339_1296)"/>
<path fill-rule="evenodd" clip-rule="evenodd" d="M91.7513 93.4993H148.501V94.9993H91.7513V93.4993Z" fill="url(#paint13_radial_339_1296)" style="mix-blend-mode:overlay"/>
<path fill-rule="evenodd" clip-rule="evenodd" d="M91.9987 100.251H151.499V101.751H91.9987V100.251Z" fill="url(#paint14_linear_339_1296)"/>
<path fill-rule="evenodd" clip-rule="evenodd" d="M91.9987 100.251H151.499V101.751H91.9987V100.251Z" fill="url(#paint15_radial_339_1296)" style="mix-blend-mode:overlay"/>
<path fill-rule="evenodd" clip-rule="evenodd" d="M91.875 106.751H138.875V108.251H91.875V106.751Z" fill="url(#paint16_linear_339_1296)"/>
<path fill-rule="evenodd" clip-rule="evenodd" d="M91.875 106.751H138.875V108.251H91.875V106.751Z" fill="url(#paint17_radial_339_1296)" style="mix-blend-mode:overlay"/>
<path fill-rule="evenodd" clip-rule="evenodd" d="M91.875 113.499H157.125V114.999H91.875V113.499Z" fill="url(#paint18_linear_339_1296)"/>
<path fill-rule="evenodd" clip-rule="evenodd" d="M91.875 113.499H157.125V114.999H91.875V113.499Z" fill="url(#paint19_radial_339_1296)" style="mix-blend-mode:overlay"/>
<path fill-rule="evenodd" clip-rule="evenodd" d="M91.7513 120H168.751V121.5H91.7513V120Z" fill="url(#paint20_linear_339_1296)"/>
<path fill-rule="evenodd" clip-rule="evenodd" d="M91.7513 120H168.751V121.5H91.7513V120Z" fill="url(#paint21_radial_339_1296)" style="mix-blend-mode:overlay"/>
<path fill-rule="evenodd" clip-rule="evenodd" d="M117.749 126.501L168.749 126.501L168.749 128.001L117.749 128.001L117.749 126.501Z" fill="url(#paint22_linear_339_1296)"/>
<path fill-rule="evenodd" clip-rule="evenodd" d="M117.749 126.501L168.749 126.501L168.749 128.001L117.749 128.001L117.749 126.501Z" fill="url(#paint23_radial_339_1296)" style="mix-blend-mode:overlay"/>
<path fill-rule="evenodd" clip-rule="evenodd" d="M91.875 126.501H115.625V128.001H91.875V126.501Z" fill="url(#paint24_linear_339_1296)"/>
<path fill-rule="evenodd" clip-rule="evenodd" d="M91.875 126.501H115.625V128.001H91.875V126.501Z" fill="url(#paint25_radial_339_1296)" style="mix-blend-mode:overlay"/>
<path fill-rule="evenodd" clip-rule="evenodd" d="M91.7513 133.249H168.751V134.749H91.7513V133.249Z" fill="url(#paint26_linear_339_1296)"/>
<path fill-rule="evenodd" clip-rule="evenodd" d="M91.7513 133.249H168.751V134.749H91.7513V133.249Z" fill="url(#paint27_radial_339_1296)" style="mix-blend-mode:overlay"/>
<path fill-rule="evenodd" clip-rule="evenodd" d="M91.7513 139.749H168.751V141.249H91.7513V139.749Z" fill="url(#paint28_linear_339_1296)"/>
<path fill-rule="evenodd" clip-rule="evenodd" d="M91.7513 139.749H168.751V141.249H91.7513V139.749Z" fill="url(#paint29_radial_339_1296)" style="mix-blend-mode:overlay"/>
<path fill-rule="evenodd" clip-rule="evenodd" d="M91.7513 146.501H168.751V148.001H91.7513V146.501Z" fill="url(#paint30_linear_339_1296)"/>
<path fill-rule="evenodd" clip-rule="evenodd" d="M91.7513 146.501H168.751V148.001H91.7513V146.501Z" fill="url(#paint31_radial_339_1296)" style="mix-blend-mode:overlay"/>
<path fill-rule="evenodd" clip-rule="evenodd" d="M91.7513 153.001H168.751V154.501H91.7513V153.001Z" fill="url(#paint32_linear_339_1296)"/>
<path fill-rule="evenodd" clip-rule="evenodd" d="M91.7513 153.001H168.751V154.501H91.7513V153.001Z" fill="url(#paint33_radial_339_1296)" style="mix-blend-mode:overlay"/>
<path fill-rule="evenodd" clip-rule="evenodd" d="M95 159.749H144V161.249H95V159.749Z" fill="url(#paint34_linear_339_1296)"/>
<path fill-rule="evenodd" clip-rule="evenodd" d="M95 159.749H144V161.249H95V159.749Z" fill="url(#paint35_radial_339_1296)" style="mix-blend-mode:overlay"/>
<path fill-rule="evenodd" clip-rule="evenodd" d="M155.749 166.501H168.749V168.001H155.749V166.501Z" fill="url(#paint36_linear_339_1296)"/>
<path fill-rule="evenodd" clip-rule="evenodd" d="M155.749 166.501H168.749V168.001H155.749V166.501Z" fill="url(#paint37_radial_339_1296)" style="mix-blend-mode:overlay"/>
<path fill-rule="evenodd" clip-rule="evenodd" d="M96.7513 166.501H153.251V168.001H96.7513V166.501Z" fill="url(#paint38_linear_339_1296)"/>
<path fill-rule="evenodd" clip-rule="evenodd" d="M96.7513 166.501H153.251V168.001H96.7513V166.501Z" fill="url(#paint39_radial_339_1296)" style="mix-blend-mode:overlay"/>
<mask id="mask1_339_1296" style="mask-type:alpha" maskUnits="userSpaceOnUse" x="135" y="30" width="98" height="99">
<path d="M135 30.9988H232.25V128.249H135V30.9988Z" fill="#D9D9D9"/>
</mask>
<g mask="url(#mask1_339_1296)">
<path d="M179.37 91.2029L199.46 71.1137L196.568 68.2225L179.37 85.4206L170.705 76.7552L167.814 79.6463L179.37 91.2029ZM183.625 115.936C175.484 113.52 168.722 108.589 163.337 101.142C157.953 93.6946 155.26 85.3061 155.26 75.9762V54.0635L183.625 43.4663L211.99 54.0635V75.9762C211.99 85.3061 209.297 93.6946 203.913 101.142C198.528 108.589 191.766 113.52 183.625 115.936ZM183.625 111.634C190.649 109.406 196.457 104.949 201.049 98.2626C205.641 91.5767 207.938 84.1479 207.938 75.9762V56.8301L183.625 47.7909L159.313 56.8301V75.9762C159.313 84.1479 161.609 91.5767 166.201 98.2626C170.793 104.949 176.601 109.406 183.625 111.634Z" fill="url(#paint40_linear_339_1296)"/>
<path d="M179.37 91.2029L199.46 71.1137L196.568 68.2225L179.37 85.4206L170.705 76.7552L167.814 79.6463L179.37 91.2029ZM183.625 115.936C175.484 113.52 168.722 108.589 163.337 101.142C157.953 93.6946 155.26 85.3061 155.26 75.9762V54.0635L183.625 43.4663L211.99 54.0635V75.9762C211.99 85.3061 209.297 93.6946 203.913 101.142C198.528 108.589 191.766 113.52 183.625 115.936ZM183.625 111.634C190.649 109.406 196.457 104.949 201.049 98.2626C205.641 91.5767 207.938 84.1479 207.938 75.9762V56.8301L183.625 47.7909L159.313 56.8301V75.9762C159.313 84.1479 161.609 91.5767 166.201 98.2626C170.793 104.949 176.601 109.406 183.625 111.634Z" fill="url(#paint41_radial_339_1296)" style="mix-blend-mode:overlay"/>
</g>
<defs>
<linearGradient id="paint0_linear_339_1296" x1="48.7025" y1="201.066" x2="108.959" y2="184.838" gradientUnits="userSpaceOnUse">
<stop offset="0.0677083" stop-color="#4D5455"/>
<stop offset="0.21875" stop-color="#9EA1A1"/>
<stop offset="0.453125" stop-color="#848B8A"/>
<stop offset="0.524381" stop-color="#535D5E"/>
<stop offset="0.796875" stop-color="#4B5355"/>
<stop offset="0.895833" stop-color="#757A7B"/>
<stop offset="1" stop-color="#4D5455"/>
</linearGradient>
<radialGradient id="paint1_radial_339_1296" cx="0" cy="0" r="1" gradientUnits="userSpaceOnUse" gradientTransform="translate(48.7025 146.577) rotate(65.9823) scale(63.7338 58.0175)">
<stop stop-color="white"/>
<stop offset="1" stop-color="white" stop-opacity="0"/>
</radialGradient>
<linearGradient id="paint2_linear_339_1296" x1="75.7487" y1="119.061" x2="152.8" y2="96.4676" gradientUnits="userSpaceOnUse">
<stop offset="0.0677083" stop-color="#4D5455"/>
<stop offset="0.21875" stop-color="#9EA1A1"/>
<stop offset="0.453125" stop-color="#848B8A"/>
<stop offset="0.524381" stop-color="#535D5E"/>
<stop offset="0.796875" stop-color="#4B5355"/>
<stop offset="0.895833" stop-color="#757A7B"/>
<stop offset="1" stop-color="#4D5455"/>
</linearGradient>
<radialGradient id="paint3_radial_339_1296" cx="0" cy="0" r="1" gradientUnits="userSpaceOnUse" gradientTransform="translate(75.7487 54.2627) rotate(64.1195) scale(76.948 73.9917)">
<stop stop-color="white"/>
<stop offset="1" stop-color="white" stop-opacity="0"/>
</radialGradient>
<linearGradient id="paint4_linear_339_1296" x1="110.501" y1="176.809" x2="188.435" y2="153.644" gradientUnits="userSpaceOnUse">
<stop offset="0.21875" stop-color="#9EA1A1"/>
<stop offset="0.453125" stop-color="#848B8A"/>
<stop offset="0.524381" stop-color="#535D5E"/>
<stop offset="0.895833" stop-color="#757A7B"/>
</linearGradient>
<radialGradient id="paint5_radial_339_1296" cx="0" cy="0" r="1" gradientUnits="userSpaceOnUse" gradientTransform="translate(110.501 112.01) rotate(63.8131) scale(77.1492 74.8062)">
<stop stop-color="white"/>
<stop offset="1" stop-color="white" stop-opacity="0"/>
</radialGradient>
<linearGradient id="paint6_linear_339_1296" x1="91.7513" y1="81.2445" x2="92.1475" y2="76.328" gradientUnits="userSpaceOnUse">
<stop offset="0.21875" stop-color="#9EA1A1"/>
<stop offset="0.453125" stop-color="#848B8A"/>
<stop offset="0.524381" stop-color="#535D5E"/>
<stop offset="0.895833" stop-color="#757A7B"/>
</linearGradient>
<radialGradient id="paint7_radial_339_1296" cx="0" cy="0" r="1" gradientUnits="userSpaceOnUse" gradientTransform="translate(91.7513 80.1209) rotate(2.78871) scale(24.6754 2.93604)">
<stop stop-color="white"/>
<stop offset="1" stop-color="white" stop-opacity="0"/>
</radialGradient>
<linearGradient id="paint8_linear_339_1296" x1="133.75" y1="87.9926" x2="135.19" y2="83.506" gradientUnits="userSpaceOnUse">
<stop offset="0.21875" stop-color="#9EA1A1"/>
<stop offset="0.453125" stop-color="#848B8A"/>
<stop offset="0.524381" stop-color="#535D5E"/>
<stop offset="0.895833" stop-color="#757A7B"/>
</linearGradient>
<radialGradient id="paint9_radial_339_1296" cx="0" cy="0" r="1" gradientUnits="userSpaceOnUse" gradientTransform="translate(133.75 86.8689) rotate(10.9757) scale(6.30553 2.88576)">
<stop stop-color="white"/>
<stop offset="1" stop-color="white" stop-opacity="0"/>
</radialGradient>
<linearGradient id="paint10_linear_339_1296" x1="91.7498" y1="87.8656" x2="92.3065" y2="82.9788" gradientUnits="userSpaceOnUse">
<stop offset="0.21875" stop-color="#9EA1A1"/>
<stop offset="0.453125" stop-color="#848B8A"/>
<stop offset="0.524381" stop-color="#535D5E"/>
<stop offset="0.895833" stop-color="#757A7B"/>
</linearGradient>
<radialGradient id="paint11_radial_339_1296" cx="0" cy="0" r="1" gradientUnits="userSpaceOnUse" gradientTransform="translate(91.7533 86.742) rotate(4.00918) scale(17.9803 2.93297)">
<stop stop-color="white"/>
<stop offset="1" stop-color="white" stop-opacity="0"/>
</radialGradient>
<linearGradient id="paint12_linear_339_1296" x1="91.7513" y1="94.4931" x2="92.1268" y2="89.5732" gradientUnits="userSpaceOnUse">
<stop offset="0.21875" stop-color="#9EA1A1"/>
<stop offset="0.453125" stop-color="#848B8A"/>
<stop offset="0.524381" stop-color="#535D5E"/>
<stop offset="0.895833" stop-color="#757A7B"/>
</linearGradient>
<radialGradient id="paint13_radial_339_1296" cx="0" cy="0" r="1" gradientUnits="userSpaceOnUse" gradientTransform="translate(91.7513 93.3694) rotate(2.64151) scale(26.0494 2.9364)">
<stop stop-color="white"/>
<stop offset="1" stop-color="white" stop-opacity="0"/>
</radialGradient>
<linearGradient id="paint14_linear_339_1296" x1="91.9987" y1="101.245" x2="92.3571" y2="96.3221" gradientUnits="userSpaceOnUse">
<stop offset="0.21875" stop-color="#9EA1A1"/>
<stop offset="0.453125" stop-color="#848B8A"/>
<stop offset="0.524381" stop-color="#535D5E"/>
<stop offset="0.895833" stop-color="#757A7B"/>
</linearGradient>
<radialGradient id="paint15_radial_339_1296" cx="0" cy="0" r="1" gradientUnits="userSpaceOnUse" gradientTransform="translate(91.9987 100.121) rotate(2.51958) scale(27.3091 2.93668)">
<stop stop-color="white"/>
<stop offset="1" stop-color="white" stop-opacity="0"/>
</radialGradient>
<linearGradient id="paint16_linear_339_1296" x1="91.875" y1="107.745" x2="92.3273" y2="102.838" gradientUnits="userSpaceOnUse">
<stop offset="0.21875" stop-color="#9EA1A1"/>
<stop offset="0.453125" stop-color="#848B8A"/>
<stop offset="0.524381" stop-color="#535D5E"/>
<stop offset="0.895833" stop-color="#757A7B"/>
</linearGradient>
<radialGradient id="paint17_radial_339_1296" cx="0" cy="0" r="1" gradientUnits="userSpaceOnUse" gradientTransform="translate(91.875 106.621) rotate(3.18844) scale(21.5844 2.93498)">
<stop stop-color="white"/>
<stop offset="1" stop-color="white" stop-opacity="0"/>
</radialGradient>
<linearGradient id="paint18_linear_339_1296" x1="91.875" y1="114.493" x2="92.2021" y2="109.566" gradientUnits="userSpaceOnUse">
<stop offset="0.21875" stop-color="#9EA1A1"/>
<stop offset="0.453125" stop-color="#848B8A"/>
<stop offset="0.524381" stop-color="#535D5E"/>
<stop offset="0.895833" stop-color="#757A7B"/>
</linearGradient>
<radialGradient id="paint19_radial_339_1296" cx="0" cy="0" r="1" gradientUnits="userSpaceOnUse" gradientTransform="translate(91.875 113.369) rotate(2.2978) scale(29.9433 2.93716)">
<stop stop-color="white"/>
<stop offset="1" stop-color="white" stop-opacity="0"/>
</radialGradient>
<linearGradient id="paint20_linear_339_1296" x1="91.7513" y1="120.994" x2="92.0288" y2="116.061" gradientUnits="userSpaceOnUse">
<stop offset="0.21875" stop-color="#9EA1A1"/>
<stop offset="0.453125" stop-color="#848B8A"/>
<stop offset="0.524381" stop-color="#535D5E"/>
<stop offset="0.895833" stop-color="#757A7B"/>
</linearGradient>
<radialGradient id="paint21_radial_339_1296" cx="0" cy="0" r="1" gradientUnits="userSpaceOnUse" gradientTransform="translate(91.7513 119.87) rotate(1.94745) scale(35.3274 2.93783)">
<stop stop-color="white"/>
<stop offset="1" stop-color="white" stop-opacity="0"/>
</radialGradient>
<linearGradient id="paint22_linear_339_1296" x1="117.749" y1="127.495" x2="118.166" y2="122.581" gradientUnits="userSpaceOnUse">
<stop offset="0.21875" stop-color="#9EA1A1"/>
<stop offset="0.453125" stop-color="#848B8A"/>
<stop offset="0.524381" stop-color="#535D5E"/>
<stop offset="0.895833" stop-color="#757A7B"/>
</linearGradient>
<radialGradient id="paint23_radial_339_1296" cx="0" cy="0" r="1" gradientUnits="userSpaceOnUse" gradientTransform="translate(117.749 126.371) rotate(2.93883) scale(23.416 2.93566)">
<stop stop-color="white"/>
<stop offset="1" stop-color="white" stop-opacity="0"/>
</radialGradient>
<linearGradient id="paint24_linear_339_1296" x1="91.875" y1="127.495" x2="92.7485" y2="122.705" gradientUnits="userSpaceOnUse">
<stop offset="0.21875" stop-color="#9EA1A1"/>
<stop offset="0.453125" stop-color="#848B8A"/>
<stop offset="0.524381" stop-color="#535D5E"/>
<stop offset="0.895833" stop-color="#757A7B"/>
</linearGradient>
<radialGradient id="paint25_radial_339_1296" cx="0" cy="0" r="1" gradientUnits="userSpaceOnUse" gradientTransform="translate(91.875 126.371) rotate(6.29088) scale(10.9561 2.92183)">
<stop stop-color="white"/>
<stop offset="1" stop-color="white" stop-opacity="0"/>
</radialGradient>
<linearGradient id="paint26_linear_339_1296" x1="91.7513" y1="134.243" x2="92.0288" y2="129.31" gradientUnits="userSpaceOnUse">
<stop offset="0.21875" stop-color="#9EA1A1"/>
<stop offset="0.453125" stop-color="#848B8A"/>
<stop offset="0.524381" stop-color="#535D5E"/>
<stop offset="0.895833" stop-color="#757A7B"/>
</linearGradient>
<radialGradient id="paint27_radial_339_1296" cx="0" cy="0" r="1" gradientUnits="userSpaceOnUse" gradientTransform="translate(91.7513 133.119) rotate(1.94745) scale(35.3274 2.93783)">
<stop stop-color="white"/>
<stop offset="1" stop-color="white" stop-opacity="0"/>
</radialGradient>
<linearGradient id="paint28_linear_339_1296" x1="91.7513" y1="140.743" x2="92.0288" y2="135.81" gradientUnits="userSpaceOnUse">
<stop offset="0.21875" stop-color="#9EA1A1"/>
<stop offset="0.453125" stop-color="#848B8A"/>
<stop offset="0.524381" stop-color="#535D5E"/>
<stop offset="0.895833" stop-color="#757A7B"/>
</linearGradient>
<radialGradient id="paint29_radial_339_1296" cx="0" cy="0" r="1" gradientUnits="userSpaceOnUse" gradientTransform="translate(91.7513 139.619) rotate(1.94745) scale(35.3274 2.93783)">
<stop stop-color="white"/>
<stop offset="1" stop-color="white" stop-opacity="0"/>
</radialGradient>
<linearGradient id="paint30_linear_339_1296" x1="91.7513" y1="147.495" x2="92.0288" y2="142.562" gradientUnits="userSpaceOnUse">
<stop offset="0.21875" stop-color="#9EA1A1"/>
<stop offset="0.453125" stop-color="#848B8A"/>
<stop offset="0.524381" stop-color="#535D5E"/>
<stop offset="0.895833" stop-color="#757A7B"/>
</linearGradient>
<radialGradient id="paint31_radial_339_1296" cx="0" cy="0" r="1" gradientUnits="userSpaceOnUse" gradientTransform="translate(91.7513 146.371) rotate(1.94745) scale(35.3274 2.93783)">
<stop stop-color="white"/>
<stop offset="1" stop-color="white" stop-opacity="0"/>
</radialGradient>
<linearGradient id="paint32_linear_339_1296" x1="91.7513" y1="153.995" x2="92.0288" y2="149.062" gradientUnits="userSpaceOnUse">
<stop offset="0.21875" stop-color="#9EA1A1"/>
<stop offset="0.453125" stop-color="#848B8A"/>
<stop offset="0.524381" stop-color="#535D5E"/>
<stop offset="0.895833" stop-color="#757A7B"/>
</linearGradient>
<radialGradient id="paint33_radial_339_1296" cx="0" cy="0" r="1" gradientUnits="userSpaceOnUse" gradientTransform="translate(91.7513 152.871) rotate(1.94745) scale(35.3274 2.93783)">
<stop stop-color="white"/>
<stop offset="1" stop-color="white" stop-opacity="0"/>
</radialGradient>
<linearGradient id="paint34_linear_339_1296" x1="95" y1="160.743" x2="95.4341" y2="155.833" gradientUnits="userSpaceOnUse">
<stop offset="0.21875" stop-color="#9EA1A1"/>
<stop offset="0.453125" stop-color="#848B8A"/>
<stop offset="0.524381" stop-color="#535D5E"/>
<stop offset="0.895833" stop-color="#757A7B"/>
</linearGradient>
<radialGradient id="paint35_radial_339_1296" cx="0" cy="0" r="1" gradientUnits="userSpaceOnUse" gradientTransform="translate(95 159.619) rotate(3.05856) scale(22.5002 2.93534)">
<stop stop-color="white"/>
<stop offset="1" stop-color="white" stop-opacity="0"/>
</radialGradient>
<linearGradient id="paint36_linear_339_1296" x1="155.749" y1="167.495" x2="157.233" y2="163.041" gradientUnits="userSpaceOnUse">
<stop offset="0.21875" stop-color="#9EA1A1"/>
<stop offset="0.453125" stop-color="#848B8A"/>
<stop offset="0.524381" stop-color="#535D5E"/>
<stop offset="0.895833" stop-color="#757A7B"/>
</linearGradient>
<radialGradient id="paint37_radial_339_1296" cx="0" cy="0" r="1" gradientUnits="userSpaceOnUse" gradientTransform="translate(155.749 166.371) rotate(11.387) scale(6.08062 2.88166)">
<stop stop-color="white"/>
<stop offset="1" stop-color="white" stop-opacity="0"/>
</radialGradient>
<linearGradient id="paint38_linear_339_1296" x1="96.7513" y1="167.495" x2="97.1285" y2="162.575" gradientUnits="userSpaceOnUse">
<stop offset="0.21875" stop-color="#9EA1A1"/>
<stop offset="0.453125" stop-color="#848B8A"/>
<stop offset="0.524381" stop-color="#535D5E"/>
<stop offset="0.895833" stop-color="#757A7B"/>
</linearGradient>
<radialGradient id="paint39_radial_339_1296" cx="0" cy="0" r="1" gradientUnits="userSpaceOnUse" gradientTransform="translate(96.7513 166.371) rotate(2.65318) scale(25.9349 2.93638)">
<stop stop-color="white"/>
<stop offset="1" stop-color="white" stop-opacity="0"/>
</radialGradient>
<linearGradient id="paint40_linear_339_1296" x1="155.26" y1="91.4805" x2="215.629" y2="75.117" gradientUnits="userSpaceOnUse">
<stop offset="0.0677083" stop-color="#4D5455"/>
<stop offset="0.21875" stop-color="#9EA1A1"/>
<stop offset="0.453125" stop-color="#848B8A"/>
<stop offset="0.524381" stop-color="#535D5E"/>
<stop offset="0.796875" stop-color="#4B5355"/>
<stop offset="0.895833" stop-color="#757A7B"/>
<stop offset="1" stop-color="#4D5455"/>
</linearGradient>
<radialGradient id="paint41_radial_339_1296" cx="0" cy="0" r="1" gradientUnits="userSpaceOnUse" gradientTransform="translate(155.26 37.1925) rotate(65.8449) scale(63.5671 58.1147)">
<stop stop-color="white"/>
<stop offset="1" stop-color="white" stop-opacity="0"/>
</radialGradient>
</defs>
</svg>
