<svg width="18" height="18" viewBox="0 0 18 18" fill="none" xmlns="http://www.w3.org/2000/svg">
<mask id="mask0_765_21107" style="mask-type:alpha" maskUnits="userSpaceOnUse" x="0" y="0" width="18" height="18">
<rect width="18" height="18" fill="#D9D9D9"/>
</mask>
<g mask="url(#mask0_765_21107)">
<path d="M12.4587 9.56262H3.9375C3.77789 9.56262 3.64424 9.50877 3.53655 9.40109C3.42885 9.2934 3.375 9.15975 3.375 9.00014C3.375 8.84053 3.42885 8.70687 3.53655 8.59919C3.64424 8.4915 3.77789 8.43766 3.9375 8.43766H12.4587L9.9894 5.96839C9.87786 5.85686 9.82282 5.72633 9.82427 5.57682C9.82571 5.42731 9.88075 5.29437 9.9894 5.17802C10.1058 5.06169 10.2394 5.00159 10.3904 4.99774C10.5413 4.99389 10.675 5.05014 10.7913 5.16649L14.1504 8.52563C14.2206 8.59582 14.2701 8.66986 14.299 8.74774C14.3278 8.82562 14.3423 8.90975 14.3423 9.00014C14.3423 9.09053 14.3278 9.17466 14.299 9.25253C14.2701 9.33042 14.2206 9.40446 14.1504 9.47464L10.7913 12.8338C10.6798 12.9453 10.5473 13.0004 10.394 12.9989C10.2406 12.9975 10.1058 12.9386 9.9894 12.8222C9.88075 12.7059 9.8245 12.5742 9.82065 12.4271C9.81681 12.2799 9.87306 12.1482 9.9894 12.0319L12.4587 9.56262Z" fill="white"/>
</g>
</svg>
