<svg width="12" height="9" viewBox="0 0 12 9" fill="none" xmlns="http://www.w3.org/2000/svg">
<path d="M9.95866 5.11181H1.4375C1.27789 5.11181 1.14424 5.05797 1.03655 4.95028C0.92885 4.84259 0.875 4.70894 0.875 4.54933C0.875 4.38972 0.92885 4.25607 1.03655 4.14838C1.14424 4.04069 1.27789 3.98685 1.4375 3.98685H9.95866L7.4894 1.51759C7.37786 1.40605 7.32282 1.27552 7.32427 1.12601C7.32571 0.9765 7.38075 0.843569 7.4894 0.727219C7.60575 0.610881 7.7394 0.550788 7.89035 0.546938C8.04131 0.543088 8.17496 0.599338 8.2913 0.715688L11.6504 4.07483C11.7206 4.14501 11.7701 4.21905 11.799 4.29694C11.8278 4.37481 11.8423 4.45894 11.8423 4.54933C11.8423 4.63972 11.8278 4.72385 11.799 4.80173C11.7701 4.87961 11.7206 4.95365 11.6504 5.02384L8.2913 8.38298C8.17978 8.49451 8.04733 8.54956 7.89397 8.54813C7.74061 8.54668 7.60575 8.48778 7.4894 8.37144C7.38075 8.25509 7.3245 8.12336 7.32065 7.97625C7.31681 7.82914 7.37306 7.69741 7.4894 7.58107L9.95866 5.11181Z" fill="#402EA1"/>
</svg>
