<svg width="150" height="151" viewBox="0 0 150 151" fill="none" xmlns="http://www.w3.org/2000/svg">
<rect width="124" height="124" transform="translate(14.5 15)" fill="#D9D9D9" fill-opacity="0.6"/>
<g clip-path="url(#clip0_1498_59378)">
<path d="M89.2179 74.0034V64.4649H79.6794V58.106H89.2179V48.5675H95.5768V58.106H105.115V64.4649H95.5768V74.0034H89.2179ZM101.777 105.798C95.1529 105.798 88.5957 104.368 82.1053 101.506C75.6149 98.6444 69.7191 94.5641 64.4179 89.2649C59.1187 83.9658 55.0384 78.0837 52.1768 71.6188C49.3153 65.1538 47.8845 58.5829 47.8845 51.906V48.5675H66.6435L69.5845 64.5444L60.523 73.6855C61.6888 75.7521 62.9871 77.7128 64.4179 79.5675C65.8486 81.4222 67.3854 83.1444 69.0281 84.7342C70.5649 86.2709 72.2479 87.742 74.0771 89.1473C75.9064 90.5526 77.8798 91.8636 79.9973 93.0803L89.2179 83.8598L105.115 87.1188V105.798H101.777Z" fill="#5E58D0"/>
</g>
<defs>
<clipPath id="clip0_1498_59378">
<rect width="149.623" height="149.623" fill="white" transform="translate(0.192383 0.692139)"/>
</clipPath>
</defs>
</svg>
