<svg width="63" height="63" viewBox="0 0 63 63" fill="none" xmlns="http://www.w3.org/2000/svg">
<rect width="62.7451" height="62.7451" transform="translate(0.000488281)" fill="#D9D9D9" fill-opacity="0.2"/>
<path d="M36.3908 29.7816V25.8147H32.4238V23.1701H36.3908V19.2031H39.0354V23.1701H43.0023V25.8147H39.0354V29.7816H36.3908ZM41.6139 43.0048C38.8591 43.0048 36.132 42.4097 33.4328 41.2197C30.7335 40.0296 28.2815 38.3326 26.0767 36.1287C23.8729 33.9249 22.1759 31.4786 20.9858 28.7899C19.7957 26.1012 19.2007 23.3684 19.2007 20.5916V19.2031H27.0023L28.2255 25.8478L24.4569 29.6494C24.9417 30.5089 25.4817 31.3243 26.0767 32.0957C26.6718 32.867 27.3109 33.5833 27.9941 34.2444C28.6332 34.8836 29.3331 35.4954 30.0939 36.0798C30.8547 36.6643 31.6754 37.2095 32.5561 37.7155L36.3908 33.8808L43.0023 35.2362V43.0048H41.6139Z" fill="white"/>
</svg>
