<svg width="205" height="193" viewBox="0 0 205 193" fill="none" xmlns="http://www.w3.org/2000/svg">
<g filter="url(#filter0_d_1498_74187)">
<circle cx="108.333" cy="96.3333" r="83.3333" fill="url(#paint0_linear_1498_74187)"/>
<g filter="url(#filter1_d_1498_74187)">
<circle cx="38" cy="155" r="25" fill="#402EA1"/>
</g>
<path d="M39.3298 162.439L32.3616 158.638C31.6928 159.302 30.8423 159.753 29.9174 159.934C28.9926 160.116 28.0348 160.019 27.1647 159.657C26.2947 159.295 25.5513 158.683 25.0285 157.899C24.5056 157.115 24.2266 156.193 24.2266 155.251C24.2266 154.308 24.5056 153.387 25.0285 152.603C25.5513 151.819 26.2947 151.207 27.1647 150.845C28.0348 150.483 28.9926 150.386 29.9174 150.567C30.8423 150.749 31.6928 151.2 32.3616 151.864L39.3298 148.063C39.0908 146.942 39.2634 145.772 39.8161 144.768C40.3687 143.763 41.2645 142.991 42.3395 142.593C43.4145 142.195 44.597 142.196 45.6707 142.598C46.7444 143 47.6376 143.775 48.1869 144.781C48.7362 145.788 48.9049 146.958 48.6622 148.079C48.4195 149.199 47.7816 150.195 46.8651 150.884C45.9487 151.572 44.8149 151.908 43.6711 151.83C42.5273 151.751 41.45 151.264 40.6362 150.456L33.668 154.257C33.8068 154.912 33.8068 155.589 33.668 156.244L40.6362 160.045C41.45 159.238 42.5273 158.75 43.6711 158.672C44.8149 158.594 45.9487 158.929 46.8651 159.618C47.7816 160.307 48.4195 161.303 48.6622 162.423C48.9049 163.544 48.7362 164.714 48.1869 165.72C47.6376 166.727 46.7444 167.502 45.6707 167.903C44.597 168.305 43.4145 168.307 42.3395 167.909C41.2645 167.511 40.3687 166.739 39.8161 165.734C39.2634 164.73 39.0908 163.56 39.3298 162.439Z" fill="white"/>
<path d="M128.159 52.8844H75.3042C74.3502 52.8844 73.6982 53.9849 73.6982 55.1148V140.242C73.6982 140.838 74.1811 141.321 74.7767 141.321H142.424C143.019 141.321 143.502 140.838 143.502 140.242V68.7913L128.159 52.8844Z" fill="white"/>
<path d="M128.698 52.8844L143.796 68.5217H129.777C129.181 68.5217 128.698 68.0388 128.698 67.4432V52.8844Z" fill="#402EA1"/>
<path d="M74.6381 53.0784H128.092L143.122 68.6604V141.105C143.122 141.11 143.121 141.112 143.12 141.113C143.12 141.114 143.12 141.114 143.119 141.115C143.119 141.117 143.117 141.118 143.115 141.12C143.113 141.123 143.11 141.125 143.108 141.125C143.108 141.126 143.107 141.126 143.106 141.126C143.105 141.126 143.103 141.127 143.1 141.127H74.1C74.095 141.127 74.093 141.126 74.0919 141.125C74.0901 141.125 74.0875 141.123 74.0847 141.12C74.082 141.117 74.0804 141.115 74.0797 141.113C74.0792 141.112 74.0784 141.11 74.0784 141.105V54.275C74.0784 53.8906 74.1927 53.5377 74.3468 53.3104C74.4985 53.0866 74.6106 53.0784 74.6381 53.0784Z" stroke="#402EA1" stroke-width="2.15686"/>
<path d="M114.473 89.8751L127.186 110L117.447 110L101.811 110L114.473 89.8751Z" fill="white" stroke="#402EA1" stroke-width="2"/>
<path d="M86.9467 109.473L101.899 85.3563C102.288 84.7291 103.199 84.7247 103.594 85.3482L118.868 109.465C119.289 110.131 118.811 111 118.023 111H87.7966C87.0128 111 86.5337 110.139 86.9467 109.473Z" fill="#402EA1" stroke="#402EA1" stroke-width="0.5"/>
<path d="M129.49 89.0399C129.49 90.8901 127.99 92.3899 126.14 92.3899C124.29 92.3899 122.79 90.8901 122.79 89.0399C122.79 87.1898 124.29 85.6899 126.14 85.6899C127.99 85.6899 129.49 87.1898 129.49 89.0399Z" fill="#402EA1" stroke="#402EA1" stroke-width="0.5"/>
</g>
<defs>
<filter id="filter0_d_1498_74187" x="0.5" y="0.5" width="203.667" height="192" filterUnits="userSpaceOnUse" color-interpolation-filters="sRGB">
<feFlood flood-opacity="0" result="BackgroundImageFix"/>
<feColorMatrix in="SourceAlpha" type="matrix" values="0 0 0 0 0 0 0 0 0 0 0 0 0 0 0 0 0 0 127 0" result="hardAlpha"/>
<feOffset/>
<feGaussianBlur stdDeviation="6.25"/>
<feComposite in2="hardAlpha" operator="out"/>
<feColorMatrix type="matrix" values="0 0 0 0 0 0 0 0 0 0 0 0 0 0 0 0 0 0 0.1 0"/>
<feBlend mode="normal" in2="BackgroundImageFix" result="effect1_dropShadow_1498_74187"/>
<feBlend mode="normal" in="SourceGraphic" in2="effect1_dropShadow_1498_74187" result="shape"/>
</filter>
<filter id="filter1_d_1498_74187" x="9" y="130" width="58" height="58" filterUnits="userSpaceOnUse" color-interpolation-filters="sRGB">
<feFlood flood-opacity="0" result="BackgroundImageFix"/>
<feColorMatrix in="SourceAlpha" type="matrix" values="0 0 0 0 0 0 0 0 0 0 0 0 0 0 0 0 0 0 127 0" result="hardAlpha"/>
<feOffset dy="4"/>
<feGaussianBlur stdDeviation="2"/>
<feComposite in2="hardAlpha" operator="out"/>
<feColorMatrix type="matrix" values="0 0 0 0 0 0 0 0 0 0 0 0 0 0 0 0 0 0 0.1 0"/>
<feBlend mode="normal" in2="BackgroundImageFix" result="effect1_dropShadow_1498_74187"/>
<feBlend mode="normal" in="SourceGraphic" in2="effect1_dropShadow_1498_74187" result="shape"/>
</filter>
<linearGradient id="paint0_linear_1498_74187" x1="68.6012" y1="-59.9243" x2="288.915" y2="151.69" gradientUnits="userSpaceOnUse">
<stop offset="0.290144" stop-color="white"/>
<stop offset="0.973068" stop-color="#C7D5E0"/>
</linearGradient>
</defs>
</svg>
