<svg width="270" height="270" viewBox="0 0 270 270" fill="none" xmlns="http://www.w3.org/2000/svg">
<path fill-rule="evenodd" clip-rule="evenodd" d="M140.626 113.499C146.93 113.499 152.001 108.441 152.001 102.249C152.001 96.0573 146.93 90.9993 140.626 90.9993C134.323 90.9993 129.251 96.0573 129.251 102.249C129.251 108.441 134.323 113.499 140.626 113.499ZM140.626 115.999C148.289 115.999 154.501 109.843 154.501 102.249C154.501 94.6554 148.289 88.4993 140.626 88.4993C132.963 88.4993 126.751 94.6554 126.751 102.249C126.751 109.843 132.963 115.999 140.626 115.999Z" fill="url(#paint0_linear_339_1256)"/>
<path fill-rule="evenodd" clip-rule="evenodd" d="M140.626 113.499C146.93 113.499 152.001 108.441 152.001 102.249C152.001 96.0573 146.93 90.9993 140.626 90.9993C134.323 90.9993 129.251 96.0573 129.251 102.249C129.251 108.441 134.323 113.499 140.626 113.499ZM140.626 115.999C148.289 115.999 154.501 109.843 154.501 102.249C154.501 94.6554 148.289 88.4993 140.626 88.4993C132.963 88.4993 126.751 94.6554 126.751 102.249C126.751 109.843 132.963 115.999 140.626 115.999Z" fill="url(#paint1_radial_339_1256)" style="mix-blend-mode:overlay"/>
<path fill-rule="evenodd" clip-rule="evenodd" d="M147.001 121.501H134.251C125.967 121.501 119.251 128.216 119.251 136.501V165.251H162.001V136.501C162.001 128.216 155.286 121.501 147.001 121.501ZM134.251 119.001C124.586 119.001 116.751 126.836 116.751 136.501V167.751H164.501V136.501C164.501 126.836 156.666 119.001 147.001 119.001H134.251Z" fill="url(#paint2_linear_339_1256)"/>
<path fill-rule="evenodd" clip-rule="evenodd" d="M147.001 121.501H134.251C125.967 121.501 119.251 128.216 119.251 136.501V165.251H162.001V136.501C162.001 128.216 155.286 121.501 147.001 121.501ZM134.251 119.001C124.586 119.001 116.751 126.836 116.751 136.501V167.751H164.501V136.501C164.501 126.836 156.666 119.001 147.001 119.001H134.251Z" fill="url(#paint3_radial_339_1256)" style="mix-blend-mode:overlay"/>
<path d="M144.021 191.408C156.538 190.736 168.574 186.368 178.608 178.856C188.641 171.343 196.222 161.024 200.391 149.204C204.56 137.383 205.13 124.591 202.03 112.447C198.929 100.302 192.296 89.3492 182.971 80.9738C173.645 72.5985 162.046 67.1766 149.639 65.3937C137.232 63.6108 124.575 65.5471 113.268 70.9576C101.962 76.3681 92.5136 85.0099 86.1185 95.7901C79.7234 106.57 76.6687 119.005 77.3405 131.521L82.165 131.262C81.5444 119.7 84.3663 108.214 90.2738 98.2551C96.1814 88.2967 104.909 80.3138 115.354 75.3157C125.798 70.3177 137.491 68.529 148.952 70.176C160.413 71.8229 171.128 76.8315 179.743 84.5684C188.357 92.3052 194.484 102.423 197.348 113.642C200.213 124.861 199.686 136.677 195.835 147.597C191.983 158.516 184.981 168.049 175.712 174.988C166.443 181.928 155.325 185.963 143.762 186.584L144.021 191.408Z" fill="url(#paint4_linear_339_1256)"/>
<path d="M144.021 191.408C156.538 190.736 168.574 186.368 178.608 178.856C188.641 171.343 196.222 161.024 200.391 149.204C204.56 137.383 205.13 124.591 202.03 112.447C198.929 100.302 192.296 89.3492 182.971 80.9738C173.645 72.5985 162.046 67.1766 149.639 65.3937C137.232 63.6108 124.575 65.5471 113.268 70.9576C101.962 76.3681 92.5136 85.0099 86.1185 95.7901C79.7234 106.57 76.6687 119.005 77.3405 131.521L82.165 131.262C81.5444 119.7 84.3663 108.214 90.2738 98.2551C96.1814 88.2967 104.909 80.3138 115.354 75.3157C125.798 70.3177 137.491 68.529 148.952 70.176C160.413 71.8229 171.128 76.8315 179.743 84.5684C188.357 92.3052 194.484 102.423 197.348 113.642C200.213 124.861 199.686 136.677 195.835 147.597C191.983 158.516 184.981 168.049 175.712 174.988C166.443 181.928 155.325 185.963 143.762 186.584L144.021 191.408Z" fill="url(#paint5_radial_339_1256)" style="mix-blend-mode:overlay"/>
<mask id="mask0_339_1256" style="mask-type:alpha" maskUnits="userSpaceOnUse" x="59" y="128" width="89" height="89">
<path d="M59.2494 128.251H147.499V216.501H59.2494V128.251Z" fill="#D9D9D9"/>
</mask>
<g mask="url(#mask0_339_1256)">
<path d="M132.608 205.47C124.947 205.47 117.379 203.8 109.902 200.46C102.425 197.12 95.6225 192.386 89.494 186.257C83.3655 180.129 78.6313 173.326 75.2913 165.85C71.9513 158.373 70.2812 150.804 70.2812 143.144C70.2812 142.041 70.649 141.121 71.3844 140.386C72.1198 139.65 73.0391 139.283 74.1422 139.283H89.0344C89.8924 139.283 90.6584 139.574 91.3326 140.156C92.0067 140.738 92.405 141.428 92.5276 142.224L94.9177 155.094C95.0403 156.075 95.0096 156.902 94.8258 157.576C94.6419 158.25 94.3049 158.833 93.8146 159.323L84.8977 168.332C86.1234 170.599 87.5789 172.79 89.2642 174.904C90.9495 177.019 92.8034 179.056 94.8258 181.018C96.7256 182.917 98.7174 184.679 100.801 186.303C102.885 187.927 105.091 189.414 107.42 190.762L116.061 182.121C116.612 181.569 117.333 181.156 118.221 180.88C119.11 180.604 119.983 180.527 120.841 180.65L133.527 183.224C134.385 183.469 135.09 183.913 135.641 184.557C136.193 185.2 136.469 185.92 136.469 186.717V201.609C136.469 202.712 136.101 203.632 135.366 204.367C134.63 205.103 133.711 205.47 132.608 205.47Z" fill="url(#paint6_linear_339_1256)"/>
<path d="M132.608 205.47C124.947 205.47 117.379 203.8 109.902 200.46C102.425 197.12 95.6225 192.386 89.494 186.257C83.3655 180.129 78.6313 173.326 75.2913 165.85C71.9513 158.373 70.2812 150.804 70.2812 143.144C70.2812 142.041 70.649 141.121 71.3844 140.386C72.1198 139.65 73.0391 139.283 74.1422 139.283H89.0344C89.8924 139.283 90.6584 139.574 91.3326 140.156C92.0067 140.738 92.405 141.428 92.5276 142.224L94.9177 155.094C95.0403 156.075 95.0096 156.902 94.8258 157.576C94.6419 158.25 94.3049 158.833 93.8146 159.323L84.8977 168.332C86.1234 170.599 87.5789 172.79 89.2642 174.904C90.9495 177.019 92.8034 179.056 94.8258 181.018C96.7256 182.917 98.7174 184.679 100.801 186.303C102.885 187.927 105.091 189.414 107.42 190.762L116.061 182.121C116.612 181.569 117.333 181.156 118.221 180.88C119.11 180.604 119.983 180.527 120.841 180.65L133.527 183.224C134.385 183.469 135.09 183.913 135.641 184.557C136.193 185.2 136.469 185.92 136.469 186.717V201.609C136.469 202.712 136.101 203.632 135.366 204.367C134.63 205.103 133.711 205.47 132.608 205.47Z" fill="url(#paint7_radial_339_1256)" style="mix-blend-mode:overlay"/>
</g>
<defs>
<linearGradient id="paint0_linear_339_1256" x1="126.751" y1="106.719" x2="155.002" y2="96.8479" gradientUnits="userSpaceOnUse">
<stop offset="0.0677083" stop-color="#4D5455"/>
<stop offset="0.21875" stop-color="#9EA1A1"/>
<stop offset="0.453125" stop-color="#848B8A"/>
<stop offset="0.524381" stop-color="#535D5E"/>
<stop offset="0.796875" stop-color="#4B5355"/>
<stop offset="0.895833" stop-color="#757A7B"/>
<stop offset="1" stop-color="#4D5455"/>
</linearGradient>
<radialGradient id="paint1_radial_339_1256" cx="0" cy="0" r="1" gradientUnits="userSpaceOnUse" gradientTransform="translate(126.751 86.1185) rotate(59.9669) scale(25.4231 26.9726)">
<stop stop-color="white"/>
<stop offset="1" stop-color="white" stop-opacity="0"/>
</radialGradient>
<linearGradient id="paint2_linear_339_1256" x1="116.751" y1="151.3" x2="165.671" y2="134.708" gradientUnits="userSpaceOnUse">
<stop offset="0.0677083" stop-color="#4D5455"/>
<stop offset="0.21875" stop-color="#9EA1A1"/>
<stop offset="0.453125" stop-color="#848B8A"/>
<stop offset="0.524381" stop-color="#535D5E"/>
<stop offset="0.796875" stop-color="#4B5355"/>
<stop offset="0.895833" stop-color="#757A7B"/>
<stop offset="1" stop-color="#4D5455"/>
</linearGradient>
<radialGradient id="paint3_radial_339_1256" cx="0" cy="0" r="1" gradientUnits="userSpaceOnUse" gradientTransform="translate(116.751 114.78) rotate(60.7006) scale(44.7407 46.7521)">
<stop stop-color="white"/>
<stop offset="1" stop-color="white" stop-opacity="0"/>
</radialGradient>
<linearGradient id="paint4_linear_339_1256" x1="77.2494" y1="148.666" x2="206.52" y2="103.872" gradientUnits="userSpaceOnUse">
<stop offset="0.0677083" stop-color="#4D5455"/>
<stop offset="0.21875" stop-color="#9EA1A1"/>
<stop offset="0.453125" stop-color="#848B8A"/>
<stop offset="0.524381" stop-color="#535D5E"/>
<stop offset="0.796875" stop-color="#4B5355"/>
<stop offset="0.895833" stop-color="#757A7B"/>
<stop offset="1" stop-color="#4D5455"/>
</linearGradient>
<radialGradient id="paint5_radial_339_1256" cx="0" cy="0" r="1" gradientUnits="userSpaceOnUse" gradientTransform="translate(77.2494 53.7841) rotate(60.1733) scale(116.851 123.455)">
<stop stop-color="white"/>
<stop offset="1" stop-color="white" stop-opacity="0"/>
</radialGradient>
<linearGradient id="paint6_linear_339_1256" x1="70.2812" y1="183.135" x2="137.795" y2="159.757" gradientUnits="userSpaceOnUse">
<stop offset="0.21875" stop-color="#9EA1A1"/>
<stop offset="0.453125" stop-color="#848B8A"/>
<stop offset="0.524381" stop-color="#535D5E"/>
<stop offset="0.895833" stop-color="#757A7B"/>
</linearGradient>
<radialGradient id="paint7_radial_339_1256" cx="0" cy="0" r="1" gradientUnits="userSpaceOnUse" gradientTransform="translate(70.2812 133.553) rotate(60.1911) scale(61.0512 64.4784)">
<stop stop-color="white"/>
<stop offset="1" stop-color="white" stop-opacity="0"/>
</radialGradient>
</defs>
</svg>
