<svg width="90" height="45" viewBox="0 0 90 45" fill="none" xmlns="http://www.w3.org/2000/svg">
<g filter="url(#filter0_d_434_34226)">
<rect x="4" y="0.292969" width="81.6214" height="36.6199" rx="12" fill="#402EA1" shape-rendering="crispEdges"/>
<rect x="4.5" y="0.792969" width="80.6214" height="35.6199" rx="11.5" stroke="#5E58D0" shape-rendering="crispEdges"/>
<path d="M29.9359 10.3255C30.1952 10.2659 30.4667 10.2885 30.7126 10.3903C30.9585 10.492 31.1667 10.6677 31.3081 10.8931L32.5817 12.9265C32.6844 13.0902 32.8228 13.2286 32.9865 13.3313L35.0199 14.6049C35.2458 14.7462 35.4219 14.9545 35.5239 15.2007C35.6259 15.4469 35.6485 15.7187 35.5888 15.9784L35.0506 18.3154C35.0072 18.5042 35.0072 18.7005 35.0506 18.8894L35.5888 21.2276C35.648 21.4869 35.625 21.7582 35.5231 22.0039C35.4211 22.2495 35.2453 22.4574 35.0199 22.5986L32.9865 23.8734C32.8226 23.9759 32.6841 24.1143 32.5817 24.2783L31.3081 26.3116C31.1668 26.5373 30.9588 26.7133 30.7129 26.8152C30.4669 26.9172 30.1954 26.94 29.9359 26.8805L27.5976 26.3424C27.4092 26.2992 27.2134 26.2992 27.0249 26.3424L24.6866 26.8805C24.4272 26.94 24.1556 26.9172 23.9097 26.8152C23.6638 26.7133 23.4557 26.5373 23.3144 26.3116L22.0409 24.2783C21.9378 24.1144 21.7989 23.976 21.6347 23.8734L19.6026 22.5999C19.377 22.4586 19.201 22.2505 19.0991 22.0046C18.9971 21.7587 18.9743 21.4871 19.0338 21.2276L19.5706 18.8894C19.614 18.7005 19.614 18.5042 19.5706 18.3154L19.0325 15.9784C18.9728 15.7186 18.9957 15.4466 19.0979 15.2005C19.2001 14.9543 19.3765 14.7461 19.6026 14.6049L21.6347 13.3313C21.7989 13.2288 21.9378 13.0904 22.0409 12.9265L23.3144 10.8931C23.4558 10.668 23.6637 10.4924 23.9094 10.3907C24.155 10.289 24.4262 10.2662 24.6854 10.3255L27.0249 10.8624C27.2134 10.9056 27.4092 10.9056 27.5976 10.8624L29.9359 10.3255Z" fill="url(#paint0_linear_434_34226)" stroke="#402EA1" stroke-width="0.75"/>
<path d="M24.126 19.2886L26.7333 21.7858L30.4938 15.418" fill="url(#paint1_linear_434_34226)"/>
<path d="M24.126 19.2886L26.7333 21.7858L30.4938 15.418" stroke="#402EA1" stroke-width="0.75" stroke-linecap="round" stroke-linejoin="round"/>
<path d="M51.1587 20.4463C51.1587 20.2471 51.1274 20.0713 51.0649 19.9189C51.0063 19.7627 50.9009 19.6221 50.7485 19.4971C50.6001 19.3721 50.3931 19.2529 50.1274 19.1396C49.8657 19.0264 49.5337 18.9111 49.1313 18.7939C48.7095 18.6689 48.3286 18.5303 47.9888 18.3779C47.6489 18.2217 47.3579 18.0439 47.1157 17.8447C46.8735 17.6455 46.688 17.417 46.5591 17.1592C46.4302 16.9014 46.3657 16.6064 46.3657 16.2744C46.3657 15.9424 46.4341 15.6357 46.5708 15.3545C46.7075 15.0732 46.9028 14.8291 47.1567 14.6221C47.4146 14.4111 47.7212 14.2471 48.0767 14.1299C48.4321 14.0127 48.8286 13.9541 49.2661 13.9541C49.9067 13.9541 50.4497 14.0771 50.895 14.3232C51.3442 14.5654 51.686 14.8838 51.9204 15.2783C52.1548 15.6689 52.272 16.0869 52.272 16.5322H51.147C51.147 16.2119 51.0786 15.9287 50.9419 15.6826C50.8052 15.4326 50.5981 15.2373 50.3208 15.0967C50.0435 14.9521 49.6919 14.8799 49.2661 14.8799C48.8638 14.8799 48.5317 14.9404 48.27 15.0615C48.0083 15.1826 47.813 15.3467 47.6841 15.5537C47.5591 15.7607 47.4966 15.9971 47.4966 16.2627C47.4966 16.4424 47.5337 16.6064 47.6079 16.7549C47.686 16.8994 47.8052 17.0342 47.9653 17.1592C48.1294 17.2842 48.3364 17.3994 48.5864 17.5049C48.8403 17.6104 49.1431 17.7119 49.4946 17.8096C49.979 17.9463 50.397 18.0986 50.7485 18.2666C51.1001 18.4346 51.3892 18.624 51.6157 18.835C51.8462 19.042 52.0161 19.2783 52.1255 19.5439C52.2388 19.8057 52.2954 20.1025 52.2954 20.4346C52.2954 20.7822 52.2251 21.0967 52.0845 21.3779C51.9438 21.6592 51.7427 21.8994 51.481 22.0986C51.2192 22.2979 50.9048 22.4521 50.5376 22.5615C50.1743 22.667 49.7681 22.7197 49.3188 22.7197C48.9243 22.7197 48.5356 22.665 48.1528 22.5557C47.7739 22.4463 47.4282 22.2822 47.1157 22.0635C46.8071 21.8447 46.5591 21.5752 46.3716 21.2549C46.188 20.9307 46.0962 20.5557 46.0962 20.1299H47.2212C47.2212 20.4229 47.2778 20.6748 47.3911 20.8857C47.5044 21.0928 47.6587 21.2646 47.854 21.4014C48.0532 21.5381 48.2778 21.6396 48.5278 21.7061C48.7817 21.7686 49.0454 21.7998 49.3188 21.7998C49.7134 21.7998 50.0474 21.7451 50.3208 21.6357C50.5942 21.5264 50.8013 21.3701 50.9419 21.167C51.0864 20.9639 51.1587 20.7236 51.1587 20.4463ZM56.2036 22.7197C55.7622 22.7197 55.3618 22.6455 55.0024 22.4971C54.647 22.3447 54.3403 22.1318 54.0825 21.8584C53.8286 21.585 53.6333 21.2607 53.4966 20.8857C53.3599 20.5107 53.2915 20.1006 53.2915 19.6553V19.4092C53.2915 18.8936 53.3677 18.4346 53.52 18.0322C53.6724 17.626 53.8794 17.2822 54.1411 17.001C54.4028 16.7197 54.6997 16.5068 55.0317 16.3623C55.3638 16.2178 55.7075 16.1455 56.063 16.1455C56.5161 16.1455 56.9067 16.2236 57.2349 16.3799C57.5669 16.5361 57.8384 16.7549 58.0493 17.0361C58.2603 17.3135 58.4165 17.6416 58.5181 18.0205C58.6196 18.3955 58.6704 18.8057 58.6704 19.251V19.7373H53.936V18.8525H57.5864V18.7705C57.5708 18.4893 57.5122 18.2158 57.4106 17.9502C57.313 17.6846 57.1567 17.4658 56.9419 17.2939C56.7271 17.1221 56.4341 17.0361 56.063 17.0361C55.8169 17.0361 55.5903 17.0889 55.3833 17.1943C55.1763 17.2959 54.9985 17.4482 54.8501 17.6514C54.7017 17.8545 54.5864 18.1025 54.5044 18.3955C54.4224 18.6885 54.3813 19.0264 54.3813 19.4092V19.6553C54.3813 19.9561 54.4224 20.2393 54.5044 20.5049C54.5903 20.7666 54.7134 20.9971 54.8735 21.1963C55.0376 21.3955 55.2349 21.5518 55.4653 21.665C55.6997 21.7783 55.9653 21.835 56.2622 21.835C56.645 21.835 56.9692 21.7568 57.2349 21.6006C57.5005 21.4443 57.7329 21.2354 57.9321 20.9736L58.5884 21.4951C58.4517 21.7021 58.2778 21.8994 58.0669 22.0869C57.856 22.2744 57.5962 22.4268 57.2876 22.5439C56.9829 22.6611 56.6216 22.7197 56.2036 22.7197ZM61.02 17.6162V22.6025H59.936V16.2627H60.9614L61.02 17.6162ZM60.7622 19.1924L60.311 19.1748C60.3149 18.7412 60.3794 18.3408 60.5044 17.9736C60.6294 17.6025 60.8052 17.2803 61.0317 17.0068C61.2583 16.7334 61.5278 16.5225 61.8403 16.374C62.1567 16.2217 62.5063 16.1455 62.8892 16.1455C63.2017 16.1455 63.4829 16.1885 63.7329 16.2744C63.9829 16.3564 64.1958 16.4893 64.3716 16.6729C64.5513 16.8564 64.688 17.0947 64.7817 17.3877C64.8755 17.6768 64.9224 18.0303 64.9224 18.4482V22.6025H63.8325V18.4365C63.8325 18.1045 63.7837 17.8389 63.686 17.6396C63.5884 17.4365 63.4458 17.29 63.2583 17.2002C63.0708 17.1064 62.8403 17.0596 62.5669 17.0596C62.2974 17.0596 62.0513 17.1162 61.8286 17.2295C61.6099 17.3428 61.4204 17.499 61.2603 17.6982C61.104 17.8975 60.981 18.126 60.8911 18.3838C60.8052 18.6377 60.7622 18.9072 60.7622 19.1924ZM69.2231 16.2627V17.0947H65.7954V16.2627H69.2231ZM66.9556 14.7217H68.0396V21.0322C68.0396 21.2471 68.0728 21.4092 68.1392 21.5186C68.2056 21.6279 68.2915 21.7002 68.397 21.7354C68.5024 21.7705 68.6157 21.7881 68.7368 21.7881C68.8267 21.7881 68.9204 21.7803 69.0181 21.7646C69.1196 21.7451 69.1958 21.7295 69.2466 21.7178L69.2524 22.6025C69.1665 22.6299 69.0532 22.6553 68.9126 22.6787C68.7759 22.7061 68.6099 22.7197 68.4146 22.7197C68.1489 22.7197 67.9048 22.667 67.6821 22.5615C67.4595 22.4561 67.2817 22.2803 67.1489 22.0342C67.02 21.7842 66.9556 21.4482 66.9556 21.0264V14.7217Z" fill="white"/>
</g>
<defs>
<filter id="filter0_d_434_34226" x="0" y="0.292969" width="89.6216" height="44.6201" filterUnits="userSpaceOnUse" color-interpolation-filters="sRGB">
<feFlood flood-opacity="0" result="BackgroundImageFix"/>
<feColorMatrix in="SourceAlpha" type="matrix" values="0 0 0 0 0 0 0 0 0 0 0 0 0 0 0 0 0 0 127 0" result="hardAlpha"/>
<feOffset dy="4"/>
<feGaussianBlur stdDeviation="2"/>
<feComposite in2="hardAlpha" operator="out"/>
<feColorMatrix type="matrix" values="0 0 0 0 0 0 0 0 0 0 0 0 0 0 0 0 0 0 0.25 0"/>
<feBlend mode="normal" in2="BackgroundImageFix" result="effect1_dropShadow_434_34226"/>
<feBlend mode="normal" in="SourceGraphic" in2="effect1_dropShadow_434_34226" result="shape"/>
</filter>
<linearGradient id="paint0_linear_434_34226" x1="19.2234" y1="10.293" x2="38.4766" y2="16.6633" gradientUnits="userSpaceOnUse">
<stop offset="0.350057" stop-color="white"/>
<stop offset="0.798399" stop-color="#C7D5E0"/>
</linearGradient>
<linearGradient id="paint1_linear_434_34226" x1="24.2116" y1="15.418" x2="31.5877" y2="17.8583" gradientUnits="userSpaceOnUse">
<stop offset="0.350057" stop-color="white"/>
<stop offset="0.798399" stop-color="#C7D5E0"/>
</linearGradient>
</defs>
</svg>
