<svg width="121" height="121" viewBox="0 0 121 121" fill="none" xmlns="http://www.w3.org/2000/svg">
<path d="M78.3279 2.52021C80.138 2.10417 82.0327 2.26207 83.749 2.97199C85.4653 3.6819 86.918 4.9086 87.9053 6.48175L96.7942 20.6736C97.5109 21.8166 98.477 22.7827 99.6201 23.4994L113.812 32.3883C115.388 33.3749 116.618 34.8285 117.33 36.5468C118.041 38.265 118.2 40.1623 117.782 41.9747L114.026 58.2859C113.724 59.6042 113.724 60.974 114.026 62.2922L117.782 78.6123C118.196 80.4221 118.035 82.3155 117.324 84.0301C116.612 85.7447 115.385 87.1953 113.812 88.1809L99.6201 97.0787C98.4756 97.7937 97.5092 98.7601 96.7942 99.9045L87.9053 114.096C86.9192 115.671 85.4671 116.9 83.7507 117.611C82.0343 118.323 80.1389 118.482 78.3279 118.067L62.0077 114.311C60.6923 114.009 59.3258 114.009 58.0104 114.311L41.6902 118.067C39.8792 118.482 37.9838 118.323 36.2674 117.611C34.551 116.9 33.0989 115.671 32.1128 114.096L23.2239 99.9045C22.5044 98.7607 21.5352 97.7946 20.3891 97.0787L6.20622 88.1898C4.63144 87.2037 3.40291 85.7516 2.69136 84.0352C1.9798 82.3188 1.82055 80.4234 2.23573 78.6123L5.98265 62.2922C6.28564 60.974 6.28564 59.6042 5.98265 58.2859L2.22678 41.9747C1.81045 40.1614 1.97005 38.2634 2.68334 36.5451C3.39664 34.8268 4.62811 33.3737 6.20622 32.3883L20.3891 23.4994C21.5354 22.7838 22.5046 21.8176 23.2239 20.6736L32.1128 6.48175C33.0996 4.9103 34.5508 3.68473 36.2652 2.97491C37.9797 2.26509 39.8725 2.10618 41.6813 2.52021L58.0104 6.26713C59.3258 6.56875 60.6923 6.56875 62.0077 6.26713L78.3279 2.52021Z" fill="url(#paint0_linear_434_34225)" stroke="#402EA1" stroke-width="4"/>
<path d="M37.7783 65.0828L55.9764 82.5118L82.2228 38.0674" fill="url(#paint1_linear_434_34225)"/>
<path d="M37.7783 65.0828L55.9764 82.5118L82.2228 38.0674" stroke="#402EA1" stroke-width="4" stroke-linecap="round" stroke-linejoin="round"/>
<defs>
<linearGradient id="paint0_linear_434_34225" x1="3.55928" y1="2.29296" x2="137.938" y2="46.7553" gradientUnits="userSpaceOnUse">
<stop offset="0.350057" stop-color="white"/>
<stop offset="0.798399" stop-color="#C7D5E0"/>
</linearGradient>
<linearGradient id="paint1_linear_434_34225" x1="38.3757" y1="38.0674" x2="89.8581" y2="55.1" gradientUnits="userSpaceOnUse">
<stop offset="0.350057" stop-color="white"/>
<stop offset="0.798399" stop-color="#C7D5E0"/>
</linearGradient>
</defs>
</svg>
