<svg width="14" height="8" viewBox="0 0 14 8" fill="none" xmlns="http://www.w3.org/2000/svg">
<path d="M6.64333 7.30746L0.979333 1.36293C0.884779 1.26374 0.832031 1.13196 0.832031 0.994926C0.832031 0.857891 0.884779 0.726114 0.979333 0.626927L0.985733 0.620526C1.03157 0.572276 1.08675 0.533854 1.1479 0.5076C1.20906 0.481345 1.27491 0.467806 1.34147 0.467806C1.40802 0.467806 1.47388 0.481345 1.53503 0.5076C1.59619 0.533854 1.65136 0.572276 1.6972 0.620526L7.03053 6.21839L12.3617 0.620526C12.4076 0.572276 12.4627 0.533854 12.5239 0.5076C12.5851 0.481345 12.6509 0.467806 12.7175 0.467806C12.784 0.467806 12.8499 0.481345 12.911 0.5076C12.9722 0.533854 13.0274 0.572276 13.0732 0.620526L13.0796 0.626927C13.1742 0.726114 13.2269 0.857891 13.2269 0.994926C13.2269 1.13196 13.1742 1.26374 13.0796 1.36293L7.4156 7.30746C7.36579 7.35974 7.30588 7.40136 7.23951 7.4298C7.17313 7.45824 7.10168 7.4729 7.02947 7.4729C6.95726 7.4729 6.8858 7.45824 6.81942 7.4298C6.75305 7.40136 6.69314 7.35974 6.64333 7.30746Z" fill="white"/>
</svg>
