<svg width="196" height="193" viewBox="0 0 196 193" fill="none" xmlns="http://www.w3.org/2000/svg">
<g filter="url(#filter0_d_311_685)">
<circle cx="99.3333" cy="96.3333" r="80.8333" stroke="url(#paint0_linear_311_685)" stroke-width="5"/>
<circle cx="99.3333" cy="96.3333" r="80.8333" stroke="url(#paint1_radial_311_685)" stroke-width="5" style="mix-blend-mode:overlay"/>
<g filter="url(#filter1_d_311_685)">
<circle cx="38" cy="150" r="25" fill="url(#paint2_linear_311_685)"/>
</g>
<path d="M44.9463 144.322V144.891H45.5145H49.5549C49.94 144.891 50.3093 145.043 50.5817 145.316C50.854 145.588 51.0069 145.957 51.0069 146.343V162.504C51.0069 162.621 50.9604 162.734 50.8775 162.817C50.7949 162.899 50.683 162.946 50.5662 162.946C50.466 162.945 50.369 162.911 50.291 162.848L50.2908 162.848L45.5673 159.032L45.411 158.906H45.2102H33.3933C33.0082 158.906 32.6389 158.753 32.3666 158.48C32.0943 158.208 31.9413 157.839 31.9413 157.454V153.666V152.478L31.0165 153.223L26.5988 156.785C26.5986 156.786 26.5984 156.786 26.5981 156.786C26.5334 156.838 26.4554 156.87 26.3731 156.879L26.4379 157.444L26.3731 156.879C26.2905 156.889 26.2069 156.875 26.1319 156.839C26.0569 156.803 25.9935 156.747 25.9491 156.677L25.4688 156.98L25.9491 156.677C25.9048 156.606 25.8811 156.525 25.8807 156.442V140.282C25.8807 139.897 26.0337 139.527 26.306 139.255C26.5783 138.983 26.9476 138.83 27.3327 138.83H43.4943C43.8794 138.83 44.2487 138.983 44.521 139.255C44.7934 139.527 44.9463 139.897 44.9463 140.282V144.322ZM45.8453 158.12L45.8454 158.12L49.1977 160.831L50.1231 161.579V160.389V146.343V145.774H49.5549H45.5145H44.9463V146.343V151.393C44.9463 151.778 44.7934 152.147 44.521 152.42C44.2487 152.692 43.8794 152.845 43.4943 152.845H33.3933H32.8251V153.413V157.454V158.022H33.3933H45.5699C45.6702 158.022 45.7673 158.057 45.8453 158.12Z" fill="url(#paint3_linear_311_685)"/>
<path d="M44.9463 144.322V144.891H45.5145H49.5549C49.94 144.891 50.3093 145.043 50.5817 145.316C50.854 145.588 51.0069 145.957 51.0069 146.343V162.504C51.0069 162.621 50.9604 162.734 50.8775 162.817C50.7949 162.899 50.683 162.946 50.5662 162.946C50.466 162.945 50.369 162.911 50.291 162.848L50.2908 162.848L45.5673 159.032L45.411 158.906H45.2102H33.3933C33.0082 158.906 32.6389 158.753 32.3666 158.48C32.0943 158.208 31.9413 157.839 31.9413 157.454V153.666V152.478L31.0165 153.223L26.5988 156.785C26.5986 156.786 26.5984 156.786 26.5981 156.786C26.5334 156.838 26.4554 156.87 26.3731 156.879L26.4379 157.444L26.3731 156.879C26.2905 156.889 26.2069 156.875 26.1319 156.839C26.0569 156.803 25.9935 156.747 25.9491 156.677L25.4688 156.98L25.9491 156.677C25.9048 156.606 25.8811 156.525 25.8807 156.442V140.282C25.8807 139.897 26.0337 139.527 26.306 139.255C26.5783 138.983 26.9476 138.83 27.3327 138.83H43.4943C43.8794 138.83 44.2487 138.983 44.521 139.255C44.7934 139.527 44.9463 139.897 44.9463 140.282V144.322ZM45.8453 158.12L45.8454 158.12L49.1977 160.831L50.1231 161.579V160.389V146.343V145.774H49.5549H45.5145H44.9463V146.343V151.393C44.9463 151.778 44.7934 152.147 44.521 152.42C44.2487 152.692 43.8794 152.845 43.4943 152.845H33.3933H32.8251V153.413V157.454V158.022H33.3933H45.5699C45.6702 158.022 45.7673 158.057 45.8453 158.12Z" fill="url(#paint4_radial_311_685)" style="mix-blend-mode:overlay"/>
<path d="M44.9463 144.322V144.891H45.5145H49.5549C49.94 144.891 50.3093 145.043 50.5817 145.316C50.854 145.588 51.0069 145.957 51.0069 146.343V162.504C51.0069 162.621 50.9604 162.734 50.8775 162.817C50.7949 162.899 50.683 162.946 50.5662 162.946C50.466 162.945 50.369 162.911 50.291 162.848L50.2908 162.848L45.5673 159.032L45.411 158.906H45.2102H33.3933C33.0082 158.906 32.6389 158.753 32.3666 158.48C32.0943 158.208 31.9413 157.839 31.9413 157.454V153.666V152.478L31.0165 153.223L26.5988 156.785C26.5986 156.786 26.5984 156.786 26.5981 156.786C26.5334 156.838 26.4554 156.87 26.3731 156.879L26.4379 157.444L26.3731 156.879C26.2905 156.889 26.2069 156.875 26.1319 156.839C26.0569 156.803 25.9935 156.747 25.9491 156.677L25.4688 156.98L25.9491 156.677C25.9048 156.606 25.8811 156.525 25.8807 156.442V140.282C25.8807 139.897 26.0337 139.527 26.306 139.255C26.5783 138.983 26.9476 138.83 27.3327 138.83H43.4943C43.8794 138.83 44.2487 138.983 44.521 139.255C44.7934 139.527 44.9463 139.897 44.9463 140.282V144.322ZM45.8453 158.12L45.8454 158.12L49.1977 160.831L50.1231 161.579V160.389V146.343V145.774H49.5549H45.5145H44.9463V146.343V151.393C44.9463 151.778 44.7934 152.147 44.521 152.42C44.2487 152.692 43.8794 152.845 43.4943 152.845H33.3933H32.8251V153.413V157.454V158.022H33.3933H45.5699C45.6702 158.022 45.7673 158.057 45.8453 158.12Z" stroke="url(#paint5_linear_311_685)" stroke-width="1.13636"/>
<path d="M44.9463 144.322V144.891H45.5145H49.5549C49.94 144.891 50.3093 145.043 50.5817 145.316C50.854 145.588 51.0069 145.957 51.0069 146.343V162.504C51.0069 162.621 50.9604 162.734 50.8775 162.817C50.7949 162.899 50.683 162.946 50.5662 162.946C50.466 162.945 50.369 162.911 50.291 162.848L50.2908 162.848L45.5673 159.032L45.411 158.906H45.2102H33.3933C33.0082 158.906 32.6389 158.753 32.3666 158.48C32.0943 158.208 31.9413 157.839 31.9413 157.454V153.666V152.478L31.0165 153.223L26.5988 156.785C26.5986 156.786 26.5984 156.786 26.5981 156.786C26.5334 156.838 26.4554 156.87 26.3731 156.879L26.4379 157.444L26.3731 156.879C26.2905 156.889 26.2069 156.875 26.1319 156.839C26.0569 156.803 25.9935 156.747 25.9491 156.677L25.4688 156.98L25.9491 156.677C25.9048 156.606 25.8811 156.525 25.8807 156.442V140.282C25.8807 139.897 26.0337 139.527 26.306 139.255C26.5783 138.983 26.9476 138.83 27.3327 138.83H43.4943C43.8794 138.83 44.2487 138.983 44.521 139.255C44.7934 139.527 44.9463 139.897 44.9463 140.282V144.322ZM45.8453 158.12L45.8454 158.12L49.1977 160.831L50.1231 161.579V160.389V146.343V145.774H49.5549H45.5145H44.9463V146.343V151.393C44.9463 151.778 44.7934 152.147 44.521 152.42C44.2487 152.692 43.8794 152.845 43.4943 152.845H33.3933H32.8251V153.413V157.454V158.022H33.3933H45.5699C45.6702 158.022 45.7673 158.057 45.8453 158.12Z" stroke="url(#paint6_radial_311_685)" stroke-width="1.13636" style="mix-blend-mode:overlay"/>
<path fill-rule="evenodd" clip-rule="evenodd" d="M68.0475 66.3689L60.7973 60.953C59.4086 62.2256 57.2685 62.3736 55.7041 61.205C53.9342 59.8829 53.5712 57.3764 54.8932 55.6065C56.2153 53.8366 58.7217 53.4736 60.4916 54.7957C62.056 55.9644 62.5212 58.0585 61.695 59.7513L68.3352 64.7116L98.8736 53L130.223 64.8219V65.1875L137.501 59.7513C136.675 58.0585 137.14 55.9644 138.704 54.7957C140.474 53.4736 142.981 53.8366 144.303 55.6065C145.625 57.3764 145.262 59.8829 143.492 61.205C141.927 62.3736 139.787 62.2256 138.398 60.953L130.223 67.0598V93.4789C129.46 98.96 128.083 103.784 126.299 108.011L138.397 117.048C139.785 115.775 141.925 115.627 143.49 116.796C145.26 118.118 145.623 120.624 144.301 122.394C142.979 124.164 140.472 124.527 138.702 123.205C137.138 122.036 136.673 119.942 137.499 118.249L125.68 109.42C118.519 125.066 105.75 132.072 98.8736 133.733C85.1879 129.974 77.0743 119.868 72.6166 110.092L61.6969 118.249C62.5232 119.942 62.058 122.036 60.4935 123.205C58.7237 124.527 56.2172 124.164 54.8952 122.394C53.5732 120.624 53.9362 118.118 55.706 116.796C57.2705 115.627 59.4105 115.775 60.7993 117.048L71.9975 108.682C69.5647 102.924 68.3805 97.3945 68.0475 93.4789V66.3689Z" fill="url(#paint7_linear_311_685)"/>
<path d="M68.0475 66.3689H68.805V65.9892L68.5008 65.762L68.0475 66.3689ZM60.7973 60.953L61.2507 60.3461L60.7481 59.9706L60.2855 60.3945L60.7973 60.953ZM55.7041 61.205L56.1574 60.598H56.1574L55.7041 61.205ZM54.8932 55.6065L55.5002 56.0599L54.8932 55.6065ZM60.4916 54.7957L60.9449 54.1888V54.1888L60.4916 54.7957ZM61.695 59.7513L61.0142 59.419L60.739 59.9828L61.2416 60.3582L61.695 59.7513ZM68.3352 64.7116L67.8818 65.3185L68.2165 65.5685L68.6065 65.4189L68.3352 64.7116ZM98.8736 53L99.1409 52.2912L98.8713 52.1895L98.6023 52.2927L98.8736 53ZM130.223 64.8219H130.981V64.298L130.491 64.1131L130.223 64.8219ZM130.223 65.1875H129.466V66.699L130.677 65.7944L130.223 65.1875ZM137.501 59.7513L137.954 60.3582L138.457 59.9828L138.182 59.419L137.501 59.7513ZM138.704 54.7957L139.158 55.4026V55.4026L138.704 54.7957ZM144.303 55.6065L143.696 56.0599L144.303 55.6065ZM143.492 61.205L143.038 60.598V60.598L143.492 61.205ZM138.398 60.953L138.91 60.3945L138.448 59.9706L137.945 60.3461L138.398 60.953ZM130.223 67.0598L129.77 66.4529L129.466 66.6801V67.0598H130.223ZM130.223 93.4789L130.974 93.5834L130.981 93.5314V93.4789H130.223ZM126.299 108.011L125.601 107.716L125.371 108.263L125.846 108.618L126.299 108.011ZM138.397 117.048L137.943 117.655L138.446 118.03L138.908 117.606L138.397 117.048ZM143.49 116.796L143.036 117.403L143.49 116.796ZM144.301 122.394L143.694 121.941L144.301 122.394ZM138.702 123.205L138.249 123.812L138.702 123.205ZM137.499 118.249L138.18 118.582L138.455 118.018L137.952 117.642L137.499 118.249ZM125.68 109.42L126.133 108.813L125.381 108.252L124.991 109.105L125.68 109.42ZM98.8736 133.733L98.6729 134.464L98.8615 134.516L99.0515 134.47L98.8736 133.733ZM72.6166 110.092L73.3059 109.778L72.916 108.923L72.1632 109.485L72.6166 110.092ZM61.6969 118.249L61.2436 117.642L60.7409 118.018L61.0161 118.582L61.6969 118.249ZM60.4935 123.205L60.9469 123.812H60.9469L60.4935 123.205ZM54.8952 122.394L55.5021 121.941H55.5021L54.8952 122.394ZM55.706 116.796L56.1594 117.403L56.1594 117.403L55.706 116.796ZM60.7993 117.048L60.2875 117.606L60.75 118.03L61.2526 117.655L60.7993 117.048ZM71.9975 108.682L72.4509 109.289L72.9263 108.934L72.6954 108.388L71.9975 108.682ZM68.0475 93.4789H67.2899V93.511L67.2926 93.5431L68.0475 93.4789ZM68.5008 65.762L61.2507 60.3461L60.3439 61.5599L67.5941 66.9758L68.5008 65.762ZM60.2855 60.3945C59.1601 61.4257 57.4249 61.5448 56.1574 60.598L55.2507 61.8119C57.1121 63.2024 59.657 63.0254 61.3091 61.5116L60.2855 60.3945ZM56.1574 60.598C54.7228 59.5263 54.4285 57.4945 55.5002 56.0599L54.2863 55.1531C52.7139 57.2582 53.1457 60.2394 55.2507 61.8119L56.1574 60.598ZM55.5002 56.0599C56.5718 54.6252 58.6036 54.331 60.0382 55.4026L60.9449 54.1888C58.8399 52.6163 55.8587 53.0481 54.2863 55.1531L55.5002 56.0599ZM60.0382 55.4026C61.3057 56.3495 61.6838 58.0472 61.0142 59.419L62.3758 60.0836C63.3587 58.0699 62.8064 55.5793 60.9449 54.1888L60.0382 55.4026ZM61.2416 60.3582L67.8818 65.3185L68.7886 64.1046L62.1484 59.1444L61.2416 60.3582ZM68.6065 65.4189L99.1449 53.7073L98.6023 52.2927L68.064 64.0042L68.6065 65.4189ZM98.6063 53.7088L129.956 65.5308L130.491 64.1131L99.1409 52.2912L98.6063 53.7088ZM129.466 64.8219V65.1875H130.981V64.8219H129.466ZM130.677 65.7944L137.954 60.3582L137.047 59.1444L129.77 64.5806L130.677 65.7944ZM138.182 59.419C137.512 58.0472 137.89 56.3495 139.158 55.4026L138.251 54.1888C136.389 55.5793 135.837 58.0699 136.82 60.0836L138.182 59.419ZM139.158 55.4026C140.592 54.331 142.624 54.6252 143.696 56.0599L144.909 55.1531C143.337 53.0481 140.356 52.6163 138.251 54.1888L139.158 55.4026ZM143.696 56.0599C144.767 57.4945 144.473 59.5263 143.038 60.598L143.945 61.8119C146.05 60.2394 146.482 57.2582 144.909 55.1531L143.696 56.0599ZM143.038 60.598C141.771 61.5448 140.036 61.4257 138.91 60.3945L137.887 61.5116C139.539 63.0254 142.084 63.2024 143.945 61.8119L143.038 60.598ZM137.945 60.3461L129.77 66.4529L130.677 67.6667L138.852 61.5599L137.945 60.3461ZM129.466 67.0598V93.4789H130.981V67.0598H129.466ZM129.473 93.3743C128.718 98.7917 127.359 103.552 125.601 107.716L126.997 108.305C128.807 104.017 130.201 99.1283 130.974 93.5834L129.473 93.3743ZM125.846 108.618L137.943 117.655L138.85 116.441L126.753 107.404L125.846 108.618ZM138.908 117.606C140.034 116.575 141.769 116.456 143.036 117.403L143.943 116.189C142.082 114.798 139.537 114.975 137.885 116.489L138.908 117.606ZM143.036 117.403C144.471 118.474 144.765 120.506 143.694 121.941L144.908 122.848C146.48 120.742 146.048 117.761 143.943 116.189L143.036 117.403ZM143.694 121.941C142.622 123.375 140.59 123.67 139.156 122.598L138.249 123.812C140.354 125.384 143.335 124.953 144.908 122.848L143.694 121.941ZM139.156 122.598C137.888 121.651 137.51 119.953 138.18 118.582L136.818 117.917C135.835 119.931 136.387 122.421 138.249 123.812L139.156 122.598ZM137.952 117.642L126.133 108.813L125.226 110.027L137.046 118.856L137.952 117.642ZM124.991 109.105C117.936 124.52 105.369 131.385 98.6957 132.997L99.0515 134.47C106.132 132.759 119.102 125.613 126.368 109.736L124.991 109.105ZM99.0742 133.003C85.6753 129.322 77.7056 119.426 73.3059 109.778L71.9273 110.407C76.443 120.309 84.7005 130.626 98.6729 134.464L99.0742 133.003ZM72.1632 109.485L61.2436 117.642L62.1503 118.856L73.07 110.699L72.1632 109.485ZM61.0161 118.582C61.6857 119.953 61.3077 121.651 60.0402 122.598L60.9469 123.812C62.8083 122.421 63.3607 119.931 62.3777 117.917L61.0161 118.582ZM60.0402 122.598C58.6055 123.67 56.5738 123.375 55.5021 121.941L54.2883 122.848C55.8607 124.953 58.8419 125.384 60.9469 123.812L60.0402 122.598ZM55.5021 121.941C54.4305 120.506 54.7247 118.474 56.1594 117.403L55.2526 116.189C53.1476 117.761 52.7158 120.742 54.2883 122.848L55.5021 121.941ZM56.1594 117.403C57.4269 116.456 59.1621 116.575 60.2875 117.606L61.3111 116.489C59.659 114.975 57.1141 114.798 55.2526 116.189L56.1594 117.403ZM61.2526 117.655L72.4509 109.289L71.5442 108.076L60.3459 116.441L61.2526 117.655ZM72.6954 108.388C70.2934 102.702 69.1286 97.2504 68.8023 93.4147L67.2926 93.5431C67.6325 97.5386 68.836 103.146 71.2997 108.977L72.6954 108.388ZM68.805 93.4789V66.3689H67.2899V93.4789H68.805Z" fill="url(#paint8_linear_311_685)"/>
<path d="M68.0475 66.3689H68.805V65.9892L68.5008 65.762L68.0475 66.3689ZM60.7973 60.953L61.2507 60.3461L60.7481 59.9706L60.2855 60.3945L60.7973 60.953ZM55.7041 61.205L56.1574 60.598H56.1574L55.7041 61.205ZM54.8932 55.6065L55.5002 56.0599L54.8932 55.6065ZM60.4916 54.7957L60.9449 54.1888V54.1888L60.4916 54.7957ZM61.695 59.7513L61.0142 59.419L60.739 59.9828L61.2416 60.3582L61.695 59.7513ZM68.3352 64.7116L67.8818 65.3185L68.2165 65.5685L68.6065 65.4189L68.3352 64.7116ZM98.8736 53L99.1409 52.2912L98.8713 52.1895L98.6023 52.2927L98.8736 53ZM130.223 64.8219H130.981V64.298L130.491 64.1131L130.223 64.8219ZM130.223 65.1875H129.466V66.699L130.677 65.7944L130.223 65.1875ZM137.501 59.7513L137.954 60.3582L138.457 59.9828L138.182 59.419L137.501 59.7513ZM138.704 54.7957L139.158 55.4026V55.4026L138.704 54.7957ZM144.303 55.6065L143.696 56.0599L144.303 55.6065ZM143.492 61.205L143.038 60.598V60.598L143.492 61.205ZM138.398 60.953L138.91 60.3945L138.448 59.9706L137.945 60.3461L138.398 60.953ZM130.223 67.0598L129.77 66.4529L129.466 66.6801V67.0598H130.223ZM130.223 93.4789L130.974 93.5834L130.981 93.5314V93.4789H130.223ZM126.299 108.011L125.601 107.716L125.371 108.263L125.846 108.618L126.299 108.011ZM138.397 117.048L137.943 117.655L138.446 118.03L138.908 117.606L138.397 117.048ZM143.49 116.796L143.036 117.403L143.49 116.796ZM144.301 122.394L143.694 121.941L144.301 122.394ZM138.702 123.205L138.249 123.812L138.702 123.205ZM137.499 118.249L138.18 118.582L138.455 118.018L137.952 117.642L137.499 118.249ZM125.68 109.42L126.133 108.813L125.381 108.252L124.991 109.105L125.68 109.42ZM98.8736 133.733L98.6729 134.464L98.8615 134.516L99.0515 134.47L98.8736 133.733ZM72.6166 110.092L73.3059 109.778L72.916 108.923L72.1632 109.485L72.6166 110.092ZM61.6969 118.249L61.2436 117.642L60.7409 118.018L61.0161 118.582L61.6969 118.249ZM60.4935 123.205L60.9469 123.812H60.9469L60.4935 123.205ZM54.8952 122.394L55.5021 121.941H55.5021L54.8952 122.394ZM55.706 116.796L56.1594 117.403L56.1594 117.403L55.706 116.796ZM60.7993 117.048L60.2875 117.606L60.75 118.03L61.2526 117.655L60.7993 117.048ZM71.9975 108.682L72.4509 109.289L72.9263 108.934L72.6954 108.388L71.9975 108.682ZM68.0475 93.4789H67.2899V93.511L67.2926 93.5431L68.0475 93.4789ZM68.5008 65.762L61.2507 60.3461L60.3439 61.5599L67.5941 66.9758L68.5008 65.762ZM60.2855 60.3945C59.1601 61.4257 57.4249 61.5448 56.1574 60.598L55.2507 61.8119C57.1121 63.2024 59.657 63.0254 61.3091 61.5116L60.2855 60.3945ZM56.1574 60.598C54.7228 59.5263 54.4285 57.4945 55.5002 56.0599L54.2863 55.1531C52.7139 57.2582 53.1457 60.2394 55.2507 61.8119L56.1574 60.598ZM55.5002 56.0599C56.5718 54.6252 58.6036 54.331 60.0382 55.4026L60.9449 54.1888C58.8399 52.6163 55.8587 53.0481 54.2863 55.1531L55.5002 56.0599ZM60.0382 55.4026C61.3057 56.3495 61.6838 58.0472 61.0142 59.419L62.3758 60.0836C63.3587 58.0699 62.8064 55.5793 60.9449 54.1888L60.0382 55.4026ZM61.2416 60.3582L67.8818 65.3185L68.7886 64.1046L62.1484 59.1444L61.2416 60.3582ZM68.6065 65.4189L99.1449 53.7073L98.6023 52.2927L68.064 64.0042L68.6065 65.4189ZM98.6063 53.7088L129.956 65.5308L130.491 64.1131L99.1409 52.2912L98.6063 53.7088ZM129.466 64.8219V65.1875H130.981V64.8219H129.466ZM130.677 65.7944L137.954 60.3582L137.047 59.1444L129.77 64.5806L130.677 65.7944ZM138.182 59.419C137.512 58.0472 137.89 56.3495 139.158 55.4026L138.251 54.1888C136.389 55.5793 135.837 58.0699 136.82 60.0836L138.182 59.419ZM139.158 55.4026C140.592 54.331 142.624 54.6252 143.696 56.0599L144.909 55.1531C143.337 53.0481 140.356 52.6163 138.251 54.1888L139.158 55.4026ZM143.696 56.0599C144.767 57.4945 144.473 59.5263 143.038 60.598L143.945 61.8119C146.05 60.2394 146.482 57.2582 144.909 55.1531L143.696 56.0599ZM143.038 60.598C141.771 61.5448 140.036 61.4257 138.91 60.3945L137.887 61.5116C139.539 63.0254 142.084 63.2024 143.945 61.8119L143.038 60.598ZM137.945 60.3461L129.77 66.4529L130.677 67.6667L138.852 61.5599L137.945 60.3461ZM129.466 67.0598V93.4789H130.981V67.0598H129.466ZM129.473 93.3743C128.718 98.7917 127.359 103.552 125.601 107.716L126.997 108.305C128.807 104.017 130.201 99.1283 130.974 93.5834L129.473 93.3743ZM125.846 108.618L137.943 117.655L138.85 116.441L126.753 107.404L125.846 108.618ZM138.908 117.606C140.034 116.575 141.769 116.456 143.036 117.403L143.943 116.189C142.082 114.798 139.537 114.975 137.885 116.489L138.908 117.606ZM143.036 117.403C144.471 118.474 144.765 120.506 143.694 121.941L144.908 122.848C146.48 120.742 146.048 117.761 143.943 116.189L143.036 117.403ZM143.694 121.941C142.622 123.375 140.59 123.67 139.156 122.598L138.249 123.812C140.354 125.384 143.335 124.953 144.908 122.848L143.694 121.941ZM139.156 122.598C137.888 121.651 137.51 119.953 138.18 118.582L136.818 117.917C135.835 119.931 136.387 122.421 138.249 123.812L139.156 122.598ZM137.952 117.642L126.133 108.813L125.226 110.027L137.046 118.856L137.952 117.642ZM124.991 109.105C117.936 124.52 105.369 131.385 98.6957 132.997L99.0515 134.47C106.132 132.759 119.102 125.613 126.368 109.736L124.991 109.105ZM99.0742 133.003C85.6753 129.322 77.7056 119.426 73.3059 109.778L71.9273 110.407C76.443 120.309 84.7005 130.626 98.6729 134.464L99.0742 133.003ZM72.1632 109.485L61.2436 117.642L62.1503 118.856L73.07 110.699L72.1632 109.485ZM61.0161 118.582C61.6857 119.953 61.3077 121.651 60.0402 122.598L60.9469 123.812C62.8083 122.421 63.3607 119.931 62.3777 117.917L61.0161 118.582ZM60.0402 122.598C58.6055 123.67 56.5738 123.375 55.5021 121.941L54.2883 122.848C55.8607 124.953 58.8419 125.384 60.9469 123.812L60.0402 122.598ZM55.5021 121.941C54.4305 120.506 54.7247 118.474 56.1594 117.403L55.2526 116.189C53.1476 117.761 52.7158 120.742 54.2883 122.848L55.5021 121.941ZM56.1594 117.403C57.4269 116.456 59.1621 116.575 60.2875 117.606L61.3111 116.489C59.659 114.975 57.1141 114.798 55.2526 116.189L56.1594 117.403ZM61.2526 117.655L72.4509 109.289L71.5442 108.076L60.3459 116.441L61.2526 117.655ZM72.6954 108.388C70.2934 102.702 69.1286 97.2504 68.8023 93.4147L67.2926 93.5431C67.6325 97.5386 68.836 103.146 71.2997 108.977L72.6954 108.388ZM68.805 93.4789V66.3689H67.2899V93.4789H68.805Z" fill="url(#paint9_radial_311_685)" style="mix-blend-mode:overlay"/>
</g>
<defs>
<filter id="filter0_d_311_685" x="0.5" y="0.5" width="194.666" height="191.666" filterUnits="userSpaceOnUse" color-interpolation-filters="sRGB">
<feFlood flood-opacity="0" result="BackgroundImageFix"/>
<feColorMatrix in="SourceAlpha" type="matrix" values="0 0 0 0 0 0 0 0 0 0 0 0 0 0 0 0 0 0 127 0" result="hardAlpha"/>
<feOffset/>
<feGaussianBlur stdDeviation="6.25"/>
<feComposite in2="hardAlpha" operator="out"/>
<feColorMatrix type="matrix" values="0 0 0 0 0 0 0 0 0 0 0 0 0 0 0 0 0 0 0.1 0"/>
<feBlend mode="normal" in2="BackgroundImageFix" result="effect1_dropShadow_311_685"/>
<feBlend mode="normal" in="SourceGraphic" in2="effect1_dropShadow_311_685" result="shape"/>
</filter>
<filter id="filter1_d_311_685" x="9" y="125" width="58" height="58" filterUnits="userSpaceOnUse" color-interpolation-filters="sRGB">
<feFlood flood-opacity="0" result="BackgroundImageFix"/>
<feColorMatrix in="SourceAlpha" type="matrix" values="0 0 0 0 0 0 0 0 0 0 0 0 0 0 0 0 0 0 127 0" result="hardAlpha"/>
<feOffset dy="4"/>
<feGaussianBlur stdDeviation="2"/>
<feComposite in2="hardAlpha" operator="out"/>
<feColorMatrix type="matrix" values="0 0 0 0 0 0 0 0 0 0 0 0 0 0 0 0 0 0 0.1 0"/>
<feBlend mode="normal" in2="BackgroundImageFix" result="effect1_dropShadow_311_685"/>
<feBlend mode="normal" in="SourceGraphic" in2="effect1_dropShadow_311_685" result="shape"/>
</filter>
<linearGradient id="paint0_linear_311_685" x1="16" y1="123.424" x2="186.007" y2="64.556" gradientUnits="userSpaceOnUse">
<stop offset="0.0677083" stop-color="#4D5455"/>
<stop offset="0.21875" stop-color="#9EA1A1"/>
<stop offset="0.453125" stop-color="#848B8A"/>
<stop offset="0.524381" stop-color="#535D5E"/>
<stop offset="0.796875" stop-color="#4B5355"/>
<stop offset="0.895833" stop-color="#757A7B"/>
<stop offset="1" stop-color="#4D5455"/>
</linearGradient>
<radialGradient id="paint1_radial_311_685" cx="0" cy="0" r="1" gradientUnits="userSpaceOnUse" gradientTransform="translate(16 -1.42874) rotate(60.1911) scale(153.733 162.363)">
<stop stop-color="white"/>
<stop offset="1" stop-color="white" stop-opacity="0"/>
</radialGradient>
<linearGradient id="paint2_linear_311_685" x1="13" y1="121.236" x2="58.0712" y2="174.671" gradientUnits="userSpaceOnUse">
<stop stop-color="#FFF2D6"/>
<stop offset="0.212795" stop-color="#9D8555"/>
<stop offset="0.57751" stop-color="#D8C08F"/>
<stop offset="1" stop-color="#58400F"/>
</linearGradient>
<linearGradient id="paint3_linear_311_685" x1="25.3125" y1="154.993" x2="51.8694" y2="145.429" gradientUnits="userSpaceOnUse">
<stop offset="0.0677083" stop-color="#4D5455"/>
<stop offset="0.21875" stop-color="#9EA1A1"/>
<stop offset="0.453125" stop-color="#848B8A"/>
<stop offset="0.524381" stop-color="#535D5E"/>
<stop offset="0.796875" stop-color="#4B5355"/>
<stop offset="0.895833" stop-color="#757A7B"/>
<stop offset="1" stop-color="#4D5455"/>
</linearGradient>
<radialGradient id="paint4_radial_311_685" cx="0" cy="0" r="1" gradientUnits="userSpaceOnUse" gradientTransform="translate(25.3125 136.076) rotate(59.2123) scale(23.5266 25.3303)">
<stop stop-color="white"/>
<stop offset="1" stop-color="white" stop-opacity="0"/>
</radialGradient>
<linearGradient id="paint5_linear_311_685" x1="25.3125" y1="154.993" x2="51.8694" y2="145.429" gradientUnits="userSpaceOnUse">
<stop offset="0.0677083" stop-color="#4D5455"/>
<stop offset="0.21875" stop-color="#9EA1A1"/>
<stop offset="0.453125" stop-color="#848B8A"/>
<stop offset="0.524381" stop-color="#535D5E"/>
<stop offset="0.796875" stop-color="#4B5355"/>
<stop offset="0.895833" stop-color="#757A7B"/>
<stop offset="1" stop-color="#4D5455"/>
</linearGradient>
<radialGradient id="paint6_radial_311_685" cx="0" cy="0" r="1" gradientUnits="userSpaceOnUse" gradientTransform="translate(25.3125 136.076) rotate(59.2123) scale(23.5266 25.3303)">
<stop stop-color="white"/>
<stop offset="1" stop-color="white" stop-opacity="0"/>
</radialGradient>
<linearGradient id="paint7_linear_311_685" x1="54.0977" y1="46.9216" x2="124.931" y2="141.58" gradientUnits="userSpaceOnUse">
<stop stop-color="#FFF2D6"/>
<stop offset="0.212795" stop-color="#9D8555"/>
<stop offset="0.57751" stop-color="#D8C08F"/>
<stop offset="1" stop-color="#58400F"/>
</linearGradient>
<linearGradient id="paint8_linear_311_685" x1="54.0977" y1="106.489" x2="144.309" y2="71.2793" gradientUnits="userSpaceOnUse">
<stop offset="0.0677083" stop-color="#4D5455"/>
<stop offset="0.21875" stop-color="#9EA1A1"/>
<stop offset="0.453125" stop-color="#848B8A"/>
<stop offset="0.524381" stop-color="#535D5E"/>
<stop offset="0.796875" stop-color="#4B5355"/>
<stop offset="0.895833" stop-color="#757A7B"/>
<stop offset="1" stop-color="#4D5455"/>
</linearGradient>
<radialGradient id="paint9_radial_311_685" cx="0" cy="0" r="1" gradientUnits="userSpaceOnUse" gradientTransform="translate(54.0977 46.0107) rotate(57.1467) scale(76.9171 85.8282)">
<stop stop-color="white"/>
<stop offset="1" stop-color="white" stop-opacity="0"/>
</radialGradient>
</defs>
</svg>
