<svg width="270" height="270" viewBox="0 0 270 270" fill="none" xmlns="http://www.w3.org/2000/svg">
<path fill-rule="evenodd" clip-rule="evenodd" d="M82.5013 70.5012V96.4104L125.501 145.91V183.316L142.501 197.351V145.88L187.626 96.3796V70.5012H192.126V98.1229L147.001 147.623V206.901L121.001 185.436V147.592L78.0013 98.092V70.5012H82.5013Z" fill="url(#paint0_linear_339_1283)"/>
<path fill-rule="evenodd" clip-rule="evenodd" d="M82.5013 70.5012V96.4104L125.501 145.91V183.316L142.501 197.351V145.88L187.626 96.3796V70.5012H192.126V98.1229L147.001 147.623V206.901L121.001 185.436V147.592L78.0013 98.092V70.5012H82.5013Z" fill="url(#paint1_radial_339_1283)" style="mix-blend-mode:overlay"/>
<path fill-rule="evenodd" clip-rule="evenodd" d="M143.127 94.0074C143.814 94.0784 144.313 94.6925 144.242 95.3792C144.099 96.7691 143.497 98.7643 142.078 100.471C140.626 102.218 138.361 103.605 135.053 103.75C131.602 103.9 129.248 102.603 127.773 100.777C126.346 99.0114 125.821 96.8537 125.75 95.3085C125.718 94.6188 126.251 94.034 126.941 94.0022C127.631 93.9703 128.216 94.5036 128.247 95.1932C128.301 96.3563 128.709 97.9575 129.718 99.2064C130.678 100.396 132.261 101.369 134.944 101.252C137.53 101.139 139.142 100.092 140.155 98.8729C141.202 97.614 141.653 96.1129 141.755 95.1224C141.826 94.4357 142.44 93.9365 143.127 94.0074Z" fill="url(#paint2_linear_339_1283)"/>
<path fill-rule="evenodd" clip-rule="evenodd" d="M143.127 94.0074C143.814 94.0784 144.313 94.6925 144.242 95.3792C144.099 96.7691 143.497 98.7643 142.078 100.471C140.626 102.218 138.361 103.605 135.053 103.75C131.602 103.9 129.248 102.603 127.773 100.777C126.346 99.0114 125.821 96.8537 125.75 95.3085C125.718 94.6188 126.251 94.034 126.941 94.0022C127.631 93.9703 128.216 94.5036 128.247 95.1932C128.301 96.3563 128.709 97.9575 129.718 99.2064C130.678 100.396 132.261 101.369 134.944 101.252C137.53 101.139 139.142 100.092 140.155 98.8729C141.202 97.614 141.653 96.1129 141.755 95.1224C141.826 94.4357 142.44 93.9365 143.127 94.0074Z" fill="url(#paint3_radial_339_1283)" style="mix-blend-mode:overlay"/>
<path d="M152.506 59.8176V69.9994H150.354V61.861H150.294L147.962 63.3226V61.4135L150.483 59.8176H152.506Z" fill="url(#paint4_linear_339_1283)"/>
<path d="M152.506 59.8176V69.9994H150.354V61.861H150.294L147.962 63.3226V61.4135L150.483 59.8176H152.506Z" fill="url(#paint5_radial_339_1283)" style="mix-blend-mode:overlay"/>
<path fill-rule="evenodd" clip-rule="evenodd" d="M150.751 72.7507C155.031 72.7507 158.501 69.2809 158.501 65.0007C158.501 60.7205 155.031 57.2507 150.751 57.2507C146.471 57.2507 143.001 60.7205 143.001 65.0007C143.001 69.2809 146.471 72.7507 150.751 72.7507ZM150.751 74.7507C156.136 74.7507 160.501 70.3855 160.501 65.0007C160.501 59.616 156.136 55.2507 150.751 55.2507C145.366 55.2507 141.001 59.616 141.001 65.0007C141.001 70.3855 145.366 74.7507 150.751 74.7507Z" fill="url(#paint6_linear_339_1283)"/>
<path fill-rule="evenodd" clip-rule="evenodd" d="M150.751 72.7507C155.031 72.7507 158.501 69.2809 158.501 65.0007C158.501 60.7205 155.031 57.2507 150.751 57.2507C146.471 57.2507 143.001 60.7205 143.001 65.0007C143.001 69.2809 146.471 72.7507 150.751 72.7507ZM150.751 74.7507C156.136 74.7507 160.501 70.3855 160.501 65.0007C160.501 59.616 156.136 55.2507 150.751 55.2507C145.366 55.2507 141.001 59.616 141.001 65.0007C141.001 70.3855 145.366 74.7507 150.751 74.7507Z" fill="url(#paint7_radial_339_1283)" style="mix-blend-mode:overlay"/>
<path fill-rule="evenodd" clip-rule="evenodd" d="M131.125 50.145V55.4687L130.187 55.7107C128.409 56.1696 125.73 57.3411 123.581 59.32C121.46 61.273 119.901 63.9594 120.122 67.5485L120.125 67.587V80.5942L112.448 93.5005H158.345L150.125 80.6152V76.1255H152.625V79.8857L162.905 96.0005H108.052L117.625 79.9068V67.6631C117.36 63.1719 119.359 59.8086 121.887 57.4809C124.042 55.4967 126.613 54.2273 128.625 53.5661V50.1085L128.625 50.0916C128.654 49.0268 129.159 47.5002 130.209 46.2903C131.314 45.0169 133.049 44.0749 135.413 44.386C137.652 44.6806 139.074 45.7089 139.92 46.9284C140.734 48.101 140.945 49.347 140.996 50.033L141 50.0791V53.3149C141.202 53.3433 141.411 53.3814 141.62 53.4311C142.32 53.5975 143.251 53.9476 143.861 54.7329L144.629 55.7196L142.655 57.2544L141.888 56.2677C141.799 56.153 141.542 55.9823 141.042 55.8633C140.576 55.7525 140.092 55.7333 139.819 55.7484L138.5 55.8218V50.1751C138.462 49.7311 138.317 49.0034 137.866 48.3535C137.433 47.7293 136.647 47.07 135.087 46.8646C133.651 46.6757 132.718 47.2129 132.097 47.9291C131.427 48.7012 131.143 49.6632 131.125 50.145Z" fill="url(#paint8_linear_339_1283)"/>
<path fill-rule="evenodd" clip-rule="evenodd" d="M131.125 50.145V55.4687L130.187 55.7107C128.409 56.1696 125.73 57.3411 123.581 59.32C121.46 61.273 119.901 63.9594 120.122 67.5485L120.125 67.587V80.5942L112.448 93.5005H158.345L150.125 80.6152V76.1255H152.625V79.8857L162.905 96.0005H108.052L117.625 79.9068V67.6631C117.36 63.1719 119.359 59.8086 121.887 57.4809C124.042 55.4967 126.613 54.2273 128.625 53.5661V50.1085L128.625 50.0916C128.654 49.0268 129.159 47.5002 130.209 46.2903C131.314 45.0169 133.049 44.0749 135.413 44.386C137.652 44.6806 139.074 45.7089 139.92 46.9284C140.734 48.101 140.945 49.347 140.996 50.033L141 50.0791V53.3149C141.202 53.3433 141.411 53.3814 141.62 53.4311C142.32 53.5975 143.251 53.9476 143.861 54.7329L144.629 55.7196L142.655 57.2544L141.888 56.2677C141.799 56.153 141.542 55.9823 141.042 55.8633C140.576 55.7525 140.092 55.7333 139.819 55.7484L138.5 55.8218V50.1751C138.462 49.7311 138.317 49.0034 137.866 48.3535C137.433 47.7293 136.647 47.07 135.087 46.8646C133.651 46.6757 132.718 47.2129 132.097 47.9291C131.427 48.7012 131.143 49.6632 131.125 50.145Z" fill="url(#paint9_radial_339_1283)" style="mix-blend-mode:overlay"/>
<path fill-rule="evenodd" clip-rule="evenodd" d="M78.0013 70.5012H114.501V75.0012H78.0013V70.5012Z" fill="url(#paint10_linear_339_1283)"/>
<path fill-rule="evenodd" clip-rule="evenodd" d="M78.0013 70.5012H114.501V75.0012H78.0013V70.5012Z" fill="url(#paint11_radial_339_1283)" style="mix-blend-mode:overlay"/>
<path fill-rule="evenodd" clip-rule="evenodd" d="M78.0013 83.2488H110.251V87.7488H78.0013V83.2488Z" fill="url(#paint12_linear_339_1283)"/>
<path fill-rule="evenodd" clip-rule="evenodd" d="M78.0013 83.2488H110.251V87.7488H78.0013V83.2488Z" fill="url(#paint13_radial_339_1283)" style="mix-blend-mode:overlay"/>
<path fill-rule="evenodd" clip-rule="evenodd" d="M161.999 70.5012L191.499 70.5012L191.499 75.0012L161.999 75.0012L161.999 70.5012Z" fill="url(#paint14_linear_339_1283)"/>
<path fill-rule="evenodd" clip-rule="evenodd" d="M161.999 70.5012L191.499 70.5012L191.499 75.0012L161.999 75.0012L161.999 70.5012Z" fill="url(#paint15_radial_339_1283)" style="mix-blend-mode:overlay"/>
<path fill-rule="evenodd" clip-rule="evenodd" d="M158.501 83.2488L191.501 83.2488L191.501 87.7488L158.501 87.7488L158.501 83.2488Z" fill="url(#paint16_linear_339_1283)"/>
<path fill-rule="evenodd" clip-rule="evenodd" d="M158.501 83.2488L191.501 83.2488L191.501 87.7488L158.501 87.7488L158.501 83.2488Z" fill="url(#paint17_radial_339_1283)" style="mix-blend-mode:overlay"/>
<defs>
<linearGradient id="paint0_linear_339_1283" x1="78.0013" y1="160.872" x2="198.276" y2="126.026" gradientUnits="userSpaceOnUse">
<stop offset="0.21875" stop-color="#9EA1A1"/>
<stop offset="0.453125" stop-color="#848B8A"/>
<stop offset="0.524381" stop-color="#535D5E"/>
<stop offset="0.895833" stop-color="#757A7B"/>
</linearGradient>
<radialGradient id="paint1_radial_339_1283" cx="0" cy="0" r="1" gradientUnits="userSpaceOnUse" gradientTransform="translate(78.0013 58.6927) rotate(64.3892) scale(121.063 115.543)">
<stop stop-color="white"/>
<stop offset="1" stop-color="white" stop-opacity="0"/>
</radialGradient>
<linearGradient id="paint2_linear_339_1283" x1="125.749" y1="100.468" x2="140.52" y2="90.7734" gradientUnits="userSpaceOnUse">
<stop offset="0.21875" stop-color="#9EA1A1"/>
<stop offset="0.453125" stop-color="#848B8A"/>
<stop offset="0.524381" stop-color="#535D5E"/>
<stop offset="0.895833" stop-color="#757A7B"/>
</linearGradient>
<radialGradient id="paint3_radial_339_1283" cx="0" cy="0" r="1" gradientUnits="userSpaceOnUse" gradientTransform="translate(125.749 93.1557) rotate(42.6426) scale(11.5321 14.0705)">
<stop stop-color="white"/>
<stop offset="1" stop-color="white" stop-opacity="0"/>
</radialGradient>
<linearGradient id="paint4_linear_339_1283" x1="147.962" y1="66.5635" x2="153.032" y2="65.7801" gradientUnits="userSpaceOnUse">
<stop offset="0.21875" stop-color="#9EA1A1"/>
<stop offset="0.453125" stop-color="#848B8A"/>
<stop offset="0.524381" stop-color="#535D5E"/>
<stop offset="0.895833" stop-color="#757A7B"/>
</linearGradient>
<radialGradient id="paint5_radial_339_1283" cx="0" cy="0" r="1" gradientUnits="userSpaceOnUse" gradientTransform="translate(147.962 58.9362) rotate(75.6576) scale(8.41121 4.94271)">
<stop stop-color="white"/>
<stop offset="1" stop-color="white" stop-opacity="0"/>
</radialGradient>
<linearGradient id="paint6_linear_339_1283" x1="141.001" y1="68.1703" x2="160.892" y2="61.2828" gradientUnits="userSpaceOnUse">
<stop offset="0.21875" stop-color="#9EA1A1"/>
<stop offset="0.453125" stop-color="#848B8A"/>
<stop offset="0.524381" stop-color="#535D5E"/>
<stop offset="0.895833" stop-color="#757A7B"/>
</linearGradient>
<radialGradient id="paint7_radial_339_1283" cx="0" cy="0" r="1" gradientUnits="userSpaceOnUse" gradientTransform="translate(141.001 53.5626) rotate(60.1911) scale(17.9868 18.9965)">
<stop stop-color="white"/>
<stop offset="1" stop-color="white" stop-opacity="0"/>
</radialGradient>
<linearGradient id="paint8_linear_339_1283" x1="108.052" y1="78.5627" x2="163.255" y2="58.2718" gradientUnits="userSpaceOnUse">
<stop offset="0.21875" stop-color="#9EA1A1"/>
<stop offset="0.453125" stop-color="#848B8A"/>
<stop offset="0.524381" stop-color="#535D5E"/>
<stop offset="0.895833" stop-color="#757A7B"/>
</linearGradient>
<radialGradient id="paint9_radial_339_1283" cx="0" cy="0" r="1" gradientUnits="userSpaceOnUse" gradientTransform="translate(108.052 39.8526) rotate(58.6939) scale(48.4054 52.6185)">
<stop stop-color="white"/>
<stop offset="1" stop-color="white" stop-opacity="0"/>
</radialGradient>
<linearGradient id="paint10_linear_339_1283" x1="78.0013" y1="73.4827" x2="82.6924" y2="60.3073" gradientUnits="userSpaceOnUse">
<stop offset="0.21875" stop-color="#9EA1A1"/>
<stop offset="0.453125" stop-color="#848B8A"/>
<stop offset="0.524381" stop-color="#535D5E"/>
<stop offset="0.895833" stop-color="#757A7B"/>
</linearGradient>
<radialGradient id="paint11_radial_339_1283" cx="0" cy="0" r="1" gradientUnits="userSpaceOnUse" gradientTransform="translate(78.0013 70.1116) rotate(12.1445) scale(17.1196 8.62122)">
<stop stop-color="white"/>
<stop offset="1" stop-color="white" stop-opacity="0"/>
</radialGradient>
<linearGradient id="paint12_linear_339_1283" x1="78.0013" y1="86.2302" x2="83.1479" y2="73.4586" gradientUnits="userSpaceOnUse">
<stop offset="0.21875" stop-color="#9EA1A1"/>
<stop offset="0.453125" stop-color="#848B8A"/>
<stop offset="0.524381" stop-color="#535D5E"/>
<stop offset="0.895833" stop-color="#757A7B"/>
</linearGradient>
<radialGradient id="paint13_radial_339_1283" cx="0" cy="0" r="1" gradientUnits="userSpaceOnUse" gradientTransform="translate(78.0013 82.8592) rotate(13.6881) scale(15.2199 8.56812)">
<stop stop-color="white"/>
<stop offset="1" stop-color="white" stop-opacity="0"/>
</radialGradient>
<linearGradient id="paint14_linear_339_1283" x1="161.999" y1="73.4827" x2="167.476" y2="61.0499" gradientUnits="userSpaceOnUse">
<stop offset="0.21875" stop-color="#9EA1A1"/>
<stop offset="0.453125" stop-color="#848B8A"/>
<stop offset="0.524381" stop-color="#535D5E"/>
<stop offset="0.895833" stop-color="#757A7B"/>
</linearGradient>
<radialGradient id="paint15_radial_339_1283" cx="0" cy="0" r="1" gradientUnits="userSpaceOnUse" gradientTransform="translate(161.999 70.1116) rotate(14.9095) scale(13.998 8.52169)">
<stop stop-color="white"/>
<stop offset="1" stop-color="white" stop-opacity="0"/>
</radialGradient>
<linearGradient id="paint16_linear_339_1283" x1="158.501" y1="86.2302" x2="163.562" y2="73.3779" gradientUnits="userSpaceOnUse">
<stop offset="0.21875" stop-color="#9EA1A1"/>
<stop offset="0.453125" stop-color="#848B8A"/>
<stop offset="0.524381" stop-color="#535D5E"/>
<stop offset="0.895833" stop-color="#757A7B"/>
</linearGradient>
<radialGradient id="paint17_radial_339_1283" cx="0" cy="0" r="1" gradientUnits="userSpaceOnUse" gradientTransform="translate(158.501 82.8592) rotate(13.3883) scale(15.5543 8.57892)">
<stop stop-color="white"/>
<stop offset="1" stop-color="white" stop-opacity="0"/>
</radialGradient>
</defs>
</svg>
