<svg width="205" height="193" viewBox="0 0 205 193" fill="none" xmlns="http://www.w3.org/2000/svg">
<g filter="url(#filter0_d_1498_75243)">
<circle cx="108.333" cy="96.3333" r="83.3333" fill="url(#paint0_linear_1498_75243)"/>
<g filter="url(#filter1_d_1498_75243)">
<circle cx="38" cy="155" r="25" fill="#402EA1"/>
</g>
<path d="M49.0106 148.09C48.8878 147.794 48.6529 147.559 48.3572 147.437C48.2117 147.375 48.0555 147.342 47.8974 147.34H41.8474C41.5265 147.34 41.2187 147.467 40.9918 147.694C40.7649 147.921 40.6374 148.229 40.6374 148.55C40.6374 148.871 40.7649 149.178 40.9918 149.405C41.2187 149.632 41.5265 149.76 41.8474 149.76H44.9813L38.2174 156.524L34.2365 152.531C34.124 152.417 33.9902 152.327 33.8427 152.266C33.6953 152.204 33.5371 152.173 33.3774 152.173C33.2177 152.173 33.0595 152.204 32.9121 152.266C32.7646 152.327 32.6308 152.417 32.5183 152.531L25.2583 159.791C25.1449 159.903 25.0549 160.037 24.9934 160.184C24.932 160.332 24.9004 160.49 24.9004 160.65C24.9004 160.809 24.932 160.968 24.9934 161.115C25.0549 161.263 25.1449 161.396 25.2583 161.509C25.3708 161.622 25.5046 161.712 25.6521 161.774C25.7995 161.835 25.9577 161.867 26.1174 161.867C26.2771 161.867 26.4353 161.835 26.5827 161.774C26.7302 161.712 26.864 161.622 26.9765 161.509L33.3774 155.096L37.3583 159.089C37.4708 159.202 37.6046 159.292 37.7521 159.354C37.8995 159.415 38.0577 159.447 38.2174 159.447C38.3771 159.447 38.5353 159.415 38.6827 159.354C38.8302 159.292 38.964 159.202 39.0765 159.089L46.6874 151.466V154.6C46.6874 154.921 46.8149 155.228 47.0418 155.455C47.2687 155.682 47.5765 155.81 47.8974 155.81C48.2183 155.81 48.5261 155.682 48.753 155.455C48.9799 155.228 49.1074 154.921 49.1074 154.6V148.55C49.1055 148.392 49.0726 148.235 49.0106 148.09Z" fill="white"/>
<rect x="60.4668" y="63.6978" width="91.8667" height="68.7911" rx="10.7333" fill="white" stroke="#402EA1" stroke-width="2"/>
<path d="M59.4668 74.4311C59.4668 67.9509 64.72 62.6978 71.2001 62.6978H141.6C148.08 62.6978 153.333 67.9509 153.333 74.4311V81.08H59.4668V74.4311Z" fill="#402EA1"/>
<circle cx="69.8308" cy="71.8889" r="2.93333" fill="white"/>
<circle cx="77.6531" cy="71.8889" r="2.93333" fill="white"/>
<circle cx="85.4753" cy="71.8889" r="2.93333" fill="white"/>
<rect x="111.876" y="70.52" width="33.6356" height="3.12889" rx="1.56444" fill="white"/>
<path d="M103.88 104.006V107.219M109.755 103.9L109.62 107.219" stroke="#402EA1" stroke-width="0.384"/>
<path d="M109.589 107.372L111.467 108.035L113.087 108.672L112.273 119.32H102.012L100.673 108.669L103.942 107.371L104.391 107.538C105.299 107.875 106.259 108.047 107.227 108.047C107.774 108.047 108.314 107.934 108.814 107.713L109.589 107.372Z" stroke="#402EA1" stroke-width="0.384"/>
<path d="M104.928 115.462L105.154 112.876H108.313L108.588 115.465L106.814 118.236L104.928 115.462Z" fill="#402EA1" stroke="white" stroke-width="0.2112"/>
<path d="M105.164 112.554L104.684 109.958H108.683L108.202 112.554H105.164Z" fill="#402EA1"/>
<path d="M106.876 118.684L111.6 111.046L113.16 108.725L119.258 110.357V119.606V124.191L106.786 127.863L93.8849 124.069V116.583V110.067L100.388 108.721L106.697 118.685L106.787 118.828L106.876 118.684Z" fill="#402EA1" stroke="#402EA1" stroke-width="0.2112"/>
<path d="M101.639 94.3708L101.64 94.3822L101.64 94.3937C101.639 94.4147 101.64 94.4384 101.642 94.4717C101.643 94.4761 101.643 94.4808 101.643 94.4858C101.645 94.5138 101.648 94.5491 101.648 94.5844L101.693 96.2113L101.693 96.2113L101.693 96.2172L101.681 99.9673L101.685 100.261L101.685 100.261L101.685 100.267C101.677 100.721 101.703 101.176 101.763 101.627C101.832 102.081 102.004 102.513 102.266 102.89C102.77 103.604 103.635 103.986 104.538 104.145C104.783 104.177 106.084 104.278 107.447 104.191C108.132 104.148 108.824 104.058 109.402 103.892C109.982 103.726 110.41 103.493 110.623 103.191L111.71 101.157L111.71 101.157L111.713 101.151L111.954 100.738L111.99 100.67L112.075 100.509L112.24 100.585L112.314 100.619L112.314 100.619L112.322 100.624C112.563 100.75 112.833 100.814 113.105 100.809C113.277 100.792 113.444 100.741 113.596 100.659C113.75 100.575 113.885 100.46 113.993 100.322L113.993 100.322L113.995 100.319C114.124 100.159 114.22 99.9742 114.276 99.776C114.333 99.5779 114.348 99.3705 114.323 99.1661L114.322 99.1661L114.322 99.1561C114.307 98.9604 114.254 98.7696 114.164 98.5953L114.333 98.5075L114.164 98.5953C114.083 98.4393 113.975 98.2995 113.844 98.1824L113.841 98.1822L113.794 98.1466C113.74 98.1062 113.691 98.0602 113.647 98.0096C113.605 97.9959 113.565 97.9788 113.526 97.9586L113.427 97.9073L113.422 97.796L113.203 92.4454L101.488 92.8125C101.49 92.8563 101.494 92.9065 101.498 92.9626C101.51 93.1163 101.527 93.3002 101.547 93.4856C101.561 93.6221 101.576 93.7608 101.59 93.8882C101.613 94.1017 101.633 94.2836 101.639 94.3708Z" stroke="#402EA1" stroke-width="0.384"/>
<path d="M114.94 95.5409L115.107 93.356C115.11 92.9594 115.028 92.5667 114.867 92.2043C114.706 91.8419 114.469 91.5182 114.173 91.2549C113.376 90.5113 112.346 90.3368 111.289 90.3728C111.25 90.0836 111.152 89.8054 111.001 89.5557C110.699 89.1793 110.334 88.8572 109.924 88.6033C108.848 87.8638 107.625 87.365 106.338 87.1409C104.571 86.8798 102.771 87.3082 101.31 88.3375C100.644 88.8164 100.043 89.6307 99.9132 90.4556C99.8464 90.8832 99.8673 91.3199 99.9746 91.7392C100.082 92.1585 100.273 92.5516 100.537 92.8946L101.012 93.4302C101.36 93.7188 101.738 93.9676 102.141 94.1719C103.287 94.7223 104.533 94.7568 105.773 94.6114C107.168 94.419 108.533 94.0475 109.833 93.506C109.624 94.1238 109.544 94.7783 109.599 95.4284C109.655 96.0784 109.844 96.7101 110.154 97.2837C110.584 98.1271 111.294 98.795 112.161 99.173C112.454 98.8022 112.71 98.5491 113.207 98.479C113.517 98.435 113.833 98.4715 114.124 98.5852C114.237 98.6537 114.358 98.7067 114.485 98.7428L114.822 96.609L114.94 95.5409Z" fill="#402EA1"/>
<path d="M106.812 119.107V127.866" stroke="white" stroke-width="0.2112"/>
<path d="M116.64 113.766V122.525" stroke="white" stroke-width="0.2112"/>
<path d="M96.1299 113.766V122.525" stroke="white" stroke-width="0.2112"/>
</g>
<defs>
<filter id="filter0_d_1498_75243" x="0.5" y="0.5" width="203.667" height="192" filterUnits="userSpaceOnUse" color-interpolation-filters="sRGB">
<feFlood flood-opacity="0" result="BackgroundImageFix"/>
<feColorMatrix in="SourceAlpha" type="matrix" values="0 0 0 0 0 0 0 0 0 0 0 0 0 0 0 0 0 0 127 0" result="hardAlpha"/>
<feOffset/>
<feGaussianBlur stdDeviation="6.25"/>
<feComposite in2="hardAlpha" operator="out"/>
<feColorMatrix type="matrix" values="0 0 0 0 0 0 0 0 0 0 0 0 0 0 0 0 0 0 0.1 0"/>
<feBlend mode="normal" in2="BackgroundImageFix" result="effect1_dropShadow_1498_75243"/>
<feBlend mode="normal" in="SourceGraphic" in2="effect1_dropShadow_1498_75243" result="shape"/>
</filter>
<filter id="filter1_d_1498_75243" x="9" y="130" width="58" height="58" filterUnits="userSpaceOnUse" color-interpolation-filters="sRGB">
<feFlood flood-opacity="0" result="BackgroundImageFix"/>
<feColorMatrix in="SourceAlpha" type="matrix" values="0 0 0 0 0 0 0 0 0 0 0 0 0 0 0 0 0 0 127 0" result="hardAlpha"/>
<feOffset dy="4"/>
<feGaussianBlur stdDeviation="2"/>
<feComposite in2="hardAlpha" operator="out"/>
<feColorMatrix type="matrix" values="0 0 0 0 0 0 0 0 0 0 0 0 0 0 0 0 0 0 0.1 0"/>
<feBlend mode="normal" in2="BackgroundImageFix" result="effect1_dropShadow_1498_75243"/>
<feBlend mode="normal" in="SourceGraphic" in2="effect1_dropShadow_1498_75243" result="shape"/>
</filter>
<linearGradient id="paint0_linear_1498_75243" x1="68.6012" y1="-59.9243" x2="288.915" y2="151.69" gradientUnits="userSpaceOnUse">
<stop offset="0.290144" stop-color="white"/>
<stop offset="0.973068" stop-color="#C7D5E0"/>
</linearGradient>
</defs>
</svg>
