<svg width="204" height="193" viewBox="0 0 204 193" fill="none" xmlns="http://www.w3.org/2000/svg">
<g filter="url(#filter0_d_1498_74714)">
<circle cx="108.038" cy="96.3333" r="83.3333" fill="url(#paint0_linear_1498_74714)"/>
<g filter="url(#filter1_d_1498_74714)">
<circle cx="38" cy="154.67" r="25" fill="#402EA1"/>
</g>
<path d="M36.3573 169.285C35.6922 169.285 35.0688 169.143 34.4873 168.858C33.9058 168.573 33.4127 168.169 33.0079 167.646L25.2402 157.776L25.9172 157.064C26.3923 156.565 26.9624 156.268 27.6275 156.173C28.2927 156.078 28.9103 156.209 29.4804 156.565L32.1171 158.168V146.481C32.1171 146.077 32.254 145.739 32.5276 145.466C32.8013 145.194 33.1395 145.057 33.5424 145.056C33.9453 145.055 34.2897 145.192 34.5757 145.466C34.8617 145.741 35.0042 146.079 35.0033 146.481V153.607H45.6571C46.8448 153.607 47.8544 154.023 48.6858 154.855C49.5172 155.686 49.9329 156.696 49.9329 157.883V163.584C49.9329 165.152 49.3747 166.494 48.2582 167.611C47.1418 168.727 45.7996 169.285 44.2319 169.285H36.3573ZM27.3781 150.044C27.0693 149.522 26.8318 148.958 26.6655 148.353C26.4992 147.747 26.4161 147.123 26.4161 146.481C26.4161 144.51 27.1111 142.829 28.5012 141.44C29.8913 140.051 31.5717 139.356 33.5424 139.355C35.5131 139.354 37.1939 140.049 38.585 141.44C39.976 142.831 40.6706 144.511 40.6687 146.481C40.6687 147.123 40.5856 147.746 40.4193 148.353C40.253 148.959 40.0155 149.523 39.7066 150.044L37.2481 148.619C37.4381 148.287 37.5806 147.948 37.6756 147.604C37.7707 147.26 37.8182 146.886 37.8182 146.481C37.8182 145.293 37.4025 144.284 36.5711 143.452C35.7397 142.621 34.7301 142.205 33.5424 142.205C32.3547 142.205 31.3451 142.621 30.5137 143.452C29.6823 144.284 29.2666 145.293 29.2666 146.481C29.2666 146.885 29.3141 147.259 29.4091 147.604C29.5041 147.949 29.6467 148.287 29.8367 148.619L27.3781 150.044Z" fill="white"/>
<path d="M127.923 52.4543H75.0679C74.1138 52.4543 73.4619 53.5548 73.4619 54.6847V139.812C73.4619 140.408 73.9447 140.891 74.5403 140.891H142.188C142.783 140.891 143.266 140.408 143.266 139.812V68.3612L127.923 52.4543Z" fill="white"/>
<path d="M128.462 52.4543L143.56 68.0916H129.54C128.945 68.0916 128.462 67.6088 128.462 67.0132V52.4543Z" fill="#402EA1"/>
<path d="M85.3247 86.9641H131.697V90.1994H85.3247V86.9641Z" fill="#402EA1"/>
<path d="M85.3247 92.3563H131.697V95.5916H85.3247V92.3563Z" fill="#402EA1"/>
<path d="M85.3247 97.7485H93.9521V100.984H85.3247V97.7485Z" fill="#402EA1"/>
<path d="M74.4018 52.6484H127.856L142.885 68.2303V140.675C142.885 140.68 142.885 140.682 142.884 140.683C142.884 140.684 142.884 140.684 142.883 140.685C142.882 140.686 142.881 140.688 142.879 140.69C142.876 140.693 142.874 140.694 142.872 140.695C142.871 140.695 142.871 140.696 142.87 140.696C142.868 140.696 142.867 140.696 142.864 140.696H73.8637C73.8587 140.696 73.8567 140.696 73.8556 140.695C73.8538 140.694 73.8512 140.693 73.8484 140.69C73.8457 140.687 73.8441 140.685 73.8434 140.683C73.8429 140.682 73.8421 140.68 73.8421 140.675V53.8449C73.8421 53.4605 73.9564 53.1077 74.1105 52.8804C74.2622 52.6565 74.3742 52.6484 74.4018 52.6484Z" stroke="#402EA1" stroke-width="2.15686"/>
</g>
<defs>
<filter id="filter0_d_1498_74714" x="0.5" y="0.5" width="203.372" height="191.67" filterUnits="userSpaceOnUse" color-interpolation-filters="sRGB">
<feFlood flood-opacity="0" result="BackgroundImageFix"/>
<feColorMatrix in="SourceAlpha" type="matrix" values="0 0 0 0 0 0 0 0 0 0 0 0 0 0 0 0 0 0 127 0" result="hardAlpha"/>
<feOffset/>
<feGaussianBlur stdDeviation="6.25"/>
<feComposite in2="hardAlpha" operator="out"/>
<feColorMatrix type="matrix" values="0 0 0 0 0 0 0 0 0 0 0 0 0 0 0 0 0 0 0.1 0"/>
<feBlend mode="normal" in2="BackgroundImageFix" result="effect1_dropShadow_1498_74714"/>
<feBlend mode="normal" in="SourceGraphic" in2="effect1_dropShadow_1498_74714" result="shape"/>
</filter>
<filter id="filter1_d_1498_74714" x="9" y="129.67" width="58" height="58" filterUnits="userSpaceOnUse" color-interpolation-filters="sRGB">
<feFlood flood-opacity="0" result="BackgroundImageFix"/>
<feColorMatrix in="SourceAlpha" type="matrix" values="0 0 0 0 0 0 0 0 0 0 0 0 0 0 0 0 0 0 127 0" result="hardAlpha"/>
<feOffset dy="4"/>
<feGaussianBlur stdDeviation="2"/>
<feComposite in2="hardAlpha" operator="out"/>
<feColorMatrix type="matrix" values="0 0 0 0 0 0 0 0 0 0 0 0 0 0 0 0 0 0 0.1 0"/>
<feBlend mode="normal" in2="BackgroundImageFix" result="effect1_dropShadow_1498_74714"/>
<feBlend mode="normal" in="SourceGraphic" in2="effect1_dropShadow_1498_74714" result="shape"/>
</filter>
<linearGradient id="paint0_linear_1498_74714" x1="68.3062" y1="-59.9243" x2="288.62" y2="151.69" gradientUnits="userSpaceOnUse">
<stop offset="0.290144" stop-color="white"/>
<stop offset="0.973068" stop-color="#C7D5E0"/>
</linearGradient>
</defs>
</svg>
