<svg width="196" height="193" viewBox="0 0 196 193" fill="none" xmlns="http://www.w3.org/2000/svg">
<g filter="url(#filter0_d_311_655)">
<circle cx="99.3333" cy="96.3333" r="80.8333" stroke="url(#paint0_linear_311_655)" stroke-width="5"/>
<circle cx="99.3333" cy="96.3333" r="80.8333" stroke="url(#paint1_radial_311_655)" stroke-width="5" style="mix-blend-mode:overlay"/>
<g filter="url(#filter1_d_311_655)">
<circle cx="38" cy="150" r="25" fill="url(#paint2_linear_311_655)"/>
</g>
<path d="M36.0645 151.025C37.2195 148.94 39.4395 147.71 40.7295 145.865C42.0945 143.93 41.3295 140.315 37.4595 140.315C34.9245 140.315 33.6795 142.235 33.1545 143.825L29.2695 142.19C30.3345 138.995 33.2295 136.25 37.4445 136.25C40.9695 136.25 43.3845 137.855 44.6145 139.865C45.6645 141.59 46.2795 144.815 44.6595 147.215C42.8595 149.87 41.1345 150.68 40.2045 152.39C39.8295 153.08 39.6795 153.53 39.6795 155.75H35.3445C35.3295 154.58 35.1495 152.675 36.0645 151.025ZM40.4595 161.75C40.4595 163.4 39.1095 164.75 37.4595 164.75C35.8095 164.75 34.4595 163.4 34.4595 161.75C34.4595 160.1 35.8095 158.75 37.4595 158.75C39.1095 158.75 40.4595 160.1 40.4595 161.75Z" fill="url(#paint3_linear_311_655)"/>
<path d="M36.0645 151.025C37.2195 148.94 39.4395 147.71 40.7295 145.865C42.0945 143.93 41.3295 140.315 37.4595 140.315C34.9245 140.315 33.6795 142.235 33.1545 143.825L29.2695 142.19C30.3345 138.995 33.2295 136.25 37.4445 136.25C40.9695 136.25 43.3845 137.855 44.6145 139.865C45.6645 141.59 46.2795 144.815 44.6595 147.215C42.8595 149.87 41.1345 150.68 40.2045 152.39C39.8295 153.08 39.6795 153.53 39.6795 155.75H35.3445C35.3295 154.58 35.1495 152.675 36.0645 151.025ZM40.4595 161.75C40.4595 163.4 39.1095 164.75 37.4595 164.75C35.8095 164.75 34.4595 163.4 34.4595 161.75C34.4595 160.1 35.8095 158.75 37.4595 158.75C39.1095 158.75 40.4595 160.1 40.4595 161.75Z" fill="url(#paint4_radial_311_655)" style="mix-blend-mode:overlay"/>
<g clip-path="url(#clip0_311_655)">
<mask id="path-4-inside-1_311_655" fill="white">
<path d="M130.07 64.3724C127.123 62.1801 123.069 60.745 120.02 59.7492C114.133 57.826 105.307 56.8163 99.0446 56.6127V56.6016C99.0098 56.6016 98.9707 56.6071 98.9373 56.6071C98.901 56.6071 98.8605 56.6016 98.8271 56.6016V56.6127C92.5638 56.8163 83.7372 57.826 77.8519 59.7492C74.8088 60.745 70.7462 62.1801 67.7994 64.3724C61.2474 64.7155 54.9758 73.0693 54.4221 76.8613C53.835 80.9169 59.0397 84.9279 66.0631 85.8274C73.0781 86.72 79.2409 84.1538 79.8336 80.0997C80.0693 78.4777 79.524 75.793 78.3498 73.0986C84.8166 70.3916 92.6517 69.0305 98.94 68.7697C105.223 69.0305 113.061 70.3916 119.525 73.0986C118.353 75.7958 117.808 78.4819 118.044 80.0997C118.638 84.1552 124.799 86.72 131.814 85.8274C138.843 84.9279 144.042 80.9169 143.455 76.8613C142.903 73.0693 136.628 64.7141 130.074 64.3724"/>
</mask>
<path d="M130.07 64.3724C127.123 62.1801 123.069 60.745 120.02 59.7492C114.133 57.826 105.307 56.8163 99.0446 56.6127V56.6016C99.0098 56.6016 98.9707 56.6071 98.9373 56.6071C98.901 56.6071 98.8605 56.6016 98.8271 56.6016V56.6127C92.5638 56.8163 83.7372 57.826 77.8519 59.7492C74.8088 60.745 70.7462 62.1801 67.7994 64.3724C61.2474 64.7155 54.9758 73.0693 54.4221 76.8613C53.835 80.9169 59.0397 84.9279 66.0631 85.8274C73.0781 86.72 79.2409 84.1538 79.8336 80.0997C80.0693 78.4777 79.524 75.793 78.3498 73.0986C84.8166 70.3916 92.6517 69.0305 98.94 68.7697C105.223 69.0305 113.061 70.3916 119.525 73.0986C118.353 75.7958 117.808 78.4819 118.044 80.0997C118.638 84.1552 124.799 86.72 131.814 85.8274C138.843 84.9279 144.042 80.9169 143.455 76.8613C142.903 73.0693 136.628 64.7141 130.074 64.3724" fill="url(#paint5_linear_311_655)"/>
<path d="M120.02 59.7492L119.587 61.0749L119.587 61.0749L120.02 59.7492ZM99.0446 56.6127H97.65V57.9627L98.9993 58.0066L99.0446 56.6127ZM99.0446 56.6016H100.439V55.2069H99.0446V56.6016ZM98.8271 56.6016V55.2069H97.4325V56.6016H98.8271ZM98.8271 56.6127L98.8724 58.0066L100.222 57.9627V56.6127H98.8271ZM77.8519 59.7492L77.4187 58.4236L77.4181 58.4238L77.8519 59.7492ZM67.7994 64.3724L67.8723 65.7652L68.2935 65.7431L68.6318 65.4914L67.7994 64.3724ZM54.4221 76.8613L53.0421 76.6598L53.0419 76.6615L54.4221 76.8613ZM66.0631 85.8274L65.8859 87.2107L65.8871 87.2109L66.0631 85.8274ZM79.8336 80.0997L81.2136 80.3014L81.2138 80.3002L79.8336 80.0997ZM78.3498 73.0986L77.8113 71.8122L76.5059 72.3586L77.0713 73.6558L78.3498 73.0986ZM98.94 68.7697L98.9979 67.3763L98.9401 67.3739L98.8823 67.3763L98.94 68.7697ZM119.525 73.0986L120.804 73.6542L121.367 72.3581L120.063 71.8122L119.525 73.0986ZM118.044 80.0997L116.664 80.3007L116.664 80.3018L118.044 80.0997ZM131.814 85.8274L131.99 87.2109L131.991 87.2107L131.814 85.8274ZM143.455 76.8613L144.835 76.6615L144.835 76.6603L143.455 76.8613ZM130.902 63.2535C127.749 60.908 123.488 59.4148 120.453 58.4235L119.587 61.0749C122.649 62.0752 126.496 63.4521 129.237 65.4914L130.902 63.2535ZM120.453 58.4236C114.385 56.4411 105.408 55.4243 99.09 55.2188L98.9993 58.0066C105.205 58.2084 113.881 59.211 119.587 61.0749L120.453 58.4236ZM100.439 56.6127V56.6016H97.65V56.6127H100.439ZM99.0446 55.2069C99.0001 55.2069 98.9626 55.2087 98.9377 55.2101C98.9137 55.2115 98.8919 55.2132 98.8845 55.2138C98.8726 55.2147 98.8761 55.2144 98.8816 55.214C98.8879 55.2137 98.9086 55.2125 98.9373 55.2125V58.0018C98.9826 58.0018 99.0207 57.9999 99.045 57.9985C99.0683 57.9971 99.09 57.9954 99.0964 57.9949C99.1073 57.9941 99.1039 57.9944 99.098 57.9948C99.0913 57.9951 99.0717 57.9962 99.0446 57.9962V55.2069ZM98.9373 55.2125C98.9626 55.2125 98.9808 55.2135 98.9868 55.2138C98.9921 55.2141 98.9948 55.2143 98.9841 55.2135C98.9779 55.2131 98.9563 55.2114 98.9336 55.2101C98.9101 55.2088 98.8722 55.2069 98.8271 55.2069V57.9962C98.7987 57.9962 98.7784 57.9951 98.773 57.9947C98.7684 57.9945 98.7655 57.9942 98.7781 57.9952C98.7862 57.9958 98.808 57.9974 98.8321 57.9988C98.8569 58.0001 98.8938 58.0018 98.9373 58.0018V55.2125ZM97.4325 56.6016V56.6127H100.222V56.6016H97.4325ZM98.7818 55.2188C92.4626 55.4243 83.4855 56.4411 77.4187 58.4236L78.2851 61.0749C83.9889 59.211 92.6651 58.2084 98.8724 58.0066L98.7818 55.2188ZM77.4181 58.4238C74.3904 59.4145 70.1198 60.9079 66.9669 63.2535L68.6318 65.4914C71.3727 63.4523 75.2271 62.0755 78.2856 61.0747L77.4181 58.4238ZM67.7265 62.9797C63.9218 63.1789 60.3996 65.6587 57.8466 68.3669C56.5473 69.7451 55.442 71.2411 54.6188 72.6577C53.8095 74.05 53.2172 75.4607 53.0421 76.6598L55.8021 77.0628C55.9039 76.366 56.3031 75.3104 57.0303 74.0592C57.7434 72.8322 58.7194 71.5073 59.8762 70.2802C62.2354 67.7777 65.125 65.909 67.8723 65.7652L67.7265 62.9797ZM53.0419 76.6615C52.6462 79.3946 54.2317 81.8564 56.5376 83.6327C58.8737 85.4323 62.1759 86.7356 65.8859 87.2107L66.2403 84.4441C62.9269 84.0197 60.1151 82.8677 58.2398 81.4231C56.3342 79.9551 55.6109 78.3836 55.8024 77.0611L53.0419 76.6615ZM65.8871 87.2109C69.5945 87.6826 73.1402 87.2513 75.8925 86.1062C78.604 84.978 80.8162 83.0199 81.2136 80.3014L78.4537 79.8979C78.2584 81.2336 77.0928 82.5857 74.821 83.5309C72.5899 84.4592 69.5466 84.8648 66.2391 84.4439L65.8871 87.2109ZM81.2138 80.3002C81.5045 78.2992 80.8426 75.3278 79.6282 72.5414L77.0713 73.6558C78.2055 76.2583 78.6341 78.6562 78.4535 79.8991L81.2138 80.3002ZM78.8883 74.3851C85.1675 71.7567 92.832 70.4188 98.9978 70.1631L98.8823 67.3763C92.4713 67.6421 84.4658 69.0266 77.8113 71.8122L78.8883 74.3851ZM98.8822 70.1631C105.043 70.4188 112.71 71.7567 118.986 74.385L120.063 71.8122C113.412 69.0266 105.403 67.6421 98.9979 67.3763L98.8822 70.1631ZM118.246 72.543C117.035 75.3307 116.373 78.3037 116.664 80.3007L119.424 79.8986C119.243 78.6601 119.672 76.2609 120.804 73.6542L118.246 72.543ZM116.664 80.3018C117.062 83.0205 119.274 84.9786 121.985 86.1067C124.738 87.2517 128.283 87.6826 131.99 87.2109L131.638 84.4439C128.331 84.8648 125.288 84.4595 123.057 83.5314C120.785 82.5864 119.619 81.2344 119.424 79.8975L116.664 80.3018ZM131.991 87.2107C135.704 86.7356 139.006 85.4324 141.342 83.6326C143.648 81.8559 145.231 79.3941 144.835 76.6615L142.075 77.0611C142.266 78.3842 141.544 79.9556 139.639 81.4232C137.765 82.8676 134.953 84.0196 131.637 84.444L131.991 87.2107ZM144.835 76.6603C144.661 75.4609 144.068 74.0499 143.259 72.6574C142.435 71.2407 141.33 69.7446 140.03 68.3662C137.476 65.6578 133.952 63.1781 130.146 62.9797L130.001 65.7652C132.75 65.9084 135.641 67.7772 138.001 70.2798C139.158 71.507 140.134 72.832 140.847 74.059C141.575 75.3103 141.974 76.3658 142.075 77.0623L144.835 76.6603Z" fill="url(#paint6_linear_311_655)" mask="url(#path-4-inside-1_311_655)"/>
<path d="M120.02 59.7492L119.587 61.0749L119.587 61.0749L120.02 59.7492ZM99.0446 56.6127H97.65V57.9627L98.9993 58.0066L99.0446 56.6127ZM99.0446 56.6016H100.439V55.2069H99.0446V56.6016ZM98.8271 56.6016V55.2069H97.4325V56.6016H98.8271ZM98.8271 56.6127L98.8724 58.0066L100.222 57.9627V56.6127H98.8271ZM77.8519 59.7492L77.4187 58.4236L77.4181 58.4238L77.8519 59.7492ZM67.7994 64.3724L67.8723 65.7652L68.2935 65.7431L68.6318 65.4914L67.7994 64.3724ZM54.4221 76.8613L53.0421 76.6598L53.0419 76.6615L54.4221 76.8613ZM66.0631 85.8274L65.8859 87.2107L65.8871 87.2109L66.0631 85.8274ZM79.8336 80.0997L81.2136 80.3014L81.2138 80.3002L79.8336 80.0997ZM78.3498 73.0986L77.8113 71.8122L76.5059 72.3586L77.0713 73.6558L78.3498 73.0986ZM98.94 68.7697L98.9979 67.3763L98.9401 67.3739L98.8823 67.3763L98.94 68.7697ZM119.525 73.0986L120.804 73.6542L121.367 72.3581L120.063 71.8122L119.525 73.0986ZM118.044 80.0997L116.664 80.3007L116.664 80.3018L118.044 80.0997ZM131.814 85.8274L131.99 87.2109L131.991 87.2107L131.814 85.8274ZM143.455 76.8613L144.835 76.6615L144.835 76.6603L143.455 76.8613ZM130.902 63.2535C127.749 60.908 123.488 59.4148 120.453 58.4235L119.587 61.0749C122.649 62.0752 126.496 63.4521 129.237 65.4914L130.902 63.2535ZM120.453 58.4236C114.385 56.4411 105.408 55.4243 99.09 55.2188L98.9993 58.0066C105.205 58.2084 113.881 59.211 119.587 61.0749L120.453 58.4236ZM100.439 56.6127V56.6016H97.65V56.6127H100.439ZM99.0446 55.2069C99.0001 55.2069 98.9626 55.2087 98.9377 55.2101C98.9137 55.2115 98.8919 55.2132 98.8845 55.2138C98.8726 55.2147 98.8761 55.2144 98.8816 55.214C98.8879 55.2137 98.9086 55.2125 98.9373 55.2125V58.0018C98.9826 58.0018 99.0207 57.9999 99.045 57.9985C99.0683 57.9971 99.09 57.9954 99.0964 57.9949C99.1073 57.9941 99.1039 57.9944 99.098 57.9948C99.0913 57.9951 99.0717 57.9962 99.0446 57.9962V55.2069ZM98.9373 55.2125C98.9626 55.2125 98.9808 55.2135 98.9868 55.2138C98.9921 55.2141 98.9948 55.2143 98.9841 55.2135C98.9779 55.2131 98.9563 55.2114 98.9336 55.2101C98.9101 55.2088 98.8722 55.2069 98.8271 55.2069V57.9962C98.7987 57.9962 98.7784 57.9951 98.773 57.9947C98.7684 57.9945 98.7655 57.9942 98.7781 57.9952C98.7862 57.9958 98.808 57.9974 98.8321 57.9988C98.8569 58.0001 98.8938 58.0018 98.9373 58.0018V55.2125ZM97.4325 56.6016V56.6127H100.222V56.6016H97.4325ZM98.7818 55.2188C92.4626 55.4243 83.4855 56.4411 77.4187 58.4236L78.2851 61.0749C83.9889 59.211 92.6651 58.2084 98.8724 58.0066L98.7818 55.2188ZM77.4181 58.4238C74.3904 59.4145 70.1198 60.9079 66.9669 63.2535L68.6318 65.4914C71.3727 63.4523 75.2271 62.0755 78.2856 61.0747L77.4181 58.4238ZM67.7265 62.9797C63.9218 63.1789 60.3996 65.6587 57.8466 68.3669C56.5473 69.7451 55.442 71.2411 54.6188 72.6577C53.8095 74.05 53.2172 75.4607 53.0421 76.6598L55.8021 77.0628C55.9039 76.366 56.3031 75.3104 57.0303 74.0592C57.7434 72.8322 58.7194 71.5073 59.8762 70.2802C62.2354 67.7777 65.125 65.909 67.8723 65.7652L67.7265 62.9797ZM53.0419 76.6615C52.6462 79.3946 54.2317 81.8564 56.5376 83.6327C58.8737 85.4323 62.1759 86.7356 65.8859 87.2107L66.2403 84.4441C62.9269 84.0197 60.1151 82.8677 58.2398 81.4231C56.3342 79.9551 55.6109 78.3836 55.8024 77.0611L53.0419 76.6615ZM65.8871 87.2109C69.5945 87.6826 73.1402 87.2513 75.8925 86.1062C78.604 84.978 80.8162 83.0199 81.2136 80.3014L78.4537 79.8979C78.2584 81.2336 77.0928 82.5857 74.821 83.5309C72.5899 84.4592 69.5466 84.8648 66.2391 84.4439L65.8871 87.2109ZM81.2138 80.3002C81.5045 78.2992 80.8426 75.3278 79.6282 72.5414L77.0713 73.6558C78.2055 76.2583 78.6341 78.6562 78.4535 79.8991L81.2138 80.3002ZM78.8883 74.3851C85.1675 71.7567 92.832 70.4188 98.9978 70.1631L98.8823 67.3763C92.4713 67.6421 84.4658 69.0266 77.8113 71.8122L78.8883 74.3851ZM98.8822 70.1631C105.043 70.4188 112.71 71.7567 118.986 74.385L120.063 71.8122C113.412 69.0266 105.403 67.6421 98.9979 67.3763L98.8822 70.1631ZM118.246 72.543C117.035 75.3307 116.373 78.3037 116.664 80.3007L119.424 79.8986C119.243 78.6601 119.672 76.2609 120.804 73.6542L118.246 72.543ZM116.664 80.3018C117.062 83.0205 119.274 84.9786 121.985 86.1067C124.738 87.2517 128.283 87.6826 131.99 87.2109L131.638 84.4439C128.331 84.8648 125.288 84.4595 123.057 83.5314C120.785 82.5864 119.619 81.2344 119.424 79.8975L116.664 80.3018ZM131.991 87.2107C135.704 86.7356 139.006 85.4324 141.342 83.6326C143.648 81.8559 145.231 79.3941 144.835 76.6615L142.075 77.0611C142.266 78.3842 141.544 79.9556 139.639 81.4232C137.765 82.8676 134.953 84.0196 131.637 84.444L131.991 87.2107ZM144.835 76.6603C144.661 75.4609 144.068 74.0499 143.259 72.6574C142.435 71.2407 141.33 69.7446 140.03 68.3662C137.476 65.6578 133.952 63.1781 130.146 62.9797L130.001 65.7652C132.75 65.9084 135.641 67.7772 138.001 70.2798C139.158 71.507 140.134 72.832 140.847 74.059C141.575 75.3103 141.974 76.3658 142.075 77.0623L144.835 76.6603Z" fill="url(#paint7_radial_311_655)" style="mix-blend-mode:overlay" mask="url(#path-4-inside-1_311_655)"/>
<path d="M114.321 80.9584V81.2108L114.483 81.4047L135.689 106.857V127.758H61.9727V106.857L83.181 81.4048L83.3426 81.2108V80.9584V73.1094H89.0689V77.5485V78.2458H89.7662H107.896H108.594V77.5485V73.1094H114.321V80.9584Z" fill="url(#paint8_linear_311_655)"/>
<path d="M114.321 80.9584V81.2108L114.483 81.4047L135.689 106.857V127.758H61.9727V106.857L83.181 81.4048L83.3426 81.2108V80.9584V73.1094H89.0689V77.5485V78.2458H89.7662H107.896H108.594V77.5485V73.1094H114.321V80.9584Z" stroke="url(#paint9_linear_311_655)" stroke-width="1.39463"/>
<path d="M114.321 80.9584V81.2108L114.483 81.4047L135.689 106.857V127.758H61.9727V106.857L83.181 81.4048L83.3426 81.2108V80.9584V73.1094H89.0689V77.5485V78.2458H89.7662H107.896H108.594V77.5485V73.1094H114.321V80.9584Z" stroke="url(#paint10_radial_311_655)" stroke-width="1.39463" style="mix-blend-mode:overlay"/>
<path d="M91.7229 94.4514C91.7229 95.9325 90.6853 97.1277 89.4162 97.1277H85.468C84.1947 97.1277 83.1641 95.9339 83.1641 94.4514V91.149C83.1641 89.6762 84.1961 88.4824 85.468 88.4824H89.4162C90.6867 88.4824 91.7229 89.6762 91.7229 91.149V94.4514ZM103.1 94.4514C103.1 95.9325 102.068 97.1277 100.799 97.1277H96.8509C95.5776 97.1277 94.5442 95.9339 94.5442 94.4514V91.149C94.5442 89.6762 95.579 88.4824 96.8509 88.4824H100.799C102.068 88.4824 103.1 89.6762 103.1 91.149V94.4514ZM114.222 94.4514C114.222 95.9325 113.189 97.1277 111.919 97.1277H107.97C106.696 97.1277 105.666 95.9339 105.666 94.4514V91.149C105.666 89.6762 106.696 88.4824 107.97 88.4824H111.919C113.189 88.4824 114.222 89.6762 114.222 91.149V94.4514ZM91.854 105.748C91.854 107.225 90.8164 108.417 89.5501 108.417H85.5991C84.3258 108.417 83.2938 107.225 83.2938 105.748V102.44C83.2938 100.971 84.3258 99.7761 85.5991 99.7761H89.5501C90.8178 99.7761 91.854 100.971 91.854 102.44V105.748ZM103.238 105.748C103.238 107.225 102.206 108.417 100.936 108.417H96.9848C95.7115 108.417 94.6809 107.225 94.6809 105.748V102.44C94.6809 100.971 95.7129 99.7761 96.9848 99.7761H100.936C102.206 99.7761 103.238 100.971 103.238 102.44V105.748ZM114.354 105.748C114.354 107.225 113.32 108.417 112.05 108.417H108.101C106.828 108.417 105.795 107.225 105.795 105.748V102.44C105.795 100.971 106.828 99.7761 108.101 99.7761H112.05C113.32 99.7761 114.354 100.971 114.354 102.44V105.748ZM91.9865 117.369C91.9865 118.843 90.9489 120.039 89.6784 120.039H85.7302C84.4569 120.039 83.4263 118.843 83.4263 117.369V114.064C83.4263 112.593 84.4583 111.398 85.7302 111.398H89.6784C90.9489 111.398 91.9865 112.593 91.9865 114.064V117.369ZM103.364 117.369C103.364 118.843 102.333 120.039 101.063 120.039H97.1117C95.8384 120.039 94.8064 118.843 94.8064 117.369V114.064C94.8064 112.593 95.8384 111.398 97.1117 111.398H101.063C102.333 111.398 103.364 112.593 103.364 114.064V117.369ZM114.479 117.369C114.479 118.843 113.444 120.039 112.175 120.039H108.227C106.951 120.039 105.923 118.843 105.923 117.369V114.064C105.923 112.593 106.951 111.398 108.227 111.398H112.175C113.444 111.398 114.479 112.593 114.479 114.064V117.369Z" fill="url(#paint11_linear_311_655)"/>
<path d="M91.7229 94.4514C91.7229 95.9325 90.6853 97.1277 89.4162 97.1277H85.468C84.1947 97.1277 83.1641 95.9339 83.1641 94.4514V91.149C83.1641 89.6762 84.1961 88.4824 85.468 88.4824H89.4162C90.6867 88.4824 91.7229 89.6762 91.7229 91.149V94.4514ZM103.1 94.4514C103.1 95.9325 102.068 97.1277 100.799 97.1277H96.8509C95.5776 97.1277 94.5442 95.9339 94.5442 94.4514V91.149C94.5442 89.6762 95.579 88.4824 96.8509 88.4824H100.799C102.068 88.4824 103.1 89.6762 103.1 91.149V94.4514ZM114.222 94.4514C114.222 95.9325 113.189 97.1277 111.919 97.1277H107.97C106.696 97.1277 105.666 95.9339 105.666 94.4514V91.149C105.666 89.6762 106.696 88.4824 107.97 88.4824H111.919C113.189 88.4824 114.222 89.6762 114.222 91.149V94.4514ZM91.854 105.748C91.854 107.225 90.8164 108.417 89.5501 108.417H85.5991C84.3258 108.417 83.2938 107.225 83.2938 105.748V102.44C83.2938 100.971 84.3258 99.7761 85.5991 99.7761H89.5501C90.8178 99.7761 91.854 100.971 91.854 102.44V105.748ZM103.238 105.748C103.238 107.225 102.206 108.417 100.936 108.417H96.9848C95.7115 108.417 94.6809 107.225 94.6809 105.748V102.44C94.6809 100.971 95.7129 99.7761 96.9848 99.7761H100.936C102.206 99.7761 103.238 100.971 103.238 102.44V105.748ZM114.354 105.748C114.354 107.225 113.32 108.417 112.05 108.417H108.101C106.828 108.417 105.795 107.225 105.795 105.748V102.44C105.795 100.971 106.828 99.7761 108.101 99.7761H112.05C113.32 99.7761 114.354 100.971 114.354 102.44V105.748ZM91.9865 117.369C91.9865 118.843 90.9489 120.039 89.6784 120.039H85.7302C84.4569 120.039 83.4263 118.843 83.4263 117.369V114.064C83.4263 112.593 84.4583 111.398 85.7302 111.398H89.6784C90.9489 111.398 91.9865 112.593 91.9865 114.064V117.369ZM103.364 117.369C103.364 118.843 102.333 120.039 101.063 120.039H97.1117C95.8384 120.039 94.8064 118.843 94.8064 117.369V114.064C94.8064 112.593 95.8384 111.398 97.1117 111.398H101.063C102.333 111.398 103.364 112.593 103.364 114.064V117.369ZM114.479 117.369C114.479 118.843 113.444 120.039 112.175 120.039H108.227C106.951 120.039 105.923 118.843 105.923 117.369V114.064C105.923 112.593 106.951 111.398 108.227 111.398H112.175C113.444 111.398 114.479 112.593 114.479 114.064V117.369Z" fill="url(#paint12_radial_311_655)" style="mix-blend-mode:overlay"/>
</g>
</g>
<defs>
<filter id="filter0_d_311_655" x="0.5" y="0.5" width="194.666" height="191.666" filterUnits="userSpaceOnUse" color-interpolation-filters="sRGB">
<feFlood flood-opacity="0" result="BackgroundImageFix"/>
<feColorMatrix in="SourceAlpha" type="matrix" values="0 0 0 0 0 0 0 0 0 0 0 0 0 0 0 0 0 0 127 0" result="hardAlpha"/>
<feOffset/>
<feGaussianBlur stdDeviation="6.25"/>
<feComposite in2="hardAlpha" operator="out"/>
<feColorMatrix type="matrix" values="0 0 0 0 0 0 0 0 0 0 0 0 0 0 0 0 0 0 0.1 0"/>
<feBlend mode="normal" in2="BackgroundImageFix" result="effect1_dropShadow_311_655"/>
<feBlend mode="normal" in="SourceGraphic" in2="effect1_dropShadow_311_655" result="shape"/>
</filter>
<filter id="filter1_d_311_655" x="9" y="125" width="58" height="58" filterUnits="userSpaceOnUse" color-interpolation-filters="sRGB">
<feFlood flood-opacity="0" result="BackgroundImageFix"/>
<feColorMatrix in="SourceAlpha" type="matrix" values="0 0 0 0 0 0 0 0 0 0 0 0 0 0 0 0 0 0 127 0" result="hardAlpha"/>
<feOffset dy="4"/>
<feGaussianBlur stdDeviation="2"/>
<feComposite in2="hardAlpha" operator="out"/>
<feColorMatrix type="matrix" values="0 0 0 0 0 0 0 0 0 0 0 0 0 0 0 0 0 0 0.1 0"/>
<feBlend mode="normal" in2="BackgroundImageFix" result="effect1_dropShadow_311_655"/>
<feBlend mode="normal" in="SourceGraphic" in2="effect1_dropShadow_311_655" result="shape"/>
</filter>
<linearGradient id="paint0_linear_311_655" x1="16" y1="123.424" x2="186.007" y2="64.556" gradientUnits="userSpaceOnUse">
<stop offset="0.0677083" stop-color="#4D5455"/>
<stop offset="0.21875" stop-color="#9EA1A1"/>
<stop offset="0.453125" stop-color="#848B8A"/>
<stop offset="0.524381" stop-color="#535D5E"/>
<stop offset="0.796875" stop-color="#4B5355"/>
<stop offset="0.895833" stop-color="#757A7B"/>
<stop offset="1" stop-color="#4D5455"/>
</linearGradient>
<radialGradient id="paint1_radial_311_655" cx="0" cy="0" r="1" gradientUnits="userSpaceOnUse" gradientTransform="translate(16 -1.42874) rotate(60.1911) scale(153.733 162.363)">
<stop stop-color="white"/>
<stop offset="1" stop-color="white" stop-opacity="0"/>
</radialGradient>
<linearGradient id="paint2_linear_311_655" x1="13" y1="121.236" x2="58.0712" y2="174.671" gradientUnits="userSpaceOnUse">
<stop stop-color="#FFF2D6"/>
<stop offset="0.212795" stop-color="#9D8555"/>
<stop offset="0.57751" stop-color="#D8C08F"/>
<stop offset="1" stop-color="#58400F"/>
</linearGradient>
<linearGradient id="paint3_linear_311_655" x1="54.5" y1="163" x2="53.4463" y2="135.504" gradientUnits="userSpaceOnUse">
<stop offset="0.0677083" stop-color="#4D5455"/>
<stop offset="0.21875" stop-color="#9EA1A1"/>
<stop offset="0.453125" stop-color="#848B8A"/>
<stop offset="0.524381" stop-color="#535D5E"/>
<stop offset="0.796875" stop-color="#4B5355"/>
<stop offset="0.895833" stop-color="#757A7B"/>
<stop offset="1" stop-color="#4D5455"/>
</linearGradient>
<radialGradient id="paint4_radial_311_655" cx="0" cy="0" r="1" gradientUnits="userSpaceOnUse" gradientTransform="translate(29.2695 133.783) rotate(71.7708) scale(24.0153 17.4712)">
<stop stop-color="white"/>
<stop offset="1" stop-color="white" stop-opacity="0"/>
</radialGradient>
<linearGradient id="paint5_linear_311_655" x1="54.377" y1="54.3878" x2="68.2667" y2="104.302" gradientUnits="userSpaceOnUse">
<stop stop-color="#FFF2D6"/>
<stop offset="0.212795" stop-color="#9D8555"/>
<stop offset="0.57751" stop-color="#D8C08F"/>
<stop offset="1" stop-color="#58400F"/>
</linearGradient>
<linearGradient id="paint6_linear_311_655" x1="54.377" y1="76.0824" x2="102.821" y2="25.2371" gradientUnits="userSpaceOnUse">
<stop offset="0.0677083" stop-color="#4D5455"/>
<stop offset="0.21875" stop-color="#9EA1A1"/>
<stop offset="0.453125" stop-color="#848B8A"/>
<stop offset="0.524381" stop-color="#535D5E"/>
<stop offset="0.796875" stop-color="#4B5355"/>
<stop offset="0.895833" stop-color="#757A7B"/>
<stop offset="1" stop-color="#4D5455"/>
</linearGradient>
<radialGradient id="paint7_radial_311_655" cx="0" cy="0" r="1" gradientUnits="userSpaceOnUse" gradientTransform="translate(54.377 54.0561) rotate(29.9357) scale(47.1575 49.9334)">
<stop stop-color="white"/>
<stop offset="1" stop-color="white" stop-opacity="0"/>
</radialGradient>
<linearGradient id="paint8_linear_311_655" x1="61.2754" y1="68.1926" x2="107.484" y2="141.616" gradientUnits="userSpaceOnUse">
<stop stop-color="#FFF2D6"/>
<stop offset="0.212795" stop-color="#9D8555"/>
<stop offset="0.57751" stop-color="#D8C08F"/>
<stop offset="1" stop-color="#58400F"/>
</linearGradient>
<linearGradient id="paint9_linear_311_655" x1="61.2754" y1="109.543" x2="131.873" y2="76.7803" gradientUnits="userSpaceOnUse">
<stop offset="0.0677083" stop-color="#4D5455"/>
<stop offset="0.21875" stop-color="#9EA1A1"/>
<stop offset="0.453125" stop-color="#848B8A"/>
<stop offset="0.524381" stop-color="#535D5E"/>
<stop offset="0.796875" stop-color="#4B5355"/>
<stop offset="0.895833" stop-color="#757A7B"/>
<stop offset="1" stop-color="#4D5455"/>
</linearGradient>
<radialGradient id="paint10_radial_311_655" cx="0" cy="0" r="1" gradientUnits="userSpaceOnUse" gradientTransform="translate(61.2754 67.5603) rotate(52.4818) scale(56.5514 66.8861)">
<stop stop-color="white"/>
<stop offset="1" stop-color="white" stop-opacity="0"/>
</radialGradient>
<linearGradient id="paint11_linear_311_655" x1="87" y1="96" x2="110.895" y2="117.762" gradientUnits="userSpaceOnUse">
<stop offset="0.0677083" stop-color="#4D5455"/>
<stop offset="0.21875" stop-color="#9EA1A1"/>
<stop offset="0.453125" stop-color="#848B8A"/>
<stop offset="0.598899" stop-color="#535D5E"/>
<stop offset="0.796875" stop-color="#4B5355"/>
<stop offset="0.895833" stop-color="#757A7B"/>
<stop offset="1" stop-color="#4D5455"/>
</linearGradient>
<radialGradient id="paint12_radial_311_655" cx="0" cy="0" r="1" gradientUnits="userSpaceOnUse" gradientTransform="translate(83.1641 85.7505) rotate(60.3804) scale(29.0526 30.5639)">
<stop stop-color="white"/>
<stop offset="1" stop-color="white" stop-opacity="0"/>
</radialGradient>
<clipPath id="clip0_311_655">
<rect width="89.2562" height="89.2562" fill="white" transform="translate(54.373 50.3711)"/>
</clipPath>
</defs>
</svg>
