<svg width="204" height="193" viewBox="0 0 204 193" fill="none" xmlns="http://www.w3.org/2000/svg">
<g filter="url(#filter0_d_1311_3767)">
<circle cx="108.039" cy="96.3333" r="83.3333" fill="url(#paint0_linear_1311_3767)"/>
<g filter="url(#filter1_d_1311_3767)">
<circle cx="38" cy="154.672" r="25" fill="#402EA1"/>
</g>
<path d="M47.1526 165.059C44.7016 165.059 42.2801 164.525 39.8879 163.457C37.4957 162.389 35.3193 160.874 33.3585 158.912C31.3977 156.951 29.8832 154.774 28.815 152.383C27.7467 149.991 27.2122 147.57 27.2114 145.118C27.2114 144.765 27.3291 144.471 27.5644 144.236C27.7997 144 28.0938 143.883 28.4467 143.883H33.2114C33.4859 143.883 33.731 143.976 33.9467 144.163C34.1624 144.349 34.2899 144.57 34.3291 144.824L35.0938 148.942C35.133 149.255 35.1232 149.52 35.0644 149.736C35.0055 149.951 34.8977 150.138 34.7408 150.295L31.8879 153.177C32.2801 153.902 32.7455 154.603 33.2844 155.279C33.8232 155.955 34.4165 156.608 35.0644 157.236C35.6722 157.844 36.3095 158.408 36.9761 158.928C37.6428 159.448 38.3487 159.923 39.0938 160.353L41.8585 157.589C42.035 157.412 42.2655 157.28 42.5502 157.192C42.835 157.104 43.1142 157.08 43.3879 157.118L47.4467 157.942C47.7212 158.02 47.9467 158.162 48.1232 158.369C48.2997 158.575 48.3879 158.805 48.3879 159.059V163.824C48.3879 164.177 48.2702 164.471 48.035 164.706C47.7997 164.942 47.5055 165.059 47.1526 165.059Z" fill="white"/>
<path d="M98.3027 88.0484V96.4156M113.603 87.7734L113.25 96.4156" stroke="#402EA1"/>
<path d="M111.15 97.7003L113.169 96.8109L118.059 98.5387L122.279 100.197L120.157 127.925H93.4361L89.9497 100.189L98.4636 96.809L99.6323 97.243C101.996 98.1207 104.497 98.5702 107.018 98.5702C108.441 98.5702 109.848 98.2739 111.15 97.7003Z" stroke="#402EA1"/>
<path d="M101.033 117.884L101.622 111.15H109.849L110.565 117.891L105.946 125.108L101.033 117.884Z" fill="#402EA1" stroke="white" stroke-width="0.55"/>
<path d="M101.648 110.307L100.396 103.547H110.812L109.56 110.307H101.648Z" fill="#402EA1"/>
<path d="M106.107 126.269L118.409 106.377L122.47 100.332L138.35 104.585V128.668V140.609L105.873 150.172L72.275 140.29V120.797V103.827L89.2114 100.323L105.64 126.271L105.875 126.643L106.107 126.269Z" fill="#402EA1" stroke="#402EA1" stroke-width="0.55"/>
<path d="M92.4675 62.9552L92.4696 62.985L92.4682 63.0148C92.4656 63.0695 92.4685 63.1312 92.4748 63.218C92.4756 63.2296 92.4765 63.2418 92.4775 63.2547C92.483 63.3277 92.4898 63.4196 92.491 63.5115L92.6064 67.7482L92.6066 67.7558L92.6065 67.7634L92.5748 77.5297L92.5857 78.2934L92.5858 78.3011L92.5857 78.3088C92.5662 79.4927 92.6342 80.6763 92.7893 81.8502C92.9697 83.0325 93.4174 84.1582 94.0983 85.1415C95.4122 87.0013 97.6637 87.996 100.015 88.4081C100.653 88.4928 104.041 88.7544 107.592 88.5292C109.376 88.4161 111.177 88.1815 112.682 87.7499C114.193 87.3165 115.309 86.711 115.863 85.9244L118.693 80.6271L118.697 80.619L118.702 80.6112L119.327 79.5358L119.422 79.3584L119.644 78.9411L120.073 79.1393L120.265 79.2279L120.276 79.2331L120.287 79.2388C120.915 79.5679 121.616 79.7335 122.325 79.7206C122.774 79.6783 123.21 79.5452 123.605 79.3295C124.006 79.111 124.358 78.8125 124.638 78.4525L124.638 78.4525L124.643 78.4458C124.98 78.0284 125.229 77.5473 125.376 77.0313C125.523 76.5154 125.564 75.9752 125.497 75.443L125.495 75.43L125.494 75.4169C125.457 74.9072 125.317 74.4104 125.082 73.9565L125.527 73.7268L125.082 73.9565C124.872 73.5504 124.591 73.1862 124.251 72.8813L124.243 72.8809L124.119 72.788C123.98 72.6827 123.852 72.5631 123.737 72.4312C123.629 72.3955 123.523 72.3511 123.422 72.2984L123.164 72.1648L123.152 71.8751L122.58 57.9412L92.0729 58.8972C92.0789 59.0111 92.0876 59.142 92.0987 59.2881C92.1293 59.6884 92.1759 60.1671 92.2261 60.65C92.2631 61.0055 92.3026 61.3667 92.3388 61.6984C92.3995 62.2544 92.4512 62.728 92.4675 62.9552Z" stroke="#402EA1"/>
<path d="M127.105 65.9997L127.541 60.31C127.549 59.2772 127.336 58.2546 126.916 57.3109C126.497 56.3671 125.88 55.524 125.108 54.8382C123.032 52.9018 120.351 52.4474 117.598 52.5413C117.497 51.788 117.241 51.0636 116.847 50.4133C116.06 49.4331 115.112 48.5944 114.043 47.9333C111.241 46.0075 108.056 44.7085 104.706 44.1249C100.103 43.4448 95.4148 44.5604 91.6116 47.2409C89.8773 48.4881 88.3107 50.6086 87.9737 52.7568C87.7997 53.8704 87.8541 55.0077 88.1334 56.0996C88.4128 57.1916 88.9113 58.2153 89.5987 59.1085L90.8352 60.5031C91.7402 61.2548 92.7266 61.9027 93.7758 62.4347C96.7607 63.868 100.005 63.9579 103.233 63.5792C106.867 63.0782 110.421 62.1107 113.807 60.7005C113.262 62.3095 113.054 64.0139 113.198 65.7067C113.342 67.3996 113.834 69.0445 114.643 70.5383C115.762 72.7347 117.61 74.4739 119.87 75.4585C120.633 74.4928 121.299 73.8338 122.594 73.6511C123.4 73.5365 124.222 73.6317 124.981 73.9276C125.274 74.106 125.59 74.244 125.92 74.3381L126.799 68.7813L127.105 65.9997Z" fill="#402EA1"/>
<path d="M105.938 127.375V150.186" stroke="white" stroke-width="0.55"/>
<path d="M131.532 113.461V136.272" stroke="white" stroke-width="0.55"/>
<path d="M78.1201 113.461V136.272" stroke="white" stroke-width="0.55"/>
</g>
<defs>
<filter id="filter0_d_1311_3767" x="0.5" y="0.5" width="203.372" height="191.672" filterUnits="userSpaceOnUse" color-interpolation-filters="sRGB">
<feFlood flood-opacity="0" result="BackgroundImageFix"/>
<feColorMatrix in="SourceAlpha" type="matrix" values="0 0 0 0 0 0 0 0 0 0 0 0 0 0 0 0 0 0 127 0" result="hardAlpha"/>
<feOffset/>
<feGaussianBlur stdDeviation="6.25"/>
<feComposite in2="hardAlpha" operator="out"/>
<feColorMatrix type="matrix" values="0 0 0 0 0 0 0 0 0 0 0 0 0 0 0 0 0 0 0.1 0"/>
<feBlend mode="normal" in2="BackgroundImageFix" result="effect1_dropShadow_1311_3767"/>
<feBlend mode="normal" in="SourceGraphic" in2="effect1_dropShadow_1311_3767" result="shape"/>
</filter>
<filter id="filter1_d_1311_3767" x="9" y="129.672" width="58" height="58" filterUnits="userSpaceOnUse" color-interpolation-filters="sRGB">
<feFlood flood-opacity="0" result="BackgroundImageFix"/>
<feColorMatrix in="SourceAlpha" type="matrix" values="0 0 0 0 0 0 0 0 0 0 0 0 0 0 0 0 0 0 127 0" result="hardAlpha"/>
<feOffset dy="4"/>
<feGaussianBlur stdDeviation="2"/>
<feComposite in2="hardAlpha" operator="out"/>
<feColorMatrix type="matrix" values="0 0 0 0 0 0 0 0 0 0 0 0 0 0 0 0 0 0 0.1 0"/>
<feBlend mode="normal" in2="BackgroundImageFix" result="effect1_dropShadow_1311_3767"/>
<feBlend mode="normal" in="SourceGraphic" in2="effect1_dropShadow_1311_3767" result="shape"/>
</filter>
<linearGradient id="paint0_linear_1311_3767" x1="68.3067" y1="-59.9243" x2="288.62" y2="151.69" gradientUnits="userSpaceOnUse">
<stop offset="0.290144" stop-color="white"/>
<stop offset="0.973068" stop-color="#C7D5E0"/>
</linearGradient>
</defs>
</svg>
