<svg width="196" height="193" viewBox="0 0 196 193" fill="none" xmlns="http://www.w3.org/2000/svg">
<g filter="url(#filter0_d_311_715)">
<circle cx="99.3333" cy="96.3333" r="80.8333" stroke="url(#paint0_linear_311_715)" stroke-width="5"/>
<circle cx="99.3333" cy="96.3333" r="80.8333" stroke="url(#paint1_radial_311_715)" stroke-width="5" style="mix-blend-mode:overlay"/>
<g filter="url(#filter1_d_311_715)">
<circle cx="38" cy="150" r="25" fill="url(#paint2_linear_311_715)"/>
</g>
<path d="M37.7515 134.988C38.238 134.988 38.7198 135.084 39.1693 135.27C39.6189 135.457 40.0273 135.729 40.3713 136.073C40.7154 136.417 40.9883 136.826 41.1745 137.275C41.3607 137.725 41.4565 138.207 41.4565 138.693L41.455 139.488H46.7515C47.1493 139.488 47.5309 139.646 47.8122 139.928C48.0935 140.209 48.2515 140.59 48.2515 140.988L48.25 146.237L45.955 146.238C45.0149 146.239 44.11 146.596 43.4237 147.239C42.7374 147.881 42.321 148.761 42.259 149.699L42.2515 149.943V150.033C42.2514 150.974 42.6088 151.879 43.2514 152.566C43.894 153.252 44.7736 153.669 45.712 153.731L45.9565 153.738L48.25 153.737L48.2515 158.993C48.2515 159.391 48.0935 159.772 47.8122 160.053C47.5309 160.335 47.1493 160.493 46.7515 160.493L41.455 160.491V161.283C41.4649 161.776 41.3764 162.266 41.1947 162.724C41.013 163.182 40.7418 163.599 40.3968 163.951C40.0518 164.303 39.6401 164.583 39.1858 164.774C38.7314 164.965 38.2436 165.063 37.7507 165.063C37.2579 165.063 36.7701 164.965 36.3157 164.774C35.8614 164.583 35.4496 164.303 35.1047 163.951C34.7597 163.599 34.4885 163.182 34.3068 162.724C34.1251 162.266 34.0366 161.776 34.0465 161.283V160.491H28.7515C28.3537 160.491 27.9721 160.333 27.6908 160.052C27.4095 159.771 27.2515 159.389 27.2515 158.991L27.25 153.695H26.455C25.4724 153.695 24.53 153.304 23.8352 152.61C23.1403 151.915 22.75 150.972 22.75 149.99C22.75 149.007 23.1403 148.065 23.8352 147.37C24.53 146.675 25.4724 146.285 26.455 146.285H27.2515V140.988C27.2515 140.59 27.4095 140.209 27.6908 139.928C27.9721 139.646 28.3537 139.488 28.7515 139.488H34.0465V138.693C34.0465 137.711 34.4368 136.768 35.1317 136.073C35.8265 135.379 36.7689 134.988 37.7515 134.988Z" fill="url(#paint3_linear_311_715)"/>
<path d="M37.7515 134.988C38.238 134.988 38.7198 135.084 39.1693 135.27C39.6189 135.457 40.0273 135.729 40.3713 136.073C40.7154 136.417 40.9883 136.826 41.1745 137.275C41.3607 137.725 41.4565 138.207 41.4565 138.693L41.455 139.488H46.7515C47.1493 139.488 47.5309 139.646 47.8122 139.928C48.0935 140.209 48.2515 140.59 48.2515 140.988L48.25 146.237L45.955 146.238C45.0149 146.239 44.11 146.596 43.4237 147.239C42.7374 147.881 42.321 148.761 42.259 149.699L42.2515 149.943V150.033C42.2514 150.974 42.6088 151.879 43.2514 152.566C43.894 153.252 44.7736 153.669 45.712 153.731L45.9565 153.738L48.25 153.737L48.2515 158.993C48.2515 159.391 48.0935 159.772 47.8122 160.053C47.5309 160.335 47.1493 160.493 46.7515 160.493L41.455 160.491V161.283C41.4649 161.776 41.3764 162.266 41.1947 162.724C41.013 163.182 40.7418 163.599 40.3968 163.951C40.0518 164.303 39.6401 164.583 39.1858 164.774C38.7314 164.965 38.2436 165.063 37.7507 165.063C37.2579 165.063 36.7701 164.965 36.3157 164.774C35.8614 164.583 35.4496 164.303 35.1047 163.951C34.7597 163.599 34.4885 163.182 34.3068 162.724C34.1251 162.266 34.0366 161.776 34.0465 161.283V160.491H28.7515C28.3537 160.491 27.9721 160.333 27.6908 160.052C27.4095 159.771 27.2515 159.389 27.2515 158.991L27.25 153.695H26.455C25.4724 153.695 24.53 153.304 23.8352 152.61C23.1403 151.915 22.75 150.972 22.75 149.99C22.75 149.007 23.1403 148.065 23.8352 147.37C24.53 146.675 25.4724 146.285 26.455 146.285H27.2515V140.988C27.2515 140.59 27.4095 140.209 27.6908 139.928C27.9721 139.646 28.3537 139.488 28.7515 139.488H34.0465V138.693C34.0465 137.711 34.4368 136.768 35.1317 136.073C35.8265 135.379 36.7689 134.988 37.7515 134.988Z" fill="url(#paint4_radial_311_715)" style="mix-blend-mode:overlay"/>
<path d="M119.792 75V76.875H121.667H135C136.271 76.875 137.49 77.3798 138.388 78.2785C139.287 79.1771 139.792 80.3958 139.792 81.6667V135C139.792 135.387 139.638 135.758 139.365 136.031C139.092 136.304 138.722 136.457 138.337 136.458C138.006 136.456 137.686 136.342 137.429 136.134L137.428 136.133L121.841 123.541L121.325 123.125H120.662H81.6667C80.3958 123.125 79.1771 122.62 78.2784 121.722C77.3798 120.823 76.875 119.604 76.875 118.333V105.833V101.913L73.8231 104.374L59.2448 116.128C59.2441 116.129 59.2434 116.129 59.2428 116.13C59.029 116.3 58.7715 116.407 58.4998 116.438C58.2273 116.47 57.9514 116.424 57.7039 116.305C57.4564 116.187 57.2473 116.001 57.1007 115.769L55.5221 116.767L57.1007 115.769C56.9545 115.538 56.8763 115.27 56.875 114.996V61.6667C56.875 60.3958 57.3798 59.1771 58.2784 58.2784C59.1771 57.3798 60.3958 56.875 61.6667 56.875H115C116.271 56.875 117.49 57.3798 118.388 58.2784C119.287 59.1771 119.792 60.3958 119.792 61.6667V75ZM122.758 120.533L122.759 120.533L133.821 129.479L136.875 131.948V128.021V81.6667V79.7917H135H121.667H119.792V81.6667V98.3333C119.792 99.6042 119.287 100.823 118.388 101.722C117.49 102.62 116.271 103.125 115 103.125H81.6667H79.7917V105V118.333V120.208H81.6667H121.85C122.181 120.21 122.501 120.325 122.758 120.533Z" fill="url(#paint5_linear_311_715)"/>
<path d="M119.792 75V76.875H121.667H135C136.271 76.875 137.49 77.3798 138.388 78.2785C139.287 79.1771 139.792 80.3958 139.792 81.6667V135C139.792 135.387 139.638 135.758 139.365 136.031C139.092 136.304 138.722 136.457 138.337 136.458C138.006 136.456 137.686 136.342 137.429 136.134L137.428 136.133L121.841 123.541L121.325 123.125H120.662H81.6667C80.3958 123.125 79.1771 122.62 78.2784 121.722C77.3798 120.823 76.875 119.604 76.875 118.333V105.833V101.913L73.8231 104.374L59.2448 116.128C59.2441 116.129 59.2434 116.129 59.2428 116.13C59.029 116.3 58.7715 116.407 58.4998 116.438C58.2273 116.47 57.9514 116.424 57.7039 116.305C57.4564 116.187 57.2473 116.001 57.1007 115.769L55.5221 116.767L57.1007 115.769C56.9545 115.538 56.8763 115.27 56.875 114.996V61.6667C56.875 60.3958 57.3798 59.1771 58.2784 58.2784C59.1771 57.3798 60.3958 56.875 61.6667 56.875H115C116.271 56.875 117.49 57.3798 118.388 58.2784C119.287 59.1771 119.792 60.3958 119.792 61.6667V75ZM122.758 120.533L122.759 120.533L133.821 129.479L136.875 131.948V128.021V81.6667V79.7917H135H121.667H119.792V81.6667V98.3333C119.792 99.6042 119.287 100.823 118.388 101.722C117.49 102.62 116.271 103.125 115 103.125H81.6667H79.7917V105V118.333V120.208H81.6667H121.85C122.181 120.21 122.501 120.325 122.758 120.533Z" stroke="url(#paint6_linear_311_715)" stroke-width="3.75"/>
<path d="M119.792 75V76.875H121.667H135C136.271 76.875 137.49 77.3798 138.388 78.2785C139.287 79.1771 139.792 80.3958 139.792 81.6667V135C139.792 135.387 139.638 135.758 139.365 136.031C139.092 136.304 138.722 136.457 138.337 136.458C138.006 136.456 137.686 136.342 137.429 136.134L137.428 136.133L121.841 123.541L121.325 123.125H120.662H81.6667C80.3958 123.125 79.1771 122.62 78.2784 121.722C77.3798 120.823 76.875 119.604 76.875 118.333V105.833V101.913L73.8231 104.374L59.2448 116.128C59.2441 116.129 59.2434 116.129 59.2428 116.13C59.029 116.3 58.7715 116.407 58.4998 116.438C58.2273 116.47 57.9514 116.424 57.7039 116.305C57.4564 116.187 57.2473 116.001 57.1007 115.769L55.5221 116.767L57.1007 115.769C56.9545 115.538 56.8763 115.27 56.875 114.996V61.6667C56.875 60.3958 57.3798 59.1771 58.2784 58.2784C59.1771 57.3798 60.3958 56.875 61.6667 56.875H115C116.271 56.875 117.49 57.3798 118.388 58.2784C119.287 59.1771 119.792 60.3958 119.792 61.6667V75ZM122.758 120.533L122.759 120.533L133.821 129.479L136.875 131.948V128.021V81.6667V79.7917H135H121.667H119.792V81.6667V98.3333C119.792 99.6042 119.287 100.823 118.388 101.722C117.49 102.62 116.271 103.125 115 103.125H81.6667H79.7917V105V118.333V120.208H81.6667H121.85C122.181 120.21 122.501 120.325 122.758 120.533Z" stroke="url(#paint7_radial_311_715)" stroke-width="3.75" style="mix-blend-mode:overlay"/>
</g>
<defs>
<filter id="filter0_d_311_715" x="0.5" y="0.5" width="194.666" height="191.666" filterUnits="userSpaceOnUse" color-interpolation-filters="sRGB">
<feFlood flood-opacity="0" result="BackgroundImageFix"/>
<feColorMatrix in="SourceAlpha" type="matrix" values="0 0 0 0 0 0 0 0 0 0 0 0 0 0 0 0 0 0 127 0" result="hardAlpha"/>
<feOffset/>
<feGaussianBlur stdDeviation="6.25"/>
<feComposite in2="hardAlpha" operator="out"/>
<feColorMatrix type="matrix" values="0 0 0 0 0 0 0 0 0 0 0 0 0 0 0 0 0 0 0.1 0"/>
<feBlend mode="normal" in2="BackgroundImageFix" result="effect1_dropShadow_311_715"/>
<feBlend mode="normal" in="SourceGraphic" in2="effect1_dropShadow_311_715" result="shape"/>
</filter>
<filter id="filter1_d_311_715" x="9" y="125" width="58" height="58" filterUnits="userSpaceOnUse" color-interpolation-filters="sRGB">
<feFlood flood-opacity="0" result="BackgroundImageFix"/>
<feColorMatrix in="SourceAlpha" type="matrix" values="0 0 0 0 0 0 0 0 0 0 0 0 0 0 0 0 0 0 127 0" result="hardAlpha"/>
<feOffset dy="4"/>
<feGaussianBlur stdDeviation="2"/>
<feComposite in2="hardAlpha" operator="out"/>
<feColorMatrix type="matrix" values="0 0 0 0 0 0 0 0 0 0 0 0 0 0 0 0 0 0 0.1 0"/>
<feBlend mode="normal" in2="BackgroundImageFix" result="effect1_dropShadow_311_715"/>
<feBlend mode="normal" in="SourceGraphic" in2="effect1_dropShadow_311_715" result="shape"/>
</filter>
<linearGradient id="paint0_linear_311_715" x1="16" y1="123.424" x2="186.007" y2="64.556" gradientUnits="userSpaceOnUse">
<stop offset="0.0677083" stop-color="#4D5455"/>
<stop offset="0.21875" stop-color="#9EA1A1"/>
<stop offset="0.453125" stop-color="#848B8A"/>
<stop offset="0.524381" stop-color="#535D5E"/>
<stop offset="0.796875" stop-color="#4B5355"/>
<stop offset="0.895833" stop-color="#757A7B"/>
<stop offset="1" stop-color="#4D5455"/>
</linearGradient>
<radialGradient id="paint1_radial_311_715" cx="0" cy="0" r="1" gradientUnits="userSpaceOnUse" gradientTransform="translate(16 -1.42874) rotate(60.1911) scale(153.733 162.363)">
<stop stop-color="white"/>
<stop offset="1" stop-color="white" stop-opacity="0"/>
</radialGradient>
<linearGradient id="paint2_linear_311_715" x1="13" y1="121.236" x2="58.0712" y2="174.671" gradientUnits="userSpaceOnUse">
<stop stop-color="#FFF2D6"/>
<stop offset="0.212795" stop-color="#9D8555"/>
<stop offset="0.57751" stop-color="#D8C08F"/>
<stop offset="1" stop-color="#58400F"/>
</linearGradient>
<linearGradient id="paint3_linear_311_715" x1="22.75" y1="154.914" x2="49.5694" y2="147.039" gradientUnits="userSpaceOnUse">
<stop offset="0.0677083" stop-color="#4D5455"/>
<stop offset="0.21875" stop-color="#9EA1A1"/>
<stop offset="0.453125" stop-color="#848B8A"/>
<stop offset="0.524381" stop-color="#535D5E"/>
<stop offset="0.796875" stop-color="#4B5355"/>
<stop offset="0.895833" stop-color="#757A7B"/>
<stop offset="1" stop-color="#4D5455"/>
</linearGradient>
<radialGradient id="paint4_radial_311_715" cx="0" cy="0" r="1" gradientUnits="userSpaceOnUse" gradientTransform="translate(22.75 132.385) rotate(64.0896) scale(26.7602 25.7532)">
<stop stop-color="white"/>
<stop offset="1" stop-color="white" stop-opacity="0"/>
</radialGradient>
<linearGradient id="paint5_linear_311_715" x1="55" y1="48.7259" x2="129.568" y2="140.669" gradientUnits="userSpaceOnUse">
<stop stop-color="#FFF2D6"/>
<stop offset="0.212795" stop-color="#9D8555"/>
<stop offset="0.57751" stop-color="#D8C08F"/>
<stop offset="1" stop-color="#58400F"/>
</linearGradient>
<linearGradient id="paint6_linear_311_715" x1="55" y1="110.212" x2="142.638" y2="78.6519" gradientUnits="userSpaceOnUse">
<stop offset="0.0677083" stop-color="#4D5455"/>
<stop offset="0.21875" stop-color="#9EA1A1"/>
<stop offset="0.453125" stop-color="#848B8A"/>
<stop offset="0.524381" stop-color="#535D5E"/>
<stop offset="0.796875" stop-color="#4B5355"/>
<stop offset="0.895833" stop-color="#757A7B"/>
<stop offset="1" stop-color="#4D5455"/>
</linearGradient>
<radialGradient id="paint7_radial_311_715" cx="0" cy="0" r="1" gradientUnits="userSpaceOnUse" gradientTransform="translate(55 47.7856) rotate(59.2123) scale(77.6376 83.5901)">
<stop stop-color="white"/>
<stop offset="1" stop-color="white" stop-opacity="0"/>
</radialGradient>
</defs>
</svg>
