<svg width="30" height="30" viewBox="0 0 30 30" fill="none" xmlns="http://www.w3.org/2000/svg">
<g opacity="0.6" clip-path="url(#clip0_226_7171)">
<g clip-path="url(#clip1_226_7171)">
<path d="M15.002 11.25C14.0074 11.25 13.0536 11.6451 12.3503 12.3483C11.647 13.0516 11.252 14.0054 11.252 15C11.252 15.9946 11.647 16.9484 12.3503 17.6517C13.0536 18.3549 14.0074 18.75 15.002 18.75C15.9965 18.75 16.9503 18.3549 17.6536 17.6517C18.3569 16.9484 18.752 15.9946 18.752 15C18.752 14.0054 18.3569 13.0516 17.6536 12.3483C16.9503 11.6451 15.9965 11.25 15.002 11.25ZM15.002 8.75C16.6596 8.75 18.2493 9.40848 19.4214 10.5806C20.5935 11.7527 21.252 13.3424 21.252 15C21.252 16.6576 20.5935 18.2473 19.4214 19.4194C18.2493 20.5915 16.6596 21.25 15.002 21.25C13.3443 21.25 11.7546 20.5915 10.5825 19.4194C9.41043 18.2473 8.75195 16.6576 8.75195 15C8.75195 13.3424 9.41043 11.7527 10.5825 10.5806C11.7546 9.40848 13.3443 8.75 15.002 8.75ZM23.127 8.4375C23.127 8.8519 22.9623 9.24933 22.6693 9.54235C22.3763 9.83538 21.9789 10 21.5645 10C21.1501 10 20.7526 9.83538 20.4596 9.54235C20.1666 9.24933 20.002 8.8519 20.002 8.4375C20.002 8.0231 20.1666 7.62567 20.4596 7.33265C20.7526 7.03962 21.1501 6.875 21.5645 6.875C21.9789 6.875 22.3763 7.03962 22.6693 7.33265C22.9623 7.62567 23.127 8.0231 23.127 8.4375ZM15.002 5C11.9095 5 11.4045 5.00875 9.9657 5.0725C8.9857 5.11875 8.3282 5.25 7.7182 5.4875C7.20772 5.67492 6.74622 5.97533 6.3682 6.36625C5.97696 6.74425 5.67614 7.20573 5.4882 7.71625C5.2507 8.32875 5.11945 8.985 5.07445 9.96375C5.00945 11.3438 5.00195 11.8263 5.00195 15C5.00195 18.0925 5.0107 18.5975 5.07445 20.0362C5.1207 21.015 5.25195 21.6737 5.4882 22.2825C5.7007 22.8263 5.9507 23.2175 6.3657 23.6325C6.78695 24.0525 7.1782 24.3037 7.7157 24.5112C8.3332 24.75 8.9907 24.8825 9.9657 24.9275C11.3457 24.9925 11.8282 25 15.002 25C18.0945 25 18.5995 24.9912 20.0382 24.9275C21.0157 24.8812 21.6745 24.75 22.2845 24.5138C22.7942 24.3254 23.2554 24.0256 23.6345 23.6362C24.0557 23.215 24.307 22.8238 24.5145 22.2863C24.752 21.67 24.8845 21.0112 24.9295 20.0362C24.9945 18.6562 25.002 18.1737 25.002 15C25.002 11.9075 24.9932 11.4025 24.9295 9.96375C24.8832 8.98625 24.752 8.32625 24.5145 7.71625C24.3261 7.20625 24.0258 6.74495 23.6357 6.36625C23.2579 5.97481 22.7963 5.67396 22.2857 5.48625C21.6732 5.24875 21.0157 5.1175 20.0382 5.0725C18.6582 5.0075 18.1757 5 15.002 5ZM15.002 2.5C18.3982 2.5 18.822 2.5125 20.1545 2.575C21.4857 2.6375 22.392 2.84625 23.1895 3.15625C24.0145 3.47375 24.7095 3.90375 25.4045 4.5975C26.0401 5.22237 26.5319 5.97824 26.8457 6.8125C27.1545 7.60875 27.3645 8.51625 27.427 9.8475C27.4857 11.18 27.502 11.6038 27.502 15C27.502 18.3962 27.4895 18.82 27.427 20.1525C27.3645 21.4837 27.1545 22.39 26.8457 23.1875C26.5328 24.0222 26.0409 24.7783 25.4045 25.4025C24.7794 26.0379 24.0236 26.5297 23.1895 26.8438C22.3932 27.1525 21.4857 27.3625 20.1545 27.425C18.822 27.4838 18.3982 27.5 15.002 27.5C11.6057 27.5 11.182 27.4875 9.84945 27.425C8.5182 27.3625 7.61195 27.1525 6.81445 26.8438C5.97986 26.5306 5.22386 26.0387 4.59945 25.4025C3.96371 24.7777 3.47187 24.0218 3.1582 23.1875C2.8482 22.3912 2.63945 21.4837 2.57695 20.1525C2.5182 18.82 2.50195 18.3962 2.50195 15C2.50195 11.6038 2.51445 11.18 2.57695 9.8475C2.63945 8.515 2.8482 7.61 3.1582 6.8125C3.471 5.97772 3.96296 5.22165 4.59945 4.5975C5.22404 3.96154 5.97999 3.46966 6.81445 3.15625C7.61195 2.84625 8.51695 2.6375 9.84945 2.575C11.182 2.51625 11.6057 2.5 15.002 2.5Z" fill="white"/>
</g>
</g>
<defs>
<clipPath id="clip0_226_7171">
<rect width="30" height="30" fill="white"/>
</clipPath>
<clipPath id="clip1_226_7171">
<rect width="30" height="30" fill="white"/>
</clipPath>
</defs>
</svg>
