<svg width="130" height="130" viewBox="0 0 130 130" fill="none" xmlns="http://www.w3.org/2000/svg">
<circle cx="65.4333" cy="65.0671" r="64.4973" fill="url(#paint0_linear_1811_3776)"/>
<path fill-rule="evenodd" clip-rule="evenodd" d="M82.594 87.7733C82.889 87.4485 83.0443 87.0218 83.0264 86.5845L81.3407 45.2883C81.3393 45.2548 81.3369 45.2213 81.3335 45.1878C81.0237 42.1428 79.0628 38.1363 74.5274 37.519C74.4512 37.5086 74.3744 37.5034 74.2976 37.5035L57.7988 37.5166C56.7388 37.4458 55.7441 37.6756 54.9034 38.2219C54.0516 38.7753 53.4709 39.5797 53.1233 40.4641C52.7091 41.518 52.6033 42.7263 52.7578 43.964C50.3585 44.0017 48.504 44.6425 47.3309 46.0373C45.8183 47.8358 45.9919 50.2449 46.4786 52.1531C46.4932 52.2106 46.5109 52.2672 46.5316 52.3228L52.7951 69.1393C52.805 69.1659 52.8156 69.1923 52.8269 69.2184C53.3153 70.3495 54.0599 71.1314 54.6808 71.7265C54.7252 71.7748 54.7729 71.8208 54.8237 71.8644L62.7654 78.677C62.7803 78.6897 62.7954 78.7022 62.8107 78.7145C63.3272 79.1271 63.5583 79.4312 63.6821 79.6477C63.8068 79.8658 63.8769 80.0854 63.9678 80.4662L65.5177 87.7195C65.5914 88.0643 65.7729 88.3773 66.0362 88.6136C70.8411 92.9254 78.255 92.5495 82.594 87.7733ZM79.6327 86.0015C76.6224 88.8356 71.9454 89.0427 68.6923 86.4672L67.2575 79.7526C67.2557 79.7441 67.2538 79.7357 67.2519 79.7272C67.251 79.7236 67.2502 79.72 67.2493 79.7164C67.1395 79.2534 66.9825 78.647 66.6098 77.9951C66.2382 77.3451 65.7054 76.7377 64.9444 76.126L57.1062 69.4023C57.1006 69.3968 57.0948 69.3913 57.0891 69.3858C56.5282 68.8527 56.1656 68.4458 55.9363 67.9335L49.7217 51.248C49.3247 49.6368 49.4995 48.6765 49.9145 48.183C50.3132 47.709 51.4783 47.0357 54.7409 47.4202C55.3259 47.4892 55.9046 47.2493 56.2668 46.7877C56.6291 46.3261 56.7222 45.71 56.5123 45.163C55.9431 43.6791 55.9687 42.4216 56.2597 41.6813C56.3979 41.3297 56.5776 41.1317 56.7461 41.0222C56.9063 40.9181 57.1653 40.8222 57.6035 40.8571C57.6487 40.8607 57.6941 40.8625 57.7394 40.8625L74.1754 40.8495C76.451 41.2155 77.7394 43.2779 77.9785 45.477L79.6327 86.0015Z" fill="#402EA1"/>
<path fill-rule="evenodd" clip-rule="evenodd" d="M73.1891 48.6973C73.1891 47.9489 72.3365 47.3423 71.2848 47.3423C69.9354 47.3423 68.7417 47.6429 67.8009 48.2626C66.907 48.8515 66.3917 49.6299 66.074 50.4039C65.6335 51.4769 65.4805 52.7901 65.4289 54.1537C64.4916 53.9385 63.5328 53.616 62.5581 53.1376C60.8233 52.2862 58.9492 50.8967 57.0586 48.6043C56.5263 47.9589 55.3595 47.7427 54.4524 48.1215C53.5453 48.5002 53.2415 49.3305 53.7738 49.9759C55.8795 52.5291 58.1061 54.2448 60.3955 55.3684C62.6985 56.4988 64.9745 56.9855 67.0737 57.1707C67.6155 57.2185 68.16 57.0986 68.5691 56.8414C68.9781 56.5842 69.2124 56.2144 69.2124 55.826C69.2124 53.8155 69.2905 52.2342 69.7299 51.1637C69.9415 50.6481 70.1881 50.3832 70.3884 50.2513C70.5418 50.1502 70.7748 50.0523 71.2848 50.0523C72.3365 50.0523 73.1891 49.4457 73.1891 48.6973Z" fill="#402EA1"/>
<path fill-rule="evenodd" clip-rule="evenodd" d="M73.1891 48.6973C73.1891 47.9489 72.3365 47.3423 71.2848 47.3423C69.9354 47.3423 68.7417 47.6429 67.8009 48.2626C66.907 48.8515 66.3917 49.6299 66.074 50.4039C65.6335 51.4769 65.4805 52.7901 65.4289 54.1537C64.4916 53.9385 63.5328 53.616 62.5581 53.1376C60.8233 52.2862 58.9492 50.8967 57.0586 48.6043C56.5263 47.9589 55.3595 47.7427 54.4524 48.1215C53.5453 48.5002 53.2415 49.3305 53.7738 49.9759C55.8795 52.5291 58.1061 54.2448 60.3955 55.3684C62.6985 56.4988 64.9745 56.9855 67.0737 57.1707C67.6155 57.2185 68.16 57.0986 68.5691 56.8414C68.9781 56.5842 69.2124 56.2144 69.2124 55.826C69.2124 53.8155 69.2905 52.2342 69.7299 51.1637C69.9415 50.6481 70.1881 50.3832 70.3884 50.2513C70.5418 50.1502 70.7748 50.0523 71.2848 50.0523C72.3365 50.0523 73.1891 49.4457 73.1891 48.6973Z" fill="#402EA1"/>
<defs>
<linearGradient id="paint0_linear_1811_3776" x1="34.6819" y1="-55.8712" x2="205.197" y2="107.911" gradientUnits="userSpaceOnUse">
<stop offset="0.290144" stop-color="white"/>
<stop offset="0.973068" stop-color="#C7D5E0"/>
</linearGradient>
</defs>
</svg>
