<svg width="205" height="193" viewBox="0 0 205 193" fill="none" xmlns="http://www.w3.org/2000/svg">
<g filter="url(#filter0_d_1311_4306)">
<circle cx="108.333" cy="96.3333" r="83.3333" fill="url(#paint0_linear_1311_4306)"/>
<g filter="url(#filter1_d_1311_4306)">
<circle cx="38" cy="155" r="25" fill="#402EA1"/>
</g>
<path d="M45.2315 155.539C45.1968 155.442 45.1555 155.347 45.108 155.255L45.1139 155.268C44.9404 154.863 43.5456 152.168 43.3127 151.801L36.8363 139.305L30.1947 152.108C29.969 152.476 28.7309 154.864 28.5598 155.268L28.4921 155.418C28.0504 156.495 27.8251 157.648 27.8292 158.811C27.8292 161.2 28.7782 163.492 30.4676 165.181C32.157 166.87 34.4483 167.82 36.8375 167.82C39.2266 167.82 41.5179 166.87 43.2073 165.181C44.8967 163.492 45.8458 161.2 45.8458 158.811V158.804L45.847 158.684C45.847 157.549 45.6212 156.467 45.2113 155.481L45.2315 155.537V155.539ZM36.841 165.466C35.6887 165.466 34.5561 165.166 33.5548 164.596C32.5535 164.025 31.7181 163.204 31.1307 162.213C30.5433 161.221 30.2242 160.094 30.2049 158.942C30.1856 157.789 30.4666 156.652 31.0204 155.641L31.0026 155.676C30.9156 156.138 30.8718 156.608 30.8719 157.079V157.08C30.8732 159.19 31.7118 161.213 33.2035 162.704C34.6952 164.196 36.718 165.035 38.8276 165.036C38.9618 165.036 39.1056 165.036 39.2387 165.029C38.4793 165.32 37.6724 165.469 36.8589 165.466H36.8315H36.841Z" fill="white"/>
<path d="M127.923 52.7812H75.0679C74.1138 52.7812 73.4619 53.8817 73.4619 55.0116V140.139C73.4619 140.735 73.9447 141.217 74.5403 141.217H142.188C142.783 141.217 143.266 140.735 143.266 140.139V68.6881L127.923 52.7812Z" fill="white"/>
<path d="M128.462 52.7812L143.56 68.4185H129.54C128.945 68.4185 128.462 67.9357 128.462 67.3401V52.7812Z" fill="#402EA1"/>
<path d="M85.3247 87.2911H131.697V90.5263H85.3247V87.2911Z" fill="#402EA1"/>
<path d="M85.3247 92.6832H131.697V95.9185H85.3247V92.6832Z" fill="#402EA1"/>
<path d="M85.3247 98.0754H93.9521V101.311H85.3247V98.0754Z" fill="#402EA1"/>
<path d="M74.4018 52.9769H127.856L142.885 68.5588V141.003C142.885 141.008 142.885 141.01 142.884 141.011C142.884 141.012 142.884 141.013 142.883 141.013C142.882 141.015 142.881 141.017 142.879 141.019C142.876 141.021 142.874 141.023 142.872 141.024C142.871 141.024 142.871 141.024 142.87 141.024C142.868 141.025 142.867 141.025 142.864 141.025H73.8637C73.8587 141.025 73.8567 141.024 73.8556 141.024C73.8538 141.023 73.8512 141.021 73.8484 141.019C73.8457 141.016 73.8441 141.013 73.8434 141.011C73.8429 141.01 73.8421 141.008 73.8421 141.003V54.1734C73.8421 53.789 73.9564 53.4361 74.1105 53.2089C74.2622 52.985 74.3742 52.9769 74.4018 52.9769Z" stroke="#402EA1" stroke-width="2.15686"/>
</g>
<defs>
<filter id="filter0_d_1311_4306" x="0.5" y="0.5" width="203.667" height="192" filterUnits="userSpaceOnUse" color-interpolation-filters="sRGB">
<feFlood flood-opacity="0" result="BackgroundImageFix"/>
<feColorMatrix in="SourceAlpha" type="matrix" values="0 0 0 0 0 0 0 0 0 0 0 0 0 0 0 0 0 0 127 0" result="hardAlpha"/>
<feOffset/>
<feGaussianBlur stdDeviation="6.25"/>
<feComposite in2="hardAlpha" operator="out"/>
<feColorMatrix type="matrix" values="0 0 0 0 0 0 0 0 0 0 0 0 0 0 0 0 0 0 0.1 0"/>
<feBlend mode="normal" in2="BackgroundImageFix" result="effect1_dropShadow_1311_4306"/>
<feBlend mode="normal" in="SourceGraphic" in2="effect1_dropShadow_1311_4306" result="shape"/>
</filter>
<filter id="filter1_d_1311_4306" x="9" y="130" width="58" height="58" filterUnits="userSpaceOnUse" color-interpolation-filters="sRGB">
<feFlood flood-opacity="0" result="BackgroundImageFix"/>
<feColorMatrix in="SourceAlpha" type="matrix" values="0 0 0 0 0 0 0 0 0 0 0 0 0 0 0 0 0 0 127 0" result="hardAlpha"/>
<feOffset dy="4"/>
<feGaussianBlur stdDeviation="2"/>
<feComposite in2="hardAlpha" operator="out"/>
<feColorMatrix type="matrix" values="0 0 0 0 0 0 0 0 0 0 0 0 0 0 0 0 0 0 0.1 0"/>
<feBlend mode="normal" in2="BackgroundImageFix" result="effect1_dropShadow_1311_4306"/>
<feBlend mode="normal" in="SourceGraphic" in2="effect1_dropShadow_1311_4306" result="shape"/>
</filter>
<linearGradient id="paint0_linear_1311_4306" x1="68.6012" y1="-59.9243" x2="288.915" y2="151.69" gradientUnits="userSpaceOnUse">
<stop offset="0.290144" stop-color="white"/>
<stop offset="0.973068" stop-color="#C7D5E0"/>
</linearGradient>
</defs>
</svg>
