<svg width="205" height="193" viewBox="0 0 205 193" fill="none" xmlns="http://www.w3.org/2000/svg">
<g filter="url(#filter0_d_1498_78977)">
<circle cx="108.334" cy="96.3333" r="83.3333" fill="url(#paint0_linear_1498_78977)"/>
<g filter="url(#filter1_d_1498_78977)">
<circle cx="38" cy="155" r="25" fill="#402EA1"/>
</g>
<path d="M47.0174 153.077C47.0174 155.491 46.2335 157.722 44.913 159.532L51.5733 166.197C52.231 166.855 52.231 167.923 51.5733 168.581C50.9157 169.238 49.8477 169.238 49.1901 168.581L42.5298 161.915C40.72 163.241 38.4894 164.019 36.0746 164.019C30.0298 164.019 25.1318 159.121 25.1318 153.077C25.1318 147.032 30.0298 142.134 36.0746 142.134C42.1194 142.134 47.0174 147.032 47.0174 153.077Z" fill="white"/>
<path d="M121.902 53.1694C123.252 52.8593 124.664 52.977 125.944 53.5062C127.223 54.0354 128.306 54.95 129.042 56.1227L135.669 66.7027C136.203 67.5549 136.924 68.2751 137.776 68.8094L148.356 75.4361C149.531 76.1716 150.448 77.2553 150.978 78.5362C151.509 79.8171 151.627 81.2316 151.316 82.5827L148.516 94.7427C148.29 95.7255 148.29 96.7467 148.516 97.7294L151.316 109.896C151.624 111.245 151.504 112.657 150.974 113.935C150.443 115.213 149.528 116.295 148.356 117.029L137.776 123.663C136.923 124.196 136.202 124.916 135.669 125.769L129.042 136.349C128.307 137.523 127.225 138.439 125.945 138.97C124.666 139.5 123.253 139.619 121.902 139.309L109.736 136.509C108.755 136.285 107.736 136.285 106.756 136.509L94.5891 139.309C93.2389 139.619 91.8259 139.5 90.5463 138.97C89.2668 138.439 88.1842 137.523 87.4491 136.349L80.8224 125.769C80.286 124.917 79.5635 124.196 78.7091 123.663L68.1357 117.036C66.9617 116.301 66.0459 115.218 65.5154 113.939C64.9849 112.659 64.8662 111.246 65.1757 109.896L67.9691 97.7294C68.1949 96.7467 68.1949 95.7255 67.9691 94.7427L65.1691 82.5827C64.8587 81.2309 64.9777 79.816 65.5094 78.5349C66.0412 77.2539 66.9593 76.1707 68.1357 75.4361L78.7091 68.8094C79.5636 68.2759 80.2862 67.5556 80.8224 66.7027L87.4491 56.1227C88.1847 54.9512 89.2666 54.0376 90.5447 53.5084C91.8228 52.9792 93.2339 52.8607 94.5824 53.1694L106.756 55.9627C107.736 56.1876 108.755 56.1876 109.736 55.9627L121.902 53.1694Z" stroke="#402EA1" stroke-width="3"/>
<path d="M91.6729 99.8094L105.24 112.803L124.806 79.6694" stroke="#402EA1" stroke-width="3" stroke-linecap="round" stroke-linejoin="round"/>
</g>
<defs>
<filter id="filter0_d_1498_78977" x="0.5" y="0.5" width="203.668" height="192" filterUnits="userSpaceOnUse" color-interpolation-filters="sRGB">
<feFlood flood-opacity="0" result="BackgroundImageFix"/>
<feColorMatrix in="SourceAlpha" type="matrix" values="0 0 0 0 0 0 0 0 0 0 0 0 0 0 0 0 0 0 127 0" result="hardAlpha"/>
<feOffset/>
<feGaussianBlur stdDeviation="6.25"/>
<feComposite in2="hardAlpha" operator="out"/>
<feColorMatrix type="matrix" values="0 0 0 0 0 0 0 0 0 0 0 0 0 0 0 0 0 0 0.1 0"/>
<feBlend mode="normal" in2="BackgroundImageFix" result="effect1_dropShadow_1498_78977"/>
<feBlend mode="normal" in="SourceGraphic" in2="effect1_dropShadow_1498_78977" result="shape"/>
</filter>
<filter id="filter1_d_1498_78977" x="9" y="130" width="58" height="58" filterUnits="userSpaceOnUse" color-interpolation-filters="sRGB">
<feFlood flood-opacity="0" result="BackgroundImageFix"/>
<feColorMatrix in="SourceAlpha" type="matrix" values="0 0 0 0 0 0 0 0 0 0 0 0 0 0 0 0 0 0 127 0" result="hardAlpha"/>
<feOffset dy="4"/>
<feGaussianBlur stdDeviation="2"/>
<feComposite in2="hardAlpha" operator="out"/>
<feColorMatrix type="matrix" values="0 0 0 0 0 0 0 0 0 0 0 0 0 0 0 0 0 0 0.1 0"/>
<feBlend mode="normal" in2="BackgroundImageFix" result="effect1_dropShadow_1498_78977"/>
<feBlend mode="normal" in="SourceGraphic" in2="effect1_dropShadow_1498_78977" result="shape"/>
</filter>
<linearGradient id="paint0_linear_1498_78977" x1="68.6021" y1="-59.9243" x2="288.916" y2="151.69" gradientUnits="userSpaceOnUse">
<stop offset="0.290144" stop-color="white"/>
<stop offset="0.973068" stop-color="#C7D5E0"/>
</linearGradient>
</defs>
</svg>
