<svg width="30" height="30" viewBox="0 0 30 30" fill="none" xmlns="http://www.w3.org/2000/svg">
<g opacity="0.6">
<path d="M23.6411 23.6464H19.8796V17.7522C19.8796 16.3466 19.851 14.5378 17.9194 14.5378C15.9582 14.5378 15.6587 16.0672 15.6587 17.6484V23.6464H11.8971V11.5256H15.5105V13.1778H15.5592C16.064 12.2252 17.2918 11.2197 19.126 11.2197C22.9373 11.2197 23.6422 13.7281 23.6422 16.9933L23.6411 23.6464ZM7.64868 9.86709C6.43787 9.86709 5.4652 8.88701 5.4652 7.68149C5.4652 6.47703 6.43893 5.49801 7.64868 5.49801C8.85526 5.49801 9.83322 6.47703 9.83322 7.68149C9.83322 8.88701 8.8542 9.86709 7.64868 9.86709ZM9.53475 23.6464H5.76261V11.5256H9.53475V23.6464ZM25.5229 2H3.87443C2.83825 2 2 2.8192 2 3.82997V25.5716C2 26.5835 2.83825 27.4016 3.87443 27.4016H25.5198C26.5549 27.4016 27.4016 26.5835 27.4016 25.5716V3.82997C27.4016 2.8192 26.5549 2 25.5198 2H25.5229Z" fill="url(#paint0_linear_339_1629)"/>
</g>
<defs>
<linearGradient id="paint0_linear_339_1629" x1="2" y1="0.0875234" x2="24.8976" y2="27.2345" gradientUnits="userSpaceOnUse">
<stop stop-color="#FFF2D6"/>
<stop offset="0.212795" stop-color="#9D8555"/>
<stop offset="0.57751" stop-color="#D8C08F"/>
<stop offset="1" stop-color="#58400F"/>
</linearGradient>
</defs>
</svg>
