<svg width="26" height="26" viewBox="0 0 26 26" fill="none" xmlns="http://www.w3.org/2000/svg">
<path d="M21.6411 21.6464H17.8796V15.7522C17.8796 14.3466 17.851 12.5378 15.9194 12.5378C13.9582 12.5378 13.6587 14.0672 13.6587 15.6484V21.6464H9.8971V9.5256H13.5105V11.1778H13.5592C14.064 10.2252 15.2918 9.21972 17.126 9.21972C20.9373 9.21972 21.6422 11.7281 21.6422 14.9933L21.6411 21.6464ZM5.64868 7.86709C4.43787 7.86709 3.4652 6.88701 3.4652 5.68149C3.4652 4.47703 4.43893 3.49801 5.64868 3.49801C6.85526 3.49801 7.83322 4.47703 7.83322 5.68149C7.83322 6.88701 6.8542 7.86709 5.64868 7.86709ZM7.53475 21.6464H3.76261V9.5256H7.53475V21.6464ZM23.5229 0H1.87443C0.838253 0 0 0.819202 0 1.82997V23.5716C0 24.5835 0.838253 25.4016 1.87443 25.4016H23.5198C24.5549 25.4016 25.4016 24.5835 25.4016 23.5716V1.82997C25.4016 0.819202 24.5549 0 23.5198 0H23.5229Z" fill="white"/>
</svg>
