<svg width="177" height="80" viewBox="0 0 177 80" fill="none" xmlns="http://www.w3.org/2000/svg">
<g clip-path="url(#clip0_226_7133)">
<g clip-path="url(#clip1_226_7133)">
<g clip-path="url(#clip2_226_7133)">
<path d="M23.9984 63.9971C18.3629 63.9971 13.7852 59.4136 13.7852 53.7839V26.2133C13.7852 20.5835 18.3629 16 23.9984 16C29.6339 16 34.2117 20.5835 34.2117 26.2133V53.7781C34.2117 59.4136 29.6281 63.9914 23.9984 63.9914V63.9971ZM23.9984 18.5085C19.7501 18.5085 16.2879 21.965 16.2879 26.219V53.7839C16.2879 58.0322 19.7443 61.4944 23.9984 61.4944C28.2525 61.4944 31.7089 58.038 31.7089 53.7839V26.2133C31.7089 21.965 28.2525 18.5027 23.9984 18.5027V18.5085Z" fill="#5F44FF"/>
<path d="M37.7839 50.2156H10.2133C4.58354 50.2156 0 45.6378 0 40.0023C0 34.3668 4.58354 29.7891 10.2133 29.7891H37.7781C43.4136 29.7891 47.9914 34.3726 47.9914 40.0023C47.9914 45.632 43.4078 50.2156 37.7781 50.2156H37.7839ZM10.2133 32.2918C5.96496 32.2918 2.50274 35.7482 2.50274 40.0023C2.50274 44.2564 5.95918 47.7129 10.2133 47.7129H37.7781C42.0264 47.7129 45.4886 44.2564 45.4886 40.0023C45.4886 35.7482 42.0322 32.2918 37.7781 32.2918H10.2133Z" fill="#5F44FF"/>
<path d="M61.6727 48.1559C61.164 48.1559 60.7016 48.0345 60.2855 47.786C59.8693 47.5375 59.5341 47.208 59.2913 46.7918C59.0428 46.3757 58.9214 45.9133 58.9214 45.4046V44.5145H61.2103V45.3411C61.2103 45.4798 61.2623 45.6069 61.3663 45.711C61.4704 45.815 61.5975 45.867 61.7362 45.867H71.3542C71.4929 45.867 71.6143 45.815 71.7125 45.711C71.8108 45.6069 71.8628 45.4798 71.8628 45.3411V42.2083C71.8628 42.0522 71.8108 41.9251 71.7125 41.8268C71.6143 41.7286 71.4929 41.6765 71.3542 41.6765H61.6727C61.164 41.6765 60.7016 41.5552 60.2855 41.3066C59.8693 41.0581 59.5341 40.7286 59.2913 40.3125C59.0428 39.8963 58.9214 39.4339 58.9214 38.9253V35.6653C58.9214 35.1567 59.0428 34.6943 59.2913 34.2781C59.5398 33.862 59.8693 33.5325 60.2855 33.284C60.7016 33.0354 61.164 32.9141 61.6727 32.9141H71.4177C71.9264 32.9141 72.3888 33.0354 72.805 33.284C73.2211 33.5325 73.5506 33.862 73.7991 34.2781C74.0477 34.6943 74.169 35.1567 74.169 35.6653V36.5555H71.8628V35.7289C71.8628 35.5902 71.8108 35.463 71.7125 35.359C71.6143 35.255 71.4929 35.2029 71.3542 35.2029H61.7362C61.5975 35.2029 61.4704 35.255 61.3663 35.359C61.2623 35.463 61.2103 35.5902 61.2103 35.7289V38.8617C61.2103 39.0177 61.2623 39.1449 61.3663 39.2432C61.4704 39.3414 61.5975 39.3934 61.7362 39.3934H71.4177C71.9264 39.3934 72.3888 39.5148 72.805 39.7634C73.2211 40.0119 73.5506 40.3414 73.7991 40.7575C74.0477 41.1737 74.169 41.6361 74.169 42.1447V45.4046C74.169 45.9133 74.0477 46.3757 73.7991 46.7918C73.5506 47.208 73.2211 47.5375 72.805 47.786C72.3888 48.0345 71.9264 48.1559 71.4177 48.1559H61.6727Z" fill="white"/>
<path d="M79.8564 47.776C79.4403 47.5217 79.105 47.1865 78.8507 46.7703C78.5964 46.3541 78.4692 45.8975 78.4692 45.4062V38.6263C78.4692 38.135 78.5964 37.6784 78.8507 37.2622C79.105 36.846 79.4403 36.5108 79.8564 36.2565C80.2726 36.0022 80.7292 35.875 81.2205 35.875H88.2085C88.7172 35.875 89.1796 36.0022 89.5957 36.2565C90.0119 36.5108 90.3414 36.846 90.5899 37.2622C90.8384 37.6784 90.9598 38.135 90.9598 38.6263V43.1578H80.7523V45.3369C80.7523 45.4756 80.8044 45.6027 80.9084 45.7068C81.0124 45.8108 81.1396 45.8628 81.2783 45.8628H90.9598V48.1517H81.2147C80.7177 48.1517 80.2668 48.0246 79.8507 47.7702L79.8564 47.776ZM80.7581 41.0192H88.6594V38.6899C88.6594 38.5511 88.6074 38.424 88.5091 38.3199C88.4108 38.2159 88.2895 38.1639 88.1507 38.1639H81.2899C81.1512 38.1639 81.024 38.2159 80.92 38.3199C80.8159 38.424 80.7639 38.5511 80.7639 38.6899V41.0192H80.7581Z" fill="white"/>
<path d="M96.1621 47.776C95.7459 47.5217 95.4107 47.1865 95.1564 46.7703C94.9021 46.3541 94.7749 45.8975 94.7749 45.4062V38.6263C94.7749 38.135 94.9021 37.6784 95.1564 37.2622C95.4107 36.846 95.7459 36.5108 96.1621 36.2565C96.5783 36.0022 97.0349 35.875 97.5262 35.875H107.225V38.1639H97.5898C97.451 38.1639 97.3239 38.2159 97.2198 38.3199C97.1158 38.424 97.0638 38.5511 97.0638 38.6899V45.3426C97.0638 45.4814 97.1158 45.6085 97.2198 45.7126C97.3239 45.8166 97.451 45.8686 97.5898 45.8686H107.271V48.1575H97.5262C97.0291 48.1575 96.5783 48.0303 96.1621 47.776Z" fill="white"/>
<path d="M111.762 48.1519V32.8984H124.235C124.744 32.8984 125.212 33.0198 125.634 33.2684C126.056 33.5169 126.391 33.8464 126.64 34.2625C126.888 34.6787 127.01 35.1411 127.01 35.6497V45.3948C127.01 45.9034 126.888 46.3658 126.64 46.782C126.391 47.1982 126.056 47.5276 125.634 47.7762C125.212 48.0247 124.744 48.1461 124.235 48.1461H111.762V48.1519ZM114.56 45.863H124.195C124.334 45.863 124.455 45.811 124.553 45.7069C124.652 45.6029 124.704 45.4757 124.704 45.337V35.7191C124.704 35.5804 124.652 35.4532 124.553 35.3492C124.455 35.2451 124.334 35.1931 124.195 35.1931H114.56C114.421 35.1931 114.3 35.2451 114.201 35.3492C114.103 35.4532 114.051 35.5804 114.051 35.7191V45.337C114.051 45.4757 114.103 45.6029 114.201 45.7069C114.3 45.811 114.421 45.863 114.56 45.863Z" fill="#5F44FF"/>
<path d="M132.784 47.776C132.368 47.5217 132.033 47.1865 131.778 46.7703C131.524 46.3541 131.397 45.8975 131.397 45.4062V38.6263C131.397 38.135 131.524 37.6784 131.778 37.2622C132.033 36.846 132.368 36.5108 132.784 36.2565C133.2 36.0022 133.657 35.875 134.148 35.875H141.136C141.645 35.875 142.107 36.0022 142.523 36.2565C142.94 36.5108 143.269 36.846 143.518 37.2622C143.766 37.6784 143.888 38.135 143.888 38.6263V43.1578H133.68V45.3369C133.68 45.4756 133.732 45.6027 133.836 45.7068C133.94 45.8108 134.067 45.8628 134.206 45.8628H143.888V48.1517H134.142C133.645 48.1517 133.195 48.0246 132.778 47.7702L132.784 47.776ZM133.686 41.0192H141.587V38.6899C141.587 38.5511 141.535 38.424 141.437 38.3199C141.339 38.2159 141.217 38.1639 141.078 38.1639H134.218C134.079 38.1639 133.952 38.2159 133.848 38.3199C133.744 38.424 133.692 38.5511 133.692 38.6899V41.0192H133.686Z" fill="#5F44FF"/>
<path d="M149.413 47.7702C148.997 47.5159 148.662 47.1807 148.407 46.7645C148.153 46.3484 148.026 45.8917 148.026 45.4004V45.0825H150.315V45.3369C150.315 45.4756 150.367 45.6027 150.471 45.7068C150.575 45.8108 150.702 45.8628 150.841 45.8628H157.702C157.84 45.8628 157.962 45.8108 158.06 45.7068C158.158 45.6027 158.21 45.4756 158.21 45.3369V43.6838C158.21 43.5451 158.158 43.4179 158.06 43.3139C157.962 43.2098 157.84 43.1578 157.702 43.1578H150.777C150.28 43.1578 149.829 43.0364 149.413 42.7879C148.997 42.5393 148.662 42.2099 148.407 41.7937C148.153 41.3776 148.026 40.9152 148.026 40.4065V38.6263C148.026 38.135 148.153 37.6784 148.407 37.2622C148.662 36.846 148.997 36.5108 149.413 36.2565C149.829 36.0022 150.286 35.875 150.777 35.875H157.765C158.274 35.875 158.736 36.0022 159.152 36.2565C159.569 36.5108 159.898 36.846 160.147 37.2622C160.395 37.6784 160.516 38.135 160.516 38.6263V38.9442H158.21V38.6899C158.21 38.5511 158.158 38.424 158.06 38.3199C157.962 38.2159 157.84 38.1639 157.702 38.1639H150.841C150.702 38.1639 150.575 38.2159 150.471 38.3199C150.367 38.424 150.315 38.5511 150.315 38.6899V40.3429C150.315 40.4817 150.367 40.6088 150.471 40.7129C150.575 40.8169 150.702 40.8689 150.841 40.8689H157.765C158.274 40.8689 158.736 40.9903 159.152 41.2388C159.569 41.4874 159.898 41.8168 160.147 42.233C160.395 42.6492 160.516 43.1116 160.516 43.6202V45.4004C160.516 45.8975 160.395 46.3484 160.147 46.7645C159.898 47.1807 159.569 47.5159 159.152 47.7702C158.736 48.0246 158.274 48.1517 157.765 48.1517H150.777C150.28 48.1517 149.829 48.0246 149.413 47.7702Z" fill="#5F44FF"/>
<path d="M164.401 48.1549V31.8438H166.69V40.8663H169.441L174.036 35.8666H176.66V36.2886L171.47 42.005L176.66 47.7214V48.1434H174.036L169.441 43.1437H166.69V48.1434H164.401V48.1549Z" fill="#5F44FF"/>
</g>
</g>
</g>
<defs>
<clipPath id="clip0_226_7133">
<rect width="176.66" height="48" fill="white" transform="translate(0 16)"/>
</clipPath>
<clipPath id="clip1_226_7133">
<rect width="176.66" height="48" fill="white" transform="translate(0 16)"/>
</clipPath>
<clipPath id="clip2_226_7133">
<rect width="176.66" height="47.9971" fill="white" transform="translate(0 16)"/>
</clipPath>
</defs>
</svg>
