<svg width="177" height="81" viewBox="0 0 177 81" fill="none" xmlns="http://www.w3.org/2000/svg">
<g clip-path="url(#clip0_339_1602)">
<g clip-path="url(#clip1_339_1602)">
<g clip-path="url(#clip2_339_1602)">
<path d="M23.9985 64.776C18.363 64.776 13.7853 60.1924 13.7853 54.5627V26.9921C13.7853 21.3624 18.363 16.7788 23.9985 16.7788C29.634 16.7788 34.2118 21.3624 34.2118 26.9921V54.5569C34.2118 60.1924 29.6283 64.7702 23.9985 64.7702V64.776ZM23.9985 19.2873C19.7502 19.2873 16.288 22.7438 16.288 26.9979V54.5627C16.288 58.811 19.7445 62.2732 23.9985 62.2732C28.2526 62.2732 31.7091 58.8168 31.7091 54.5627V26.9921C31.7091 22.7438 28.2526 19.2815 23.9985 19.2815V19.2873Z" fill="url(#paint0_linear_339_1602)"/>
<path d="M23.9985 64.776C18.363 64.776 13.7853 60.1924 13.7853 54.5627V26.9921C13.7853 21.3624 18.363 16.7788 23.9985 16.7788C29.634 16.7788 34.2118 21.3624 34.2118 26.9921V54.5569C34.2118 60.1924 29.6283 64.7702 23.9985 64.7702V64.776ZM23.9985 19.2873C19.7502 19.2873 16.288 22.7438 16.288 26.9979V54.5627C16.288 58.811 19.7445 62.2732 23.9985 62.2732C28.2526 62.2732 31.7091 58.8168 31.7091 54.5627V26.9921C31.7091 22.7438 28.2526 19.2815 23.9985 19.2815V19.2873Z" fill="url(#paint1_radial_339_1602)" style="mix-blend-mode:overlay"/>
<path d="M37.7839 50.9907H10.2133C4.58354 50.9907 0 46.413 0 40.7775C0 35.142 4.58354 30.5642 10.2133 30.5642H37.7781C43.4136 30.5642 47.9914 35.1478 47.9914 40.7775C47.9914 46.4072 43.4078 50.9907 37.7781 50.9907H37.7839ZM10.2133 33.067C5.96496 33.067 2.50274 36.5234 2.50274 40.7775C2.50274 45.0316 5.95918 48.488 10.2133 48.488H37.7781C42.0264 48.488 45.4886 45.0316 45.4886 40.7775C45.4886 36.5234 42.0322 33.067 37.7781 33.067H10.2133Z" fill="url(#paint2_linear_339_1602)"/>
<path d="M37.7839 50.9907H10.2133C4.58354 50.9907 0 46.413 0 40.7775C0 35.142 4.58354 30.5642 10.2133 30.5642H37.7781C43.4136 30.5642 47.9914 35.1478 47.9914 40.7775C47.9914 46.4072 43.4078 50.9907 37.7781 50.9907H37.7839ZM10.2133 33.067C5.96496 33.067 2.50274 36.5234 2.50274 40.7775C2.50274 45.0316 5.95918 48.488 10.2133 48.488H37.7781C42.0264 48.488 45.4886 45.0316 45.4886 40.7775C45.4886 36.5234 42.0322 33.067 37.7781 33.067H10.2133Z" fill="url(#paint3_radial_339_1602)" style="mix-blend-mode:overlay"/>
<path d="M61.6726 48.933C61.164 48.933 60.7016 48.8116 60.2854 48.5631C59.8692 48.3146 59.534 47.9851 59.2912 47.5689C59.0427 47.1528 58.9213 46.6904 58.9213 46.1817V45.2916H61.2102V46.1182C61.2102 46.2569 61.2622 46.384 61.3663 46.4881C61.4703 46.5921 61.5975 46.6441 61.7362 46.6441H71.3541C71.4928 46.6441 71.6142 46.5921 71.7125 46.4881C71.8107 46.384 71.8628 46.2569 71.8628 46.1182V42.9854C71.8628 42.8293 71.8107 42.7022 71.7125 42.6039C71.6142 42.5057 71.4928 42.4536 71.3541 42.4536H61.6726C61.164 42.4536 60.7016 42.3323 60.2854 42.0837C59.8692 41.8352 59.534 41.5057 59.2912 41.0896C59.0427 40.6734 58.9213 40.211 58.9213 39.7024V36.4424C58.9213 35.9338 59.0427 35.4714 59.2912 35.0552C59.5398 34.6391 59.8692 34.3096 60.2854 34.0611C60.7016 33.8125 61.164 33.6912 61.6726 33.6912H71.4177C71.9263 33.6912 72.3887 33.8125 72.8049 34.0611C73.2211 34.3096 73.5505 34.6391 73.7991 35.0552C74.0476 35.4714 74.169 35.9338 74.169 36.4424V37.3326H71.8628V36.506C71.8628 36.3673 71.8107 36.2401 71.7125 36.1361C71.6142 36.0321 71.4928 35.98 71.3541 35.98H61.7362C61.5975 35.98 61.4703 36.0321 61.3663 36.1361C61.2622 36.2401 61.2102 36.3673 61.2102 36.506V39.6388C61.2102 39.7948 61.2622 39.922 61.3663 40.0203C61.4703 40.1185 61.5975 40.1705 61.7362 40.1705H71.4177C71.9263 40.1705 72.3887 40.2919 72.8049 40.5405C73.2211 40.789 73.5505 41.1185 73.7991 41.5346C74.0476 41.9508 74.169 42.4132 74.169 42.9218V46.1817C74.169 46.6904 74.0476 47.1528 73.7991 47.5689C73.5505 47.9851 73.2211 48.3146 72.8049 48.5631C72.3887 48.8116 71.9263 48.933 71.4177 48.933H61.6726Z" fill="url(#paint4_linear_339_1602)"/>
<path d="M61.6726 48.933C61.164 48.933 60.7016 48.8116 60.2854 48.5631C59.8692 48.3146 59.534 47.9851 59.2912 47.5689C59.0427 47.1528 58.9213 46.6904 58.9213 46.1817V45.2916H61.2102V46.1182C61.2102 46.2569 61.2622 46.384 61.3663 46.4881C61.4703 46.5921 61.5975 46.6441 61.7362 46.6441H71.3541C71.4928 46.6441 71.6142 46.5921 71.7125 46.4881C71.8107 46.384 71.8628 46.2569 71.8628 46.1182V42.9854C71.8628 42.8293 71.8107 42.7022 71.7125 42.6039C71.6142 42.5057 71.4928 42.4536 71.3541 42.4536H61.6726C61.164 42.4536 60.7016 42.3323 60.2854 42.0837C59.8692 41.8352 59.534 41.5057 59.2912 41.0896C59.0427 40.6734 58.9213 40.211 58.9213 39.7024V36.4424C58.9213 35.9338 59.0427 35.4714 59.2912 35.0552C59.5398 34.6391 59.8692 34.3096 60.2854 34.0611C60.7016 33.8125 61.164 33.6912 61.6726 33.6912H71.4177C71.9263 33.6912 72.3887 33.8125 72.8049 34.0611C73.2211 34.3096 73.5505 34.6391 73.7991 35.0552C74.0476 35.4714 74.169 35.9338 74.169 36.4424V37.3326H71.8628V36.506C71.8628 36.3673 71.8107 36.2401 71.7125 36.1361C71.6142 36.0321 71.4928 35.98 71.3541 35.98H61.7362C61.5975 35.98 61.4703 36.0321 61.3663 36.1361C61.2622 36.2401 61.2102 36.3673 61.2102 36.506V39.6388C61.2102 39.7948 61.2622 39.922 61.3663 40.0203C61.4703 40.1185 61.5975 40.1705 61.7362 40.1705H71.4177C71.9263 40.1705 72.3887 40.2919 72.8049 40.5405C73.2211 40.789 73.5505 41.1185 73.7991 41.5346C74.0476 41.9508 74.169 42.4132 74.169 42.9218V46.1817C74.169 46.6904 74.0476 47.1528 73.7991 47.5689C73.5505 47.9851 73.2211 48.3146 72.8049 48.5631C72.3887 48.8116 71.9263 48.933 71.4177 48.933H61.6726Z" fill="url(#paint5_radial_339_1602)" style="mix-blend-mode:overlay"/>
<path d="M79.8565 48.5514C79.4403 48.2971 79.1051 47.9619 78.8508 47.5457C78.5965 47.1295 78.4693 46.6729 78.4693 46.1816V39.4017C78.4693 38.9104 78.5965 38.4538 78.8508 38.0376C79.1051 37.6214 79.4403 37.2862 79.8565 37.0319C80.2727 36.7776 80.7293 36.6504 81.2206 36.6504H88.2086C88.7172 36.6504 89.1796 36.7776 89.5958 37.0319C90.012 37.2862 90.3414 37.6214 90.59 38.0376C90.8385 38.4538 90.9599 38.9104 90.9599 39.4017V43.9332H80.7524V46.1123C80.7524 46.251 80.8044 46.3781 80.9085 46.4822C81.0125 46.5862 81.1397 46.6382 81.2784 46.6382H90.9599V48.9271H81.2148C80.7177 48.9271 80.2669 48.8 79.8507 48.5456L79.8565 48.5514ZM80.7582 41.7946H88.6594V39.4653C88.6594 39.3265 88.6074 39.1994 88.5092 39.0953C88.4109 38.9913 88.2895 38.9393 88.1508 38.9393H81.2899C81.1512 38.9393 81.0241 38.9913 80.92 39.0953C80.816 39.1994 80.764 39.3265 80.764 39.4653V41.7946H80.7582Z" fill="url(#paint6_linear_339_1602)"/>
<path d="M79.8565 48.5514C79.4403 48.2971 79.1051 47.9619 78.8508 47.5457C78.5965 47.1295 78.4693 46.6729 78.4693 46.1816V39.4017C78.4693 38.9104 78.5965 38.4538 78.8508 38.0376C79.1051 37.6214 79.4403 37.2862 79.8565 37.0319C80.2727 36.7776 80.7293 36.6504 81.2206 36.6504H88.2086C88.7172 36.6504 89.1796 36.7776 89.5958 37.0319C90.012 37.2862 90.3414 37.6214 90.59 38.0376C90.8385 38.4538 90.9599 38.9104 90.9599 39.4017V43.9332H80.7524V46.1123C80.7524 46.251 80.8044 46.3781 80.9085 46.4822C81.0125 46.5862 81.1397 46.6382 81.2784 46.6382H90.9599V48.9271H81.2148C80.7177 48.9271 80.2669 48.8 79.8507 48.5456L79.8565 48.5514ZM80.7582 41.7946H88.6594V39.4653C88.6594 39.3265 88.6074 39.1994 88.5092 39.0953C88.4109 38.9913 88.2895 38.9393 88.1508 38.9393H81.2899C81.1512 38.9393 81.0241 38.9913 80.92 39.0953C80.816 39.1994 80.764 39.3265 80.764 39.4653V41.7946H80.7582Z" fill="url(#paint7_radial_339_1602)" style="mix-blend-mode:overlay"/>
<path d="M96.1619 48.5514C95.7457 48.2971 95.4105 47.9619 95.1561 47.5457C94.9018 47.1295 94.7747 46.6729 94.7747 46.1816V39.4017C94.7747 38.9104 94.9018 38.4538 95.1561 38.0376C95.4105 37.6214 95.7457 37.2862 96.1619 37.0319C96.578 36.7776 97.0346 36.6504 97.5259 36.6504H107.225V38.9393H97.5895C97.4508 38.9393 97.3236 38.9913 97.2196 39.0953C97.1156 39.1994 97.0635 39.3265 97.0635 39.4653V46.118C97.0635 46.2568 97.1156 46.3839 97.2196 46.488C97.3236 46.592 97.4508 46.644 97.5895 46.644H107.271V48.9329H97.5259C97.0289 48.9329 96.578 48.8057 96.1619 48.5514Z" fill="url(#paint8_linear_339_1602)"/>
<path d="M96.1619 48.5514C95.7457 48.2971 95.4105 47.9619 95.1561 47.5457C94.9018 47.1295 94.7747 46.6729 94.7747 46.1816V39.4017C94.7747 38.9104 94.9018 38.4538 95.1561 38.0376C95.4105 37.6214 95.7457 37.2862 96.1619 37.0319C96.578 36.7776 97.0346 36.6504 97.5259 36.6504H107.225V38.9393H97.5895C97.4508 38.9393 97.3236 38.9913 97.2196 39.0953C97.1156 39.1994 97.0635 39.3265 97.0635 39.4653V46.118C97.0635 46.2568 97.1156 46.3839 97.2196 46.488C97.3236 46.592 97.4508 46.644 97.5895 46.644H107.271V48.9329H97.5259C97.0289 48.9329 96.578 48.8057 96.1619 48.5514Z" fill="url(#paint9_radial_339_1602)" style="mix-blend-mode:overlay"/>
<path d="M111.762 48.9331V33.6797H124.235C124.744 33.6797 125.212 33.8011 125.634 34.0496C126.056 34.2981 126.391 34.6276 126.64 35.0438C126.888 35.4599 127.01 35.9223 127.01 36.431V46.1761C127.01 46.6847 126.888 47.1471 126.64 47.5633C126.391 47.9794 126.056 48.3089 125.634 48.5574C125.212 48.806 124.744 48.9273 124.235 48.9273H111.762V48.9331ZM114.56 46.6442H124.195C124.334 46.6442 124.455 46.5922 124.553 46.4882C124.651 46.3841 124.704 46.257 124.704 46.1183V36.5003C124.704 36.3616 124.651 36.2344 124.553 36.1304C124.455 36.0264 124.334 35.9743 124.195 35.9743H114.56C114.421 35.9743 114.3 36.0264 114.201 36.1304C114.103 36.2344 114.051 36.3616 114.051 36.5003V46.1183C114.051 46.257 114.103 46.3841 114.201 46.4882C114.3 46.5922 114.421 46.6442 114.56 46.6442Z" fill="url(#paint10_linear_339_1602)"/>
<path d="M111.762 48.9331V33.6797H124.235C124.744 33.6797 125.212 33.8011 125.634 34.0496C126.056 34.2981 126.391 34.6276 126.64 35.0438C126.888 35.4599 127.01 35.9223 127.01 36.431V46.1761C127.01 46.6847 126.888 47.1471 126.64 47.5633C126.391 47.9794 126.056 48.3089 125.634 48.5574C125.212 48.806 124.744 48.9273 124.235 48.9273H111.762V48.9331ZM114.56 46.6442H124.195C124.334 46.6442 124.455 46.5922 124.553 46.4882C124.651 46.3841 124.704 46.257 124.704 46.1183V36.5003C124.704 36.3616 124.651 36.2344 124.553 36.1304C124.455 36.0264 124.334 35.9743 124.195 35.9743H114.56C114.421 35.9743 114.3 36.0264 114.201 36.1304C114.103 36.2344 114.051 36.3616 114.051 36.5003V46.1183C114.051 46.257 114.103 46.3841 114.201 46.4882C114.3 46.5922 114.421 46.6442 114.56 46.6442Z" fill="url(#paint11_radial_339_1602)" style="mix-blend-mode:overlay"/>
<path d="M132.784 48.5514C132.368 48.2971 132.033 47.9619 131.778 47.5457C131.524 47.1295 131.397 46.6729 131.397 46.1816V39.4017C131.397 38.9104 131.524 38.4538 131.778 38.0376C132.033 37.6214 132.368 37.2862 132.784 37.0319C133.2 36.7776 133.657 36.6504 134.148 36.6504H141.136C141.645 36.6504 142.107 36.7776 142.523 37.0319C142.939 37.2862 143.269 37.6214 143.517 38.0376C143.766 38.4538 143.887 38.9104 143.887 39.4017V43.9332H133.68V46.1123C133.68 46.251 133.732 46.3781 133.836 46.4822C133.94 46.5862 134.067 46.6382 134.206 46.6382H143.887V48.9271H134.142C133.645 48.9271 133.194 48.8 132.778 48.5456L132.784 48.5514ZM133.686 41.7946H141.587V39.4653C141.587 39.3265 141.535 39.1994 141.437 39.0953C141.338 38.9913 141.217 38.9393 141.078 38.9393H134.217C134.079 38.9393 133.952 38.9913 133.848 39.0953C133.743 39.1994 133.691 39.3265 133.691 39.4653V41.7946H133.686Z" fill="url(#paint12_linear_339_1602)"/>
<path d="M132.784 48.5514C132.368 48.2971 132.033 47.9619 131.778 47.5457C131.524 47.1295 131.397 46.6729 131.397 46.1816V39.4017C131.397 38.9104 131.524 38.4538 131.778 38.0376C132.033 37.6214 132.368 37.2862 132.784 37.0319C133.2 36.7776 133.657 36.6504 134.148 36.6504H141.136C141.645 36.6504 142.107 36.7776 142.523 37.0319C142.939 37.2862 143.269 37.6214 143.517 38.0376C143.766 38.4538 143.887 38.9104 143.887 39.4017V43.9332H133.68V46.1123C133.68 46.251 133.732 46.3781 133.836 46.4822C133.94 46.5862 134.067 46.6382 134.206 46.6382H143.887V48.9271H134.142C133.645 48.9271 133.194 48.8 132.778 48.5456L132.784 48.5514ZM133.686 41.7946H141.587V39.4653C141.587 39.3265 141.535 39.1994 141.437 39.0953C141.338 38.9913 141.217 38.9393 141.078 38.9393H134.217C134.079 38.9393 133.952 38.9913 133.848 39.0953C133.743 39.1994 133.691 39.3265 133.691 39.4653V41.7946H133.686Z" fill="url(#paint13_radial_339_1602)" style="mix-blend-mode:overlay"/>
<path d="M149.413 48.5515C148.997 48.2972 148.662 47.9619 148.407 47.5458C148.153 47.1296 148.026 46.673 148.026 46.1817V45.8638H150.315V46.1181C150.315 46.2568 150.367 46.384 150.471 46.488C150.575 46.5921 150.702 46.6441 150.841 46.6441H157.702C157.84 46.6441 157.962 46.5921 158.06 46.488C158.158 46.384 158.21 46.2568 158.21 46.1181V44.465C158.21 44.3263 158.158 44.1992 158.06 44.0951C157.962 43.9911 157.84 43.9391 157.702 43.9391H150.777C150.28 43.9391 149.829 43.8177 149.413 43.5691C148.997 43.3206 148.662 42.9911 148.407 42.575C148.153 42.1588 148.026 41.6964 148.026 41.1878V39.4075C148.026 38.9162 148.153 38.4596 148.407 38.0435C148.662 37.6273 148.997 37.2921 149.413 37.0377C149.829 36.7834 150.286 36.6562 150.777 36.6562H157.765C158.274 36.6562 158.736 36.7834 159.152 37.0377C159.568 37.2921 159.898 37.6273 160.146 38.0435C160.395 38.4596 160.516 38.9162 160.516 39.4075V39.7254H158.21V39.4711C158.21 39.3324 158.158 39.2052 158.06 39.1012C157.962 38.9972 157.84 38.9451 157.702 38.9451H150.841C150.702 38.9451 150.575 38.9972 150.471 39.1012C150.367 39.2052 150.315 39.3324 150.315 39.4711V41.1242C150.315 41.2629 150.367 41.3901 150.471 41.4941C150.575 41.5982 150.702 41.6502 150.841 41.6502H157.765C158.274 41.6502 158.736 41.7716 159.152 42.0201C159.568 42.2686 159.898 42.5981 160.146 43.0143C160.395 43.4304 160.516 43.8928 160.516 44.4015V46.1817C160.516 46.6788 160.395 47.1296 160.146 47.5458C159.898 47.9619 159.568 48.2972 159.152 48.5515C158.736 48.8058 158.274 48.933 157.765 48.933H150.777C150.28 48.933 149.829 48.8058 149.413 48.5515Z" fill="url(#paint14_linear_339_1602)"/>
<path d="M149.413 48.5515C148.997 48.2972 148.662 47.9619 148.407 47.5458C148.153 47.1296 148.026 46.673 148.026 46.1817V45.8638H150.315V46.1181C150.315 46.2568 150.367 46.384 150.471 46.488C150.575 46.5921 150.702 46.6441 150.841 46.6441H157.702C157.84 46.6441 157.962 46.5921 158.06 46.488C158.158 46.384 158.21 46.2568 158.21 46.1181V44.465C158.21 44.3263 158.158 44.1992 158.06 44.0951C157.962 43.9911 157.84 43.9391 157.702 43.9391H150.777C150.28 43.9391 149.829 43.8177 149.413 43.5691C148.997 43.3206 148.662 42.9911 148.407 42.575C148.153 42.1588 148.026 41.6964 148.026 41.1878V39.4075C148.026 38.9162 148.153 38.4596 148.407 38.0435C148.662 37.6273 148.997 37.2921 149.413 37.0377C149.829 36.7834 150.286 36.6562 150.777 36.6562H157.765C158.274 36.6562 158.736 36.7834 159.152 37.0377C159.568 37.2921 159.898 37.6273 160.146 38.0435C160.395 38.4596 160.516 38.9162 160.516 39.4075V39.7254H158.21V39.4711C158.21 39.3324 158.158 39.2052 158.06 39.1012C157.962 38.9972 157.84 38.9451 157.702 38.9451H150.841C150.702 38.9451 150.575 38.9972 150.471 39.1012C150.367 39.2052 150.315 39.3324 150.315 39.4711V41.1242C150.315 41.2629 150.367 41.3901 150.471 41.4941C150.575 41.5982 150.702 41.6502 150.841 41.6502H157.765C158.274 41.6502 158.736 41.7716 159.152 42.0201C159.568 42.2686 159.898 42.5981 160.146 43.0143C160.395 43.4304 160.516 43.8928 160.516 44.4015V46.1817C160.516 46.6788 160.395 47.1296 160.146 47.5458C159.898 47.9619 159.568 48.2972 159.152 48.5515C158.736 48.8058 158.274 48.933 157.765 48.933H150.777C150.28 48.933 149.829 48.8058 149.413 48.5515Z" fill="url(#paint15_radial_339_1602)" style="mix-blend-mode:overlay"/>
<path d="M164.401 48.933V32.6218H166.689V41.6444H169.441L174.036 36.6447H176.66V37.0666L171.47 42.7831L176.66 48.4995V48.9214H174.036L169.441 43.9217H166.689V48.9214H164.401V48.933Z" fill="url(#paint16_linear_339_1602)"/>
<path d="M164.401 48.933V32.6218H166.689V41.6444H169.441L174.036 36.6447H176.66V37.0666L171.47 42.7831L176.66 48.4995V48.9214H174.036L169.441 43.9217H166.689V48.9214H164.401V48.933Z" fill="url(#paint17_radial_339_1602)" style="mix-blend-mode:overlay"/>
</g>
</g>
</g>
<defs>
<linearGradient id="paint0_linear_339_1602" x1="13.7853" y1="48.579" x2="36.6235" y2="45.2135" gradientUnits="userSpaceOnUse">
<stop offset="0.0677083" stop-color="#4D5455"/>
<stop offset="0.21875" stop-color="#9EA1A1"/>
<stop offset="0.453125" stop-color="#848B8A"/>
<stop offset="0.524381" stop-color="#535D5E"/>
<stop offset="0.796875" stop-color="#4B5355"/>
<stop offset="0.895833" stop-color="#757A7B"/>
<stop offset="1" stop-color="#4D5455"/>
</linearGradient>
<radialGradient id="paint1_radial_339_1602" cx="0" cy="0" r="1" gradientUnits="userSpaceOnUse" gradientTransform="translate(13.7853 12.6236) rotate(76.2975) scale(39.54 22.2807)">
<stop stop-color="white"/>
<stop offset="1" stop-color="white" stop-opacity="0"/>
</radialGradient>
<linearGradient id="paint2_linear_339_1602" x1="-5.68338e-07" y1="44.0977" x2="32.9888" y2="17.2597" gradientUnits="userSpaceOnUse">
<stop offset="0.0677083" stop-color="#4D5455"/>
<stop offset="0.21875" stop-color="#9EA1A1"/>
<stop offset="0.453125" stop-color="#848B8A"/>
<stop offset="0.524381" stop-color="#535D5E"/>
<stop offset="0.796875" stop-color="#4B5355"/>
<stop offset="0.895833" stop-color="#757A7B"/>
<stop offset="1" stop-color="#4D5455"/>
</linearGradient>
<radialGradient id="paint3_radial_339_1602" cx="0" cy="0" r="1" gradientUnits="userSpaceOnUse" gradientTransform="translate(-1.05796e-06 28.7958) rotate(36.6095) scale(27.4138 32.1325)">
<stop stop-color="white"/>
<stop offset="1" stop-color="white" stop-opacity="0"/>
</radialGradient>
<linearGradient id="paint4_linear_339_1602" x1="58.9213" y1="43.7896" x2="74.4733" y2="38.4024" gradientUnits="userSpaceOnUse">
<stop offset="0.0677083" stop-color="#4D5455"/>
<stop offset="0.21875" stop-color="#9EA1A1"/>
<stop offset="0.453125" stop-color="#848B8A"/>
<stop offset="0.524381" stop-color="#535D5E"/>
<stop offset="0.796875" stop-color="#4B5355"/>
<stop offset="0.895833" stop-color="#757A7B"/>
<stop offset="1" stop-color="#4D5455"/>
</linearGradient>
<radialGradient id="paint5_radial_339_1602" cx="0" cy="0" r="1" gradientUnits="userSpaceOnUse" gradientTransform="translate(58.9213 32.3716) rotate(60.1817) scale(14.0604 14.8525)">
<stop stop-color="white"/>
<stop offset="1" stop-color="white" stop-opacity="0"/>
</radialGradient>
<linearGradient id="paint6_linear_339_1602" x1="78.4693" y1="44.7843" x2="91.1624" y2="40.3125" gradientUnits="userSpaceOnUse">
<stop offset="0.0677083" stop-color="#4D5455"/>
<stop offset="0.21875" stop-color="#9EA1A1"/>
<stop offset="0.453125" stop-color="#848B8A"/>
<stop offset="0.524381" stop-color="#535D5E"/>
<stop offset="0.796875" stop-color="#4B5355"/>
<stop offset="0.895833" stop-color="#757A7B"/>
<stop offset="1" stop-color="#4D5455"/>
</linearGradient>
<radialGradient id="paint7_radial_339_1602" cx="0" cy="0" r="1" gradientUnits="userSpaceOnUse" gradientTransform="translate(78.4693 35.5876) rotate(59.7624) scale(11.3731 12.1156)">
<stop stop-color="white"/>
<stop offset="1" stop-color="white" stop-opacity="0"/>
</radialGradient>
<linearGradient id="paint8_linear_339_1602" x1="94.7747" y1="44.7881" x2="107.474" y2="40.3142" gradientUnits="userSpaceOnUse">
<stop offset="0.0677083" stop-color="#4D5455"/>
<stop offset="0.21875" stop-color="#9EA1A1"/>
<stop offset="0.453125" stop-color="#848B8A"/>
<stop offset="0.524381" stop-color="#535D5E"/>
<stop offset="0.796875" stop-color="#4B5355"/>
<stop offset="0.895833" stop-color="#757A7B"/>
<stop offset="1" stop-color="#4D5455"/>
</linearGradient>
<radialGradient id="paint9_radial_339_1602" cx="0" cy="0" r="1" gradientUnits="userSpaceOnUse" gradientTransform="translate(94.7747 35.5871) rotate(59.7626) scale(11.3784 12.1212)">
<stop stop-color="white"/>
<stop offset="1" stop-color="white" stop-opacity="0"/>
</radialGradient>
<linearGradient id="paint10_linear_339_1602" x1="111.762" y1="43.7858" x2="127.317" y2="38.4018" gradientUnits="userSpaceOnUse">
<stop offset="0.0677083" stop-color="#4D5455"/>
<stop offset="0.21875" stop-color="#9EA1A1"/>
<stop offset="0.453125" stop-color="#848B8A"/>
<stop offset="0.524381" stop-color="#535D5E"/>
<stop offset="0.796875" stop-color="#4B5355"/>
<stop offset="0.895833" stop-color="#757A7B"/>
<stop offset="1" stop-color="#4D5455"/>
</linearGradient>
<radialGradient id="paint11_radial_339_1602" cx="0" cy="0" r="1" gradientUnits="userSpaceOnUse" gradientTransform="translate(111.762 32.3592) rotate(60.2004) scale(14.0684 14.8553)">
<stop stop-color="white"/>
<stop offset="1" stop-color="white" stop-opacity="0"/>
</radialGradient>
<linearGradient id="paint12_linear_339_1602" x1="131.397" y1="44.7843" x2="144.09" y2="40.3125" gradientUnits="userSpaceOnUse">
<stop offset="0.0677083" stop-color="#4D5455"/>
<stop offset="0.21875" stop-color="#9EA1A1"/>
<stop offset="0.453125" stop-color="#848B8A"/>
<stop offset="0.524381" stop-color="#535D5E"/>
<stop offset="0.796875" stop-color="#4B5355"/>
<stop offset="0.895833" stop-color="#757A7B"/>
<stop offset="1" stop-color="#4D5455"/>
</linearGradient>
<radialGradient id="paint13_radial_339_1602" cx="0" cy="0" r="1" gradientUnits="userSpaceOnUse" gradientTransform="translate(131.397 35.5876) rotate(59.7624) scale(11.3731 12.1156)">
<stop stop-color="white"/>
<stop offset="1" stop-color="white" stop-opacity="0"/>
</radialGradient>
<linearGradient id="paint14_linear_339_1602" x1="148.026" y1="44.7901" x2="160.719" y2="40.3183" gradientUnits="userSpaceOnUse">
<stop offset="0.0677083" stop-color="#4D5455"/>
<stop offset="0.21875" stop-color="#9EA1A1"/>
<stop offset="0.453125" stop-color="#848B8A"/>
<stop offset="0.524381" stop-color="#535D5E"/>
<stop offset="0.796875" stop-color="#4B5355"/>
<stop offset="0.895833" stop-color="#757A7B"/>
<stop offset="1" stop-color="#4D5455"/>
</linearGradient>
<radialGradient id="paint15_radial_339_1602" cx="0" cy="0" r="1" gradientUnits="userSpaceOnUse" gradientTransform="translate(148.026 35.5934) rotate(59.7624) scale(11.3731 12.1155)">
<stop stop-color="white"/>
<stop offset="1" stop-color="white" stop-opacity="0"/>
</radialGradient>
<linearGradient id="paint16_linear_339_1602" x1="164.401" y1="43.4287" x2="177.517" y2="40.0152" gradientUnits="userSpaceOnUse">
<stop offset="0.0677083" stop-color="#4D5455"/>
<stop offset="0.21875" stop-color="#9EA1A1"/>
<stop offset="0.453125" stop-color="#848B8A"/>
<stop offset="0.524381" stop-color="#535D5E"/>
<stop offset="0.796875" stop-color="#4B5355"/>
<stop offset="0.895833" stop-color="#757A7B"/>
<stop offset="1" stop-color="#4D5455"/>
</linearGradient>
<radialGradient id="paint17_radial_339_1602" cx="0" cy="0" r="1" gradientUnits="userSpaceOnUse" gradientTransform="translate(164.401 31.2097) rotate(66.7034) scale(14.2135 12.6418)">
<stop stop-color="white"/>
<stop offset="1" stop-color="white" stop-opacity="0"/>
</radialGradient>
<clipPath id="clip0_339_1602">
<rect width="176.66" height="48" fill="white" transform="translate(0 16.7773)"/>
</clipPath>
<clipPath id="clip1_339_1602">
<rect width="176.66" height="48" fill="white" transform="translate(0 16.7773)"/>
</clipPath>
<clipPath id="clip2_339_1602">
<rect width="176.66" height="47.9971" fill="white" transform="translate(0 16.7788)"/>
</clipPath>
</defs>
</svg>
