<svg width="27" height="27" viewBox="0 0 27 27" fill="none" xmlns="http://www.w3.org/2000/svg">
<path d="M21.3845 18.9638H5.4136C4.7159 18.9993 4.01827 18.8925 3.36314 18.6499C2.708 18.4073 2.10904 18.034 1.60267 17.5527C1.09631 17.0715 0.693107 16.4922 0.417592 15.8502C0.142077 15.2082 0 14.5169 0 13.8183C0 13.1197 0.142077 12.4284 0.417592 11.7864C0.693107 11.1444 1.09631 10.5652 1.60267 10.0839C2.10904 9.60261 2.708 9.22932 3.36314 8.98674C4.01827 8.74416 4.7159 8.63735 5.4136 8.67281H21.3845C22.704 8.73986 23.9472 9.31123 24.8574 10.2688C25.7676 11.2265 26.2751 12.4972 26.2751 13.8183C26.2751 15.1395 25.7676 16.4102 24.8574 17.3678C23.9472 18.3254 22.704 18.8968 21.3845 18.9638ZM5.42356 9.79154C4.35736 9.79154 3.33482 10.2151 2.58091 10.969C1.82699 11.7229 1.40344 12.7455 1.40344 13.8117C1.40344 14.8779 1.82699 15.9004 2.58091 16.6543C3.33482 17.4083 4.35736 17.8318 5.42356 17.8318H21.3845C22.4507 17.8318 23.4732 17.4083 24.2271 16.6543C24.9811 15.9004 25.4046 14.8779 25.4046 13.8117C25.4046 12.7455 24.9811 11.7229 24.2271 10.969C23.4732 10.2151 22.4507 9.79154 21.3845 9.79154H5.42356Z" fill="#5E58D0"/>
<path d="M13.3931 26.9502C12.0275 26.9493 10.7181 26.4067 9.75218 25.4413C8.78625 24.476 8.24277 23.1669 8.24101 21.8013V5.83697C8.20556 5.13927 8.31237 4.44163 8.55495 3.78649C8.79753 3.13135 9.17081 2.53239 9.6521 2.02602C10.1334 1.51965 10.7126 1.11645 11.3546 0.840935C11.9966 0.565418 12.6879 0.42334 13.3865 0.42334C14.0851 0.42334 14.7764 0.565418 15.4184 0.840935C16.0604 1.11645 16.6396 1.51965 17.1209 2.02602C17.6022 2.53239 17.9755 3.13135 18.218 3.78649C18.4606 4.44163 18.5674 5.13927 18.532 5.83697V21.8013C18.5302 23.1646 17.9886 24.4717 17.0255 25.4367C16.0625 26.4016 14.7564 26.9458 13.3931 26.9502ZM13.3931 1.81683C12.3272 1.81771 11.3052 2.24154 10.5515 2.99528C9.79773 3.74901 9.3739 4.77104 9.37302 5.83697V21.8013C9.43198 22.8259 9.8805 23.7891 10.6267 24.4936C11.3729 25.1981 12.3603 25.5905 13.3865 25.5905C14.4127 25.5905 15.4001 25.1981 16.1463 24.4936C16.8925 23.7891 17.341 22.8259 17.4 21.8013V5.83697C17.3991 4.77333 16.9771 3.7533 16.2262 2.99995C15.4754 2.2466 14.4568 1.82122 13.3931 1.81683Z" fill="#5E58D0"/>
</svg>
