<svg width="54" height="54" viewBox="0 0 54 54" fill="none" xmlns="http://www.w3.org/2000/svg">
<g style="mix-blend-mode:exclusion" filter="url(#filter0_i_49_55)">
<path d="M26.9984 53.3932C20.8016 53.3932 15.7679 48.3531 15.7679 42.1626V11.8458C15.7679 5.65532 20.8016 0.615234 26.9984 0.615234C33.1952 0.615234 38.2289 5.65532 38.2289 11.8458V42.1562C38.2289 48.3531 33.1889 53.3868 26.9984 53.3868V53.3932ZM26.9984 3.37362C22.327 3.37362 18.5199 7.17434 18.5199 11.8522V42.1626C18.5199 46.8341 22.3206 50.6411 26.9984 50.6411C31.6762 50.6411 35.4769 46.8404 35.4769 42.1626V11.8458C35.4769 7.17434 31.6762 3.36726 26.9984 3.36726V3.37362Z" fill="url(#paint0_linear_49_55)"/>
<path d="M42.1573 38.2346H11.8405C5.65009 38.2346 0.610016 33.2008 0.610016 27.004C0.610016 20.8072 5.65009 15.7734 11.8405 15.7734H42.1509C48.3477 15.7734 53.3814 20.8135 53.3814 27.004C53.3814 33.1945 48.3414 38.2346 42.1509 38.2346H42.1573ZM11.8405 18.5255C7.1691 18.5255 3.36204 22.3262 3.36204 27.004C3.36204 31.6818 7.16275 35.4825 11.8405 35.4825H42.1509C46.8224 35.4825 50.6294 31.6818 50.6294 27.004C50.6294 22.3262 46.8287 18.5255 42.1509 18.5255H11.8405Z" fill="url(#paint1_linear_49_55)"/>
</g>
<defs>
<filter id="filter0_i_49_55" x="-0.0844296" y="0.615234" width="53.4659" height="53.4723" filterUnits="userSpaceOnUse" color-interpolation-filters="sRGB">
<feFlood flood-opacity="0" result="BackgroundImageFix"/>
<feBlend mode="normal" in="SourceGraphic" in2="BackgroundImageFix" result="shape"/>
<feColorMatrix in="SourceAlpha" type="matrix" values="0 0 0 0 0 0 0 0 0 0 0 0 0 0 0 0 0 0 127 0" result="hardAlpha"/>
<feOffset dx="-0.694445" dy="0.694445"/>
<feGaussianBlur stdDeviation="0.694445"/>
<feComposite in2="hardAlpha" operator="arithmetic" k2="-1" k3="1"/>
<feColorMatrix type="matrix" values="0 0 0 0 0 0 0 0 0 0 0 0 0 0 0 0 0 0 0.62 0"/>
<feBlend mode="normal" in2="shape" result="effect1_innerShadow_49_55"/>
</filter>
<linearGradient id="paint0_linear_49_55" x1="15.7679" y1="-3.35839" x2="55.092" y2="15.9411" gradientUnits="userSpaceOnUse">
<stop stop-color="#C0C0C0"/>
<stop offset="0.325" stop-color="#A9A9A9" stop-opacity="0.93"/>
<stop offset="0.68" stop-color="#C7C7C7"/>
<stop offset="1" stop-color="#808080"/>
</linearGradient>
<linearGradient id="paint1_linear_49_55" x1="0.610017" y1="14.0823" x2="14.3548" y2="51.3226" gradientUnits="userSpaceOnUse">
<stop stop-color="#C0C0C0"/>
<stop offset="0.325" stop-color="#A9A9A9" stop-opacity="0.93"/>
<stop offset="0.68" stop-color="#C7C7C7"/>
<stop offset="1" stop-color="#808080"/>
</linearGradient>
</defs>
</svg>
