<svg width="54" height="54" viewBox="0 0 54 54" fill="none" xmlns="http://www.w3.org/2000/svg">
<g style="mix-blend-mode:exclusion" filter="url(#filter0_i_263_774)">
<path d="M26.996 53.3951C33.1928 53.3951 38.2266 48.355 38.2266 42.1646V11.8478C38.2266 5.65728 33.1928 0.617188 26.996 0.617188C20.7992 0.617188 15.7655 5.65728 15.7655 11.8478V42.1582C15.7655 48.355 20.8056 53.3888 26.996 53.3888V53.3951ZM26.996 3.37557C31.6675 3.37557 35.4745 7.1763 35.4745 11.8541V42.1646C35.4745 46.836 31.6738 50.6431 26.996 50.6431C22.3182 50.6431 18.5175 46.8424 18.5175 42.1646V11.8478C18.5175 7.1763 22.3182 3.36922 26.996 3.36922V3.37557Z" fill="url(#paint0_linear_263_774)"/>
<path d="M11.8356 38.2365H42.1523C48.3427 38.2365 53.3828 33.2028 53.3828 27.006C53.3828 20.8091 48.3427 15.7754 42.1523 15.7754H11.8419C5.64511 15.7754 0.611389 20.8155 0.611389 27.006C0.611389 33.1964 5.65146 38.2365 11.8419 38.2365H11.8356ZM42.1523 18.5274C46.8237 18.5274 50.6308 22.3281 50.6308 27.006C50.6308 31.6838 46.8301 35.4845 42.1523 35.4845H11.8419C7.17048 35.4845 3.36341 31.6838 3.36341 27.006C3.36341 22.3281 7.16412 18.5274 11.8419 18.5274H42.1523Z" fill="url(#paint1_linear_263_774)"/>
</g>
<defs>
<filter id="filter0_i_263_774" x="-0.0811642" y="0.617188" width="53.464" height="53.4718" filterUnits="userSpaceOnUse" color-interpolation-filters="sRGB">
<feFlood flood-opacity="0" result="BackgroundImageFix"/>
<feBlend mode="normal" in="SourceGraphic" in2="BackgroundImageFix" result="shape"/>
<feColorMatrix in="SourceAlpha" type="matrix" values="0 0 0 0 0 0 0 0 0 0 0 0 0 0 0 0 0 0 127 0" result="hardAlpha"/>
<feOffset dx="-0.694445" dy="0.694445"/>
<feGaussianBlur stdDeviation="0.694445"/>
<feComposite in2="hardAlpha" operator="arithmetic" k2="-1" k3="1"/>
<feColorMatrix type="matrix" values="0 0 0 0 0 0 0 0 0 0 0 0 0 0 0 0 0 0 0.62 0"/>
<feBlend mode="normal" in2="shape" result="effect1_innerShadow_263_774"/>
</filter>
<linearGradient id="paint0_linear_263_774" x1="38.2266" y1="-3.35644" x2="-1.09757" y2="15.943" gradientUnits="userSpaceOnUse">
<stop stop-color="#C0C0C0"/>
<stop offset="0.325" stop-color="#A9A9A9" stop-opacity="0.93"/>
<stop offset="0.68" stop-color="#C7C7C7"/>
<stop offset="1" stop-color="#808080"/>
</linearGradient>
<linearGradient id="paint1_linear_263_774" x1="53.3828" y1="14.0843" x2="39.638" y2="51.3246" gradientUnits="userSpaceOnUse">
<stop stop-color="#C0C0C0"/>
<stop offset="0.325" stop-color="#A9A9A9" stop-opacity="0.93"/>
<stop offset="0.68" stop-color="#C7C7C7"/>
<stop offset="1" stop-color="#808080"/>
</linearGradient>
</defs>
</svg>
