<svg width="150" height="150" viewBox="0 0 150 150" fill="none" xmlns="http://www.w3.org/2000/svg">
<rect width="124" height="124" transform="translate(14.5 14.3662)" fill="#D9D9D9" fill-opacity="0.6"/>
<g clip-path="url(#clip0_1498_59406)">
<mask id="mask0_1498_59406" style="mask-type:alpha" maskUnits="userSpaceOnUse" x="33" y="33" width="87" height="87">
<rect x="33.5767" y="33.443" width="85.8462" height="85.8462" fill="#D9D9D9"/>
</mask>
<g mask="url(#mask0_1498_59406)">
<path d="M87.4986 101.226L84.4582 109.9C84.2198 110.555 83.8025 111.092 83.2063 111.509C82.6102 111.927 81.9544 112.135 81.239 112.135C80.0467 112.135 79.078 111.643 78.3328 110.66C77.5876 109.676 77.4534 108.588 77.9304 107.396L91.5227 71.4478C91.8207 70.792 92.2679 70.2555 92.864 69.8382C93.4602 69.4209 94.1159 69.2122 94.8313 69.2122H97.514C98.2294 69.2122 98.8852 69.4209 99.4813 69.8382C100.077 70.2555 100.525 70.792 100.823 71.4478L114.415 107.485C114.892 108.618 114.773 109.676 114.057 110.66C113.342 111.643 112.388 112.135 111.196 112.135C110.421 112.135 109.75 111.927 109.184 111.509C108.617 111.092 108.185 110.526 107.887 109.81L104.847 101.226H87.4986ZM65.9477 83.4305L50.3881 98.9007C49.7323 99.5564 48.9126 99.8992 47.9289 99.929C46.9453 99.9588 46.0957 99.6161 45.3804 98.9007C44.7246 98.2449 44.3967 97.4103 44.3967 96.3968C44.3967 95.3834 44.7246 94.5488 45.3804 93.893L60.94 78.3334C58.8534 76.2468 56.9607 73.8622 55.2616 71.1795C53.5626 68.4968 51.9977 65.4564 50.5669 62.0584H58.0784C59.2707 64.3834 60.4631 66.4103 61.6554 68.1391C62.8477 69.868 64.2784 71.5968 65.9477 73.3257C67.915 71.3584 69.9568 68.6012 72.0732 65.054C74.1895 61.5069 75.7842 58.1238 76.8573 54.9045H40.7304C39.7169 54.9045 38.8674 54.5617 38.1818 53.8762C37.4962 53.1906 37.1534 52.3411 37.1534 51.3276C37.1534 50.3141 37.4962 49.4646 38.1818 48.779C38.8674 48.0935 39.7169 47.7507 40.7304 47.7507H62.1919V44.1738C62.1919 43.1603 62.5347 42.3108 63.2203 41.6252C63.9058 40.9396 64.7554 40.5968 65.7688 40.5968C66.7823 40.5968 67.6318 40.9396 68.3174 41.6252C69.003 42.3108 69.3457 43.1603 69.3457 44.1738V47.7507H90.8073C91.8207 47.7507 92.6703 48.0935 93.3558 48.779C94.0414 49.4646 94.3842 50.3141 94.3842 51.3276C94.3842 52.3411 94.0414 53.1906 93.3558 53.8762C92.6703 54.5617 91.8207 54.9045 90.8073 54.9045H84.0111C82.7592 59.1968 80.8813 63.6084 78.3775 68.1391C75.8736 72.6699 73.3996 76.1276 70.9554 78.5122L79.54 87.2757L76.8573 94.6084L65.9477 83.4305ZM89.7342 94.9661H102.611L96.1727 76.7238L89.7342 94.9661Z" fill="#5E58D0"/>
</g>
</g>
<defs>
<clipPath id="clip0_1498_59406">
<rect width="149.623" height="149.623" fill="white" transform="translate(0.192322 0.0583801)"/>
</clipPath>
</defs>
</svg>
