<svg width="372" height="442" viewBox="0 0 372 442" fill="none" xmlns="http://www.w3.org/2000/svg">
<g opacity="0.5">
<path d="M370.186 51.4175L370.463 55.9715L370.562 58.5439L370.264 61.0404L369.608 63.797L368.249 67.3218L368.011 68.6117L368.08 70.5257L368.448 71.5434L368.914 72.3786L369.272 73.776L370.164 85.2168L370.016 90.9368L369.133 96.0221L367.048 101.358L359.171 113.805L358.431 115.889L358.397 115.83L357.865 114.918L356.124 112.749L355.127 111.935L353.217 111.271L355.246 105.933L355.291 105.3L355.172 104.618L354.498 104.46L349.795 98.5667L345.309 92.4703L341.598 88.529L338.258 85.0066L336.443 83.2743L334.165 81.0205L329.963 76.3704L326.594 72.7436L326.044 72.346L325.135 71.8506L322.575 71.6102L316.64 73.578L316.119 73.7516L315.941 73.4362L315.762 73.1893L314.735 70.7261L311.461 66.3261L310.459 65.4991L309.938 65.3084L309.641 65.0518L308.078 62.2871L306.441 60.0431L305.394 60.1759L303.636 59.4222L300.462 57.9156L296.979 61.0706L295.217 62.1877L293.937 63.4955L292.494 65.3329L291.853 66.9047L291.78 67.2852L291.496 68.1122L290.29 70.6683L289.904 71.7015L289.497 73.3058L287.949 76.1072L287.19 76.5537L285.21 75.9173L284.371 75.4464L280.917 73.1739L279.265 72.5782L275.167 72.1822L274.333 71.9093L273.063 70.7596L272.17 69.6107L271.722 66.1778L272.392 62.7353L273.374 60.7561L276.936 55.9853L277.19 55.3392L277.16 54.9008L277.056 54.4445L276.892 53.9556L276.699 53.5572L276.61 52.8858L276.416 52.1313L277.607 49.743L279.036 47.2872L279.516 45.2135L279.874 44.4916L281.183 42.9882L282.791 41.4849L283.059 41.1614V40.996L282.419 40.7467L282.166 40.5976L282.002 40.4061L282.046 38.8359L282.269 36.8258L282.105 35.9368L281.763 35.4039L279.993 34.8059L279.68 34.8311L279.413 34.9468L278.871 35.3127L278.529 35.4463L278.231 35.4626L277.964 35.3795L277.637 35.188L277.235 34.7398L276.685 33.9332L276.312 33.5836L275.97 33.3759L274.154 32.8519L272.781 32.2457L271.842 28.7444L272.318 26.806L273.351 24.7347L281.793 24.4659L282.792 24.8064L284.481 26.3269L285.403 26.6675L286.223 26.3929L288.669 24.4659L302.96 20.2696L325.603 16.7341L335.096 18.3547L337.08 19.273L338.721 20.9841L341.957 34.264L342.456 34.4742L344.786 36.1487L344.965 36.5479L345.426 36.9007L345.901 37.6536L346.565 38.3992L349.597 39.4128L353.427 41.6039L355.13 41.0416L355.942 41.9697L357.099 42.2777L358.232 41.9567L359.052 41.0416H359.708V42.1408L358.942 42.8073L358.559 43.2913L358.582 43.9847L359.051 45.3308L359.254 47.9236L362.169 49.6021L369.107 51.4044L370.186 51.4175ZM297.849 1.2363L299.185 1L304.467 3.34096L304.037 3.31407L303.685 3.51126L303.388 3.92519L303.154 4.5363L299.723 3.37926L298.028 2.30778L297.849 1.2363Z" stroke="#5E58D0" stroke-linejoin="round"/>
<path d="M358.431 115.887L357.454 118.637L356.62 123.948L355.727 141.066L355.023 146.646L353.276 150.031L349.853 148.955L348.404 148.342L343.671 149.049L338.58 147.504L329.471 147.652L326.255 148.653L324.532 149.908L324.465 149.866L323.453 149.245L323.215 147.929L323.26 146.768L322.903 146.335L322.351 145.886L315.419 142.695L314.169 142.654L311.365 143.16L306.693 145.607L305.496 146.882L305.287 147.618L305.571 152.326L301.596 150.398L301.015 150.291H300.296L299.878 150.749L299.09 151.247L298.54 151.313L298.034 151.068L297.66 150.668L297.199 149.949L296.902 149.752L296.678 149.711L296.172 150.16L295.486 150.528L293.249 151.222L292.609 151.214L292.222 151.042L292.117 150.797L291.343 148.696L290.569 147.534L288.896 145.834L287.439 144.631L286.694 143.413L286.337 143.34L281.702 143.397L280.899 143.118L277.932 141.065L276.413 140.492L275.744 140.664L275.193 141.163L274.419 141.663L273.853 141.695L273.089 141.483L272.687 141.156L272.435 140.877L271.779 139.732L271.317 139.355L267.993 130.624L268.921 129.009L271.451 127.77L274.924 124.324L275.356 122.97L274.478 121.6L273.476 120.451L272.746 119.786L267.919 113.963L276.055 107.675L279.26 103.973L279.93 103.29L280.972 102.467L283.532 102.459L285.679 103.018L288.895 105.215L293.484 102.121L294.079 101.47L296.719 97.0986L296.973 96.2169L297.136 95.5088L295.975 93.0791L290.775 86.07L290.418 84.2799L289.898 82.6869L289.986 81.8118L289.757 80.9212L289.535 80.4584L286.827 79.2948L285.322 78.3945L285.025 78.0971L285.203 75.9158L287.183 76.5522L287.942 76.1057L289.49 73.3043L289.898 71.7L290.284 70.6668L291.49 68.1107L291.773 67.2837L291.847 66.9031L292.487 65.3314L293.93 63.494L295.211 62.1862L296.973 61.0691L300.455 57.9141L303.63 59.4207L305.387 60.1744L306.434 60.0416L308.071 62.2856L309.634 65.0503L309.931 65.3069L310.452 65.4976L311.454 66.3246L314.728 70.7246L315.756 73.1878L315.934 73.4347L316.113 73.75L316.633 73.5765L322.568 71.6087L325.129 71.8491L326.037 72.3445L326.587 72.7421L329.956 76.3688L334.158 81.019L336.437 83.2728L338.252 85.0051L341.591 88.5275L345.303 92.4688L349.788 98.5652L354.491 104.459L355.166 104.616L355.285 105.299L355.239 105.932L353.21 111.269L355.12 111.934L356.118 112.748L357.859 114.917L358.39 115.829L358.431 115.887Z" stroke="#5E58D0" stroke-linejoin="round"/>
<path d="M324.531 149.907L322.871 151.117L323.674 152.771L323.486 154.189L323.049 155.5L323.078 156.814L323.753 157.832L326.899 160.505L321.569 163.21L319.982 163.353L321.162 165.828L321.499 168.646L321.639 171.424L322.224 173.775L324.119 175.991L326.65 177.232L334.25 178.31L339.212 180.215L341.921 180.659L344.441 180.492L346.843 179.784L347.736 178.937L348.332 177.879L348.937 177.594L354.782 187.133L356.132 191.177L355.318 196.907L353.393 201.396L352.699 203.764L352.639 206.639L353.493 209.99L354.056 211.032L354.296 211.478L354.028 212.284L349.762 214.893L348.73 216.104L346.477 219.778L344.562 221.485L340.445 223.297L338.579 225.258L336.455 229.606L335.245 230.718L329.57 231.358L329.504 231.307L328.412 230.467L319.039 228.462L319.992 226.11L320.021 225.286L319.917 223.725L319.753 223.094L319.5 222.65L319.173 222.431L318.234 222.019L317.475 221.808L314.062 222.64L313.675 222.576L313.258 222.423V221.922L313.169 221.258L312.843 220.522L312.307 220.32L311.726 220.287L309.028 220.854L305.331 220.401L303.038 220.66L300.22 217.957L295.666 211.284L295.562 211.065L294.992 210.1L292.133 209.753L288.839 211.098L287.41 212.183L286.457 212.467L280.38 212.564L273.657 211.219L272.734 211.178L272.437 211.299L271.528 212.062L270.843 213.114L270.635 213.147L270.307 213.075L269.518 212.337L269.25 211.94L269.116 211.583V211.364L269.146 211.21L269.504 210.197L269.324 209.436L268.848 209.047L267.771 208.545L267.4 208.27L267.236 207.759L267.4 207.28L267.444 205.967L265.717 201.45L263.752 200.532L263.261 199.94L262.273 198.52L262.021 197.985L262.14 196.847L262.979 193.396L263.872 192.064L263.798 191.39L263.322 190.309L263.515 190.089L263.813 189.854L267.013 188.773L268.432 184.984L268.567 183.227L268.432 182.74L268.234 182.332L266.239 179.419L265.495 177.49L264.647 174.99L264.037 174.062L263.322 173.443L261.62 171.601L260.906 170.135L260.251 169.092L259.596 168.692L258.435 168.195L255.647 169.679L252.581 172.303L249.673 173.192L248.899 172.988L248.288 172.45L246.259 168.538L245.068 166.72L244.063 166.599L242.716 166.494L240.754 157.667L239.408 156.474V154.599L240.444 153.406L240.535 153.301L245.411 151.064L246.677 150.982L247.218 151.3L248.78 151.562L249.688 151.504L254.322 149.911L257.388 148.194L255.274 145.627L253.399 144.595L249.523 143.45L248.705 143.057L248.437 142.803L248.616 142.534L249.316 141.87L249.702 140.946L250.238 140.095L249.508 136.026L248.138 131.996L247.469 130.856L246.348 129.365L241.897 125.724L234.862 121.867L238.44 120.07L239.571 121.062L239.927 121.235L242.642 121.687L243.178 121.654L243.908 121.515L246.75 119.807L247.217 119.339L247.649 118.69L247.991 118.074L248.228 117.541L248.57 117.155L249.047 116.86L250.981 116.391L251.339 116.145L251.577 115.85L251.829 115.899L252.341 116.138L253.472 117.814L254.35 118.602L254.827 118.831L258.597 119.111L259.967 117.526L260.056 117.271L260.145 116.582L260.249 116.401L260.473 116.212L262.036 115.769L263.886 115.571L267.92 113.969L272.747 119.792L273.477 120.457L274.48 121.607L275.357 122.976L274.925 124.331L271.453 127.776L268.923 129.015L267.995 130.63L271.319 139.361L271.78 139.738L272.436 140.884L272.689 141.162L273.09 141.489L273.855 141.702L274.42 141.669L275.194 141.17L275.746 140.67L276.415 140.498L277.934 141.071L280.9 143.124L281.704 143.403L286.338 143.346L286.695 143.419L287.44 144.637L288.898 145.84L290.571 147.541L291.345 148.703L292.119 150.803L292.223 151.048L292.61 151.22L293.251 151.228L295.488 150.534L296.173 150.166L296.679 149.717L296.903 149.759L297.201 149.955L297.662 150.674L298.035 151.074L298.541 151.32L299.091 151.254L299.88 150.755L300.297 150.297H301.017L301.597 150.404L305.572 152.333L305.289 147.625L305.498 146.889L306.694 145.613L311.366 143.167L314.171 142.66L315.421 142.701L322.352 145.892L322.904 146.341L323.262 146.775L323.216 147.935L323.454 149.252L324.467 149.873L324.531 149.907Z" stroke="#5E58D0" stroke-linejoin="round"/>
<path d="M329.571 231.361L329.023 231.423L327.485 232.287L325.858 233.988L325.352 234.877L324.568 236.866L323.794 237.847L322.642 238.428L321.63 238.501L320.768 238.912L320.103 240.539L320.301 242.918L321.828 244.003L323.932 244.628L330.204 248.151L332.684 250.786L333.18 251.54L333.419 252.591L333.33 254.495L332.844 254.971L332.11 255.099L331.326 255.965L329.132 259.957L326.9 262.631L324.301 264.041L315.801 264.315L306.244 267.595L301.522 271.234L299.934 271.957H297.98L291.827 270.13L292.612 273.636L292.215 275.185L288.612 276.193L288.324 273.773L286.767 272.861L283.085 272.299L282.648 271.764L281.586 269.853L280.901 269.185L280.107 269.089L277.11 269.751L273.865 268.414L270.779 265.901L267.683 264.435L264.418 266.212L265.609 267.12L269.191 270.897L270.481 272.937L268.933 272.551L266.671 271.969L263.555 271.134L259.646 272.19L258.266 272.929L256.281 274.411L254.426 275.205L250.507 275.903L248.909 277.039L248.581 278.424L250.765 280.105L252.044 283.109L251.876 286.243L250.312 287.805L250.174 287.851L249.866 287.955L247.411 286.288L247.068 285.967L245.351 283.594L244.92 282.993L244.637 282.905L244.176 282.896L243.223 283.097L242.359 283.691L242.315 285.774L232.441 285.278L225.738 280.602L223.883 280.113L222.969 279.439L221.785 276.445L221.233 275.771L216.942 274.807L210.804 275.755L209.405 275.289L207.564 274.029L205.713 274.776L203.833 276.196L201.863 276.927L197.983 276.637L196.068 277.665L195.25 280.69L194.764 283.289L193.528 285.278L191.836 286.705L190.005 287.626L172.43 289.582L171.577 289.285L172.649 286.745L172.664 284.244L169.116 281.83L168.044 282.176L165.717 282.095L162.145 279.344L160.636 277.691L160.443 276.438L160.369 275.555L160.25 274.054L160.503 272.801L160.518 272.496L159.908 271.557L162.68 271.388L170.054 268.263L171.051 267.628L171.14 267.291V266.817L170.961 266.117L170.798 265.249L174.166 259.2L174.613 258.444L177.004 253.517L178.428 253.71L180.735 253.268L182.467 251.923L183.896 251.616L189.289 254.629L191.279 254.114L194.101 251.931L196.23 251.439L198.751 252.358L199.836 252.406L200.73 251.979L202.631 250.609L203.831 250.279L207.968 251.157L215.366 255.627L218.591 256.416L218.934 255.683L218.978 253.235L218.844 252.429L218.666 251.809L218.264 251.1L217.608 249.699L215.629 247.555L214.419 245.378L213.57 240.644L213.703 236.907L213.51 235.995L213.421 235.147L212.603 231.982L211.025 232.353L211.442 233.509L211.384 234.129L211.249 234.744L210.847 235.502L210.476 235.939L210.089 236.197L209.702 236.23L209.374 236.351L208.373 237.143L207.495 237.457L204.815 236.117L204.622 235.842L204.473 235.502L205.202 234.873L205.664 234.331L205.947 233.814L206.513 232.135L207.256 230.552L208.299 230.632L208.329 230.455V230.156L208.239 229.606L208.224 228.557L208.701 227.619L208.716 227.07L208.462 226.714L207.718 225.873L206.944 225.381L206.557 225.008L205.708 223.739L205.039 223.214L203.054 222.761L200.776 222.009L200.196 220.942L200.269 220.634L200.449 220.423L201.074 219.913L201.4 219.266L201.595 217.728L198.122 214.895L197.586 213.98L197.809 212.27L198.156 209.59L198.723 206.562L198.739 206.475L200.379 207.07L207.212 206.224L210.629 205.04L212.492 201.655L213.527 198.269L215.08 194.373L217.151 192.339L219.739 190.134L222.326 188.609L225.64 187.251L229.883 185.216L233.507 183.519L235.887 181.482L237.752 179.274L239.925 175.877L241.582 172.987L242.617 169.077L242.721 166.525L242.716 166.5L244.063 166.605L245.068 166.725L246.259 168.544L248.288 172.456L248.898 172.994L249.672 173.198L252.581 172.309L255.647 169.685L258.435 168.201L259.596 168.697L260.25 169.097L260.906 170.14L261.62 171.607L263.322 173.449L264.037 174.068L264.647 174.996L265.495 177.496L266.239 179.425L268.234 182.338L268.432 182.746L268.566 183.233L268.432 184.99L267.013 188.778L263.813 189.86L263.515 190.095L263.322 190.314L263.798 191.396L263.872 192.069L262.979 193.402L262.14 196.853L262.021 197.991L262.273 198.526L263.261 199.945L263.752 200.538L265.717 201.455L267.444 205.973L267.4 207.286L267.236 207.765L267.4 208.275L267.771 208.551L268.848 209.053L269.324 209.442L269.503 210.203L269.146 211.216L269.116 211.37V211.589L269.25 211.946L269.518 212.343L270.307 213.08L270.635 213.153L270.843 213.12L271.528 212.067L272.437 211.305L272.734 211.183L273.657 211.225L280.38 212.569L286.457 212.472L287.41 212.189L288.839 211.104L292.133 209.758L294.992 210.106L295.562 211.071L295.666 211.29L300.22 217.963L303.038 220.665L305.331 220.406L309.028 220.859L311.726 220.293L312.306 220.326L312.843 220.528L313.169 221.263L313.258 221.928V222.429L313.675 222.582L314.062 222.646L317.475 221.813L318.234 222.025L319.173 222.437L319.5 222.656L319.753 223.1L319.917 223.731L320.021 225.292L319.992 226.116L319.039 228.468L328.412 230.473L329.504 231.313L329.571 231.361Z" stroke="#5E58D0" stroke-linejoin="round"/>
<path d="M250.312 287.8L249.742 288.367L249.663 290.032L250.615 290.421L253.404 290.358L254.505 290.886L256.648 292.516L257.6 293.501L256.311 297.887L258.513 300.704L265.013 303.571L263.892 307.032L263.376 309.242L263.793 311.139L270.185 319.96L274.054 324.449L274.739 329.501L275.205 332.298L274.858 335.347L274.124 338.621L273.994 341.457L275.444 343.194L274.889 344.545L274.59 347.915L274.074 349.829L273.121 351.184L270.68 352.891L269.679 353.879L264.757 362.99L262.733 365.467L261.749 367.16L260.926 370.213L260.649 373.633L261.333 376.463L263.586 377.722L268.369 374.425L270.572 375.185L269.808 375.632L267.615 377.433L269.629 379.319L268.201 381.222L262.733 384.198L253.851 391.183L252.561 392.675L250.716 396.561L249.534 397.863L247.769 398.052L246.488 396.877L245.348 395.39L244.018 394.641L241.329 396.062L241.874 399.635L243.353 404.023L243.452 407.869L244.762 407.601L247.252 406.364L248.552 405.994L249.881 406.175L252.402 407.011L255.845 406.593L256.043 407.389L255.459 408.674L255.091 409.941L255.23 412.139L255.477 413.351L256.212 414.162L258.475 415.586L261.611 416.681L261.422 417.294L260.916 418.12L260.737 419.127L261.55 422.257L261.521 423.468L260.935 425.032L259.864 426.32L257.7 426.132L256.38 426.886L255.537 428.411L255.626 429.723L255.834 431.12L255.328 432.926L253.948 434.221L252.49 433.852L252.896 435.799L253.631 437.07L254.583 437.736L255.208 438.663L254.999 440.639L253.066 440.998L246.101 440.771L245.054 440.437L243.958 440.09L235.632 440.301L234.65 439.61L232.685 437.437L231.722 437.069L230.869 437.727L229.834 439.284L229.361 439.995L228.358 440.199L227.316 439.987L225.57 438.983L226.562 435.499L226.73 433.71L225.232 433.262L223.158 432.266L222.599 431.875L220.994 430.75L219.436 428.434L219.228 425.031L226.155 417.27L227.266 416.822L228.377 416.421L228.834 416.051L230.074 414.178L231.731 410.635L232.833 408.775L231.9 408.216L230.977 408.193L228.834 408.775L232.614 402.715L234.133 398.993L232.833 397.218L233.061 395.194L233.548 393.714L234.331 393.228L235.453 394.191L236.177 393.2L236.703 392.115L237.418 390.018L237.15 389.402L237.001 388.936L236.762 387.831L237.814 387.945L238.845 387.787L239.818 387.392L240.702 386.796L238.518 384.448L238.826 382.701L240.176 381.361L239.937 380.626L239.083 378.675L237.446 378.545L234.499 379.296L233.219 378.217L231.215 375.44L229.647 374.498L228.417 374.367L224.398 375.198L222.75 375.214L221.708 374.465L220.785 373.401L219.485 372.483L214.047 370.835L212.419 369.438L212.44 369.43L214.047 368.796L216.345 368.098L217.178 368.178L217.893 367.861L218.562 367.107L219.098 366.022L219.967 360.86L221.663 357.846L222.319 356.798L224.357 354.156L233.7 351.297L240.523 349.12L243.49 348.358L245.707 346.506L249.196 343.621L246.859 338.626L243.58 334.082L241.401 325.256L239.913 315.54L243.355 315.883L247.023 317.128L248.155 317.146L250.744 316.715L255.453 315.086L256.392 315.333L258.733 316.954L260.221 315.628L260.241 314.383L259.67 313.082L258.494 308.481L258.092 307.802L257.988 307.25L256.093 304.061L255.229 303.19L254.261 302.598L253.785 301.807L254.425 300.311L252.926 298.639L251.646 293.051L250.163 291.85L246.288 291.45L244.755 290.481L243.936 288.581L244.229 286.714L242.314 285.768L242.359 283.685L243.223 283.092L244.175 282.891L244.636 282.9L244.919 282.988L245.351 283.589L247.068 285.962L247.41 286.283L249.866 287.95L250.174 287.845L250.312 287.8Z" stroke="#5E58D0" stroke-linejoin="round"/>
<path d="M5.7406 365.158L5.05534 364.84L2.72334 362.276L1.36423 358.421L1.4343 354.843L1.83112 351.032L1 345.11L16.5059 340.076L17.9286 338.898L19.4287 338.723L25.5072 342.675L34.8678 345.361L37.9462 348.101L39.993 348.977H43.8691L47.526 350.028L49.8465 349.691L59.2226 345.643L60.5117 344.122L61.0274 341.054L61.9417 339.689L64.0121 339.789L66.2553 340.653L67.6372 341.53L68.2711 342.495L69.3491 344.892L70.2006 345.831L71.2713 346.201L73.5919 346.513L74.5533 347.301L75.171 347.552L78.4922 347.827L80.1397 345.343L80.7492 344.772L82.6249 344.985L84.7304 346.222L84.6799 346.866L83.9645 350.444L83.4283 351.973L79.6476 357.152L74.885 360.908L62.9862 366.917L58.6107 370.359L56.4571 371.052L45.0945 371.195L43.9033 370.668L42.4749 368.965L42.316 367.365L42.4749 365.66L41.9787 363.651L40.1625 362.454L28.4242 358.539L25.9733 358.139L23.6005 358.279L19.7799 359.139L18.2415 359.23L16.8327 359.583L15.7808 360.669L15.6023 362.442L15.8508 364.385L15.573 365.835L11.0271 366.548L7.96096 366.187L5.7406 365.158ZM90.4553 346.076L88.5299 346.009L88.1485 345.528L87.3753 343.726L87.117 341.847L87.1634 340.262L86.976 339.066L85.999 338.37L84.873 339.836L82.7643 340.475L74.1305 340.225L72.1374 339.561L70.1998 338.37L64.9174 333.764L63.3464 333.119L59.3383 332.706L58.002 333.538L55.1502 338.947L54.064 340.538L52.5876 341.326L49.1328 341.702L47.8983 342.492L46.8668 342.673L45.8352 342.203L43.2091 339.423L37.419 336.553L33.6684 332.937L32.161 332.768L28.1839 334.26L26.0197 334.36L20.5816 333.119L18.8542 332.179L17.3941 329.996L16.1124 327.537L14.9554 325.749L11.7988 322.961L10.7517 321.304L10.3688 318.798L11.3775 317.39L21.2531 311.28L47.0305 308.481L49.1637 308.784L50.6019 309.614L52.1492 311.054L53.5238 312.954L54.4152 315.204L53.4073 315.613L51.7736 316.725L51.1331 317.315V318.27L60.3226 319.238L64.9874 321.135L68.9482 324.601L70.2145 327.011L72.1048 332.329L73.5267 334.26L75.8245 334.932L80.825 334.236L82.708 335.213L84.6065 334.593L87.7322 334.75L88.7906 334.453L88.7955 334.462L88.8257 334.524L89.2567 336.785L88.9145 337.406L88.8102 337.923L88.6317 338.392L88.692 340.151L89.0636 343.126L89.9721 343.896L90.329 344.874L90.448 346.018L90.4553 346.076ZM85.5925 322.875L82.1548 322.253L78.185 320.483L76.7085 320.357L73.6693 320.721L72.2311 320.483L69.9187 319.1L62.3238 311.955L67.418 309.521L69.966 308.804L78.5598 309.232L81.0686 309.999L83.3199 311.912L83.3884 312.066L85.9094 314.948L86.2215 315.404L86.8913 317.359L86.8766 319.202L86.7576 319.823L85.5925 322.875ZM81.335 307.852L77.5453 307.689L76.5219 307.293L75.5605 306.632L74.7953 305.707L74.3106 304.36L74.1125 303.185L74.1305 303.162L74.3888 302.825L76.0078 301.434L78.1597 302.274L80.2098 303.763L82.3731 304.618L82.4522 304.594L82.4131 304.708L81.335 307.852ZM66.9805 297.168L70.9894 298.289L72.8105 299.587L73.006 302.081L72.0136 303.643L70.4361 304.745L68.7315 305.405L61.3558 306.852L59.652 306.764L56.0815 305.43L54.0111 303.957L53.0887 301.867L52.4792 299.876L50.9637 298.679L47.1968 297.168L46.5563 296.543L45.955 295.711L45.15 295.05L43.8682 294.955L41.4996 297.791L40.9382 298.32L36.6327 298.566L34.6641 297.98L33.3824 296.108L33.648 291.096L37.1395 288.818L45.2274 287.645L45.6258 287.5L47.196 287.645L48.4614 288.338L57.6663 288.597L59.7914 289.07L61.3542 290.282L64.941 294.708L65.4095 295.521L66.0182 296.353L66.9805 297.168Z" stroke="#5E58D0" stroke-linejoin="round"/>
<path d="M90.4551 346.072L90.4494 346.014L90.3304 344.87L89.9735 343.892L89.065 343.122L88.6934 340.147L88.6331 338.388L88.8116 337.919L88.9159 337.401L89.2581 336.781L88.8271 334.52L88.7969 334.458L88.792 334.449L90.6563 333.949L91.9535 330.432L91.1713 327.1L89.1717 324.609L86.4837 323.033L85.5923 322.87L86.7583 319.817L86.8772 319.195L86.8919 317.353L86.2221 315.397L85.91 314.942L83.389 312.059L83.3206 311.906L83.3263 311.911L83.3654 311.949L82.9197 309.036L81.7007 307.867L81.334 307.847L82.4129 304.701L82.452 304.587L86.403 303.323L90.3614 302.987L95.5004 301.644L99.251 299.069L102.167 293.691L112.098 295.708L115.779 295.597L119.112 294.588L123.07 292.683L125.292 292.011L128.325 291.971L133.133 286.153L134.508 283.435L136.601 281.166L139.35 279.048L144.639 278.967L147.026 278.204L150.736 274.818L153.212 274.778L158.09 275.765L160.367 275.548L160.441 276.431L160.635 277.685L162.144 279.338L165.716 282.089L168.043 282.169L169.114 281.824L172.662 284.237L172.647 286.739L171.576 289.279L172.429 289.575L190.004 287.62L191.835 286.698L193.527 285.271L194.762 283.282L195.249 280.683L196.067 277.658L197.982 276.631L201.862 276.92L203.832 276.189L205.712 274.769L207.563 274.023L209.404 275.282L210.803 275.749L216.941 274.801L221.232 275.764L221.783 276.439L222.968 279.432L223.881 280.106L225.737 280.595L232.439 285.271L242.313 285.767L244.228 286.714L243.936 288.58L244.754 290.48L246.287 291.449L250.162 291.849L251.645 293.05L252.925 298.638L254.424 300.31L253.784 301.806L254.26 302.597L255.228 303.189L256.092 304.06L257.987 307.249L258.091 307.801L258.493 308.48L259.669 313.081L260.24 314.382L260.22 315.627L258.733 316.953L256.391 315.332L255.452 315.085L250.743 316.714L248.155 317.145L247.024 317.13L243.356 315.885L239.914 315.542L241.401 325.257L243.58 334.084L246.86 338.628L249.197 343.623L245.708 346.507L243.491 348.359L240.524 349.122L233.701 351.298L224.358 354.157L222.319 356.8L221.664 357.848L219.968 360.862L219.099 366.023L218.563 367.109L217.894 367.863L217.179 368.179L216.346 368.1L214.048 368.797L212.44 369.431L212.419 369.439L211.855 368.954L211.547 365.467L210.863 362.495L209.087 360.163L206.834 358.736L204.759 358.497L202.864 359.414L198.836 362.265L196.831 363.006L185.469 362.526L182.468 363.278L181.847 363.433L180.16 363.001L180.111 357.536L178.424 355.385L176.648 355.207L172.937 355.533L171.279 354.613L170.813 353.608L169.83 350.218L169.325 348.884L166.019 345.212L165.404 343.718L165.741 340.386L166.813 337.924L167.15 335.361L165.265 331.751L162.387 329.831L162.118 329.465L160.64 329.848L160.065 330.776L159.737 332.21L159.073 334.104L157.574 336.595L155.362 339.603L152.94 341.969L150.866 342.541L147.154 340.827L145.389 340.35L138.67 340.12L136.636 339.236L137.181 337.387L138.262 337.227L142.451 339.188L141.756 336.511L142.183 334.179L142.777 331.969L142.569 329.644L141.578 328.337L139.969 327.273L138.223 326.604L136.834 326.468L133.668 328.106L126.246 337.26L125.254 338L123.965 338.493L122.475 338.593L119.409 337.817L116.641 338.326L115.371 338.207L113.536 336.887L113.714 335.382L114.528 333.464L114.656 330.887L113.892 329.601L112.681 329.379L109.844 329.849L104.693 331.752L99.6715 334.695L100.834 335.972L100.636 337.07L100.01 338.272L99.9397 339.83L100.685 341.215L102.838 343.791L103.424 345.301L102.947 347.951L101.121 348.924L96.646 348.635L94.7899 347.999L91.3171 346.104L90.4551 346.072Z" stroke="#5E58D0" stroke-linejoin="round"/>
<path d="M74.1125 303.18L74.0123 302.581L73.9887 300.811L74.2779 299.494L75.5279 298.128L77.1844 297.428L80.4502 297.162L79.4341 296.105L77.0116 294.365L70.331 292.309L68.9474 290.279L68.3379 285.128L66.7214 281.908L64.3999 279.787L61.6817 277.912L59.8688 279.277L57.43 280.033L54.9538 280.029L53.0781 280.559L52.7269 281.191L52.0465 281.316L51.1323 281.285L50.2417 276.969L53.0308 275.074L59.0556 273.227L59.8761 272.109L61.751 271.963L64.963 272.697L67.6339 274.15L68.0332 274.232L68.7437 274.15L69.7451 273.701L70.916 272.697L70.19 271.274L67.7448 267.89L67.0962 267.357L66.5413 266.718L66.3221 265.751L66.5331 264.535L66.9788 263.679L67.4245 263.064L67.6356 262.571L67.3235 260.176L65.4951 254.061L64.4252 251.442L64.9646 250.263L65.6205 249.221L70.0898 250.224L73.8013 249.609L77.0825 247.47L90.7951 230.708L102.531 213.409L112.252 195.688L111.376 197.309L115.583 199.215L116.133 199.435L117.851 199.817L119.845 198.77L122.003 199.29L117.969 206.03L117.836 206.411L117.717 207.092L117.627 208.56L117.16 210.674L115.954 212.732L116.089 213.89L117.174 213.81L118.117 214.725L118.579 214.951L119.233 215.072L121.599 215.015L125.698 213.914L127.736 212.934L131.656 211.661L132.147 211.993L132.385 212.23L132.802 214.538L133.129 215.283L134.147 215.785L137.183 213.761L138.433 215.963L138.911 216.644L139.497 217.227L141.61 218.069L146.29 222.098L145.426 222.81L145.813 224.541L146.423 226.262L146.572 226.788L146.557 227.168L146.348 227.435L145.947 227.547L144.364 226.788L143.888 226.674L143.561 226.521L143.248 226.286L142.727 226.398L142.266 226.553L139.973 228.993L139.394 229.648L140.719 230.812L142.177 231.347L143.396 237.169L147.734 237.2L147.043 238.26L143.264 240.144L140.215 244.801L140.641 245.792L145.031 245.197L145.458 247.079L144.245 247.839L143.546 248.169L142.921 248.372L142.609 248.838L143.473 250.321L146.544 254.258L148.658 257.511L149.298 256.52L151.476 256.65L152.444 256.248L155.138 253.461L158.219 251.673L158.417 251.431L162.396 252.34L163.364 251.914L164.758 250.126L165.612 249.465L167.804 248.861L168.653 248.2L169.546 247.748L170.87 248.038L172.042 248.957L173.366 251.269L174.27 252.396L176.081 253.363L177.003 253.507L174.613 258.434L174.165 259.191L170.797 265.239L170.961 266.107L171.139 266.807V267.281L171.05 267.618L170.054 268.256L162.681 271.382L159.908 271.55L160.518 272.489L160.503 272.794L160.25 274.046L160.369 275.548L158.092 275.765L153.214 274.778L150.738 274.818L147.028 278.204L144.641 278.967L139.352 279.048L136.602 281.166L134.509 283.434L133.135 286.153L128.326 291.971L125.294 292.011L123.072 292.683L119.113 294.588L115.781 295.597L112.099 295.708L102.168 293.691L99.2528 299.068L95.5022 301.644L90.3632 302.986L86.4048 303.322L82.4538 304.587L82.3747 304.611L80.2114 303.756L78.1613 302.266L76.0094 301.426L74.3904 302.818L74.1321 303.156L74.1125 303.18Z" stroke="#5E58D0" stroke-linejoin="round"/>
<path d="M112.253 195.688L118.059 178.557L118.895 174.095V172.933L120.778 168.891L124.849 138.206L126.552 130.355L126.818 127.961L127.74 122.994L131.796 112.422L132.725 107.197L132.827 104.244L133.21 100.452L133.93 97.1721L135.04 95.7837L140.947 96.7052L141.899 95.7837L142.618 96.9708L141.181 101.84L143.422 104.749L147.36 105.921L151.135 105.662L153.315 104.419L157.393 100.867L159.385 100.128L163.213 99.6223L166.98 97.9494L176.739 89.1804L176.772 89.3417L176.965 89.8372L177.338 91.3951L177.474 91.9671L177.482 91.9964L184.461 112.063L195.035 123.984L195.024 124.147L193.936 140.055L189.12 138.517L186.168 140.567L184.615 146.458L168.615 156.948L170.945 167.422L175.605 174.311L178.091 181.192H174.829L169.391 186.287L169.546 191.376L174.829 196.971L177.78 197.734L181.353 197.48H183.372L186.634 198.496L194.772 204.02L194.629 204.046L191.373 204.636L185.996 204.643L185.236 204.935L184.804 205.186L183.063 208.12L181.108 212.982L180.781 214.821L180.245 215.986L179.576 217.629L178.876 219.054L176.985 220.365L171.651 220.073L168.026 220.75L166.32 221.546L163.8 222.076L163.312 218.762L162.743 216.375L163.469 213.192L165.061 211.224L164.6 210.259L164.347 209.911L164.154 209.612L163.93 209.328L163.604 209.029L163.336 208.883L163.127 208.657L162.978 208.316L162.874 207.733L162.725 207.253L162.397 206.557L162.859 205.819L165.791 204.66L161.906 204.295L160.353 204.983L159.907 204.295L159.446 203.921L158.865 203.686L158.165 203.677L155.783 205L153.947 205.325L153.054 205.251L152.608 205.52L152.295 205.795L150.955 208.364L147.14 208.899L145.041 209.937L143.593 211.443L141.658 212.44L137.187 213.759L134.151 215.784L133.133 215.281L132.806 214.536L132.389 212.228L132.151 211.992L131.66 211.661L127.74 212.932L125.702 213.912L121.603 215.014L119.237 215.071L118.583 214.949L118.121 214.723L117.178 213.808L116.093 213.889L115.958 212.731L117.164 210.672L117.631 208.558L117.721 207.091L117.84 206.409L117.973 206.029L122.007 199.288L119.849 198.768L117.855 199.815L116.137 199.434L115.587 199.215L111.38 197.307L112.253 195.688ZM149.164 72.88V73.8757H151.133L150.461 75.9706L149.211 78.4615L146.538 82.6024L142.014 86.3457L139.858 90.5664L136.624 91.5214L133.248 90.1256L131.412 86.0735L132.005 81.8951L133.904 77.1684L136.287 73.2915L140.819 69.3657L143.086 64.564L145.493 60.6016L148.508 60.7646L148.899 61.7032L149.117 62.5246L149.048 63.2872L148.508 64.0507L149.868 66.2719L150.852 69.1123L150.828 71.6317L149.164 72.88Z" stroke="#5E58D0" stroke-linejoin="round"/>
<path d="M176.738 89.187L186.309 80.5753L187.724 78.8976L189.505 77.3958L193.935 76.3545L195.888 75.072L197.857 71.1218L200.483 60.1894L202.436 55.2907L205.812 51.3348L207.89 49.4933L211.422 47.959L213.039 46.1233L214.54 43.933L216.274 42.1429L218.22 41.4495L222.815 40.6713L226.166 37.7616L241.543 31.5307L245.004 29.0415L247.208 28.859L253.646 25.5304L262.912 25.0709L273.349 24.7376L272.315 26.8089L271.84 28.7473L272.778 32.2486L274.151 32.8548L275.967 33.3787L276.31 33.5865L276.682 33.9361L277.233 34.7427L277.635 35.1909L277.961 35.3824L278.229 35.4655L278.527 35.4492L278.869 35.3156L279.41 34.9497L279.677 34.834L279.99 34.8087L281.761 35.4068L282.103 35.9397L282.267 36.8287L282.044 38.8388L282 40.409L282.163 40.6004L282.417 40.7496L283.056 40.9989V41.1643L282.788 41.4878L281.181 42.9911L279.871 44.4944L279.514 45.2164L279.034 47.2901L277.604 49.7459L276.413 52.1341L276.608 52.8887L276.697 53.5601L276.89 53.9585L277.054 54.4474L277.158 54.9037L277.187 55.3421L276.934 55.9882L273.371 60.759L272.39 62.7381L271.72 66.1807L272.168 69.6136L273.06 70.7624L274.33 71.9121L275.164 72.1851L279.263 72.5811L280.915 73.1767L284.368 75.4493L285.207 75.9202L285.029 78.1015L285.326 78.3989L286.831 79.2993L289.539 80.4628L289.761 80.9256L289.99 81.8162L289.902 82.6913L290.422 84.2843L290.779 86.0744L295.979 93.0835L297.14 95.5133L296.977 96.2213L296.723 97.103L294.083 101.475L293.488 102.125L288.899 105.22L285.683 103.022L283.536 102.463L280.976 102.471L279.934 103.294L279.264 103.977L276.059 107.679L267.923 113.967L263.889 115.569L262.038 115.766L260.475 116.21L260.251 116.399L260.148 116.58L260.058 117.269L259.969 117.524L258.6 119.109L254.83 118.829L254.353 118.6L253.475 117.812L252.344 116.136L251.832 115.897L251.579 115.848L251.341 116.143L250.984 116.389L249.049 116.858L248.573 117.153L248.23 117.539L247.993 118.072L247.651 118.688L247.219 119.337L246.752 119.805L243.91 121.513L243.18 121.652L242.644 121.684L239.93 121.233L239.573 121.06L238.442 120.068L234.864 121.865L233.896 119.436L231.501 116.883L230.572 116.299L228.608 116.611L228.355 116.66L227.024 116.44H224.85L222.52 116.954L220.189 117.983L217.082 120.554L213.043 123.637L195.179 124.151L195.035 123.988L184.461 112.066L177.482 91.9998L177.474 91.9704L177.338 91.3984L176.965 89.8405L176.772 89.3451L176.738 89.187ZM147.852 55.2907L151.914 50.0221L158.182 44.2011L164.706 40.3772L169.542 41.0445V42.1437H166.979L165.777 42.8363L162.98 43.9086L155.4 51.3356L153.307 54.4751L150.853 56.6417L147.852 55.2907ZM200.147 21.6169L201.436 20.6326L215.673 17.872L213.438 20.9813L210.718 21.9387L205.123 22.1677L205.311 22.7193L205.537 23.9L205.725 24.4704L204.467 25.1385L200.474 25.4734L196.201 27.367L192.787 28.2454L179.48 34.1251L176.745 34.0607L175.574 31.6244L176.653 28.8549L181.794 27.0395L183.497 25.4734L185.684 25.5321L198.577 22.8774L200.147 21.6169ZM224.189 15.5612L247.217 14.6038L251.131 16.6644L241.629 18.8693H231.753L229.283 19.5261L224.665 21.6568L222.227 21.0734L220.548 18.6664L221.112 16.2978L222.736 14.9264L224.189 15.5612ZM275.822 8.95631L285.331 8.10156L288.011 8.95631V10.0587H286.699L270.196 15.4161L268.289 17.8712L267.726 16.8535L267.696 16.341L268.289 15.5604L267.281 13.349L269.695 11.215L273.29 9.59919L275.822 8.95631Z" stroke="#5E58D0" stroke-linejoin="round"/>
<path d="M195.033 123.985L195.177 124.148L213.041 123.634L217.08 120.551L220.187 117.98L222.517 116.952L224.848 116.438H227.022L228.352 116.658L228.606 116.609L230.57 116.297L231.498 116.88L233.894 119.434L234.862 121.863L241.897 125.719L246.348 129.36L247.469 130.852L248.138 131.991L249.508 136.021L250.238 140.09L249.702 140.942L249.316 141.866L248.616 142.529L248.437 142.799L248.705 143.053L249.524 143.446L253.399 144.59L255.274 145.622L257.388 148.189L254.322 149.906L249.688 151.499L248.78 151.557L247.218 151.296L246.677 150.977L245.411 151.059L240.535 153.297L240.444 153.402L239.408 154.595V156.47L240.754 157.663L242.716 166.489L242.721 166.515L242.617 169.067L241.582 172.977L239.925 175.866L237.752 179.264L235.888 181.471L233.507 183.508L229.883 185.206L225.64 187.241L222.327 188.599L219.739 190.124L217.151 192.329L215.08 194.363L213.527 198.258L212.492 201.645L210.629 205.029L207.213 206.213L200.379 207.06L198.739 206.464L198.516 206.383L194.629 204.043L194.772 204.017L186.634 198.493L183.372 197.477H181.353L177.78 197.731L174.829 196.968L169.546 191.373L169.391 186.284L174.829 181.189H178.091L175.605 174.308L170.945 167.419L168.615 156.945L184.615 146.455L186.168 140.564L189.12 138.514L193.936 140.052L195.024 124.144L195.033 123.985Z" stroke="#5E58D0" stroke-linejoin="round"/>
<path d="M198.739 206.473L198.722 206.561L198.155 209.589L197.808 212.27L197.586 213.979L198.122 214.893L201.595 217.727L201.4 219.264L201.073 219.912L200.448 220.423L200.269 220.632L200.196 220.94L200.776 222.008L203.054 222.76L205.038 223.214L205.708 223.737L206.556 225.007L206.943 225.38L207.717 225.871L208.462 226.712L208.715 227.068L208.701 227.618L208.224 228.555L208.239 229.605L208.328 230.155V230.453L208.298 230.632L207.256 230.55L206.512 232.133L205.946 233.813L205.664 234.33L205.202 234.872L204.473 235.501L204.622 235.841L204.815 236.115L207.495 237.456L208.372 237.141L209.374 236.35L209.701 236.229L210.088 236.196L210.475 235.938L210.847 235.501L211.249 234.742L211.383 234.128L211.442 233.507L211.024 232.352L212.603 231.981L213.421 235.146L213.51 235.993L213.703 236.906L213.569 240.643L214.418 245.377L215.628 247.554L217.607 249.697L218.263 251.098L218.665 251.808L218.843 252.428L218.977 253.234L218.933 255.681L218.591 256.415L215.366 255.625L207.967 251.156L203.83 250.278L202.63 250.608L200.729 251.977L199.835 252.404L198.75 252.356L196.23 251.438L194.101 251.929L191.278 254.112L189.288 254.627L183.895 251.615L182.466 251.921L180.735 253.266L178.428 253.709L177.003 253.516L176.081 253.371L174.27 252.404L173.366 251.277L172.042 248.965L170.87 248.048L169.546 247.757L168.653 248.208L167.804 248.87L165.612 249.474L164.758 250.134L163.364 251.923L162.396 252.35L158.418 251.44L158.22 251.682L155.138 253.469L152.444 256.256L151.476 256.658L149.298 256.529L148.658 257.52L146.544 254.268L143.473 250.329L142.609 248.847L142.921 248.38L143.546 248.178L144.245 247.847L145.458 247.089L145.031 245.205L140.642 245.8L140.215 244.811L143.264 240.152L147.043 238.268L147.735 237.209L143.396 237.177L142.177 231.355L140.719 230.821L139.394 229.658L139.973 229.003L142.266 226.562L142.727 226.408L143.248 226.294L143.561 226.529L143.888 226.682L144.364 226.796L145.947 227.556L146.348 227.443L146.557 227.176L146.572 226.796L146.423 226.271L145.813 224.549L145.426 222.818L146.29 222.106L141.61 218.077L139.497 217.235L138.911 216.653L138.433 215.971L137.183 213.77L141.654 212.451L143.589 211.453L145.037 209.947L147.136 208.91L150.951 208.374L152.291 205.805L152.604 205.53L153.05 205.262L153.943 205.335L155.779 205.01L158.161 203.688L158.861 203.696L159.442 203.931L159.903 204.305L160.349 204.993L161.903 204.305L165.788 204.671L162.855 205.829L162.393 206.567L162.721 207.264L162.87 207.743L162.974 208.326L163.123 208.667L163.332 208.893L163.6 209.039L163.926 209.339L164.15 209.622L164.343 209.921L164.596 210.27L165.057 211.234L163.465 213.202L162.739 216.385L163.308 218.772L163.796 222.086L166.316 221.556L168.023 220.76L171.647 220.083L176.981 220.375L178.872 219.064L179.572 217.639L180.242 215.996L180.777 214.831L181.104 212.993L183.059 208.132L184.8 205.196L185.232 204.945L185.992 204.653L191.369 204.646L194.625 204.056L198.512 206.396L198.739 206.473Z" stroke="#5E58D0" stroke-linejoin="round"/>
</g>
</svg>
