<svg width="247" height="221" viewBox="0 0 247 221" fill="none" xmlns="http://www.w3.org/2000/svg">
<path d="M207.805 115.507V189.881H206.583V207.799C206.583 213.777 201.623 218.718 195.28 219.331L117.552 170.6L186.095 129.355L186.041 129.302C185.91 129.166 185.783 129.034 185.661 128.893L162.189 143.044L116.568 170.6L70.9476 143.073L25.7114 115.769V115.507H207.805Z" fill="#DBDBDB"/>
<path d="M207.806 115.546L206.754 116.178L206.584 116.281L204.311 117.653L200.825 119.746L185.662 128.888L162.19 143.039L116.569 170.595L70.9484 143.068L25.7122 115.769L25.3374 115.546L25.7609 115.292L70.9533 87.9502L110.45 64.0592C112.289 62.9183 114.41 62.3137 116.574 62.3137C118.738 62.3137 120.859 62.9183 122.698 64.0592L162.195 87.9551L179.923 98.6642L198.309 109.782L205.703 114.256L207.003 115.044L207.747 115.492L207.806 115.546Z" fill="#615CDB"/>
<mask id="mask0_1498_67049" style="mask-type:luminance" maskUnits="userSpaceOnUse" x="25" y="0" width="184" height="171">
<path d="M207.679 115.186H208.711V0H26.0726V115.186H26.2284L25.7124 115.561L71.3331 143.117L116.954 170.659L162.575 143.112L208.19 115.556L207.679 115.186Z" fill="white"/>
</mask>
<g mask="url(#mask0_1498_67049)">
<path d="M38.7574 2.34307H179.526L198.629 21.4131V176.911H35.5154V6.23729C35.5154 4.17319 36.9129 2.34307 38.7574 2.34307Z" fill="white" stroke="#402EA1" stroke-width="1.07091"/>
<path d="M181.68 20.3424V4.21716L198.587 21.3753L182.62 21.5106L182.617 21.5107C182.478 21.5125 182.341 21.4853 182.214 21.4309C182.092 21.3789 181.982 21.3032 181.89 21.2082C181.805 21.0991 181.743 20.9746 181.705 20.8415L181.19 20.9859L181.705 20.8415C181.666 20.7022 181.656 20.5565 181.675 20.4131L181.68 20.3779V20.3424Z" fill="#DBDBDB" stroke="#402EA1" stroke-width="1.07091"/>
</g>
<rect x="57.8394" y="26.2856" width="51.5984" height="28.2331" fill="#DBDBDB"/>
<line x1="114.306" y1="32.6138" x2="166.878" y2="32.6138" stroke="#402EA1" stroke-width="0.973554"/>
<line x1="114.306" y1="37.4815" x2="166.878" y2="37.4815" stroke="#402EA1" stroke-width="0.973554"/>
<line x1="114.306" y1="42.3494" x2="166.878" y2="42.3494" stroke="#402EA1" stroke-width="0.973554"/>
<line x1="114.306" y1="47.2171" x2="140.592" y2="47.2171" stroke="#402EA1" stroke-width="0.973554"/>
<rect x="57.8394" y="64.2544" width="51.5984" height="28.2331" fill="#DBDBDB"/>
<line x1="114.306" y1="70.5823" x2="166.878" y2="70.5823" stroke="#402EA1" stroke-width="0.973554"/>
<line x1="114.306" y1="75.4502" x2="166.878" y2="75.4502" stroke="#402EA1" stroke-width="0.973554"/>
<line x1="114.306" y1="80.3179" x2="166.878" y2="80.3179" stroke="#402EA1" stroke-width="0.973554"/>
<line x1="114.306" y1="85.1856" x2="140.592" y2="85.1856" stroke="#402EA1" stroke-width="0.973554"/>
<rect x="57.8394" y="102.223" width="51.5984" height="28.2331" fill="#DBDBDB"/>
<line x1="114.306" y1="108.551" x2="166.878" y2="108.551" stroke="#402EA1" stroke-width="0.973554"/>
<line x1="114.306" y1="113.419" x2="166.878" y2="113.419" stroke="#402EA1" stroke-width="0.973554"/>
<line x1="114.306" y1="118.286" x2="166.878" y2="118.286" stroke="#402EA1" stroke-width="0.973554"/>
<line x1="114.306" y1="123.154" x2="140.592" y2="123.154" stroke="#402EA1" stroke-width="0.973554"/>
<path d="M208.043 189.882V207.8C208.043 214.615 202.363 220.237 195.163 220.802H195.085C194.769 220.802 194.272 220.845 193.951 220.845H50.0502C50.1411 220.683 50.2287 220.521 50.3131 220.359C50.4932 220.037 50.6636 219.711 50.8291 219.385H192.632L115.765 171.209L115.702 171.17L33.1202 121.265L25.9402 117.6V115.994L25.7065 116.111V115.77L70.9476 143.073L116.568 170.6L162.189 143.044L185.661 128.893C185.783 129.034 185.91 129.166 186.041 129.302L186.095 129.356L117.552 170.6L195.28 219.332C201.608 218.718 206.583 213.777 206.583 207.8V189.882H208.043Z" fill="#5E58D0"/>
<path d="M192.717 219.402H51.7023C51.5377 219.732 51.3683 220.056 51.1892 220.371H39.9967C34.2407 220.371 29.3464 216.982 27.4923 212.267C26.9731 210.943 26.7071 209.535 26.708 208.113V116.685L26.9404 116.569V118.166L34.0809 121.812L116.219 171.442L116.282 171.481L192.717 219.402Z" fill="#402EA1"/>
<path d="M208.044 115.116V190.051H206.591V118.055L204.331 119.27L200.865 121.134L199.412 121.908L186.201 129.857L186.148 129.804C186.017 129.669 185.891 129.538 185.77 129.398L162.427 143.47L117.056 170.876L71.6859 143.5L26.7126 116.346V116.685L26.945 116.569V207.871C26.9447 209.286 27.2278 210.687 27.7776 211.991C29.5833 216.319 34.163 219.402 39.5075 219.402H51.7069C51.5423 219.732 51.3729 220.056 51.1938 220.371C51.1099 220.529 51.0227 220.69 50.9324 220.855H39.5075C33.7805 220.855 28.8572 217.655 26.6739 213.085C25.8964 211.457 25.4928 209.675 25.4926 207.871V117.421L25.3765 117.363L25.4926 117.305V115.116L26.761 115.872L26.8288 115.91L27.1289 116.085L35.5378 120.993L116.601 169.98L116.659 170.014L185.213 128.763L197.965 121.09L200.869 119.309L204.336 117.174L206.044 116.123L206.112 116.089L207.008 115.644L208.044 115.116Z" fill="#5E58D0"/>
<g style="mix-blend-mode:soft-light">
<path d="M214.035 25.6179C214.035 21.6989 212.601 20.4698 207.466 20.0957V14.6804C207.466 9.06021 202.901 0.736816 193.108 0.736816C183.315 0.736816 178.746 9.06021 178.746 14.6804V20.0957C174.662 20.3941 172.921 21.2313 172.378 23.5337C172.232 24.2187 172.165 24.9179 172.177 25.6179C172.177 28.9713 171.732 33.9057 172.427 38.9291C172.974 43.0218 174.261 47.1724 177.116 50.5881C177.281 50.7885 177.454 50.9845 177.633 51.176C177.811 51.3675 177.86 51.4254 177.98 51.55L178.029 51.599C185.364 59.1297 193.108 58.2524 193.108 58.2524C194.336 58.3348 195.569 58.2494 196.773 57.9986C197.125 57.9318 197.499 57.8516 197.891 57.7492L198.109 57.6913C200.946 56.9431 204.638 55.2553 208.232 51.55C215.58 43.9615 214.035 31.9685 214.035 25.6179ZM194.694 46.0011C194.652 46.3949 194.466 46.7593 194.172 47.0242C193.877 47.289 193.495 47.4356 193.099 47.4356C192.703 47.4356 192.321 47.289 192.027 47.0242C191.733 46.7593 191.547 46.3949 191.505 46.0011V38.6263C190.833 38.3785 190.252 37.9342 189.836 37.3511C189.421 36.768 189.191 36.0733 189.176 35.3575V34.0482C189.174 33.9335 189.182 33.8188 189.198 33.7053C189.385 31.8883 191.064 30.4677 193.099 30.4677C195.264 30.4677 197.023 32.0709 197.023 34.0304V35.3397C197.021 35.7971 196.926 36.2495 196.744 36.6691C196.562 37.0887 196.296 37.4667 195.963 37.7801C195.598 38.1368 195.167 38.4182 194.694 38.6085V46.0011ZM203.2 19.9577C200.527 19.9309 197.183 19.9577 193.108 19.9577C189.033 19.9577 185.707 19.9176 183.017 19.9577V14.6804C183.017 12.6853 184.798 4.63354 193.108 4.63354C201.418 4.63354 203.2 12.6853 203.2 14.6804V19.9577Z" fill="#55E5A0"/>
</g>
<g style="mix-blend-mode:soft-light">
<path d="M207.222 20.0957V20.322L207.448 20.3385C210.015 20.5255 211.584 20.9249 212.519 21.7135C213.435 22.4861 213.791 23.6791 213.791 25.6179C213.791 26.4928 213.82 27.468 213.851 28.5198C213.934 31.3187 214.032 34.6594 213.647 38.0926C213.118 42.8062 211.679 47.6407 208.057 51.3807C204.497 55.0508 200.846 56.7179 198.047 57.4559L198.047 57.456L197.83 57.5137C197.829 57.5138 197.829 57.5138 197.829 57.5139C197.444 57.6145 197.075 57.6934 196.728 57.7594L196.728 57.7594L196.724 57.7603C195.541 58.0066 194.33 58.0905 193.124 58.0096L193.103 58.0081L193.081 58.0105L193.081 58.0106L193.08 58.0106L193.077 58.0109L193.062 58.0124C193.054 58.0132 193.043 58.0142 193.029 58.0154C193.021 58.0161 193.011 58.0169 193 58.0178C192.945 58.0221 192.861 58.0277 192.751 58.0322C192.531 58.0412 192.207 58.0461 191.794 58.0286C190.967 57.9938 189.787 57.8701 188.379 57.5138C185.564 56.8014 181.836 55.1586 178.203 51.4292L178.201 51.4269L178.155 51.3811C178.155 51.3806 178.154 51.38 178.154 51.3795C178.084 51.3076 178.041 51.2605 177.98 51.1937C177.937 51.1471 177.886 51.091 177.811 51.0102L177.633 51.176L177.811 51.0102C177.635 50.8215 177.465 50.6293 177.304 50.4335L177.303 50.432C174.488 47.0641 173.212 42.9634 172.668 38.8968L172.668 38.8958C172.155 35.1901 172.266 31.5438 172.359 28.5272C172.391 27.4723 172.421 26.4944 172.421 25.6179H172.421L172.421 25.6137C172.409 24.9329 172.474 24.253 172.615 23.587C172.872 22.4994 173.402 21.7768 174.348 21.2785C175.314 20.769 176.727 20.4873 178.764 20.3385L178.989 20.322V20.0957V14.6804C178.989 9.1561 183.485 0.980205 193.108 0.980205C202.731 0.980205 207.222 9.15598 207.222 14.6804V20.0957ZM194.936 46.0267L194.937 46.014V46.0011V38.7694C195.379 38.5705 195.784 38.2953 196.131 37.9558C196.488 37.62 196.772 37.2152 196.967 36.766C197.163 36.3161 197.264 35.8311 197.266 35.3405V35.3397V34.0304C197.266 31.9152 195.376 30.2243 193.099 30.2243C190.958 30.2243 189.16 31.7204 188.956 33.6755C188.939 33.7994 188.931 33.9246 188.932 34.0498L188.932 35.3575L188.932 35.3625C188.948 36.1272 189.194 36.8694 189.638 37.4923C190.049 38.0687 190.611 38.5182 191.262 38.7918V46.0011V46.014L191.263 46.0267C191.311 46.4803 191.525 46.9 191.864 47.2051C192.203 47.5102 192.643 47.679 193.099 47.679C193.555 47.679 193.995 47.5102 194.334 47.2051C194.673 46.9 194.888 46.4803 194.936 46.0267ZM203.197 20.201L203.443 20.2035V19.9577V14.6804C203.443 13.6392 202.986 11.0804 201.474 8.77529C199.952 6.45613 197.358 4.39015 193.108 4.39015C188.858 4.39015 186.264 6.45613 184.743 8.77529C183.231 11.0804 182.773 13.6392 182.773 14.6804V19.9577V20.2047L183.02 20.201C184.752 20.1752 186.747 20.1827 189.038 20.1913C190.303 20.196 191.657 20.2011 193.108 20.2011C194.558 20.2011 195.915 20.1977 197.181 20.1945C199.477 20.1888 201.476 20.1838 203.197 20.201Z" fill="#55E5A0"/>
<path d="M207.222 20.0957V20.322L207.448 20.3385C210.015 20.5255 211.584 20.9249 212.519 21.7135C213.435 22.4861 213.791 23.6791 213.791 25.6179C213.791 26.4928 213.82 27.468 213.851 28.5198C213.934 31.3187 214.032 34.6594 213.647 38.0926C213.118 42.8062 211.679 47.6407 208.057 51.3807C204.497 55.0508 200.846 56.7179 198.047 57.4559L198.047 57.456L197.83 57.5137C197.829 57.5138 197.829 57.5138 197.829 57.5139C197.444 57.6145 197.075 57.6934 196.728 57.7594L196.728 57.7594L196.724 57.7603C195.541 58.0066 194.33 58.0905 193.124 58.0096L193.103 58.0081L193.081 58.0105L193.081 58.0106L193.08 58.0106L193.077 58.0109L193.062 58.0124C193.054 58.0132 193.043 58.0142 193.029 58.0154C193.021 58.0161 193.011 58.0169 193 58.0178C192.945 58.0221 192.861 58.0277 192.751 58.0322C192.531 58.0412 192.207 58.0461 191.794 58.0286C190.967 57.9938 189.787 57.8701 188.379 57.5138C185.564 56.8014 181.836 55.1586 178.203 51.4292L178.201 51.4269L178.155 51.3811C178.155 51.3806 178.154 51.38 178.154 51.3795C178.084 51.3076 178.041 51.2605 177.98 51.1937C177.937 51.1471 177.886 51.091 177.811 51.0102L177.633 51.176L177.811 51.0102C177.635 50.8215 177.465 50.6293 177.304 50.4335L177.303 50.432C174.488 47.0641 173.212 42.9634 172.668 38.8968L172.668 38.8958C172.155 35.1901 172.266 31.5438 172.359 28.5272C172.391 27.4723 172.421 26.4944 172.421 25.6179H172.421L172.421 25.6137C172.409 24.9329 172.474 24.253 172.615 23.587C172.872 22.4994 173.402 21.7768 174.348 21.2785C175.314 20.769 176.727 20.4873 178.764 20.3385L178.989 20.322V20.0957V14.6804C178.989 9.1561 183.485 0.980205 193.108 0.980205C202.731 0.980205 207.222 9.15598 207.222 14.6804V20.0957ZM194.936 46.0267L194.937 46.014V46.0011V38.7694C195.379 38.5705 195.784 38.2953 196.131 37.9558C196.488 37.62 196.772 37.2152 196.967 36.766C197.163 36.3161 197.264 35.8311 197.266 35.3405V35.3397V34.0304C197.266 31.9152 195.376 30.2243 193.099 30.2243C190.958 30.2243 189.16 31.7204 188.956 33.6755C188.939 33.7994 188.931 33.9246 188.932 34.0498L188.932 35.3575L188.932 35.3625C188.948 36.1272 189.194 36.8694 189.638 37.4923C190.049 38.0687 190.611 38.5182 191.262 38.7918V46.0011V46.014L191.263 46.0267C191.311 46.4803 191.525 46.9 191.864 47.2051C192.203 47.5102 192.643 47.679 193.099 47.679C193.555 47.679 193.995 47.5102 194.334 47.2051C194.673 46.9 194.888 46.4803 194.936 46.0267ZM203.197 20.201L203.443 20.2035V19.9577V14.6804C203.443 13.6392 202.986 11.0804 201.474 8.77529C199.952 6.45613 197.358 4.39015 193.108 4.39015C188.858 4.39015 186.264 6.45613 184.743 8.77529C183.231 11.0804 182.773 13.6392 182.773 14.6804V19.9577V20.2047L183.02 20.201C184.752 20.1752 186.747 20.1827 189.038 20.1913C190.303 20.196 191.657 20.2011 193.108 20.2011C194.558 20.2011 195.915 20.1977 197.181 20.1945C199.477 20.1888 201.476 20.1838 203.197 20.201Z" stroke="#402EA1" stroke-width="0.486777"/>
</g>
<path d="M206.93 20.0957V20.5936L207.427 20.6298C209.993 20.8167 211.474 21.2146 212.331 21.9368C213.145 22.6238 213.499 23.704 213.499 25.6179C213.499 26.5068 213.528 27.4911 213.559 28.5489C213.642 31.3429 213.74 34.6491 213.357 38.06C212.831 42.7411 211.406 47.5023 207.848 51.1772C204.328 54.8054 200.725 56.4476 197.973 57.1735L197.972 57.1737L197.756 57.2311C197.755 57.2312 197.755 57.2312 197.755 57.2313C197.378 57.3298 197.016 57.4074 196.673 57.4725L196.673 57.4724L196.664 57.4743C195.507 57.7152 194.323 57.7973 193.144 57.7182L193.096 57.7149L193.049 57.7203L193.049 57.7203L193.048 57.7203L193.048 57.7204L193.047 57.7205L193.034 57.7217C193.023 57.7228 193.004 57.7246 192.978 57.7266C192.925 57.7307 192.845 57.736 192.739 57.7404C192.527 57.7491 192.21 57.7539 191.806 57.7368C190.997 57.7028 189.837 57.5814 188.45 57.2306C185.682 56.5299 182.003 54.9117 178.413 51.2254L178.413 51.2254L178.408 51.2204L178.362 51.1748C178.296 51.1062 178.256 51.0631 178.198 50.9998C178.156 50.9536 178.104 50.8967 178.025 50.8113L177.633 51.176L178.025 50.8113C177.852 50.6259 177.686 50.4383 177.53 50.248L177.527 50.2447C174.76 46.9341 173.497 42.8932 172.957 38.8581L172.957 38.8558C172.448 35.1768 172.558 31.5697 172.65 28.5576C172.683 27.4962 172.713 26.5087 172.713 25.6179H172.713L172.713 25.6086C172.701 24.9511 172.764 24.2943 172.9 23.6509C173.14 22.6397 173.621 21.9918 174.484 21.5369C175.394 21.0572 176.755 20.7781 178.785 20.6298L179.281 20.5935V20.0957V14.6804C179.281 9.27116 183.689 1.27227 193.108 1.27227C202.527 1.27227 206.93 9.27091 206.93 14.6804V20.0957ZM195.226 46.0575L195.229 46.0294V46.0011V38.9538C195.635 38.75 196.007 38.4847 196.333 38.1666C196.718 37.804 197.025 37.3671 197.235 36.8824C197.446 36.396 197.556 35.8718 197.558 35.3416V35.3397V34.0304C197.558 31.7283 195.51 29.9322 193.099 29.9322C190.831 29.9322 188.891 31.519 188.667 33.6398C188.647 33.7763 188.639 33.914 188.64 34.0518V35.3575H188.64L188.64 35.3686C188.658 36.192 188.922 36.9911 189.4 37.6618C189.804 38.229 190.345 38.682 190.969 38.9807V46.0011V46.0294L190.972 46.0575C191.028 46.5828 191.276 47.0689 191.669 47.4222C192.061 47.7755 192.571 47.971 193.099 47.971C193.627 47.971 194.137 47.7755 194.53 47.4222C194.922 47.0689 195.17 46.5828 195.226 46.0575ZM203.194 20.4931L203.735 20.4985V19.9577V14.6804C203.735 13.5869 203.264 10.9715 201.718 8.61509C200.152 6.22773 197.472 4.09808 193.108 4.09808C188.744 4.09808 186.065 6.22773 184.498 8.61509C182.953 10.9715 182.481 13.5869 182.481 14.6804V19.9577V20.5012L183.025 20.4931C184.754 20.4673 186.744 20.4747 189.033 20.4833C190.298 20.488 191.654 20.4931 193.108 20.4931C194.56 20.4931 195.918 20.4897 197.185 20.4866C199.479 20.4809 201.475 20.4759 203.194 20.4931Z" fill="#402EA1" stroke="url(#paint0_linear_1498_67049)" stroke-width="1.07091"/>
<path d="M26.6148 161.385C26.6148 161.385 15.0384 174.811 0.887746 175.39C0.887746 175.39 -0.909421 212.803 26.6148 219.74C26.6148 219.74 52.8437 215.405 52.3418 175.39C52.3418 175.39 39.6645 176.2 26.6148 161.385Z" fill="white"/>
<path d="M52.5035 175.665V175.207L52.0461 175.236C52.0177 175.236 48.8727 175.41 44.1936 173.795C39.8788 172.301 33.3337 168.938 26.6752 161.376L26.3433 161L26.3231 161.024L26.1288 161.251L26.0155 161.38C25.9952 161.401 25.6835 161.761 25.1088 162.352C22.1378 165.424 12.1562 174.762 0.600086 175.236H0.195319V175.64C0.0711909 182.304 0.933227 188.949 2.75345 195.361C4.5061 201.351 7.07637 206.423 10.3914 210.434C14.4495 215.404 20.017 218.915 26.2502 220.436L26.3393 220.46H26.4283C26.7036 220.416 33.192 219.283 39.7088 213.175C42.3669 210.654 44.6124 207.731 46.3631 204.513C46.4387 204.378 46.5115 204.243 46.5817 204.108C46.7315 203.841 46.8731 203.569 47.0108 203.298C47.6098 202.127 48.159 200.913 48.6582 199.655C51.3256 192.916 52.6168 184.849 52.5035 175.665ZM45.5536 204.112C45.4807 204.249 45.4038 204.379 45.331 204.517C43.6716 207.474 41.5771 210.164 39.1178 212.499C33.192 218.072 27.1286 219.42 26.3393 219.578C12.4072 216.016 6.29112 204.33 3.57918 195.142C1.82241 188.945 0.963655 182.527 1.02914 176.086C8.28663 175.681 14.8115 171.909 19.0373 168.8C21.1855 167.217 23.2148 165.478 25.1088 163.599C25.5338 163.194 25.8778 162.817 26.1288 162.542C26.2057 162.465 26.2664 162.396 26.3231 162.336H26.3433C33.0341 169.804 39.6035 173.155 43.9629 174.653C46.432 175.55 49.0278 176.05 51.6535 176.134C51.7466 188.346 49.2775 197.097 46.0272 203.314C45.8612 203.573 45.7155 203.849 45.5536 204.112Z" fill="#402EA1"/>
<path d="M10.8447 192.564L14.5686 188.84L21.2715 195.482L38.0937 178.66L41.8176 182.384L21.2715 202.805L10.8447 192.564Z" fill="#402EA1"/>
<rect x="167.002" y="154" width="79.6582" height="30.5184" rx="6.20713" fill="#402EA1"/>
<path d="M179.442 172.379C178.908 172.379 178.438 172.294 178.032 172.124C177.628 171.954 177.312 171.701 177.082 171.364C176.855 171.024 176.742 170.603 176.742 170.099C176.742 170.046 176.742 169.998 176.742 169.954C176.742 169.908 176.742 169.858 176.742 169.804H178.297C178.297 169.854 178.297 169.899 178.297 169.939C178.297 169.976 178.297 170.019 178.297 170.069C178.297 170.413 178.393 170.676 178.587 170.859C178.78 171.043 179.067 171.134 179.447 171.134C179.83 171.134 180.125 171.074 180.332 170.954C180.538 170.831 180.642 170.629 180.642 170.349C180.642 170.153 180.563 169.979 180.407 169.829C180.253 169.679 180.043 169.546 179.777 169.429C179.513 169.309 179.212 169.198 178.872 169.094C178.502 168.978 178.158 168.824 177.842 168.634C177.525 168.444 177.27 168.203 177.077 167.909C176.887 167.616 176.792 167.254 176.792 166.824C176.792 166.391 176.907 166.023 177.137 165.719C177.367 165.413 177.68 165.179 178.077 165.019C178.473 164.856 178.922 164.774 179.422 164.774C179.945 164.774 180.407 164.856 180.807 165.019C181.21 165.179 181.525 165.421 181.752 165.744C181.982 166.064 182.097 166.464 182.097 166.944C182.097 166.998 182.097 167.048 182.097 167.094C182.097 167.138 182.097 167.188 182.097 167.244H180.547C180.547 167.208 180.547 167.169 180.547 167.129C180.547 167.089 180.547 167.051 180.547 167.014C180.547 166.691 180.457 166.443 180.277 166.269C180.1 166.096 179.822 166.009 179.442 166.009C179.075 166.009 178.79 166.076 178.587 166.209C178.387 166.343 178.287 166.548 178.287 166.824C178.287 167.024 178.358 167.194 178.502 167.334C178.648 167.474 178.848 167.599 179.102 167.709C179.355 167.819 179.643 167.929 179.967 168.039C180.407 168.193 180.79 168.363 181.117 168.549C181.447 168.733 181.702 168.964 181.882 169.244C182.062 169.521 182.152 169.874 182.152 170.304C182.152 170.744 182.038 171.119 181.812 171.429C181.585 171.739 181.267 171.976 180.857 172.139C180.45 172.299 179.978 172.379 179.442 172.379ZM189.502 169.594C189.502 170.528 189.255 171.226 188.762 171.689C188.269 172.149 187.594 172.379 186.737 172.379C185.877 172.379 185.2 172.149 184.707 171.689C184.217 171.226 183.972 170.528 183.972 169.594C183.972 169.468 183.972 169.333 183.972 169.189C183.972 169.046 183.972 168.896 183.972 168.739V164.884H185.527V168.959C185.527 169.086 185.527 169.204 185.527 169.314C185.527 169.424 185.527 169.526 185.527 169.619C185.527 170.139 185.622 170.523 185.812 170.769C186.002 171.013 186.31 171.134 186.737 171.134C187.16 171.134 187.469 171.013 187.662 170.769C187.855 170.523 187.952 170.139 187.952 169.619V164.884H189.502V169.594ZM194.445 164.884C194.961 164.884 195.385 164.956 195.715 165.099C196.048 165.243 196.295 165.449 196.455 165.719C196.615 165.986 196.695 166.301 196.695 166.664C196.695 167.028 196.623 167.338 196.48 167.594C196.336 167.848 196.155 168.044 195.935 168.184C195.715 168.321 195.491 168.398 195.265 168.414C195.501 168.421 195.745 168.483 195.995 168.599C196.245 168.713 196.455 168.898 196.625 169.154C196.795 169.408 196.88 169.746 196.88 170.169C196.88 170.569 196.798 170.928 196.635 171.244C196.475 171.558 196.216 171.806 195.86 171.989C195.503 172.169 195.026 172.259 194.43 172.259H191.53V164.884H194.445ZM193.015 168.299L192.5 167.864H193.97C194.363 167.864 194.658 167.781 194.855 167.614C195.051 167.444 195.15 167.216 195.15 166.929C195.15 166.736 195.108 166.578 195.025 166.454C194.941 166.328 194.818 166.234 194.655 166.174C194.491 166.114 194.29 166.084 194.05 166.084H192.315L193.015 165.344V168.299ZM194.13 171.054C194.51 171.054 194.798 170.968 194.995 170.794C195.195 170.618 195.295 170.379 195.295 170.079C195.295 169.909 195.265 169.761 195.205 169.634C195.148 169.508 195.066 169.403 194.96 169.319C194.853 169.233 194.723 169.168 194.57 169.124C194.42 169.078 194.253 169.054 194.07 169.054H192.5L193.015 168.624V171.794L192.315 171.054H194.13ZM201.236 172.379C200.703 172.379 200.233 172.294 199.826 172.124C199.423 171.954 199.106 171.701 198.876 171.364C198.649 171.024 198.536 170.603 198.536 170.099C198.536 170.046 198.536 169.998 198.536 169.954C198.536 169.908 198.536 169.858 198.536 169.804H200.091C200.091 169.854 200.091 169.899 200.091 169.939C200.091 169.976 200.091 170.019 200.091 170.069C200.091 170.413 200.188 170.676 200.381 170.859C200.574 171.043 200.861 171.134 201.241 171.134C201.624 171.134 201.919 171.074 202.126 170.954C202.333 170.831 202.436 170.629 202.436 170.349C202.436 170.153 202.358 169.979 202.201 169.829C202.048 169.679 201.838 169.546 201.571 169.429C201.308 169.309 201.006 169.198 200.666 169.094C200.296 168.978 199.953 168.824 199.636 168.634C199.319 168.444 199.064 168.203 198.871 167.909C198.681 167.616 198.586 167.254 198.586 166.824C198.586 166.391 198.701 166.023 198.931 165.719C199.161 165.413 199.474 165.179 199.871 165.019C200.268 164.856 200.716 164.774 201.216 164.774C201.739 164.774 202.201 164.856 202.601 165.019C203.004 165.179 203.319 165.421 203.546 165.744C203.776 166.064 203.891 166.464 203.891 166.944C203.891 166.998 203.891 167.048 203.891 167.094C203.891 167.138 203.891 167.188 203.891 167.244H202.341C202.341 167.208 202.341 167.169 202.341 167.129C202.341 167.089 202.341 167.051 202.341 167.014C202.341 166.691 202.251 166.443 202.071 166.269C201.894 166.096 201.616 166.009 201.236 166.009C200.869 166.009 200.584 166.076 200.381 166.209C200.181 166.343 200.081 166.548 200.081 166.824C200.081 167.024 200.153 167.194 200.296 167.334C200.443 167.474 200.643 167.599 200.896 167.709C201.149 167.819 201.438 167.929 201.761 168.039C202.201 168.193 202.584 168.363 202.911 168.549C203.241 168.733 203.496 168.964 203.676 169.244C203.856 169.521 203.946 169.874 203.946 170.304C203.946 170.744 203.833 171.119 203.606 171.429C203.379 171.739 203.061 171.976 202.651 172.139C202.244 172.299 201.773 172.379 201.236 172.379ZM211.802 169.564C211.802 169.884 211.74 170.209 211.617 170.539C211.497 170.869 211.313 171.173 211.067 171.449C210.823 171.726 210.513 171.951 210.137 172.124C209.763 172.294 209.32 172.379 208.807 172.379C208.123 172.379 207.54 172.218 207.057 171.894C206.573 171.568 206.203 171.118 205.947 170.544C205.693 169.971 205.567 169.313 205.567 168.569C205.567 167.826 205.693 167.169 205.947 166.599C206.203 166.029 206.573 165.583 207.057 165.259C207.54 164.936 208.123 164.774 208.807 164.774C209.377 164.774 209.862 164.878 210.262 165.084C210.665 165.291 210.987 165.559 211.227 165.889C211.47 166.219 211.635 166.568 211.722 166.934C211.775 167.158 211.802 167.373 211.802 167.579H210.247C210.247 167.479 210.238 167.383 210.222 167.289C210.188 167.046 210.112 166.829 209.992 166.639C209.872 166.449 209.712 166.299 209.512 166.189C209.315 166.076 209.08 166.019 208.807 166.019C208.487 166.019 208.202 166.111 207.952 166.294C207.702 166.478 207.505 166.758 207.362 167.134C207.218 167.511 207.147 167.989 207.147 168.569C207.147 169.153 207.218 169.634 207.362 170.014C207.505 170.391 207.702 170.673 207.952 170.859C208.202 171.043 208.487 171.134 208.807 171.134C209.037 171.134 209.24 171.093 209.417 171.009C209.597 170.926 209.747 170.811 209.867 170.664C209.99 170.518 210.083 170.349 210.147 170.159C210.213 169.969 210.247 169.771 210.247 169.564H211.802ZM213.617 172.259V164.884H216.607C217.381 164.884 217.957 165.061 218.337 165.414C218.721 165.764 218.912 166.269 218.912 166.929C218.912 167.309 218.839 167.634 218.692 167.904C218.549 168.171 218.371 168.378 218.157 168.524C217.947 168.671 217.744 168.753 217.547 168.769C217.751 168.783 217.942 168.834 218.122 168.924C218.306 169.011 218.456 169.149 218.572 169.339C218.689 169.529 218.747 169.784 218.747 170.104C218.747 170.341 218.747 170.574 218.747 170.804C218.747 171.034 218.747 171.269 218.747 171.509C218.747 171.673 218.759 171.824 218.782 171.964C218.809 172.101 218.847 172.199 218.897 172.259H217.342C217.299 172.193 217.264 172.093 217.237 171.959C217.211 171.823 217.197 171.673 217.197 171.509C217.197 171.296 217.197 171.093 217.197 170.899C217.197 170.703 217.197 170.498 217.197 170.284C217.197 169.994 217.122 169.771 216.972 169.614C216.822 169.454 216.582 169.374 216.252 169.374H214.722L215.137 168.879V172.259H213.617ZM215.137 168.739L214.722 168.174H216.272C216.472 168.174 216.651 168.129 216.807 168.039C216.964 167.949 217.087 167.821 217.177 167.654C217.271 167.488 217.317 167.293 217.317 167.069C217.317 166.756 217.222 166.513 217.032 166.339C216.846 166.166 216.582 166.079 216.242 166.079H214.687L215.137 165.574V168.739ZM220.794 172.259V164.884H222.324V172.259H220.794ZM227.263 164.884C227.78 164.884 228.203 164.956 228.533 165.099C228.867 165.243 229.113 165.449 229.273 165.719C229.433 165.986 229.513 166.301 229.513 166.664C229.513 167.028 229.442 167.338 229.298 167.594C229.155 167.848 228.973 168.044 228.753 168.184C228.533 168.321 228.31 168.398 228.083 168.414C228.32 168.421 228.563 168.483 228.813 168.599C229.063 168.713 229.273 168.898 229.443 169.154C229.613 169.408 229.698 169.746 229.698 170.169C229.698 170.569 229.617 170.928 229.453 171.244C229.293 171.558 229.035 171.806 228.678 171.989C228.322 172.169 227.845 172.259 227.248 172.259H224.348V164.884H227.263ZM225.833 168.299L225.318 167.864H226.788C227.182 167.864 227.477 167.781 227.673 167.614C227.87 167.444 227.968 167.216 227.968 166.929C227.968 166.736 227.927 166.578 227.843 166.454C227.76 166.328 227.637 166.234 227.473 166.174C227.31 166.114 227.108 166.084 226.868 166.084H225.133L225.833 165.344V168.299ZM226.948 171.054C227.328 171.054 227.617 170.968 227.813 170.794C228.013 170.618 228.113 170.379 228.113 170.079C228.113 169.909 228.083 169.761 228.023 169.634C227.967 169.508 227.885 169.403 227.778 169.319C227.672 169.233 227.542 169.168 227.388 169.124C227.238 169.078 227.072 169.054 226.888 169.054H225.318L225.833 168.624V171.794L225.133 171.054H226.948ZM232.414 166.084L233.114 165.344V168.399L232.764 167.959H235.484V169.159H232.764L233.114 168.719V171.799L232.414 171.059H236.039V172.259H231.554V164.884H236.039V166.084H232.414Z" fill="white"/>
<path d="M108.95 140.191H67.5742L108.95 165.017V140.191Z" fill="#DBDBDB"/>
<path d="M114.305 152.604L135.929 152.395" stroke="#402EA1" stroke-width="0.973554"/>
<path d="M114.305 147.736H140.591" stroke="#402EA1" stroke-width="0.973554"/>
<path d="M114.305 157.472H132.142" stroke="#402EA1" stroke-width="0.973554"/>
<defs>
<linearGradient id="paint0_linear_1498_67049" x1="164.249" y1="-13.8759" x2="240.87" y2="10.9736" gradientUnits="userSpaceOnUse">
<stop offset="0.444565" stop-color="white"/>
<stop offset="0.72443" stop-color="#C7D5E0"/>
</linearGradient>
</defs>
</svg>
