<svg width="204" height="193" viewBox="0 0 204 193" fill="none" xmlns="http://www.w3.org/2000/svg">
<g filter="url(#filter0_d_1498_78429)">
<circle cx="108.038" cy="96.3333" r="83.3333" fill="url(#paint0_linear_1498_78429)"/>
<g filter="url(#filter1_d_1498_78429)">
<circle cx="38" cy="154.67" r="25" fill="#402EA1"/>
</g>
<path d="M46.1817 141.034H29.8181C28.3181 141.034 27.0908 142.261 27.0908 143.761V165.579C27.0908 167.079 28.3181 168.306 29.8181 168.306H46.1817C47.6817 168.306 48.909 167.079 48.909 165.579V143.761C48.909 142.261 47.6817 141.034 46.1817 141.034ZM29.8181 143.761H36.6363V154.67L33.2272 152.625L29.8181 154.67V143.761Z" fill="white"/>
<rect x="60.4668" y="63.3679" width="91.8667" height="68.7911" rx="10.7333" fill="white" stroke="#402EA1" stroke-width="2"/>
<path d="M59.4668 74.1013C59.4668 67.6211 64.72 62.3679 71.2001 62.3679H141.6C148.08 62.3679 153.333 67.6211 153.333 74.1013V80.7501H59.4668V74.1013Z" fill="#402EA1"/>
<circle cx="69.8308" cy="71.5591" r="2.93333" fill="white"/>
<circle cx="77.6531" cy="71.5591" r="2.93333" fill="white"/>
<circle cx="85.4753" cy="71.5591" r="2.93333" fill="white"/>
<rect x="111.876" y="70.1902" width="33.6356" height="3.12889" rx="1.56444" fill="white"/>
<path d="M103.88 103.676V106.889M109.755 103.57L109.62 106.889" stroke="#402EA1" stroke-width="0.384"/>
<path d="M109.589 107.042L111.467 107.706L113.087 108.342L112.273 118.99H102.012L100.673 108.339L103.942 107.041L104.391 107.208C105.299 107.545 106.259 107.718 107.227 107.718C107.774 107.718 108.314 107.604 108.814 107.384L109.589 107.042Z" stroke="#402EA1" stroke-width="0.384"/>
<path d="M104.928 115.132L105.154 112.546H108.313L108.588 115.135L106.814 117.906L104.928 115.132Z" fill="#402EA1" stroke="white" stroke-width="0.2112"/>
<path d="M105.164 112.224L104.684 109.628H108.683L108.202 112.224H105.164Z" fill="#402EA1"/>
<path d="M106.876 118.354L111.6 110.716L113.16 108.395L119.258 110.028V119.276V123.861L106.786 127.533L93.8849 123.739V116.253V109.737L100.388 108.391L106.697 118.355L106.787 118.498L106.876 118.354Z" fill="#402EA1" stroke="#402EA1" stroke-width="0.2112"/>
<path d="M101.639 94.0411L101.64 94.0525L101.64 94.0639C101.639 94.085 101.64 94.1087 101.642 94.142C101.643 94.1464 101.643 94.1511 101.643 94.156C101.645 94.1841 101.648 94.2194 101.648 94.2547L101.693 95.8816L101.693 95.8816L101.693 95.8874L101.681 99.6376L101.685 99.9309L101.685 99.9309L101.685 99.9369C101.677 100.391 101.703 100.846 101.763 101.297C101.832 101.751 102.004 102.183 102.266 102.561C102.77 103.275 103.635 103.657 104.538 103.815C104.783 103.848 106.084 103.948 107.447 103.861C108.132 103.818 108.824 103.728 109.402 103.562C109.982 103.396 110.41 103.163 110.623 102.861L111.71 100.827L111.71 100.827L111.713 100.821L111.954 100.408L111.99 100.34L112.075 100.18L112.24 100.256L112.314 100.29L112.314 100.29L112.322 100.294C112.563 100.42 112.833 100.484 113.105 100.479C113.277 100.463 113.444 100.412 113.596 100.329C113.75 100.245 113.885 100.13 113.993 99.992L113.993 99.992L113.995 99.9895C114.124 99.8292 114.22 99.6444 114.276 99.4463C114.333 99.2482 114.348 99.0407 114.323 98.8364L114.322 98.8364L114.322 98.8264C114.307 98.6307 114.254 98.4399 114.164 98.2656L114.333 98.1777L114.164 98.2656C114.083 98.1096 113.975 97.9698 113.844 97.8527L113.841 97.8525L113.794 97.8169C113.74 97.7764 113.691 97.7305 113.647 97.6799C113.605 97.6661 113.565 97.6491 113.526 97.6289L113.427 97.5776L113.422 97.4663L113.203 92.1157L101.488 92.4828C101.49 92.5266 101.494 92.5768 101.498 92.6329C101.51 92.7866 101.527 92.9705 101.547 93.1559C101.561 93.2924 101.576 93.4311 101.59 93.5585C101.613 93.772 101.633 93.9538 101.639 94.0411Z" stroke="#402EA1" stroke-width="0.384"/>
<path d="M114.94 95.2109L115.107 93.0261C115.11 92.6295 115.028 92.2368 114.867 91.8744C114.706 91.512 114.469 91.1883 114.173 90.9249C113.376 90.1813 112.346 90.0068 111.289 90.0429C111.25 89.7536 111.152 89.4755 111.001 89.2257C110.699 88.8493 110.334 88.5273 109.924 88.2734C108.848 87.5339 107.625 87.0351 106.338 86.811C104.571 86.5498 102.771 86.9782 101.31 88.0075C100.644 88.4865 100.043 89.3007 99.9132 90.1256C99.8464 90.5532 99.8673 90.99 99.9746 91.4093C100.082 91.8286 100.273 92.2217 100.537 92.5647L101.012 93.1002C101.36 93.3889 101.738 93.6376 102.141 93.8419C103.287 94.3923 104.533 94.4269 105.773 94.2815C107.168 94.0891 108.533 93.7175 109.833 93.176C109.624 93.7939 109.544 94.4483 109.599 95.0984C109.655 95.7485 109.844 96.3801 110.154 96.9537C110.584 97.7971 111.294 98.465 112.161 98.8431C112.454 98.4723 112.71 98.2192 113.207 98.1491C113.517 98.105 113.833 98.1416 114.124 98.2552C114.237 98.3237 114.358 98.3767 114.485 98.4128L114.822 96.279L114.94 95.2109Z" fill="#402EA1"/>
<path d="M106.812 118.777V127.537" stroke="white" stroke-width="0.2112"/>
<path d="M116.64 113.436V122.195" stroke="white" stroke-width="0.2112"/>
<path d="M96.1299 113.436V122.195" stroke="white" stroke-width="0.2112"/>
</g>
<defs>
<filter id="filter0_d_1498_78429" x="0.5" y="0.5" width="203.372" height="191.67" filterUnits="userSpaceOnUse" color-interpolation-filters="sRGB">
<feFlood flood-opacity="0" result="BackgroundImageFix"/>
<feColorMatrix in="SourceAlpha" type="matrix" values="0 0 0 0 0 0 0 0 0 0 0 0 0 0 0 0 0 0 127 0" result="hardAlpha"/>
<feOffset/>
<feGaussianBlur stdDeviation="6.25"/>
<feComposite in2="hardAlpha" operator="out"/>
<feColorMatrix type="matrix" values="0 0 0 0 0 0 0 0 0 0 0 0 0 0 0 0 0 0 0.1 0"/>
<feBlend mode="normal" in2="BackgroundImageFix" result="effect1_dropShadow_1498_78429"/>
<feBlend mode="normal" in="SourceGraphic" in2="effect1_dropShadow_1498_78429" result="shape"/>
</filter>
<filter id="filter1_d_1498_78429" x="9" y="129.67" width="58" height="58" filterUnits="userSpaceOnUse" color-interpolation-filters="sRGB">
<feFlood flood-opacity="0" result="BackgroundImageFix"/>
<feColorMatrix in="SourceAlpha" type="matrix" values="0 0 0 0 0 0 0 0 0 0 0 0 0 0 0 0 0 0 127 0" result="hardAlpha"/>
<feOffset dy="4"/>
<feGaussianBlur stdDeviation="2"/>
<feComposite in2="hardAlpha" operator="out"/>
<feColorMatrix type="matrix" values="0 0 0 0 0 0 0 0 0 0 0 0 0 0 0 0 0 0 0.1 0"/>
<feBlend mode="normal" in2="BackgroundImageFix" result="effect1_dropShadow_1498_78429"/>
<feBlend mode="normal" in="SourceGraphic" in2="effect1_dropShadow_1498_78429" result="shape"/>
</filter>
<linearGradient id="paint0_linear_1498_78429" x1="68.3062" y1="-59.9243" x2="288.62" y2="151.69" gradientUnits="userSpaceOnUse">
<stop offset="0.290144" stop-color="white"/>
<stop offset="0.973068" stop-color="#C7D5E0"/>
</linearGradient>
</defs>
</svg>
