<svg width="162" height="162" viewBox="0 0 162 162" fill="none" xmlns="http://www.w3.org/2000/svg">
<path d="M113.402 34H48V121.049" stroke="url(#paint0_linear_3116_24587)" stroke-width="2.14936" stroke-linecap="square"/>
<path d="M113.402 34H48V121.049" stroke="url(#paint1_radial_3116_24587)" stroke-width="2.14936" stroke-linecap="square" style="mix-blend-mode:overlay"/>
<path d="M57.5195 53.1914H75.0215" stroke="url(#paint2_linear_3116_24587)" stroke-width="0.921153" stroke-linecap="square"/>
<path d="M57.5195 53.1914H75.0215" stroke="url(#paint3_radial_3116_24587)" stroke-width="0.921153" stroke-linecap="square" style="mix-blend-mode:overlay"/>
<path d="M57.6719 57.3359H103.883" stroke="url(#paint4_linear_3116_24587)" stroke-width="0.921153" stroke-linecap="square"/>
<path d="M57.6719 57.3359H103.883" stroke="url(#paint5_radial_3116_24587)" stroke-width="0.921153" stroke-linecap="square" style="mix-blend-mode:overlay"/>
<path d="M57.5195 61.3262H103.884" stroke="url(#paint6_linear_3116_24587)" stroke-width="0.921153" stroke-linecap="square"/>
<path d="M57.5195 61.3262H103.884" stroke="url(#paint7_radial_3116_24587)" stroke-width="0.921153" stroke-linecap="square" style="mix-blend-mode:overlay"/>
<path d="M57.5195 65.4727H103.884" stroke="url(#paint8_linear_3116_24587)" stroke-width="0.921153" stroke-linecap="square"/>
<path d="M57.5195 65.4727H103.884" stroke="url(#paint9_radial_3116_24587)" stroke-width="0.921153" stroke-linecap="square" style="mix-blend-mode:overlay"/>
<path d="M88.5312 69.4629L103.884 69.4629" stroke="url(#paint10_linear_3116_24587)" stroke-width="0.921153" stroke-linecap="square"/>
<path d="M88.5312 69.4629L103.884 69.4629" stroke="url(#paint11_radial_3116_24587)" stroke-width="0.921153" stroke-linecap="square" style="mix-blend-mode:overlay"/>
<path d="M57.5195 69.4629H72.7186" stroke="url(#paint12_linear_3116_24587)" stroke-width="0.921153" stroke-linecap="square"/>
<path d="M57.5195 69.4629H72.7186" stroke="url(#paint13_radial_3116_24587)" stroke-width="0.921153" stroke-linecap="square" style="mix-blend-mode:overlay"/>
<path d="M90.9844 73.4551L103.881 73.4551" stroke="url(#paint14_linear_3116_24587)" stroke-width="0.921153" stroke-linecap="square"/>
<path d="M90.9844 73.4551L103.881 73.4551" stroke="url(#paint15_radial_3116_24587)" stroke-width="0.921153" stroke-linecap="square" style="mix-blend-mode:overlay"/>
<path d="M57.5195 73.4551H69.6481" stroke="url(#paint16_linear_3116_24587)" stroke-width="0.921153" stroke-linecap="square"/>
<path d="M57.5195 73.4551H69.6481" stroke="url(#paint17_radial_3116_24587)" stroke-width="0.921153" stroke-linecap="square" style="mix-blend-mode:overlay"/>
<path d="M92.2148 77.6016L103.883 77.6016" stroke="url(#paint18_linear_3116_24587)" stroke-width="0.921153" stroke-linecap="square"/>
<path d="M92.2148 77.6016L103.883 77.6016" stroke="url(#paint19_radial_3116_24587)" stroke-width="0.921153" stroke-linecap="square" style="mix-blend-mode:overlay"/>
<path d="M57.5195 77.6016H68.5734" stroke="url(#paint20_linear_3116_24587)" stroke-width="0.921153" stroke-linecap="square"/>
<path d="M57.5195 77.6016H68.5734" stroke="url(#paint21_radial_3116_24587)" stroke-width="0.921153" stroke-linecap="square" style="mix-blend-mode:overlay"/>
<path d="M90.9844 81.5918L103.881 81.5918" stroke="url(#paint22_linear_3116_24587)" stroke-width="0.921153" stroke-linecap="square"/>
<path d="M90.9844 81.5918L103.881 81.5918" stroke="url(#paint23_radial_3116_24587)" stroke-width="0.921153" stroke-linecap="square" style="mix-blend-mode:overlay"/>
<path d="M57.5195 81.5918H69.6481" stroke="url(#paint24_linear_3116_24587)" stroke-width="0.921153" stroke-linecap="square"/>
<path d="M57.5195 81.5918H69.6481" stroke="url(#paint25_radial_3116_24587)" stroke-width="0.921153" stroke-linecap="square" style="mix-blend-mode:overlay"/>
<path d="M88.5312 85.7383L102.195 85.7383" stroke="url(#paint26_linear_3116_24587)" stroke-width="0.921153" stroke-linecap="square"/>
<path d="M88.5312 85.7383L102.195 85.7383" stroke="url(#paint27_radial_3116_24587)" stroke-width="0.921153" stroke-linecap="square" style="mix-blend-mode:overlay"/>
<path d="M57.5195 85.7383H72.7186" stroke="url(#paint28_linear_3116_24587)" stroke-width="0.921153" stroke-linecap="square"/>
<path d="M57.5195 85.7383H72.7186" stroke="url(#paint29_radial_3116_24587)" stroke-width="0.921153" stroke-linecap="square" style="mix-blend-mode:overlay"/>
<path d="M57.5195 89.7305H102.196" stroke="url(#paint30_linear_3116_24587)" stroke-width="0.921153" stroke-linecap="square"/>
<path d="M57.5195 89.7305H102.196" stroke="url(#paint31_radial_3116_24587)" stroke-width="0.921153" stroke-linecap="square" style="mix-blend-mode:overlay"/>
<path d="M57.5195 93.873L103.27 93.873" stroke="url(#paint32_linear_3116_24587)" stroke-width="0.921153" stroke-linecap="square"/>
<path d="M57.5195 93.873L103.27 93.873" stroke="url(#paint33_radial_3116_24587)" stroke-width="0.921153" stroke-linecap="square" style="mix-blend-mode:overlay"/>
<path d="M57.5195 102.166L98.6645 102.166" stroke="url(#paint34_linear_3116_24587)" stroke-width="0.921153" stroke-linecap="square"/>
<path d="M57.5195 102.166L98.6645 102.166" stroke="url(#paint35_radial_3116_24587)" stroke-width="0.921153" stroke-linecap="square" style="mix-blend-mode:overlay"/>
<path d="M57.5195 106.309L96.8222 106.309" stroke="url(#paint36_linear_3116_24587)" stroke-width="0.921153" stroke-linecap="square"/>
<path d="M57.5195 106.309L96.8222 106.309" stroke="url(#paint37_radial_3116_24587)" stroke-width="0.921153" stroke-linecap="square" style="mix-blend-mode:overlay"/>
<path d="M96.8203 98.0195H102.194" stroke="url(#paint38_linear_3116_24587)" stroke-width="0.921153" stroke-linecap="square"/>
<path d="M96.8203 98.0195H102.194" stroke="url(#paint39_radial_3116_24587)" stroke-width="0.921153" stroke-linecap="square" style="mix-blend-mode:overlay"/>
<path d="M57.5195 98.0195L94.3658 98.0195" stroke="url(#paint40_linear_3116_24587)" stroke-width="0.921153" stroke-linecap="square"/>
<path d="M57.5195 98.0195L94.3658 98.0195" stroke="url(#paint41_radial_3116_24587)" stroke-width="0.921153" stroke-linecap="square" style="mix-blend-mode:overlay"/>
<path d="M121.078 87.8872C121.078 92.1201 117.614 95.5634 113.325 95.5634C109.037 95.5634 105.572 92.1201 105.572 87.8872C105.572 83.6543 109.037 80.211 113.325 80.211C117.614 80.211 121.078 83.6543 121.078 87.8872Z" fill="url(#paint42_linear_3116_24587)"/>
<path d="M121.078 87.8872C121.078 92.1201 117.614 95.5634 113.325 95.5634C109.037 95.5634 105.572 92.1201 105.572 87.8872C105.572 83.6543 109.037 80.211 113.325 80.211C117.614 80.211 121.078 83.6543 121.078 87.8872Z" fill="url(#paint43_radial_3116_24587)" style="mix-blend-mode:overlay"/>
<path d="M121.078 87.8872C121.078 92.1201 117.614 95.5634 113.325 95.5634C109.037 95.5634 105.572 92.1201 105.572 87.8872C105.572 83.6543 109.037 80.211 113.325 80.211C117.614 80.211 121.078 83.6543 121.078 87.8872Z" stroke="url(#paint44_linear_3116_24587)" stroke-width="1.53525"/>
<path d="M121.078 87.8872C121.078 92.1201 117.614 95.5634 113.325 95.5634C109.037 95.5634 105.572 92.1201 105.572 87.8872C105.572 83.6543 109.037 80.211 113.325 80.211C117.614 80.211 121.078 83.6543 121.078 87.8872Z" stroke="url(#paint45_radial_3116_24587)" stroke-width="1.53525" style="mix-blend-mode:overlay"/>
<path d="M99.4317 108.921C99.4317 103.409 103.9 98.9415 109.411 98.9415H117.241C122.752 98.9415 127.22 103.409 127.22 108.921V127.344H99.4317V108.921Z" fill="url(#paint46_linear_3116_24587)"/>
<path d="M99.4317 108.921C99.4317 103.409 103.9 98.9415 109.411 98.9415H117.241C122.752 98.9415 127.22 103.409 127.22 108.921V127.344H99.4317V108.921Z" fill="url(#paint47_radial_3116_24587)" style="mix-blend-mode:overlay"/>
<path d="M99.4317 108.921C99.4317 103.409 103.9 98.9415 109.411 98.9415H117.241C122.752 98.9415 127.22 103.409 127.22 108.921V127.344H99.4317V108.921Z" stroke="url(#paint48_linear_3116_24587)" stroke-width="1.53525"/>
<path d="M99.4317 108.921C99.4317 103.409 103.9 98.9415 109.411 98.9415H117.241C122.752 98.9415 127.22 103.409 127.22 108.921V127.344H99.4317V108.921Z" stroke="url(#paint49_radial_3116_24587)" stroke-width="1.53525" style="mix-blend-mode:overlay"/>
<mask id="mask0_3116_24587" style="mask-type:alpha" maskUnits="userSpaceOnUse" x="73" y="36" width="15" height="15">
<rect x="73.9453" y="36.6113" width="13.5103" height="13.5102" fill="#D9D9D9"/>
</mask>
<g mask="url(#mask0_3116_24587)">
<path d="M78.4295 47.3043V46.1218C77.9437 46.0118 77.5243 45.8009 77.1714 45.4893C76.8185 45.1776 76.5595 44.7376 76.3945 44.1693L77.412 43.7568C77.5495 44.1968 77.7535 44.5313 78.0239 44.7605C78.2943 44.9897 78.6495 45.1043 79.0895 45.1043C79.4654 45.1043 79.7839 45.0195 80.0452 44.8499C80.3064 44.6803 80.437 44.4168 80.437 44.0593C80.437 43.7384 80.3362 43.4841 80.1345 43.2961C79.9329 43.1082 79.4654 42.8951 78.732 42.6568C77.9437 42.4093 77.4029 42.1137 77.1095 41.7699C76.8162 41.4262 76.6695 41.0068 76.6695 40.5118C76.6695 39.916 76.862 39.453 77.247 39.123C77.632 38.793 78.0262 38.6051 78.4295 38.5593V37.4043H79.5295V38.5593C79.9879 38.6326 80.366 38.7999 80.6639 39.0612C80.9618 39.3224 81.1796 39.641 81.3171 40.0168L80.2995 40.4568C80.1895 40.1635 80.0337 39.9435 79.832 39.7968C79.6304 39.6501 79.3554 39.5768 79.007 39.5768C78.6037 39.5768 78.2966 39.6662 78.0858 39.8449C77.875 40.0237 77.7695 40.246 77.7695 40.5118C77.7695 40.8143 77.907 41.0526 78.182 41.2268C78.457 41.4009 78.9337 41.5843 79.612 41.7768C80.2445 41.9601 80.7235 42.2512 81.0489 42.6499C81.3743 43.0486 81.5371 43.5093 81.5371 44.0318C81.5371 44.6826 81.3446 45.1776 80.9596 45.5168C80.5745 45.8559 80.0979 46.0668 79.5295 46.1493V47.3043H78.4295Z" fill="url(#paint50_linear_3116_24587)"/>
<path d="M78.4295 47.3043V46.1218C77.9437 46.0118 77.5243 45.8009 77.1714 45.4893C76.8185 45.1776 76.5595 44.7376 76.3945 44.1693L77.412 43.7568C77.5495 44.1968 77.7535 44.5313 78.0239 44.7605C78.2943 44.9897 78.6495 45.1043 79.0895 45.1043C79.4654 45.1043 79.7839 45.0195 80.0452 44.8499C80.3064 44.6803 80.437 44.4168 80.437 44.0593C80.437 43.7384 80.3362 43.4841 80.1345 43.2961C79.9329 43.1082 79.4654 42.8951 78.732 42.6568C77.9437 42.4093 77.4029 42.1137 77.1095 41.7699C76.8162 41.4262 76.6695 41.0068 76.6695 40.5118C76.6695 39.916 76.862 39.453 77.247 39.123C77.632 38.793 78.0262 38.6051 78.4295 38.5593V37.4043H79.5295V38.5593C79.9879 38.6326 80.366 38.7999 80.6639 39.0612C80.9618 39.3224 81.1796 39.641 81.3171 40.0168L80.2995 40.4568C80.1895 40.1635 80.0337 39.9435 79.832 39.7968C79.6304 39.6501 79.3554 39.5768 79.007 39.5768C78.6037 39.5768 78.2966 39.6662 78.0858 39.8449C77.875 40.0237 77.7695 40.246 77.7695 40.5118C77.7695 40.8143 77.907 41.0526 78.182 41.2268C78.457 41.4009 78.9337 41.5843 79.612 41.7768C80.2445 41.9601 80.7235 42.2512 81.0489 42.6499C81.3743 43.0486 81.5371 43.5093 81.5371 44.0318C81.5371 44.6826 81.3446 45.1776 80.9596 45.5168C80.5745 45.8559 80.0979 46.0668 79.5295 46.1493V47.3043H78.4295Z" fill="url(#paint51_radial_3116_24587)" style="mix-blend-mode:overlay"/>
</g>
<mask id="mask1_3116_24587" style="mask-type:alpha" maskUnits="userSpaceOnUse" x="68" y="65" width="25" height="25">
<rect x="68.5703" y="65.4727" width="24.1834" height="24.1831" fill="#D9D9D9"/>
</mask>
<g mask="url(#mask1_3116_24587)">
<path d="M77.5146 79.6119L83.8117 73.3148L83.115 72.618L77.5146 78.2183L74.7088 75.4125L74.012 76.1093L77.5146 79.6119ZM78.934 84.6252C77.7088 84.6252 76.5569 84.3927 75.4782 83.9277C74.3997 83.4626 73.4614 82.8316 72.6635 82.0345C71.8656 81.2374 71.2339 80.3 70.7686 79.2223C70.3031 78.1447 70.0703 76.9933 70.0703 75.7679C70.0703 74.5427 70.3028 73.3908 70.7678 72.3121C71.2328 71.2336 71.8639 70.2954 72.661 69.4975C73.4581 68.6995 74.3956 68.0679 75.4733 67.6025C76.5508 67.137 77.7023 66.9043 78.9276 66.9043C80.1528 66.9043 81.3048 67.1368 82.3835 67.6018C83.462 68.0668 84.4002 68.6979 85.1982 69.495C85.9961 70.2921 86.6277 71.2295 87.0931 72.3072C87.5586 73.3847 87.7913 74.5362 87.7913 75.7615C87.7913 76.9867 87.5588 78.1387 87.0938 79.2173C86.6288 80.2959 85.9977 81.2341 85.2006 82.032C84.4035 82.8299 83.4661 83.4616 82.3884 83.9269C81.3109 84.3924 80.1594 84.6252 78.934 84.6252Z" fill="url(#paint52_linear_3116_24587)"/>
<path d="M77.5146 79.6119L83.8117 73.3148L83.115 72.618L77.5146 78.2183L74.7088 75.4125L74.012 76.1093L77.5146 79.6119ZM78.934 84.6252C77.7088 84.6252 76.5569 84.3927 75.4782 83.9277C74.3997 83.4626 73.4614 82.8316 72.6635 82.0345C71.8656 81.2374 71.2339 80.3 70.7686 79.2223C70.3031 78.1447 70.0703 76.9933 70.0703 75.7679C70.0703 74.5427 70.3028 73.3908 70.7678 72.3121C71.2328 71.2336 71.8639 70.2954 72.661 69.4975C73.4581 68.6995 74.3956 68.0679 75.4733 67.6025C76.5508 67.137 77.7023 66.9043 78.9276 66.9043C80.1528 66.9043 81.3048 67.1368 82.3835 67.6018C83.462 68.0668 84.4002 68.6979 85.1982 69.495C85.9961 70.2921 86.6277 71.2295 87.0931 72.3072C87.5586 73.3847 87.7913 74.5362 87.7913 75.7615C87.7913 76.9867 87.5588 78.1387 87.0938 79.2173C86.6288 80.2959 85.9977 81.2341 85.2006 82.032C84.4035 82.8299 83.4661 83.4616 82.3884 83.9269C81.3109 84.3924 80.1594 84.6252 78.934 84.6252Z" fill="url(#paint53_radial_3116_24587)" style="mix-blend-mode:overlay"/>
</g>
<path d="M113.402 34.1523V75.604" stroke="url(#paint54_linear_3116_24587)" stroke-width="2.14936" stroke-linecap="square"/>
<path d="M113.402 34.1523V75.604" stroke="url(#paint55_radial_3116_24587)" stroke-width="2.14936" stroke-linecap="square" style="mix-blend-mode:overlay"/>
<path d="M48 121.049H94.3649" stroke="url(#paint56_linear_3116_24587)" stroke-width="2.14936" stroke-linecap="square"/>
<path d="M48 121.049H94.3649" stroke="url(#paint57_radial_3116_24587)" stroke-width="2.14936" stroke-linecap="square" style="mix-blend-mode:overlay"/>
<defs>
<linearGradient id="paint0_linear_3116_24587" x1="48" y1="91.6735" x2="117.976" y2="73.4685" gradientUnits="userSpaceOnUse">
<stop offset="0.0677083" stop-color="#4D5455"/>
<stop offset="0.21875" stop-color="#9EA1A1"/>
<stop offset="0.453125" stop-color="#848B8A"/>
<stop offset="0.524381" stop-color="#535D5E"/>
<stop offset="0.796875" stop-color="#4B5355"/>
<stop offset="0.895833" stop-color="#757A7B"/>
<stop offset="1" stop-color="#4D5455"/>
</linearGradient>
<radialGradient id="paint1_radial_3116_24587" cx="0" cy="0" r="1" gradientUnits="userSpaceOnUse" gradientTransform="translate(48 26.464) rotate(66.7107) scale(75.8498 67.4458)">
<stop stop-color="white"/>
<stop offset="1" stop-color="white" stop-opacity="0"/>
</radialGradient>
<linearGradient id="paint2_linear_3116_24587" x1="57.5195" y1="53.854" x2="58.0495" y2="50.6424" gradientUnits="userSpaceOnUse">
<stop offset="0.0677083" stop-color="#4D5455"/>
<stop offset="0.21875" stop-color="#9EA1A1"/>
<stop offset="0.453125" stop-color="#848B8A"/>
<stop offset="0.524381" stop-color="#535D5E"/>
<stop offset="0.796875" stop-color="#4B5355"/>
<stop offset="0.895833" stop-color="#757A7B"/>
<stop offset="1" stop-color="#4D5455"/>
</linearGradient>
<radialGradient id="paint3_radial_3116_24587" cx="0" cy="0" r="1" gradientUnits="userSpaceOnUse" gradientTransform="translate(57.5195 53.1048) rotate(5.69526) scale(8.06504 1.95001)">
<stop stop-color="white"/>
<stop offset="1" stop-color="white" stop-opacity="0"/>
</radialGradient>
<linearGradient id="paint4_linear_3116_24587" x1="57.6719" y1="57.9985" x2="57.8772" y2="54.7123" gradientUnits="userSpaceOnUse">
<stop offset="0.0677083" stop-color="#4D5455"/>
<stop offset="0.21875" stop-color="#9EA1A1"/>
<stop offset="0.453125" stop-color="#848B8A"/>
<stop offset="0.524381" stop-color="#535D5E"/>
<stop offset="0.796875" stop-color="#4B5355"/>
<stop offset="0.895833" stop-color="#757A7B"/>
<stop offset="1" stop-color="#4D5455"/>
</linearGradient>
<radialGradient id="paint5_radial_3116_24587" cx="0" cy="0" r="1" gradientUnits="userSpaceOnUse" gradientTransform="translate(57.6719 57.2494) rotate(2.16311) scale(21.2045 1.95829)">
<stop stop-color="white"/>
<stop offset="1" stop-color="white" stop-opacity="0"/>
</radialGradient>
<linearGradient id="paint6_linear_3116_24587" x1="57.5195" y1="61.9887" x2="57.7242" y2="58.7025" gradientUnits="userSpaceOnUse">
<stop offset="0.0677083" stop-color="#4D5455"/>
<stop offset="0.21875" stop-color="#9EA1A1"/>
<stop offset="0.453125" stop-color="#848B8A"/>
<stop offset="0.524381" stop-color="#535D5E"/>
<stop offset="0.796875" stop-color="#4B5355"/>
<stop offset="0.895833" stop-color="#757A7B"/>
<stop offset="1" stop-color="#4D5455"/>
</linearGradient>
<radialGradient id="paint7_radial_3116_24587" cx="0" cy="0" r="1" gradientUnits="userSpaceOnUse" gradientTransform="translate(57.5195 61.2396) rotate(2.15596) scale(21.2749 1.9583)">
<stop stop-color="white"/>
<stop offset="1" stop-color="white" stop-opacity="0"/>
</radialGradient>
<linearGradient id="paint8_linear_3116_24587" x1="57.5195" y1="66.1352" x2="57.7242" y2="62.8489" gradientUnits="userSpaceOnUse">
<stop offset="0.0677083" stop-color="#4D5455"/>
<stop offset="0.21875" stop-color="#9EA1A1"/>
<stop offset="0.453125" stop-color="#848B8A"/>
<stop offset="0.524381" stop-color="#535D5E"/>
<stop offset="0.796875" stop-color="#4B5355"/>
<stop offset="0.895833" stop-color="#757A7B"/>
<stop offset="1" stop-color="#4D5455"/>
</linearGradient>
<radialGradient id="paint9_radial_3116_24587" cx="0" cy="0" r="1" gradientUnits="userSpaceOnUse" gradientTransform="translate(57.5195 65.3861) rotate(2.15596) scale(21.2749 1.9583)">
<stop stop-color="white"/>
<stop offset="1" stop-color="white" stop-opacity="0"/>
</radialGradient>
<linearGradient id="paint10_linear_3116_24587" x1="88.5312" y1="70.1254" x2="89.1306" y2="66.9392" gradientUnits="userSpaceOnUse">
<stop offset="0.0677083" stop-color="#4D5455"/>
<stop offset="0.21875" stop-color="#9EA1A1"/>
<stop offset="0.453125" stop-color="#848B8A"/>
<stop offset="0.524381" stop-color="#535D5E"/>
<stop offset="0.796875" stop-color="#4B5355"/>
<stop offset="0.895833" stop-color="#757A7B"/>
<stop offset="1" stop-color="#4D5455"/>
</linearGradient>
<radialGradient id="paint11_radial_3116_24587" cx="0" cy="0" r="1" gradientUnits="userSpaceOnUse" gradientTransform="translate(88.5312 69.3763) rotate(6.48622) scale(7.08502 1.94714)">
<stop stop-color="white"/>
<stop offset="1" stop-color="white" stop-opacity="0"/>
</radialGradient>
<linearGradient id="paint12_linear_3116_24587" x1="57.5195" y1="70.1254" x2="58.1245" y2="66.9414" gradientUnits="userSpaceOnUse">
<stop offset="0.0677083" stop-color="#4D5455"/>
<stop offset="0.21875" stop-color="#9EA1A1"/>
<stop offset="0.453125" stop-color="#848B8A"/>
<stop offset="0.524381" stop-color="#535D5E"/>
<stop offset="0.796875" stop-color="#4B5355"/>
<stop offset="0.895833" stop-color="#757A7B"/>
<stop offset="1" stop-color="#4D5455"/>
</linearGradient>
<radialGradient id="paint13_radial_3116_24587" cx="0" cy="0" r="1" gradientUnits="userSpaceOnUse" gradientTransform="translate(57.5195 69.3763) rotate(6.55116) scale(7.01508 1.94689)">
<stop stop-color="white"/>
<stop offset="1" stop-color="white" stop-opacity="0"/>
</radialGradient>
<linearGradient id="paint14_linear_3116_24587" x1="90.9844" y1="74.1176" x2="91.6879" y2="70.9761" gradientUnits="userSpaceOnUse">
<stop offset="0.0677083" stop-color="#4D5455"/>
<stop offset="0.21875" stop-color="#9EA1A1"/>
<stop offset="0.453125" stop-color="#848B8A"/>
<stop offset="0.524381" stop-color="#535D5E"/>
<stop offset="0.796875" stop-color="#4B5355"/>
<stop offset="0.895833" stop-color="#757A7B"/>
<stop offset="1" stop-color="#4D5455"/>
</linearGradient>
<radialGradient id="paint15_radial_3116_24587" cx="0" cy="0" r="1" gradientUnits="userSpaceOnUse" gradientTransform="translate(90.9844 73.3685) rotate(7.708) scale(5.96724 1.94198)">
<stop stop-color="white"/>
<stop offset="1" stop-color="white" stop-opacity="0"/>
</radialGradient>
<linearGradient id="paint16_linear_3116_24587" x1="57.5195" y1="74.1176" x2="58.2629" y2="70.9956" gradientUnits="userSpaceOnUse">
<stop offset="0.0677083" stop-color="#4D5455"/>
<stop offset="0.21875" stop-color="#9EA1A1"/>
<stop offset="0.453125" stop-color="#848B8A"/>
<stop offset="0.524381" stop-color="#535D5E"/>
<stop offset="0.796875" stop-color="#4B5355"/>
<stop offset="0.895833" stop-color="#757A7B"/>
<stop offset="1" stop-color="#4D5455"/>
</linearGradient>
<radialGradient id="paint17_radial_3116_24587" cx="0" cy="0" r="1" gradientUnits="userSpaceOnUse" gradientTransform="translate(57.5195 73.3685) rotate(8.18942) scale(5.61864 1.9397)">
<stop stop-color="white"/>
<stop offset="1" stop-color="white" stop-opacity="0"/>
</radialGradient>
<linearGradient id="paint18_linear_3116_24587" x1="92.2148" y1="78.2641" x2="92.9842" y2="75.1555" gradientUnits="userSpaceOnUse">
<stop offset="0.0677083" stop-color="#4D5455"/>
<stop offset="0.21875" stop-color="#9EA1A1"/>
<stop offset="0.453125" stop-color="#848B8A"/>
<stop offset="0.524381" stop-color="#535D5E"/>
<stop offset="0.796875" stop-color="#4B5355"/>
<stop offset="0.895833" stop-color="#757A7B"/>
<stop offset="1" stop-color="#4D5455"/>
</linearGradient>
<radialGradient id="paint19_radial_3116_24587" cx="0" cy="0" r="1" gradientUnits="userSpaceOnUse" gradientTransform="translate(92.2148 77.515) rotate(8.50804) scale(5.40969 1.93812)">
<stop stop-color="white"/>
<stop offset="1" stop-color="white" stop-opacity="0"/>
</radialGradient>
<linearGradient id="paint20_linear_3116_24587" x1="57.5195" y1="78.2641" x2="58.3264" y2="75.1759" gradientUnits="userSpaceOnUse">
<stop offset="0.0677083" stop-color="#4D5455"/>
<stop offset="0.21875" stop-color="#9EA1A1"/>
<stop offset="0.453125" stop-color="#848B8A"/>
<stop offset="0.524381" stop-color="#535D5E"/>
<stop offset="0.796875" stop-color="#4B5355"/>
<stop offset="0.895833" stop-color="#757A7B"/>
<stop offset="1" stop-color="#4D5455"/>
</linearGradient>
<radialGradient id="paint21_radial_3116_24587" cx="0" cy="0" r="1" gradientUnits="userSpaceOnUse" gradientTransform="translate(57.5195 77.515) rotate(8.97322) scale(5.13137 1.9357)">
<stop stop-color="white"/>
<stop offset="1" stop-color="white" stop-opacity="0"/>
</radialGradient>
<linearGradient id="paint22_linear_3116_24587" x1="90.9844" y1="82.2543" x2="91.6879" y2="79.1129" gradientUnits="userSpaceOnUse">
<stop offset="0.0677083" stop-color="#4D5455"/>
<stop offset="0.21875" stop-color="#9EA1A1"/>
<stop offset="0.453125" stop-color="#848B8A"/>
<stop offset="0.524381" stop-color="#535D5E"/>
<stop offset="0.796875" stop-color="#4B5355"/>
<stop offset="0.895833" stop-color="#757A7B"/>
<stop offset="1" stop-color="#4D5455"/>
</linearGradient>
<radialGradient id="paint23_radial_3116_24587" cx="0" cy="0" r="1" gradientUnits="userSpaceOnUse" gradientTransform="translate(90.9844 81.5052) rotate(7.70799) scale(5.96724 1.94198)">
<stop stop-color="white"/>
<stop offset="1" stop-color="white" stop-opacity="0"/>
</radialGradient>
<linearGradient id="paint24_linear_3116_24587" x1="57.5195" y1="82.2543" x2="58.2629" y2="79.1323" gradientUnits="userSpaceOnUse">
<stop offset="0.0677083" stop-color="#4D5455"/>
<stop offset="0.21875" stop-color="#9EA1A1"/>
<stop offset="0.453125" stop-color="#848B8A"/>
<stop offset="0.524381" stop-color="#535D5E"/>
<stop offset="0.796875" stop-color="#4B5355"/>
<stop offset="0.895833" stop-color="#757A7B"/>
<stop offset="1" stop-color="#4D5455"/>
</linearGradient>
<radialGradient id="paint25_radial_3116_24587" cx="0" cy="0" r="1" gradientUnits="userSpaceOnUse" gradientTransform="translate(57.5195 81.5052) rotate(8.18942) scale(5.61864 1.9397)">
<stop stop-color="white"/>
<stop offset="1" stop-color="white" stop-opacity="0"/>
</radialGradient>
<linearGradient id="paint26_linear_3116_24587" x1="88.5312" y1="86.4008" x2="89.1987" y2="83.2429" gradientUnits="userSpaceOnUse">
<stop offset="0.0677083" stop-color="#4D5455"/>
<stop offset="0.21875" stop-color="#9EA1A1"/>
<stop offset="0.453125" stop-color="#848B8A"/>
<stop offset="0.524381" stop-color="#535D5E"/>
<stop offset="0.796875" stop-color="#4B5355"/>
<stop offset="0.895833" stop-color="#757A7B"/>
<stop offset="1" stop-color="#4D5455"/>
</linearGradient>
<radialGradient id="paint27_radial_3116_24587" cx="0" cy="0" r="1" gradientUnits="userSpaceOnUse" gradientTransform="translate(88.5312 85.6517) rotate(7.27975) scale(6.31622 1.94389)">
<stop stop-color="white"/>
<stop offset="1" stop-color="white" stop-opacity="0"/>
</radialGradient>
<linearGradient id="paint28_linear_3116_24587" x1="57.5195" y1="86.4008" x2="58.1245" y2="83.2168" gradientUnits="userSpaceOnUse">
<stop offset="0.0677083" stop-color="#4D5455"/>
<stop offset="0.21875" stop-color="#9EA1A1"/>
<stop offset="0.453125" stop-color="#848B8A"/>
<stop offset="0.524381" stop-color="#535D5E"/>
<stop offset="0.796875" stop-color="#4B5355"/>
<stop offset="0.895833" stop-color="#757A7B"/>
<stop offset="1" stop-color="#4D5455"/>
</linearGradient>
<radialGradient id="paint29_radial_3116_24587" cx="0" cy="0" r="1" gradientUnits="userSpaceOnUse" gradientTransform="translate(57.5195 85.6517) rotate(6.55116) scale(7.01508 1.94689)">
<stop stop-color="white"/>
<stop offset="1" stop-color="white" stop-opacity="0"/>
</radialGradient>
<linearGradient id="paint30_linear_3116_24587" x1="57.5195" y1="90.393" x2="57.7319" y2="87.1077" gradientUnits="userSpaceOnUse">
<stop offset="0.0677083" stop-color="#4D5455"/>
<stop offset="0.21875" stop-color="#9EA1A1"/>
<stop offset="0.453125" stop-color="#848B8A"/>
<stop offset="0.524381" stop-color="#535D5E"/>
<stop offset="0.796875" stop-color="#4B5355"/>
<stop offset="0.895833" stop-color="#757A7B"/>
<stop offset="1" stop-color="#4D5455"/>
</linearGradient>
<radialGradient id="paint31_radial_3116_24587" cx="0" cy="0" r="1" gradientUnits="userSpaceOnUse" gradientTransform="translate(57.5195 89.6439) rotate(2.23737) scale(20.5011 1.95819)">
<stop stop-color="white"/>
<stop offset="1" stop-color="white" stop-opacity="0"/>
</radialGradient>
<linearGradient id="paint32_linear_3116_24587" x1="57.5195" y1="94.5356" x2="57.7269" y2="91.2497" gradientUnits="userSpaceOnUse">
<stop offset="0.0677083" stop-color="#4D5455"/>
<stop offset="0.21875" stop-color="#9EA1A1"/>
<stop offset="0.453125" stop-color="#848B8A"/>
<stop offset="0.524381" stop-color="#535D5E"/>
<stop offset="0.796875" stop-color="#4B5355"/>
<stop offset="0.895833" stop-color="#757A7B"/>
<stop offset="1" stop-color="#4D5455"/>
</linearGradient>
<radialGradient id="paint33_radial_3116_24587" cx="0" cy="0" r="1" gradientUnits="userSpaceOnUse" gradientTransform="translate(57.5195 93.7865) rotate(2.18486) scale(20.9935 1.95826)">
<stop stop-color="white"/>
<stop offset="1" stop-color="white" stop-opacity="0"/>
</radialGradient>
<linearGradient id="paint34_linear_3116_24587" x1="57.5195" y1="102.829" x2="57.75" y2="99.5457" gradientUnits="userSpaceOnUse">
<stop offset="0.0677083" stop-color="#4D5455"/>
<stop offset="0.21875" stop-color="#9EA1A1"/>
<stop offset="0.453125" stop-color="#848B8A"/>
<stop offset="0.524381" stop-color="#535D5E"/>
<stop offset="0.796875" stop-color="#4B5355"/>
<stop offset="0.895833" stop-color="#757A7B"/>
<stop offset="1" stop-color="#4D5455"/>
</linearGradient>
<radialGradient id="paint35_radial_3116_24587" cx="0" cy="0" r="1" gradientUnits="userSpaceOnUse" gradientTransform="translate(57.5195 102.079) rotate(2.42916) scale(18.8833 1.95792)">
<stop stop-color="white"/>
<stop offset="1" stop-color="white" stop-opacity="0"/>
</radialGradient>
<linearGradient id="paint36_linear_3116_24587" x1="57.5195" y1="106.971" x2="57.7606" y2="103.69" gradientUnits="userSpaceOnUse">
<stop offset="0.0677083" stop-color="#4D5455"/>
<stop offset="0.21875" stop-color="#9EA1A1"/>
<stop offset="0.453125" stop-color="#848B8A"/>
<stop offset="0.524381" stop-color="#535D5E"/>
<stop offset="0.796875" stop-color="#4B5355"/>
<stop offset="0.895833" stop-color="#757A7B"/>
<stop offset="1" stop-color="#4D5455"/>
</linearGradient>
<radialGradient id="paint37_radial_3116_24587" cx="0" cy="0" r="1" gradientUnits="userSpaceOnUse" gradientTransform="translate(57.5195 106.222) rotate(2.54288) scale(18.0393 1.95775)">
<stop stop-color="white"/>
<stop offset="1" stop-color="white" stop-opacity="0"/>
</radialGradient>
<linearGradient id="paint38_linear_3116_24587" x1="96.8203" y1="98.6821" x2="98.196" y2="96.1224" gradientUnits="userSpaceOnUse">
<stop offset="0.0677083" stop-color="#4D5455"/>
<stop offset="0.21875" stop-color="#9EA1A1"/>
<stop offset="0.453125" stop-color="#848B8A"/>
<stop offset="0.524381" stop-color="#535D5E"/>
<stop offset="0.796875" stop-color="#4B5355"/>
<stop offset="0.895833" stop-color="#757A7B"/>
<stop offset="1" stop-color="#4D5455"/>
</linearGradient>
<radialGradient id="paint39_radial_3116_24587" cx="0" cy="0" r="1" gradientUnits="userSpaceOnUse" gradientTransform="translate(96.8203 97.933) rotate(17.9955) scale(2.59062 1.86382)">
<stop stop-color="white"/>
<stop offset="1" stop-color="white" stop-opacity="0"/>
</radialGradient>
<linearGradient id="paint40_linear_3116_24587" x1="57.5195" y1="98.6821" x2="57.7765" y2="95.4032" gradientUnits="userSpaceOnUse">
<stop offset="0.0677083" stop-color="#4D5455"/>
<stop offset="0.21875" stop-color="#9EA1A1"/>
<stop offset="0.453125" stop-color="#848B8A"/>
<stop offset="0.524381" stop-color="#535D5E"/>
<stop offset="0.796875" stop-color="#4B5355"/>
<stop offset="0.895833" stop-color="#757A7B"/>
<stop offset="1" stop-color="#4D5455"/>
</linearGradient>
<radialGradient id="paint41_radial_3116_24587" cx="0" cy="0" r="1" gradientUnits="userSpaceOnUse" gradientTransform="translate(57.5195 97.933) rotate(2.71217) scale(16.9142 1.95749)">
<stop stop-color="white"/>
<stop offset="1" stop-color="white" stop-opacity="0"/>
</radialGradient>
<linearGradient id="paint42_linear_3116_24587" x1="104.805" y1="90.6322" x2="122.154" y2="84.5701" gradientUnits="userSpaceOnUse">
<stop offset="0.0677083" stop-color="#4D5455"/>
<stop offset="0.21875" stop-color="#9EA1A1"/>
<stop offset="0.453125" stop-color="#848B8A"/>
<stop offset="0.524381" stop-color="#535D5E"/>
<stop offset="0.796875" stop-color="#4B5355"/>
<stop offset="0.895833" stop-color="#757A7B"/>
<stop offset="1" stop-color="#4D5455"/>
</linearGradient>
<radialGradient id="paint43_radial_3116_24587" cx="0" cy="0" r="1" gradientUnits="userSpaceOnUse" gradientTransform="translate(104.805 77.9813) rotate(59.9667) scale(15.6123 16.564)">
<stop stop-color="white"/>
<stop offset="1" stop-color="white" stop-opacity="0"/>
</radialGradient>
<linearGradient id="paint44_linear_3116_24587" x1="104.805" y1="90.6322" x2="122.154" y2="84.5701" gradientUnits="userSpaceOnUse">
<stop offset="0.0677083" stop-color="#4D5455"/>
<stop offset="0.21875" stop-color="#9EA1A1"/>
<stop offset="0.453125" stop-color="#848B8A"/>
<stop offset="0.524381" stop-color="#535D5E"/>
<stop offset="0.796875" stop-color="#4B5355"/>
<stop offset="0.895833" stop-color="#757A7B"/>
<stop offset="1" stop-color="#4D5455"/>
</linearGradient>
<radialGradient id="paint45_radial_3116_24587" cx="0" cy="0" r="1" gradientUnits="userSpaceOnUse" gradientTransform="translate(104.805 77.9813) rotate(59.9667) scale(15.6123 16.564)">
<stop stop-color="white"/>
<stop offset="1" stop-color="white" stop-opacity="0"/>
</radialGradient>
<linearGradient id="paint46_linear_3116_24587" x1="98.6641" y1="118.009" x2="128.706" y2="107.819" gradientUnits="userSpaceOnUse">
<stop offset="0.0677083" stop-color="#4D5455"/>
<stop offset="0.21875" stop-color="#9EA1A1"/>
<stop offset="0.453125" stop-color="#848B8A"/>
<stop offset="0.524381" stop-color="#535D5E"/>
<stop offset="0.796875" stop-color="#4B5355"/>
<stop offset="0.895833" stop-color="#757A7B"/>
<stop offset="1" stop-color="#4D5455"/>
</linearGradient>
<radialGradient id="paint47_radial_3116_24587" cx="0" cy="0" r="1" gradientUnits="userSpaceOnUse" gradientTransform="translate(98.6641 95.5821) rotate(60.7003) scale(27.4753 28.7106)">
<stop stop-color="white"/>
<stop offset="1" stop-color="white" stop-opacity="0"/>
</radialGradient>
<linearGradient id="paint48_linear_3116_24587" x1="98.6641" y1="118.009" x2="128.706" y2="107.819" gradientUnits="userSpaceOnUse">
<stop offset="0.0677083" stop-color="#4D5455"/>
<stop offset="0.21875" stop-color="#9EA1A1"/>
<stop offset="0.453125" stop-color="#848B8A"/>
<stop offset="0.524381" stop-color="#535D5E"/>
<stop offset="0.796875" stop-color="#4B5355"/>
<stop offset="0.895833" stop-color="#757A7B"/>
<stop offset="1" stop-color="#4D5455"/>
</linearGradient>
<radialGradient id="paint49_radial_3116_24587" cx="0" cy="0" r="1" gradientUnits="userSpaceOnUse" gradientTransform="translate(98.6641 95.5821) rotate(60.7003) scale(27.4753 28.7106)">
<stop stop-color="white"/>
<stop offset="1" stop-color="white" stop-opacity="0"/>
</radialGradient>
<linearGradient id="paint50_linear_3116_24587" x1="76.3945" y1="43.9635" x2="82.085" y2="42.9399" gradientUnits="userSpaceOnUse">
<stop offset="0.0677083" stop-color="#4D5455"/>
<stop offset="0.21875" stop-color="#9EA1A1"/>
<stop offset="0.453125" stop-color="#848B8A"/>
<stop offset="0.524381" stop-color="#535D5E"/>
<stop offset="0.796875" stop-color="#4B5355"/>
<stop offset="0.895833" stop-color="#757A7B"/>
<stop offset="1" stop-color="#4D5455"/>
</linearGradient>
<radialGradient id="paint51_radial_3116_24587" cx="0" cy="0" r="1" gradientUnits="userSpaceOnUse" gradientTransform="translate(76.3945 36.5472) rotate(73.427) scale(8.26689 5.5338)">
<stop stop-color="white"/>
<stop offset="1" stop-color="white" stop-opacity="0"/>
</radialGradient>
<linearGradient id="paint52_linear_3116_24587" x1="70.0703" y1="78.6452" x2="88.1465" y2="72.3859" gradientUnits="userSpaceOnUse">
<stop offset="0.0677083" stop-color="#4D5455"/>
<stop offset="0.21875" stop-color="#9EA1A1"/>
<stop offset="0.453125" stop-color="#848B8A"/>
<stop offset="0.524381" stop-color="#535D5E"/>
<stop offset="0.796875" stop-color="#4B5355"/>
<stop offset="0.895833" stop-color="#757A7B"/>
<stop offset="1" stop-color="#4D5455"/>
</linearGradient>
<radialGradient id="paint53_radial_3116_24587" cx="0" cy="0" r="1" gradientUnits="userSpaceOnUse" gradientTransform="translate(70.0703 65.3702) rotate(60.1908) scale(16.3457 17.2634)">
<stop stop-color="white"/>
<stop offset="1" stop-color="white" stop-opacity="0"/>
</radialGradient>
<linearGradient id="paint54_linear_3116_24587" x1="113.402" y1="61.6159" x2="114.545" y2="61.6064" gradientUnits="userSpaceOnUse">
<stop offset="0.0677083" stop-color="#4D5455"/>
<stop offset="0.21875" stop-color="#9EA1A1"/>
<stop offset="0.453125" stop-color="#848B8A"/>
<stop offset="0.524381" stop-color="#535D5E"/>
<stop offset="0.796875" stop-color="#4B5355"/>
<stop offset="0.895833" stop-color="#757A7B"/>
<stop offset="1" stop-color="#4D5455"/>
</linearGradient>
<radialGradient id="paint55_radial_3116_24587" cx="0" cy="0" r="1" gradientUnits="userSpaceOnUse" gradientTransform="translate(113.402 30.5638) rotate(89.2082) scale(33.1792 1.12262)">
<stop stop-color="white"/>
<stop offset="1" stop-color="white" stop-opacity="0"/>
</radialGradient>
<linearGradient id="paint56_linear_3116_24587" x1="48" y1="121.711" x2="48.2047" y2="118.425" gradientUnits="userSpaceOnUse">
<stop offset="0.0677083" stop-color="#4D5455"/>
<stop offset="0.21875" stop-color="#9EA1A1"/>
<stop offset="0.453125" stop-color="#848B8A"/>
<stop offset="0.524381" stop-color="#535D5E"/>
<stop offset="0.796875" stop-color="#4B5355"/>
<stop offset="0.895833" stop-color="#757A7B"/>
<stop offset="1" stop-color="#4D5455"/>
</linearGradient>
<radialGradient id="paint57_radial_3116_24587" cx="0" cy="0" r="1" gradientUnits="userSpaceOnUse" gradientTransform="translate(48 120.962) rotate(2.15596) scale(21.2749 1.9583)">
<stop stop-color="white"/>
<stop offset="1" stop-color="white" stop-opacity="0"/>
</radialGradient>
</defs>
</svg>
