<svg width="162" height="162" viewBox="0 0 162 162" fill="none" xmlns="http://www.w3.org/2000/svg">
<path d="M111.412 97.1502C111.152 92.9414 115.111 90.85 117.123 90.3303V88.0571C117.145 87.256 117.941 85.459 119.914 85.7188C121.887 85.9786 122.207 87.4725 122.25 88.0571V90.3303C124.262 90.6659 128.286 92.4998 128.286 97.1502V102.216V103.71L133.089 111.245H106.934L111.412 103.71V97.1502Z" fill="url(#paint0_linear_3116_24670)"/>
<path d="M111.412 97.1502C111.152 92.9414 115.111 90.85 117.123 90.3303V88.0571C117.145 87.256 117.941 85.459 119.914 85.7188C121.887 85.9786 122.207 87.4725 122.25 88.0571V90.3303C124.262 90.6659 128.286 92.4998 128.286 97.1502V102.216V103.71L133.089 111.245H106.934L111.412 103.71V97.1502Z" fill="url(#paint1_radial_3116_24670)" style="mix-blend-mode:overlay"/>
<path d="M111.412 97.1502C111.152 92.9414 115.111 90.85 117.123 90.3303V88.0571C117.145 87.256 117.941 85.459 119.914 85.7188C121.887 85.9786 122.207 87.4725 122.25 88.0571V90.3303C124.262 90.6659 128.286 92.4998 128.286 97.1502V102.216V103.71L133.089 111.245H106.934L111.412 103.71V97.1502Z" stroke="url(#paint2_linear_3116_24670)" stroke-width="1.21661" stroke-linecap="square"/>
<path d="M111.412 97.1502C111.152 92.9414 115.111 90.85 117.123 90.3303V88.0571C117.145 87.256 117.941 85.459 119.914 85.7188C121.887 85.9786 122.207 87.4725 122.25 88.0571V90.3303C124.262 90.6659 128.286 92.4998 128.286 97.1502V102.216V103.71L133.089 111.245H106.934L111.412 103.71V97.1502Z" stroke="url(#paint3_radial_3116_24670)" stroke-width="1.21661" stroke-linecap="square" style="mix-blend-mode:overlay"/>
<mask id="path-2-inside-1_3116_24670" fill="white">
<path d="M125.147 110.814C125.147 112.531 124.61 114.178 123.655 115.392C122.7 116.606 121.405 117.288 120.054 117.288C118.703 117.288 117.408 116.606 116.453 115.392C115.498 114.178 114.961 112.531 114.961 110.814L120.054 110.814H125.147Z"/>
</mask>
<path d="M125.147 110.814C125.147 112.531 124.61 114.178 123.655 115.392C122.7 116.606 121.405 117.288 120.054 117.288C118.703 117.288 117.408 116.606 116.453 115.392C115.498 114.178 114.961 112.531 114.961 110.814L120.054 110.814H125.147Z" fill="url(#paint4_linear_3116_24670)"/>
<path d="M125.147 110.814C125.147 112.531 124.61 114.178 123.655 115.392C122.7 116.606 121.405 117.288 120.054 117.288C118.703 117.288 117.408 116.606 116.453 115.392C115.498 114.178 114.961 112.531 114.961 110.814L120.054 110.814H125.147Z" fill="url(#paint5_radial_3116_24670)" style="mix-blend-mode:overlay"/>
<path d="M125.147 110.814C125.147 112.531 124.61 114.178 123.655 115.392C122.7 116.606 121.405 117.288 120.054 117.288C118.703 117.288 117.408 116.606 116.453 115.392C115.498 114.178 114.961 112.531 114.961 110.814L120.054 110.814H125.147Z" stroke="url(#paint6_linear_3116_24670)" stroke-width="2.43323" mask="url(#path-2-inside-1_3116_24670)"/>
<path d="M125.147 110.814C125.147 112.531 124.61 114.178 123.655 115.392C122.7 116.606 121.405 117.288 120.054 117.288C118.703 117.288 117.408 116.606 116.453 115.392C115.498 114.178 114.961 112.531 114.961 110.814L120.054 110.814H125.147Z" stroke="url(#paint7_radial_3116_24670)" stroke-width="2.43323" style="mix-blend-mode:overlay" mask="url(#path-2-inside-1_3116_24670)"/>
<mask id="mask0_3116_24670" style="mask-type:alpha" maskUnits="userSpaceOnUse" x="27" y="44" width="39" height="39">
<rect x="27" y="44" width="38.5857" height="38.5858" fill="#D9D9D9"/>
</mask>
<g mask="url(#mask0_3116_24670)">
<path d="M47.1761 69.8292C48.8547 69.8292 50.279 69.2417 51.4491 68.0667C52.6191 66.8916 53.2042 65.4648 53.2042 63.7863C53.2042 62.1077 52.6167 60.6834 51.4416 59.5133C50.2666 58.3433 48.8398 57.7582 47.1613 57.7582C45.4827 57.7582 44.0584 58.3458 42.8883 59.5208C41.7183 60.6958 41.1332 62.1226 41.1332 63.8012C41.1332 65.4797 41.7208 66.904 42.8958 68.0741C44.0708 69.2442 45.4976 69.8292 47.1761 69.8292ZM47.1687 68.2537C45.9298 68.2537 44.8768 67.8201 44.0095 66.9529C43.1423 66.0857 42.7087 65.0326 42.7087 63.7937C42.7087 62.5548 43.1423 61.5018 44.0095 60.6345C44.8768 59.7673 45.9298 59.3337 47.1687 59.3337C48.4076 59.3337 49.4607 59.7673 50.3279 60.6345C51.1951 61.5018 51.6287 62.5548 51.6287 63.7937C51.6287 65.0326 51.1951 66.0857 50.3279 66.9529C49.4607 67.8201 48.4076 68.2537 47.1687 68.2537ZM47.1733 74.5308C43.5953 74.5308 40.3346 73.5572 37.391 71.6099C34.4474 69.6626 32.2428 67.0572 30.7773 63.7937C32.2428 60.5302 34.4458 57.9248 37.3864 55.9775C40.327 54.0303 43.5862 53.0566 47.1642 53.0566C50.7421 53.0566 54.0028 54.0303 56.9465 55.9775C59.8901 57.9248 62.0946 60.5302 63.5601 63.7937C62.0946 67.0572 59.8916 69.6626 56.951 71.6099C54.0104 73.5572 50.7512 74.5308 47.1733 74.5308Z" fill="url(#paint8_linear_3116_24670)"/>
<path d="M47.1761 69.8292C48.8547 69.8292 50.279 69.2417 51.4491 68.0667C52.6191 66.8916 53.2042 65.4648 53.2042 63.7863C53.2042 62.1077 52.6167 60.6834 51.4416 59.5133C50.2666 58.3433 48.8398 57.7582 47.1613 57.7582C45.4827 57.7582 44.0584 58.3458 42.8883 59.5208C41.7183 60.6958 41.1332 62.1226 41.1332 63.8012C41.1332 65.4797 41.7208 66.904 42.8958 68.0741C44.0708 69.2442 45.4976 69.8292 47.1761 69.8292ZM47.1687 68.2537C45.9298 68.2537 44.8768 67.8201 44.0095 66.9529C43.1423 66.0857 42.7087 65.0326 42.7087 63.7937C42.7087 62.5548 43.1423 61.5018 44.0095 60.6345C44.8768 59.7673 45.9298 59.3337 47.1687 59.3337C48.4076 59.3337 49.4607 59.7673 50.3279 60.6345C51.1951 61.5018 51.6287 62.5548 51.6287 63.7937C51.6287 65.0326 51.1951 66.0857 50.3279 66.9529C49.4607 67.8201 48.4076 68.2537 47.1687 68.2537ZM47.1733 74.5308C43.5953 74.5308 40.3346 73.5572 37.391 71.6099C34.4474 69.6626 32.2428 67.0572 30.7773 63.7937C32.2428 60.5302 34.4458 57.9248 37.3864 55.9775C40.327 54.0303 43.5862 53.0566 47.1642 53.0566C50.7421 53.0566 54.0028 54.0303 56.9465 55.9775C59.8901 57.9248 62.0946 60.5302 63.5601 63.7937C62.0946 67.0572 59.8916 69.6626 56.951 71.6099C54.0104 73.5572 50.7512 74.5308 47.1733 74.5308Z" fill="url(#paint9_radial_3116_24670)" style="mix-blend-mode:overlay"/>
</g>
<path d="M64.6367 61.8691H119.969V83.4496" stroke="url(#paint10_linear_3116_24670)" stroke-width="1.70326" stroke-linecap="square"/>
<path d="M64.6367 61.8691H119.969V83.4496" stroke="url(#paint11_radial_3116_24670)" stroke-width="1.70326" stroke-linecap="square" style="mix-blend-mode:overlay"/>
<path d="M43.75 75.3359V107.879H105.47" stroke="url(#paint12_linear_3116_24670)" stroke-width="1.70326" stroke-linecap="square"/>
<path d="M43.75 75.3359V107.879H105.47" stroke="url(#paint13_radial_3116_24670)" stroke-width="1.70326" stroke-linecap="square" style="mix-blend-mode:overlay"/>
<path d="M56.9531 98.339L69.1245 80.7294L80.7779 91.3038L93.4672 74.3848L105.509 86.0382" stroke="url(#paint14_linear_3116_24670)" stroke-width="1.21661" stroke-linecap="square"/>
<path d="M56.9531 98.339L69.1245 80.7294L80.7779 91.3038L93.4672 74.3848L105.509 86.0382" stroke="url(#paint15_radial_3116_24670)" stroke-width="1.21661" stroke-linecap="square" style="mix-blend-mode:overlay"/>
<ellipse cx="56.6523" cy="98.4277" rx="2.63281" ry="2.63281" fill="url(#paint16_linear_3116_24670)"/>
<ellipse cx="56.6523" cy="98.4277" rx="2.63281" ry="2.63281" fill="url(#paint17_radial_3116_24670)" style="mix-blend-mode:overlay"/>
<ellipse cx="68.8242" cy="80.8164" rx="2.63281" ry="2.63281" fill="url(#paint18_linear_3116_24670)"/>
<ellipse cx="68.8242" cy="80.8164" rx="2.63281" ry="2.63281" fill="url(#paint19_radial_3116_24670)" style="mix-blend-mode:overlay"/>
<ellipse cx="80.9922" cy="91.3477" rx="2.63281" ry="2.63281" fill="url(#paint20_linear_3116_24670)"/>
<ellipse cx="80.9922" cy="91.3477" rx="2.63281" ry="2.63281" fill="url(#paint21_radial_3116_24670)" style="mix-blend-mode:overlay"/>
<ellipse cx="93.1641" cy="74.7734" rx="2.63281" ry="2.63281" fill="url(#paint22_linear_3116_24670)"/>
<ellipse cx="93.1641" cy="74.7734" rx="2.63281" ry="2.63281" fill="url(#paint23_radial_3116_24670)" style="mix-blend-mode:overlay"/>
<ellipse cx="105.336" cy="86.082" rx="2.63281" ry="2.63281" fill="url(#paint24_linear_3116_24670)"/>
<ellipse cx="105.336" cy="86.082" rx="2.63281" ry="2.63281" fill="url(#paint25_radial_3116_24670)" style="mix-blend-mode:overlay"/>
<defs>
<linearGradient id="paint0_linear_3116_24670" x1="106.934" y1="102.622" x2="133.477" y2="93.2136" gradientUnits="userSpaceOnUse">
<stop offset="0.0677083" stop-color="#4D5455"/>
<stop offset="0.21875" stop-color="#9EA1A1"/>
<stop offset="0.453125" stop-color="#848B8A"/>
<stop offset="0.524381" stop-color="#535D5E"/>
<stop offset="0.796875" stop-color="#4B5355"/>
<stop offset="0.895833" stop-color="#757A7B"/>
<stop offset="1" stop-color="#4D5455"/>
</linearGradient>
<radialGradient id="paint1_radial_3116_24670" cx="0" cy="0" r="1" gradientUnits="userSpaceOnUse" gradientTransform="translate(106.934 83.4813) rotate(59.61) scale(23.7073 25.3307)">
<stop stop-color="white"/>
<stop offset="1" stop-color="white" stop-opacity="0"/>
</radialGradient>
<linearGradient id="paint2_linear_3116_24670" x1="106.934" y1="102.622" x2="133.477" y2="93.2136" gradientUnits="userSpaceOnUse">
<stop offset="0.0677083" stop-color="#4D5455"/>
<stop offset="0.21875" stop-color="#9EA1A1"/>
<stop offset="0.453125" stop-color="#848B8A"/>
<stop offset="0.524381" stop-color="#535D5E"/>
<stop offset="0.796875" stop-color="#4B5355"/>
<stop offset="0.895833" stop-color="#757A7B"/>
<stop offset="1" stop-color="#4D5455"/>
</linearGradient>
<radialGradient id="paint3_radial_3116_24670" cx="0" cy="0" r="1" gradientUnits="userSpaceOnUse" gradientTransform="translate(106.934 83.4813) rotate(59.61) scale(23.7073 25.3307)">
<stop stop-color="white"/>
<stop offset="1" stop-color="white" stop-opacity="0"/>
</radialGradient>
<linearGradient id="paint4_linear_3116_24670" x1="114.961" y1="112.919" x2="125.793" y2="109.968" gradientUnits="userSpaceOnUse">
<stop offset="0.0677083" stop-color="#4D5455"/>
<stop offset="0.21875" stop-color="#9EA1A1"/>
<stop offset="0.453125" stop-color="#848B8A"/>
<stop offset="0.524381" stop-color="#535D5E"/>
<stop offset="0.796875" stop-color="#4B5355"/>
<stop offset="0.895833" stop-color="#757A7B"/>
<stop offset="1" stop-color="#4D5455"/>
</linearGradient>
<radialGradient id="paint5_radial_3116_24670" cx="0" cy="0" r="1" gradientUnits="userSpaceOnUse" gradientTransform="translate(114.961 103.219) rotate(65.7393) scale(11.367 10.4261)">
<stop stop-color="white"/>
<stop offset="1" stop-color="white" stop-opacity="0"/>
</radialGradient>
<linearGradient id="paint6_linear_3116_24670" x1="114.961" y1="112.919" x2="125.793" y2="109.968" gradientUnits="userSpaceOnUse">
<stop offset="0.0677083" stop-color="#4D5455"/>
<stop offset="0.21875" stop-color="#9EA1A1"/>
<stop offset="0.453125" stop-color="#848B8A"/>
<stop offset="0.524381" stop-color="#535D5E"/>
<stop offset="0.796875" stop-color="#4B5355"/>
<stop offset="0.895833" stop-color="#757A7B"/>
<stop offset="1" stop-color="#4D5455"/>
</linearGradient>
<radialGradient id="paint7_radial_3116_24670" cx="0" cy="0" r="1" gradientUnits="userSpaceOnUse" gradientTransform="translate(114.961 103.219) rotate(65.7393) scale(11.367 10.4261)">
<stop stop-color="white"/>
<stop offset="1" stop-color="white" stop-opacity="0"/>
</radialGradient>
<linearGradient id="paint8_linear_3116_24670" x1="30.7773" y1="67.2842" x2="60.0474" y2="51.8115" gradientUnits="userSpaceOnUse">
<stop offset="0.0677083" stop-color="#4D5455"/>
<stop offset="0.21875" stop-color="#9EA1A1"/>
<stop offset="0.453125" stop-color="#848B8A"/>
<stop offset="0.524381" stop-color="#535D5E"/>
<stop offset="0.796875" stop-color="#4B5355"/>
<stop offset="0.895833" stop-color="#757A7B"/>
<stop offset="1" stop-color="#4D5455"/>
</linearGradient>
<radialGradient id="paint9_radial_3116_24670" cx="0" cy="0" r="1" gradientUnits="userSpaceOnUse" gradientTransform="translate(30.7773 51.1976) rotate(48.8265) scale(22.8331 27.7047)">
<stop stop-color="white"/>
<stop offset="1" stop-color="white" stop-opacity="0"/>
</radialGradient>
<linearGradient id="paint10_linear_3116_24670" x1="64.6367" y1="76.1671" x2="99.9833" y2="44.7853" gradientUnits="userSpaceOnUse">
<stop offset="0.0677083" stop-color="#4D5455"/>
<stop offset="0.21875" stop-color="#9EA1A1"/>
<stop offset="0.453125" stop-color="#848B8A"/>
<stop offset="0.524381" stop-color="#535D5E"/>
<stop offset="0.796875" stop-color="#4B5355"/>
<stop offset="0.895833" stop-color="#757A7B"/>
<stop offset="1" stop-color="#4D5455"/>
</linearGradient>
<radialGradient id="paint11_radial_3116_24670" cx="0" cy="0" r="1" gradientUnits="userSpaceOnUse" gradientTransform="translate(64.6367 60.0009) rotate(34.2455) scale(30.6926 34.959)">
<stop stop-color="white"/>
<stop offset="1" stop-color="white" stop-opacity="0"/>
</radialGradient>
<linearGradient id="paint12_linear_3116_24670" x1="43.75" y1="96.8973" x2="93.0106" y2="64.5471" gradientUnits="userSpaceOnUse">
<stop offset="0.0677083" stop-color="#4D5455"/>
<stop offset="0.21875" stop-color="#9EA1A1"/>
<stop offset="0.453125" stop-color="#848B8A"/>
<stop offset="0.524381" stop-color="#535D5E"/>
<stop offset="0.796875" stop-color="#4B5355"/>
<stop offset="0.895833" stop-color="#757A7B"/>
<stop offset="1" stop-color="#4D5455"/>
</linearGradient>
<radialGradient id="paint13_radial_3116_24670" cx="0" cy="0" r="1" gradientUnits="userSpaceOnUse" gradientTransform="translate(43.75 72.5186) rotate(42.6245) scale(38.462 46.9258)">
<stop stop-color="white"/>
<stop offset="1" stop-color="white" stop-opacity="0"/>
</radialGradient>
<linearGradient id="paint14_linear_3116_24670" x1="56.9531" y1="90.2555" x2="94.1134" y2="64.1729" gradientUnits="userSpaceOnUse">
<stop offset="0.0677083" stop-color="#4D5455"/>
<stop offset="0.21875" stop-color="#9EA1A1"/>
<stop offset="0.453125" stop-color="#848B8A"/>
<stop offset="0.524381" stop-color="#535D5E"/>
<stop offset="0.796875" stop-color="#4B5355"/>
<stop offset="0.895833" stop-color="#757A7B"/>
<stop offset="1" stop-color="#4D5455"/>
</linearGradient>
<radialGradient id="paint15_radial_3116_24670" cx="0" cy="0" r="1" gradientUnits="userSpaceOnUse" gradientTransform="translate(56.9531 72.311) rotate(40.7317) scale(29.3814 35.572)">
<stop stop-color="white"/>
<stop offset="1" stop-color="white" stop-opacity="0"/>
</radialGradient>
<linearGradient id="paint16_linear_3116_24670" x1="54.0195" y1="99.2836" x2="59.3907" y2="97.4238" gradientUnits="userSpaceOnUse">
<stop offset="0.0677083" stop-color="#4D5455"/>
<stop offset="0.21875" stop-color="#9EA1A1"/>
<stop offset="0.453125" stop-color="#848B8A"/>
<stop offset="0.524381" stop-color="#535D5E"/>
<stop offset="0.796875" stop-color="#4B5355"/>
<stop offset="0.895833" stop-color="#757A7B"/>
<stop offset="1" stop-color="#4D5455"/>
</linearGradient>
<radialGradient id="paint17_radial_3116_24670" cx="0" cy="0" r="1" gradientUnits="userSpaceOnUse" gradientTransform="translate(54.0195 95.3391) rotate(60.1911) scale(4.857 5.12965)">
<stop stop-color="white"/>
<stop offset="1" stop-color="white" stop-opacity="0"/>
</radialGradient>
<linearGradient id="paint18_linear_3116_24670" x1="66.1914" y1="81.6723" x2="71.5626" y2="79.8124" gradientUnits="userSpaceOnUse">
<stop offset="0.0677083" stop-color="#4D5455"/>
<stop offset="0.21875" stop-color="#9EA1A1"/>
<stop offset="0.453125" stop-color="#848B8A"/>
<stop offset="0.524381" stop-color="#535D5E"/>
<stop offset="0.796875" stop-color="#4B5355"/>
<stop offset="0.895833" stop-color="#757A7B"/>
<stop offset="1" stop-color="#4D5455"/>
</linearGradient>
<radialGradient id="paint19_radial_3116_24670" cx="0" cy="0" r="1" gradientUnits="userSpaceOnUse" gradientTransform="translate(66.1914 77.7277) rotate(60.1911) scale(4.857 5.12965)">
<stop stop-color="white"/>
<stop offset="1" stop-color="white" stop-opacity="0"/>
</radialGradient>
<linearGradient id="paint20_linear_3116_24670" x1="78.3594" y1="92.2036" x2="83.7305" y2="90.3437" gradientUnits="userSpaceOnUse">
<stop offset="0.0677083" stop-color="#4D5455"/>
<stop offset="0.21875" stop-color="#9EA1A1"/>
<stop offset="0.453125" stop-color="#848B8A"/>
<stop offset="0.524381" stop-color="#535D5E"/>
<stop offset="0.796875" stop-color="#4B5355"/>
<stop offset="0.895833" stop-color="#757A7B"/>
<stop offset="1" stop-color="#4D5455"/>
</linearGradient>
<radialGradient id="paint21_radial_3116_24670" cx="0" cy="0" r="1" gradientUnits="userSpaceOnUse" gradientTransform="translate(78.3594 88.259) rotate(60.1911) scale(4.857 5.12965)">
<stop stop-color="white"/>
<stop offset="1" stop-color="white" stop-opacity="0"/>
</radialGradient>
<linearGradient id="paint22_linear_3116_24670" x1="90.5312" y1="75.6293" x2="95.9024" y2="73.7695" gradientUnits="userSpaceOnUse">
<stop offset="0.0677083" stop-color="#4D5455"/>
<stop offset="0.21875" stop-color="#9EA1A1"/>
<stop offset="0.453125" stop-color="#848B8A"/>
<stop offset="0.524381" stop-color="#535D5E"/>
<stop offset="0.796875" stop-color="#4B5355"/>
<stop offset="0.895833" stop-color="#757A7B"/>
<stop offset="1" stop-color="#4D5455"/>
</linearGradient>
<radialGradient id="paint23_radial_3116_24670" cx="0" cy="0" r="1" gradientUnits="userSpaceOnUse" gradientTransform="translate(90.5312 71.6848) rotate(60.1911) scale(4.857 5.12965)">
<stop stop-color="white"/>
<stop offset="1" stop-color="white" stop-opacity="0"/>
</radialGradient>
<linearGradient id="paint24_linear_3116_24670" x1="102.703" y1="86.9379" x2="108.074" y2="85.0781" gradientUnits="userSpaceOnUse">
<stop offset="0.0677083" stop-color="#4D5455"/>
<stop offset="0.21875" stop-color="#9EA1A1"/>
<stop offset="0.453125" stop-color="#848B8A"/>
<stop offset="0.524381" stop-color="#535D5E"/>
<stop offset="0.796875" stop-color="#4B5355"/>
<stop offset="0.895833" stop-color="#757A7B"/>
<stop offset="1" stop-color="#4D5455"/>
</linearGradient>
<radialGradient id="paint25_radial_3116_24670" cx="0" cy="0" r="1" gradientUnits="userSpaceOnUse" gradientTransform="translate(102.703 82.9934) rotate(60.1911) scale(4.857 5.12965)">
<stop stop-color="white"/>
<stop offset="1" stop-color="white" stop-opacity="0"/>
</radialGradient>
</defs>
</svg>
