<svg width="204" height="193" viewBox="0 0 204 193" fill="none" xmlns="http://www.w3.org/2000/svg">
<g filter="url(#filter0_d_1498_75785)">
<circle cx="108.038" cy="96.3333" r="83.3333" fill="url(#paint0_linear_1498_75785)"/>
<g filter="url(#filter1_d_1498_75785)">
<circle cx="38" cy="154.67" r="25" fill="#402EA1"/>
</g>
<path d="M27.395 169.866C26.4217 169.866 25.6328 169.077 25.6328 168.104V145.679H31.6794V144.816C31.6794 143.136 32.2673 141.709 33.4433 140.533C34.6192 139.357 36.0467 138.769 37.7259 138.769C39.4052 138.769 40.8327 139.357 42.0086 140.533C43.1846 141.709 43.7725 143.136 43.7725 144.816V145.679H49.8191V168.104C49.8191 169.077 49.0301 169.866 48.0569 169.866H27.395ZM33.407 145.679H42.0449V144.816C42.0449 143.599 41.6292 142.576 40.7976 141.744C39.9661 140.912 38.9422 140.497 37.7259 140.497C36.5097 140.497 35.4858 140.912 34.6543 141.744C33.8227 142.576 33.407 143.599 33.407 144.816V145.679ZM31.6794 152.59H33.407V147.407H31.6794V152.59ZM42.0449 152.59H43.7725V147.407H42.0449V152.59Z" fill="white"/>
<rect x="60" y="63.6702" width="92.145" height="69" rx="10.7681" fill="white"/>
<rect x="60" y="63.6702" width="92.145" height="69" rx="10.7681" stroke="#402EA1" stroke-width="2"/>
<path d="M102.321 99.4993C102.063 98.8755 101.995 98.189 102.127 97.5268C102.259 96.8645 102.584 96.2562 103.061 95.7788C103.093 95.7497 103.118 95.7146 103.135 95.6757C103.152 95.6367 103.162 95.5946 103.162 95.552C103.163 95.5093 103.155 95.4669 103.139 95.4273C103.123 95.3878 103.1 95.3518 103.069 95.3217C103.039 95.2915 103.003 95.2677 102.964 95.2517C102.924 95.2358 102.882 95.2279 102.839 95.2287C102.796 95.2294 102.754 95.2387 102.715 95.2561C102.676 95.2735 102.641 95.2985 102.612 95.3297C102.236 95.7057 101.938 96.1521 101.734 96.6433C101.531 97.1346 101.426 97.6612 101.426 98.193C101.426 98.7248 101.531 99.2514 101.734 99.7426C101.938 100.234 102.236 100.68 102.612 101.056C102.642 101.087 102.677 101.111 102.715 101.127C102.754 101.144 102.796 101.153 102.838 101.153C102.88 101.153 102.922 101.145 102.961 101.129C103 101.113 103.036 101.09 103.065 101.06C103.095 101.03 103.119 100.995 103.135 100.956C103.151 100.917 103.159 100.875 103.158 100.832C103.158 100.79 103.149 100.749 103.133 100.71C103.116 100.671 103.092 100.636 103.061 100.607C102.744 100.29 102.493 99.9135 102.321 99.4993Z" fill="#402EA1"/>
<path d="M103.266 98.1928C103.266 98.5014 103.327 98.8069 103.445 99.0919C103.564 99.3768 103.737 99.6355 103.956 99.8531C104.016 99.9125 104.05 99.9933 104.05 100.078C104.05 100.162 104.017 100.243 103.957 100.303C103.898 100.362 103.817 100.396 103.733 100.396C103.649 100.397 103.568 100.363 103.508 100.304C103.23 100.027 103.009 99.6982 102.858 99.336C102.707 98.9737 102.63 98.5852 102.63 98.1928C102.63 97.8004 102.707 97.4119 102.858 97.0496C103.009 96.6873 103.23 96.3584 103.508 96.0817C103.568 96.0223 103.649 95.989 103.733 95.9893C103.817 95.9895 103.898 96.0232 103.957 96.083C104.017 96.1428 104.05 96.2237 104.05 96.308C104.05 96.3923 104.016 96.473 103.956 96.5325C103.737 96.7501 103.564 97.0088 103.445 97.2937C103.327 97.5786 103.266 97.8842 103.266 98.1928Z" fill="#402EA1"/>
<path d="M104.511 98.608C104.425 98.4043 104.402 98.1794 104.446 97.9627C104.49 97.746 104.598 97.5476 104.756 97.3933C104.817 97.3345 104.851 97.2541 104.852 97.1698C104.854 97.0855 104.821 97.0042 104.762 96.9439C104.703 96.8835 104.623 96.8489 104.539 96.8478C104.454 96.8467 104.373 96.8791 104.313 96.9379C104.147 97.0995 104.015 97.2927 103.925 97.5062C103.835 97.7196 103.788 97.9489 103.788 98.1805C103.788 98.4121 103.835 98.6414 103.925 98.8548C104.015 99.0682 104.147 99.2615 104.313 99.4231C104.373 99.4819 104.454 99.5144 104.539 99.5134C104.623 99.5124 104.703 99.4779 104.762 99.4176C104.821 99.3572 104.854 99.276 104.853 99.1917C104.852 99.1074 104.817 99.0269 104.757 98.9681C104.652 98.8655 104.567 98.7431 104.511 98.608Z" fill="#402EA1"/>
<path d="M109.287 97.5672C109.419 98.2295 109.351 98.916 109.092 99.5398C108.921 99.954 108.669 100.33 108.352 100.647C108.322 100.677 108.298 100.712 108.281 100.75C108.264 100.789 108.256 100.831 108.255 100.873C108.255 100.915 108.263 100.957 108.279 100.996C108.295 101.035 108.318 101.071 108.348 101.1C108.378 101.13 108.413 101.154 108.452 101.17C108.491 101.186 108.533 101.194 108.576 101.194C108.618 101.193 108.659 101.184 108.698 101.168C108.737 101.151 108.772 101.127 108.801 101.097C109.177 100.721 109.476 100.274 109.679 99.7831C109.883 99.2918 109.988 98.7652 109.988 98.2335C109.988 97.7017 109.883 97.1751 109.679 96.6838C109.476 96.1925 109.177 95.7462 108.801 95.3702C108.772 95.339 108.737 95.3139 108.698 95.2966C108.659 95.2792 108.617 95.2699 108.574 95.2691C108.532 95.2684 108.489 95.2762 108.45 95.2922C108.41 95.3082 108.374 95.332 108.344 95.3621C108.314 95.3923 108.29 95.4282 108.274 95.4678C108.258 95.5074 108.25 95.5498 108.251 95.5924C108.252 95.6351 108.261 95.6772 108.279 95.7161C108.296 95.7551 108.321 95.7902 108.352 95.8193C108.83 96.2966 109.155 96.905 109.287 97.5672Z" fill="#402EA1"/>
<path d="M107.969 99.1323C108.087 98.8474 108.148 98.5418 108.148 98.2332C108.148 97.9246 108.087 97.6191 107.969 97.3342C107.85 97.0492 107.676 96.7905 107.458 96.573C107.398 96.5135 107.364 96.4328 107.364 96.3485C107.364 96.2642 107.397 96.1832 107.456 96.1235C107.516 96.0637 107.596 96.03 107.681 96.0297C107.765 96.0295 107.846 96.0627 107.906 96.1222C108.184 96.3988 108.405 96.7278 108.555 97.0901C108.706 97.4524 108.784 97.8409 108.784 98.2332C108.784 98.6256 108.706 99.0141 108.555 99.3764C108.405 99.7387 108.184 100.068 107.906 100.344C107.846 100.404 107.765 100.437 107.681 100.437C107.596 100.437 107.516 100.403 107.456 100.343C107.397 100.283 107.364 100.202 107.364 100.118C107.364 100.034 107.398 99.953 107.458 99.8935C107.676 99.676 107.85 99.4173 107.969 99.1323Z" fill="#402EA1"/>
<path d="M106.968 98.0032C107.011 98.2199 106.989 98.4447 106.903 98.6484C106.846 98.7836 106.762 98.906 106.657 99.0085C106.596 99.0674 106.562 99.1478 106.561 99.2321C106.56 99.3164 106.592 99.3977 106.651 99.458C106.71 99.5184 106.791 99.5528 106.875 99.5539C106.959 99.5549 107.04 99.5224 107.101 99.4635C107.267 99.3019 107.399 99.1087 107.489 98.8953C107.579 98.6819 107.625 98.4526 107.625 98.221C107.625 97.9893 107.579 97.76 107.489 97.5466C107.399 97.3332 107.267 97.14 107.101 96.9784C107.04 96.9196 106.959 96.8871 106.875 96.8883C106.791 96.8894 106.71 96.9239 106.651 96.9843C106.592 97.0447 106.56 97.126 106.561 97.2103C106.562 97.2946 106.597 97.375 106.657 97.4338C106.816 97.5881 106.924 97.7865 106.968 98.0032Z" fill="#402EA1"/>
<path d="M105.09 97.4756C105.09 97.3402 105.2 97.2304 105.335 97.2304H106.07C106.206 97.2304 106.316 97.3402 106.316 97.4756V98.7014C106.316 98.8368 106.206 98.9466 106.07 98.9466H105.335C105.2 98.9466 105.09 98.8368 105.09 98.7014V97.4756Z" fill="#402EA1"/>
<path fill-rule="evenodd" clip-rule="evenodd" d="M83.7737 76.8409C83.2321 76.8409 82.7931 77.28 82.7931 77.8216V119.5C82.7931 120.042 83.2321 120.481 83.7737 120.481H104.392C104.506 119.921 105.001 119.5 105.594 119.5C106.271 119.5 106.82 120.049 106.82 120.726C106.82 121.403 106.271 121.952 105.594 121.952C105.001 121.952 104.506 121.531 104.392 120.971H83.7737C82.9613 120.971 82.3027 120.313 82.3027 119.5V77.8216C82.3027 77.0092 82.9613 76.3506 83.7737 76.3506H128.517C129.33 76.3506 129.988 77.0092 129.988 77.8216V117.416C129.988 118.229 129.33 118.887 128.517 118.887H85.2448C84.4323 118.887 83.7737 118.229 83.7737 117.416V79.783C83.7737 78.9705 84.4323 78.3119 85.2448 78.3119H126.556C127.368 78.3119 128.027 78.9705 128.027 79.783V115.578C128.027 116.39 127.368 117.049 126.556 117.049H86.8384C86.0259 117.049 85.3673 116.39 85.3673 115.578V81.6217C85.3673 80.8093 86.0259 80.1507 86.8384 80.1507H125.085C125.897 80.1507 126.556 80.8093 126.556 81.6217V113.494C126.556 114.306 125.897 114.965 125.085 114.965H88.432C87.6195 114.965 86.9609 114.306 86.9609 113.494V83.4605C86.9609 82.6481 87.6195 81.9895 88.432 81.9895H123.369C124.181 81.9895 124.84 82.6481 124.84 83.4605V111.655C124.84 112.467 124.181 113.126 123.369 113.126H90.1481C89.3357 113.126 88.6771 112.467 88.6771 111.655V85.5444C88.6771 84.732 89.3357 84.0734 90.1481 84.0734H121.775C122.587 84.0734 123.246 84.732 123.246 85.5444V109.694C123.246 110.506 122.587 111.165 121.775 111.165H91.6192C90.8067 111.165 90.1481 110.506 90.1481 109.694V87.3832C90.1481 86.5708 90.8067 85.9122 91.6192 85.9122H120.181C120.994 85.9122 121.652 86.5708 121.652 87.3832V107.732C121.652 108.545 120.994 109.203 120.181 109.203H107.187C106.375 109.203 105.716 108.545 105.716 107.732V104.913H101.671C100.859 104.913 100.2 104.254 100.2 103.442V92.0414C100.2 91.229 100.859 90.5704 101.671 90.5704H110.007C110.819 90.5704 111.478 91.229 111.478 92.0414V103.442C111.478 104.254 110.819 104.913 110.007 104.913H106.207V107.732C106.207 108.274 106.646 108.713 107.187 108.713H120.181C120.723 108.713 121.162 108.274 121.162 107.732V87.3832C121.162 86.8416 120.723 86.4025 120.181 86.4025H91.6192C91.0775 86.4025 90.6385 86.8416 90.6385 87.3832V109.694C90.6385 110.235 91.0775 110.674 91.6192 110.674H121.775C122.317 110.674 122.756 110.235 122.756 109.694V85.5444C122.756 85.0028 122.317 84.5638 121.775 84.5638H90.1481C89.6065 84.5638 89.1675 85.0028 89.1675 85.5444V111.655C89.1675 112.197 89.6065 112.636 90.1481 112.636H106.758H123.369C123.91 112.636 124.349 112.197 124.349 111.655V83.4605C124.349 82.9189 123.91 82.4798 123.369 82.4798H88.432C87.8903 82.4798 87.4513 82.9189 87.4513 83.4605V113.494C87.4513 114.035 87.8904 114.474 88.432 114.474H125.085C125.626 114.474 126.065 114.035 126.065 113.494V81.6217C126.065 81.0801 125.626 80.641 125.085 80.641H86.8384C86.2968 80.641 85.8577 81.0801 85.8577 81.6217V115.578C85.8577 116.119 86.2968 116.558 86.8384 116.558H126.556C127.097 116.558 127.536 116.119 127.536 115.578V79.783C127.536 79.2413 127.097 78.8023 126.556 78.8023H85.2448C84.7032 78.8023 84.2641 79.2413 84.2641 79.783V117.416C84.2641 117.958 84.7032 118.397 85.2448 118.397H128.517C129.059 118.397 129.498 117.958 129.498 117.416V77.8216C129.498 77.28 129.059 76.8409 128.517 76.8409H83.7737ZM101.671 91.0607C101.129 91.0607 100.69 91.4998 100.69 92.0414V103.442C100.69 103.983 101.129 104.422 101.671 104.422H110.007C110.548 104.422 110.988 103.983 110.988 103.442V92.0414C110.988 91.4998 110.548 91.0607 110.007 91.0607H101.671Z" fill="#402EA1"/>
<path d="M102.321 99.4993C102.063 98.8755 101.995 98.189 102.127 97.5268C102.259 96.8645 102.584 96.2562 103.061 95.7788C103.093 95.7497 103.118 95.7146 103.135 95.6757C103.152 95.6367 103.162 95.5946 103.162 95.552C103.163 95.5093 103.155 95.4669 103.139 95.4273C103.123 95.3878 103.1 95.3518 103.069 95.3217C103.039 95.2915 103.003 95.2677 102.964 95.2517C102.924 95.2358 102.882 95.2279 102.839 95.2287C102.796 95.2294 102.754 95.2387 102.715 95.2561C102.676 95.2735 102.641 95.2985 102.612 95.3297C102.236 95.7057 101.938 96.1521 101.734 96.6433C101.531 97.1346 101.426 97.6612 101.426 98.193C101.426 98.7248 101.531 99.2514 101.734 99.7426C101.938 100.234 102.236 100.68 102.612 101.056C102.642 101.087 102.677 101.111 102.715 101.127C102.754 101.144 102.796 101.153 102.838 101.153C102.88 101.153 102.922 101.145 102.961 101.129C103 101.113 103.036 101.09 103.065 101.06C103.095 101.03 103.119 100.995 103.135 100.956C103.151 100.917 103.159 100.875 103.158 100.832C103.158 100.79 103.149 100.749 103.133 100.71C103.116 100.671 103.092 100.636 103.061 100.607C102.744 100.29 102.493 99.9135 102.321 99.4993Z" stroke="black"/>
<path d="M103.266 98.1928C103.266 98.5014 103.327 98.8069 103.445 99.0919C103.564 99.3768 103.737 99.6355 103.956 99.8531C104.016 99.9125 104.05 99.9933 104.05 100.078C104.05 100.162 104.017 100.243 103.957 100.303C103.898 100.362 103.817 100.396 103.733 100.396C103.649 100.397 103.568 100.363 103.508 100.304C103.23 100.027 103.009 99.6982 102.858 99.336C102.707 98.9737 102.63 98.5852 102.63 98.1928C102.63 97.8004 102.707 97.4119 102.858 97.0496C103.009 96.6873 103.23 96.3584 103.508 96.0817C103.568 96.0223 103.649 95.989 103.733 95.9893C103.817 95.9895 103.898 96.0232 103.957 96.083C104.017 96.1428 104.05 96.2237 104.05 96.308C104.05 96.3923 104.016 96.473 103.956 96.5325C103.737 96.7501 103.564 97.0088 103.445 97.2937C103.327 97.5786 103.266 97.8842 103.266 98.1928Z" stroke="black"/>
<path d="M104.511 98.608C104.425 98.4043 104.402 98.1794 104.446 97.9627C104.49 97.746 104.598 97.5476 104.756 97.3933C104.817 97.3345 104.851 97.2541 104.852 97.1698C104.854 97.0855 104.821 97.0042 104.762 96.9439C104.703 96.8835 104.623 96.8489 104.539 96.8478C104.454 96.8467 104.373 96.8791 104.313 96.9379C104.147 97.0995 104.015 97.2927 103.925 97.5062C103.835 97.7196 103.788 97.9489 103.788 98.1805C103.788 98.4121 103.835 98.6414 103.925 98.8548C104.015 99.0682 104.147 99.2615 104.313 99.4231C104.373 99.4819 104.454 99.5144 104.539 99.5134C104.623 99.5124 104.703 99.4779 104.762 99.4176C104.821 99.3572 104.854 99.276 104.853 99.1917C104.852 99.1074 104.817 99.0269 104.757 98.9681C104.652 98.8655 104.567 98.7431 104.511 98.608Z" stroke="black"/>
<path d="M109.287 97.5672C109.419 98.2295 109.351 98.916 109.092 99.5398C108.921 99.954 108.669 100.33 108.352 100.647C108.322 100.677 108.298 100.712 108.281 100.75C108.264 100.789 108.256 100.831 108.255 100.873C108.255 100.915 108.263 100.957 108.279 100.996C108.295 101.035 108.318 101.071 108.348 101.1C108.378 101.13 108.413 101.154 108.452 101.17C108.491 101.186 108.533 101.194 108.576 101.194C108.618 101.193 108.659 101.184 108.698 101.168C108.737 101.151 108.772 101.127 108.801 101.097C109.177 100.721 109.476 100.274 109.679 99.7831C109.883 99.2918 109.988 98.7652 109.988 98.2335C109.988 97.7017 109.883 97.1751 109.679 96.6838C109.476 96.1925 109.177 95.7462 108.801 95.3702C108.772 95.339 108.737 95.3139 108.698 95.2966C108.659 95.2792 108.617 95.2699 108.574 95.2691C108.532 95.2684 108.489 95.2762 108.45 95.2922C108.41 95.3082 108.374 95.332 108.344 95.3621C108.314 95.3923 108.29 95.4282 108.274 95.4678C108.258 95.5074 108.25 95.5498 108.251 95.5924C108.252 95.6351 108.261 95.6772 108.279 95.7161C108.296 95.7551 108.321 95.7902 108.352 95.8193C108.83 96.2966 109.155 96.905 109.287 97.5672Z" stroke="black"/>
<path d="M107.969 99.1323C108.087 98.8474 108.148 98.5418 108.148 98.2332C108.148 97.9246 108.087 97.6191 107.969 97.3342C107.85 97.0492 107.676 96.7905 107.458 96.573C107.398 96.5135 107.364 96.4328 107.364 96.3485C107.364 96.2642 107.397 96.1832 107.456 96.1235C107.516 96.0637 107.596 96.03 107.681 96.0297C107.765 96.0295 107.846 96.0627 107.906 96.1222C108.184 96.3988 108.405 96.7278 108.555 97.0901C108.706 97.4524 108.784 97.8409 108.784 98.2332C108.784 98.6256 108.706 99.0141 108.555 99.3764C108.405 99.7387 108.184 100.068 107.906 100.344C107.846 100.404 107.765 100.437 107.681 100.437C107.596 100.437 107.516 100.403 107.456 100.343C107.397 100.283 107.364 100.202 107.364 100.118C107.364 100.034 107.398 99.953 107.458 99.8935C107.676 99.676 107.85 99.4173 107.969 99.1323Z" stroke="black"/>
<path d="M106.968 98.0032C107.011 98.2199 106.989 98.4447 106.903 98.6484C106.846 98.7836 106.762 98.906 106.657 99.0085C106.596 99.0674 106.562 99.1478 106.561 99.2321C106.56 99.3164 106.592 99.3977 106.651 99.458C106.71 99.5184 106.791 99.5528 106.875 99.5539C106.959 99.5549 107.04 99.5224 107.101 99.4635C107.267 99.3019 107.399 99.1087 107.489 98.8953C107.579 98.6819 107.625 98.4526 107.625 98.221C107.625 97.9893 107.579 97.76 107.489 97.5466C107.399 97.3332 107.267 97.14 107.101 96.9784C107.04 96.9196 106.959 96.8871 106.875 96.8883C106.791 96.8894 106.71 96.9239 106.651 96.9843C106.592 97.0447 106.56 97.126 106.561 97.2103C106.562 97.2946 106.597 97.375 106.657 97.4338C106.816 97.5881 106.924 97.7865 106.968 98.0032Z" stroke="black"/>
<path d="M105.09 97.4756C105.09 97.3402 105.2 97.2304 105.335 97.2304H106.07C106.206 97.2304 106.316 97.3402 106.316 97.4756V98.7014C106.316 98.8368 106.206 98.9466 106.07 98.9466H105.335C105.2 98.9466 105.09 98.8368 105.09 98.7014V97.4756Z" stroke="black"/>
<path fill-rule="evenodd" clip-rule="evenodd" d="M83.7737 76.8409C83.2321 76.8409 82.7931 77.28 82.7931 77.8216V119.5C82.7931 120.042 83.2321 120.481 83.7737 120.481H104.392C104.506 119.921 105.001 119.5 105.594 119.5C106.271 119.5 106.82 120.049 106.82 120.726C106.82 121.403 106.271 121.952 105.594 121.952C105.001 121.952 104.506 121.531 104.392 120.971H83.7737C82.9613 120.971 82.3027 120.313 82.3027 119.5V77.8216C82.3027 77.0092 82.9613 76.3506 83.7737 76.3506H128.517C129.33 76.3506 129.988 77.0092 129.988 77.8216V117.416C129.988 118.229 129.33 118.887 128.517 118.887H85.2448C84.4323 118.887 83.7737 118.229 83.7737 117.416V79.783C83.7737 78.9705 84.4323 78.3119 85.2448 78.3119H126.556C127.368 78.3119 128.027 78.9705 128.027 79.783V115.578C128.027 116.39 127.368 117.049 126.556 117.049H86.8384C86.0259 117.049 85.3673 116.39 85.3673 115.578V81.6217C85.3673 80.8093 86.0259 80.1507 86.8384 80.1507H125.085C125.897 80.1507 126.556 80.8093 126.556 81.6217V113.494C126.556 114.306 125.897 114.965 125.085 114.965H88.432C87.6195 114.965 86.9609 114.306 86.9609 113.494V83.4605C86.9609 82.6481 87.6195 81.9895 88.432 81.9895H123.369C124.181 81.9895 124.84 82.6481 124.84 83.4605V111.655C124.84 112.467 124.181 113.126 123.369 113.126H90.1481C89.3357 113.126 88.6771 112.467 88.6771 111.655V85.5444C88.6771 84.732 89.3357 84.0734 90.1481 84.0734H121.775C122.587 84.0734 123.246 84.732 123.246 85.5444V109.694C123.246 110.506 122.587 111.165 121.775 111.165H91.6192C90.8067 111.165 90.1481 110.506 90.1481 109.694V87.3832C90.1481 86.5708 90.8067 85.9122 91.6192 85.9122H120.181C120.994 85.9122 121.652 86.5708 121.652 87.3832V107.732C121.652 108.545 120.994 109.203 120.181 109.203H107.187C106.375 109.203 105.716 108.545 105.716 107.732V104.913H101.671C100.859 104.913 100.2 104.254 100.2 103.442V92.0414C100.2 91.229 100.859 90.5704 101.671 90.5704H110.007C110.819 90.5704 111.478 91.229 111.478 92.0414V103.442C111.478 104.254 110.819 104.913 110.007 104.913H106.207V107.732C106.207 108.274 106.646 108.713 107.187 108.713H120.181C120.723 108.713 121.162 108.274 121.162 107.732V87.3832C121.162 86.8416 120.723 86.4025 120.181 86.4025H91.6192C91.0775 86.4025 90.6385 86.8416 90.6385 87.3832V109.694C90.6385 110.235 91.0775 110.674 91.6192 110.674H121.775C122.317 110.674 122.756 110.235 122.756 109.694V85.5444C122.756 85.0028 122.317 84.5638 121.775 84.5638H90.1481C89.6065 84.5638 89.1675 85.0028 89.1675 85.5444V111.655C89.1675 112.197 89.6065 112.636 90.1481 112.636H106.758H123.369C123.91 112.636 124.349 112.197 124.349 111.655V83.4605C124.349 82.9189 123.91 82.4798 123.369 82.4798H88.432C87.8903 82.4798 87.4513 82.9189 87.4513 83.4605V113.494C87.4513 114.035 87.8904 114.474 88.432 114.474H125.085C125.626 114.474 126.065 114.035 126.065 113.494V81.6217C126.065 81.0801 125.626 80.641 125.085 80.641H86.8384C86.2968 80.641 85.8577 81.0801 85.8577 81.6217V115.578C85.8577 116.119 86.2968 116.558 86.8384 116.558H126.556C127.097 116.558 127.536 116.119 127.536 115.578V79.783C127.536 79.2413 127.097 78.8023 126.556 78.8023H85.2448C84.7032 78.8023 84.2641 79.2413 84.2641 79.783V117.416C84.2641 117.958 84.7032 118.397 85.2448 118.397H128.517C129.059 118.397 129.498 117.958 129.498 117.416V77.8216C129.498 77.28 129.059 76.8409 128.517 76.8409H83.7737ZM101.671 91.0607C101.129 91.0607 100.69 91.4998 100.69 92.0414V103.442C100.69 103.983 101.129 104.422 101.671 104.422H110.007C110.548 104.422 110.988 103.983 110.988 103.442V92.0414C110.988 91.4998 110.548 91.0607 110.007 91.0607H101.671Z" stroke="black"/>
<path d="M82.5233 125.099V122.532H83.4385C83.6374 122.532 83.8025 122.566 83.9337 122.634C84.0658 122.703 84.1644 122.798 84.2296 122.919C84.2948 123.039 84.3274 123.178 84.3274 123.336C84.3274 123.494 84.2944 123.632 84.2283 123.751C84.1631 123.87 84.0645 123.962 83.9325 124.028C83.8012 124.094 83.6362 124.127 83.4372 124.127H82.7439V123.794H83.4021C83.5275 123.794 83.6295 123.776 83.708 123.74C83.7874 123.704 83.8455 123.652 83.8823 123.583C83.9191 123.515 83.9375 123.433 83.9375 123.336C83.9375 123.239 83.9187 123.155 83.8811 123.084C83.8443 123.013 83.7862 122.959 83.7068 122.921C83.6282 122.883 83.525 122.864 83.3971 122.864H82.9107V125.099H82.5233ZM83.7908 123.941L84.4252 125.099H83.9839L83.362 123.941H83.7908ZM84.7988 125.099V122.532H86.391V122.865H85.1862V123.647H86.2769V123.98H85.1862V125.099H84.7988ZM87.2548 122.532V125.099H86.8674V122.532H87.2548ZM88.6502 125.099H87.8189V122.532H88.6765C88.9281 122.532 89.1441 122.583 89.3246 122.686C89.5052 122.788 89.6435 122.934 89.7396 123.126C89.8366 123.316 89.8851 123.545 89.8851 123.812C89.8851 124.079 89.8362 124.309 89.7384 124.501C89.6414 124.693 89.501 124.841 89.3171 124.945C89.1333 125.048 88.9109 125.099 88.6502 125.099ZM88.2063 124.761H88.6288C88.8244 124.761 88.987 124.724 89.1165 124.65C89.2461 124.576 89.343 124.469 89.4074 124.328C89.4718 124.187 89.5039 124.015 89.5039 123.812C89.5039 123.61 89.4718 123.439 89.4074 123.299C89.3439 123.158 89.249 123.052 89.1228 122.979C88.9966 122.906 88.8399 122.87 88.6527 122.87H88.2063V124.761Z" fill="#402EA1"/>
</g>
<defs>
<filter id="filter0_d_1498_75785" x="0.5" y="0.5" width="203.372" height="191.67" filterUnits="userSpaceOnUse" color-interpolation-filters="sRGB">
<feFlood flood-opacity="0" result="BackgroundImageFix"/>
<feColorMatrix in="SourceAlpha" type="matrix" values="0 0 0 0 0 0 0 0 0 0 0 0 0 0 0 0 0 0 127 0" result="hardAlpha"/>
<feOffset/>
<feGaussianBlur stdDeviation="6.25"/>
<feComposite in2="hardAlpha" operator="out"/>
<feColorMatrix type="matrix" values="0 0 0 0 0 0 0 0 0 0 0 0 0 0 0 0 0 0 0.1 0"/>
<feBlend mode="normal" in2="BackgroundImageFix" result="effect1_dropShadow_1498_75785"/>
<feBlend mode="normal" in="SourceGraphic" in2="effect1_dropShadow_1498_75785" result="shape"/>
</filter>
<filter id="filter1_d_1498_75785" x="9" y="129.67" width="58" height="58" filterUnits="userSpaceOnUse" color-interpolation-filters="sRGB">
<feFlood flood-opacity="0" result="BackgroundImageFix"/>
<feColorMatrix in="SourceAlpha" type="matrix" values="0 0 0 0 0 0 0 0 0 0 0 0 0 0 0 0 0 0 127 0" result="hardAlpha"/>
<feOffset dy="4"/>
<feGaussianBlur stdDeviation="2"/>
<feComposite in2="hardAlpha" operator="out"/>
<feColorMatrix type="matrix" values="0 0 0 0 0 0 0 0 0 0 0 0 0 0 0 0 0 0 0.1 0"/>
<feBlend mode="normal" in2="BackgroundImageFix" result="effect1_dropShadow_1498_75785"/>
<feBlend mode="normal" in="SourceGraphic" in2="effect1_dropShadow_1498_75785" result="shape"/>
</filter>
<linearGradient id="paint0_linear_1498_75785" x1="68.3062" y1="-59.9243" x2="288.62" y2="151.69" gradientUnits="userSpaceOnUse">
<stop offset="0.290144" stop-color="white"/>
<stop offset="0.973068" stop-color="#C7D5E0"/>
</linearGradient>
</defs>
</svg>
