<svg width="800" height="800" viewBox="0 0 800 800" fill="none" xmlns="http://www.w3.org/2000/svg">
<g opacity="0.25">
<path d="M399.976 799.952C306.051 799.952 229.755 723.56 229.755 629.731V170.221C229.755 76.3924 306.051 0 399.976 0C493.901 0 570.197 76.3924 570.197 170.221V629.635C570.197 723.56 493.805 799.856 399.976 799.856V799.952ZM399.976 41.7123C329.171 41.7123 271.467 99.416 271.467 170.317V629.731C271.467 700.536 329.075 758.24 399.976 758.24C470.877 758.24 528.485 700.633 528.485 629.731V170.221C528.485 99.416 470.877 41.7123 399.976 41.7123Z" fill="#6862EA"/>
<path d="M629.731 570.2H170.221C76.3924 570.2 0 493.904 0 399.979C0 306.054 76.3924 229.758 170.221 229.758H629.635C723.56 229.758 799.856 306.15 799.856 399.979C799.856 493.808 723.464 570.2 629.635 570.2H629.731ZM170.221 271.47C99.416 271.47 41.7124 329.078 41.7124 399.979C41.7124 470.88 99.3197 528.488 170.221 528.488H629.635C700.44 528.488 758.144 470.88 758.144 399.979C758.144 329.078 700.536 271.47 629.635 271.47H170.221Z" fill="#6862EA"/>
</g>
</svg>
