<svg width="174" height="172" viewBox="0 0 174 172" fill="none" xmlns="http://www.w3.org/2000/svg">
<path opacity="0.2" fill-rule="evenodd" clip-rule="evenodd" d="M0 117.077H55.851V172H73.9139V117.077H99.6524C130.188 117.077 155.029 141.652 155.299 172H172.998V179.839C173.24 177.425 173.364 174.976 173.364 172.5C173.364 132.034 140.325 99.0878 99.6524 99.0878H73.9139V73.4122C73.9139 32.9462 40.8751 0 0.202225 0C0.134795 0 0.0673872 9.05508e-05 0 0.000271537V18.0314C0.0673807 18.0312 0.134789 18.0311 0.202225 18.0311V17.9895C30.905 17.9895 55.851 42.8757 55.851 73.4122V99.0878H0V117.077Z" fill="#5F44FF"/>
</svg>
