<svg width="175" height="170" viewBox="0 0 175 170" fill="none" xmlns="http://www.w3.org/2000/svg">
<path opacity="0.5" fill-rule="evenodd" clip-rule="evenodd" d="M174.366 -2.66388C174.366 -5.13934 174.242 -7.58664 174 -10V0.83609H156.193C154.376 29.7876 130.177 52.7588 100.654 52.7588H74.9156V0.83609H56.8527V52.7588H1V70.7483H56.8527V96.4239C56.8527 126.96 31.9067 151.847 1.2039 151.847V151.805C1.13591 151.805 1.06793 151.805 1 151.805V169.836C1.06795 169.836 1.13591 169.836 1.2039 169.836C41.8768 169.836 74.9156 136.89 74.9156 96.4239V70.7483H100.654C141.327 70.7483 174.366 37.8022 174.366 -2.66388ZM-172 -2.66388L-172 -2.46254V-2.86522L-172 -2.66388Z" fill="#5F44FF"/>
</svg>
