<svg width="27" height="27" viewBox="0 0 27 27" fill="none" xmlns="http://www.w3.org/2000/svg">
<path d="M16.4545 7.69511C16.4545 7.69511 17.6752 7.09375 13.2472 7.09375C11.6613 7.09375 10.1111 7.56401 8.79253 8.44506C7.47394 9.32611 6.44623 10.5784 5.83936 12.0435C5.23248 13.5086 5.07369 15.1208 5.38307 16.6762C5.69246 18.2316 6.45612 19.6603 7.57748 20.7816C8.69884 21.903 10.1275 22.6667 11.6829 22.976C13.2383 23.2854 14.8505 23.1266 16.3156 22.5198C17.7807 21.9129 19.033 20.8852 19.9141 19.5666C20.7951 18.248 21.2654 16.6978 21.2654 15.1119" stroke="white" stroke-width="1.60364" stroke-miterlimit="10" stroke-linecap="round"/>
<path d="M13.2446 3.28125L17.2537 7.29034L13.2446 11.2994" stroke="white" stroke-width="1.60364" stroke-linecap="round" stroke-linejoin="round"/>
</svg>
