<svg width="175" height="48" viewBox="0 0 175 48" fill="none" xmlns="http://www.w3.org/2000/svg">
<g clip-path="url(#clip0_339_373)">
<path d="M23.7725 47.5471C18.19 47.5471 13.6552 43.0066 13.6552 37.4298V10.1183C13.6552 4.54145 18.19 0.000976562 23.7725 0.000976562C29.3551 0.000976562 33.8898 4.54145 33.8898 10.1183V37.4241C33.8898 43.0066 29.3493 47.5414 23.7725 47.5414V47.5471ZM23.7725 2.48593C19.5641 2.48593 16.1344 5.90989 16.1344 10.124V37.4298C16.1344 41.6382 19.5584 45.0679 23.7725 45.0679C27.9866 45.0679 31.4106 41.6439 31.4106 37.4298V10.1183C31.4106 5.90989 27.9866 2.4802 23.7725 2.4802V2.48593Z" fill="url(#paint0_linear_339_373)"/>
<path d="M23.7725 47.5471C18.19 47.5471 13.6552 43.0066 13.6552 37.4298V10.1183C13.6552 4.54145 18.19 0.000976562 23.7725 0.000976562C29.3551 0.000976562 33.8898 4.54145 33.8898 10.1183V37.4241C33.8898 43.0066 29.3493 47.5414 23.7725 47.5414V47.5471ZM23.7725 2.48593C19.5641 2.48593 16.1344 5.90989 16.1344 10.124V37.4298C16.1344 41.6382 19.5584 45.0679 23.7725 45.0679C27.9866 45.0679 31.4106 41.6439 31.4106 37.4298V10.1183C31.4106 5.90989 27.9866 2.4802 23.7725 2.4802V2.48593Z" fill="url(#paint1_radial_339_373)" style="mix-blend-mode:overlay"/>
<path d="M37.4288 33.8913H10.1173C4.54047 33.8913 0 29.3566 0 23.774C0 18.1915 4.54047 13.6567 10.1173 13.6567H37.4231C43.0057 13.6567 47.5404 18.1972 47.5404 23.774C47.5404 29.3509 42.9999 33.8913 37.4231 33.8913H37.4288ZM10.1173 16.136C5.90891 16.136 2.47922 19.5599 2.47922 23.774C2.47922 27.9881 5.90319 31.4121 10.1173 31.4121H37.4231C41.6315 31.4121 45.0612 27.9881 45.0612 23.774C45.0612 19.5599 41.6372 16.136 37.4231 16.136H10.1173Z" fill="url(#paint2_linear_339_373)"/>
<path d="M37.4288 33.8913H10.1173C4.54047 33.8913 0 29.3566 0 23.774C0 18.1915 4.54047 13.6567 10.1173 13.6567H37.4231C43.0057 13.6567 47.5404 18.1972 47.5404 23.774C47.5404 29.3509 42.9999 33.8913 37.4231 33.8913H37.4288ZM10.1173 16.136C5.90891 16.136 2.47922 19.5599 2.47922 23.774C2.47922 27.9881 5.90319 31.4121 10.1173 31.4121H37.4231C41.6315 31.4121 45.0612 27.9881 45.0612 23.774C45.0612 19.5599 41.6372 16.136 37.4231 16.136H10.1173Z" fill="url(#paint3_radial_339_373)" style="mix-blend-mode:overlay"/>
<path d="M61.0924 31.8535C60.5885 31.8535 60.1305 31.7333 59.7182 31.4871C59.306 31.2409 58.9739 30.9145 58.7334 30.5023C58.4872 30.09 58.3669 29.632 58.3669 29.1281V28.2463H60.6343V29.0651C60.6343 29.2025 60.6858 29.3285 60.7889 29.4316C60.892 29.5346 61.0179 29.5862 61.1554 29.5862H70.6829C70.8203 29.5862 70.9406 29.5346 71.0379 29.4316C71.1352 29.3285 71.1868 29.2025 71.1868 29.0651V25.9618C71.1868 25.8072 71.1352 25.6812 71.0379 25.5839C70.9406 25.4866 70.8203 25.435 70.6829 25.435H61.0924C60.5885 25.435 60.1305 25.3148 59.7182 25.0686C59.306 24.8224 58.9739 24.496 58.7334 24.0838C58.4872 23.6715 58.3669 23.2135 58.3669 22.7096V19.4803C58.3669 18.9765 58.4872 18.5184 58.7334 18.1061C58.9796 17.6939 59.306 17.3675 59.7182 17.1213C60.1305 16.8751 60.5885 16.7549 61.0924 16.7549H70.7459C71.2497 16.7549 71.7078 16.8751 72.12 17.1213C72.5323 17.3675 72.8587 17.6939 73.1049 18.1061C73.3511 18.5184 73.4713 18.9765 73.4713 19.4803V20.3621H71.1868V19.5433C71.1868 19.4059 71.1352 19.2799 71.0379 19.1769C70.9406 19.0738 70.8203 19.0223 70.6829 19.0223H61.1554C61.0179 19.0223 60.892 19.0738 60.7889 19.1769C60.6858 19.2799 60.6343 19.4059 60.6343 19.5433V22.6466C60.6343 22.8012 60.6858 22.9272 60.7889 23.0245C60.892 23.1219 61.0179 23.1734 61.1554 23.1734H70.7459C71.2497 23.1734 71.7078 23.2936 72.12 23.5398C72.5323 23.786 72.8587 24.1124 73.1049 24.5246C73.3511 24.9369 73.4713 25.3949 73.4713 25.8988V29.1281C73.4713 29.632 73.3511 30.09 73.1049 30.5023C72.8587 30.9145 72.5323 31.2409 72.12 31.4871C71.7078 31.7333 71.2497 31.8535 70.7459 31.8535H61.0924Z" fill="url(#paint4_linear_339_373)"/>
<path d="M61.0924 31.8535C60.5885 31.8535 60.1305 31.7333 59.7182 31.4871C59.306 31.2409 58.9739 30.9145 58.7334 30.5023C58.4872 30.09 58.3669 29.632 58.3669 29.1281V28.2463H60.6343V29.0651C60.6343 29.2025 60.6858 29.3285 60.7889 29.4316C60.892 29.5346 61.0179 29.5862 61.1554 29.5862H70.6829C70.8203 29.5862 70.9406 29.5346 71.0379 29.4316C71.1352 29.3285 71.1868 29.2025 71.1868 29.0651V25.9618C71.1868 25.8072 71.1352 25.6812 71.0379 25.5839C70.9406 25.4866 70.8203 25.435 70.6829 25.435H61.0924C60.5885 25.435 60.1305 25.3148 59.7182 25.0686C59.306 24.8224 58.9739 24.496 58.7334 24.0838C58.4872 23.6715 58.3669 23.2135 58.3669 22.7096V19.4803C58.3669 18.9765 58.4872 18.5184 58.7334 18.1061C58.9796 17.6939 59.306 17.3675 59.7182 17.1213C60.1305 16.8751 60.5885 16.7549 61.0924 16.7549H70.7459C71.2497 16.7549 71.7078 16.8751 72.12 17.1213C72.5323 17.3675 72.8587 17.6939 73.1049 18.1061C73.3511 18.5184 73.4713 18.9765 73.4713 19.4803V20.3621H71.1868V19.5433C71.1868 19.4059 71.1352 19.2799 71.0379 19.1769C70.9406 19.0738 70.8203 19.0223 70.6829 19.0223H61.1554C61.0179 19.0223 60.892 19.0738 60.7889 19.1769C60.6858 19.2799 60.6343 19.4059 60.6343 19.5433V22.6466C60.6343 22.8012 60.6858 22.9272 60.7889 23.0245C60.892 23.1219 61.0179 23.1734 61.1554 23.1734H70.7459C71.2497 23.1734 71.7078 23.2936 72.12 23.5398C72.5323 23.786 72.8587 24.1124 73.1049 24.5246C73.3511 24.9369 73.4713 25.3949 73.4713 25.8988V29.1281C73.4713 29.632 73.3511 30.09 73.1049 30.5023C72.8587 30.9145 72.5323 31.2409 72.12 31.4871C71.7078 31.7333 71.2497 31.8535 70.7459 31.8535H61.0924Z" fill="url(#paint5_radial_339_373)" style="mix-blend-mode:overlay"/>
<path d="M79.1055 31.4757C78.6932 31.2238 78.3612 30.8917 78.1092 30.4794C77.8573 30.0672 77.7313 29.6149 77.7313 29.1282V22.412C77.7313 21.9253 77.8573 21.4729 78.1092 21.0607C78.3612 20.6484 78.6932 20.3163 79.1055 20.0644C79.5177 19.8125 79.9701 19.6865 80.4568 19.6865H87.3791C87.883 19.6865 88.341 19.8125 88.7533 20.0644C89.1655 20.3163 89.4919 20.6484 89.7381 21.0607C89.9843 21.4729 90.1045 21.9253 90.1045 22.412V26.9009H79.993V29.0595C79.993 29.1969 80.0445 29.3229 80.1476 29.4259C80.2506 29.529 80.3766 29.5805 80.514 29.5805H90.1045V31.8479H80.451C79.9586 31.8479 79.512 31.7219 79.0998 31.47L79.1055 31.4757ZM79.9987 24.7824H87.8257V22.4749C87.8257 22.3375 87.7742 22.2116 87.6769 22.1085C87.5795 22.0054 87.4593 21.9539 87.3219 21.9539H80.5255C80.388 21.9539 80.2621 22.0054 80.159 22.1085C80.056 22.2116 80.0044 22.3375 80.0044 22.4749V24.7824H79.9987Z" fill="url(#paint6_linear_339_373)"/>
<path d="M79.1055 31.4757C78.6932 31.2238 78.3612 30.8917 78.1092 30.4794C77.8573 30.0672 77.7313 29.6149 77.7313 29.1282V22.412C77.7313 21.9253 77.8573 21.4729 78.1092 21.0607C78.3612 20.6484 78.6932 20.3163 79.1055 20.0644C79.5177 19.8125 79.9701 19.6865 80.4568 19.6865H87.3791C87.883 19.6865 88.341 19.8125 88.7533 20.0644C89.1655 20.3163 89.4919 20.6484 89.7381 21.0607C89.9843 21.4729 90.1045 21.9253 90.1045 22.412V26.9009H79.993V29.0595C79.993 29.1969 80.0445 29.3229 80.1476 29.4259C80.2506 29.529 80.3766 29.5805 80.514 29.5805H90.1045V31.8479H80.451C79.9586 31.8479 79.512 31.7219 79.0998 31.47L79.1055 31.4757ZM79.9987 24.7824H87.8257V22.4749C87.8257 22.3375 87.7742 22.2116 87.6769 22.1085C87.5795 22.0054 87.4593 21.9539 87.3219 21.9539H80.5255C80.388 21.9539 80.2621 22.0054 80.159 22.1085C80.056 22.2116 80.0044 22.3375 80.0044 22.4749V24.7824H79.9987Z" fill="url(#paint7_radial_339_373)" style="mix-blend-mode:overlay"/>
<path d="M95.2577 31.4757C94.8455 31.2238 94.5134 30.8917 94.2614 30.4794C94.0095 30.0672 93.8835 29.6149 93.8835 29.1282V22.412C93.8835 21.9253 94.0095 21.4729 94.2614 21.0607C94.5134 20.6484 94.8455 20.3163 95.2577 20.0644C95.67 19.8125 96.1223 19.6865 96.609 19.6865H106.217V21.9539H96.672C96.5345 21.9539 96.4086 22.0054 96.3055 22.1085C96.2024 22.2116 96.1509 22.3375 96.1509 22.4749V29.0652C96.1509 29.2026 96.2024 29.3286 96.3055 29.4316C96.4086 29.5347 96.5345 29.5862 96.672 29.5862H106.262V31.8536H96.609C96.1166 31.8536 95.67 31.7277 95.2577 31.4757Z" fill="url(#paint8_linear_339_373)"/>
<path d="M95.2577 31.4757C94.8455 31.2238 94.5134 30.8917 94.2614 30.4794C94.0095 30.0672 93.8835 29.6149 93.8835 29.1282V22.412C93.8835 21.9253 94.0095 21.4729 94.2614 21.0607C94.5134 20.6484 94.8455 20.3163 95.2577 20.0644C95.67 19.8125 96.1223 19.6865 96.609 19.6865H106.217V21.9539H96.672C96.5345 21.9539 96.4086 22.0054 96.3055 22.1085C96.2024 22.2116 96.1509 22.3375 96.1509 22.4749V29.0652C96.1509 29.2026 96.2024 29.3286 96.3055 29.4316C96.4086 29.5347 96.5345 29.5862 96.672 29.5862H106.262V31.8536H96.609C96.1166 31.8536 95.67 31.7277 95.2577 31.4757Z" fill="url(#paint9_radial_339_373)" style="mix-blend-mode:overlay"/>
<path d="M110.711 31.8533V16.7432H123.067C123.571 16.7432 124.035 16.8634 124.453 17.1096C124.871 17.3558 125.203 17.6822 125.449 18.0944C125.696 18.5067 125.816 18.9647 125.816 19.4686V29.1221C125.816 29.626 125.696 30.084 125.449 30.4963C125.203 30.9085 124.871 31.2349 124.453 31.4811C124.035 31.7273 123.571 31.8475 123.067 31.8475H110.711V31.8533ZM113.483 29.5859H123.027C123.165 29.5859 123.285 29.5344 123.382 29.4313C123.48 29.3282 123.531 29.2023 123.531 29.0648V19.5373C123.531 19.3999 123.48 19.2739 123.382 19.1709C123.285 19.0678 123.165 19.0163 123.027 19.0163H113.483C113.345 19.0163 113.225 19.0678 113.128 19.1709C113.03 19.2739 112.979 19.3999 112.979 19.5373V29.0648C112.979 29.2023 113.03 29.3282 113.128 29.4313C113.225 29.5344 113.345 29.5859 113.483 29.5859Z" fill="url(#paint10_linear_339_373)"/>
<path d="M110.711 31.8533V16.7432H123.067C123.571 16.7432 124.035 16.8634 124.453 17.1096C124.871 17.3558 125.203 17.6822 125.449 18.0944C125.696 18.5067 125.816 18.9647 125.816 19.4686V29.1221C125.816 29.626 125.696 30.084 125.449 30.4963C125.203 30.9085 124.871 31.2349 124.453 31.4811C124.035 31.7273 123.571 31.8475 123.067 31.8475H110.711V31.8533ZM113.483 29.5859H123.027C123.165 29.5859 123.285 29.5344 123.382 29.4313C123.48 29.3282 123.531 29.2023 123.531 29.0648V19.5373C123.531 19.3999 123.48 19.2739 123.382 19.1709C123.285 19.0678 123.165 19.0163 123.027 19.0163H113.483C113.345 19.0163 113.225 19.0678 113.128 19.1709C113.03 19.2739 112.979 19.3999 112.979 19.5373V29.0648C112.979 29.2023 113.03 29.3282 113.128 29.4313C113.225 29.5344 113.345 29.5859 113.483 29.5859Z" fill="url(#paint11_radial_339_373)" style="mix-blend-mode:overlay"/>
<path d="M131.536 31.4757C131.124 31.2238 130.792 30.8917 130.54 30.4794C130.288 30.0672 130.162 29.6149 130.162 29.1282V22.412C130.162 21.9253 130.288 21.4729 130.54 21.0607C130.792 20.6484 131.124 20.3163 131.536 20.0644C131.948 19.8125 132.4 19.6865 132.887 19.6865H139.809C140.313 19.6865 140.771 19.8125 141.184 20.0644C141.596 20.3163 141.922 20.6484 142.168 21.0607C142.415 21.4729 142.535 21.9253 142.535 22.412V26.9009H132.423V29.0595C132.423 29.1969 132.475 29.3229 132.578 29.4259C132.681 29.529 132.807 29.5805 132.944 29.5805H142.535V31.8479H132.881C132.389 31.8479 131.942 31.7219 131.53 31.47L131.536 31.4757ZM132.429 24.7824H140.256V22.4749C140.256 22.3375 140.205 22.2116 140.107 22.1085C140.01 22.0054 139.89 21.9539 139.752 21.9539H132.956C132.818 21.9539 132.692 22.0054 132.589 22.1085C132.486 22.2116 132.435 22.3375 132.435 22.4749V24.7824H132.429Z" fill="url(#paint12_linear_339_373)"/>
<path d="M131.536 31.4757C131.124 31.2238 130.792 30.8917 130.54 30.4794C130.288 30.0672 130.162 29.6149 130.162 29.1282V22.412C130.162 21.9253 130.288 21.4729 130.54 21.0607C130.792 20.6484 131.124 20.3163 131.536 20.0644C131.948 19.8125 132.4 19.6865 132.887 19.6865H139.809C140.313 19.6865 140.771 19.8125 141.184 20.0644C141.596 20.3163 141.922 20.6484 142.168 21.0607C142.415 21.4729 142.535 21.9253 142.535 22.412V26.9009H132.423V29.0595C132.423 29.1969 132.475 29.3229 132.578 29.4259C132.681 29.529 132.807 29.5805 132.944 29.5805H142.535V31.8479H132.881C132.389 31.8479 131.942 31.7219 131.53 31.47L131.536 31.4757ZM132.429 24.7824H140.256V22.4749C140.256 22.3375 140.205 22.2116 140.107 22.1085C140.01 22.0054 139.89 21.9539 139.752 21.9539H132.956C132.818 21.9539 132.692 22.0054 132.589 22.1085C132.486 22.2116 132.435 22.3375 132.435 22.4749V24.7824H132.429Z" fill="url(#paint13_radial_339_373)" style="mix-blend-mode:overlay"/>
<path d="M148.009 31.4754C147.596 31.2234 147.264 30.8913 147.012 30.4791C146.76 30.0668 146.634 29.6145 146.634 29.1278V28.8129H148.902V29.0648C148.902 29.2023 148.953 29.3282 149.056 29.4313C149.159 29.5344 149.285 29.5859 149.423 29.5859H156.219C156.357 29.5859 156.477 29.5344 156.574 29.4313C156.671 29.3282 156.723 29.2023 156.723 29.0648V27.4273C156.723 27.2899 156.671 27.1639 156.574 27.0609C156.477 26.9578 156.357 26.9063 156.219 26.9063H149.36C148.867 26.9063 148.421 26.786 148.009 26.5398C147.596 26.2936 147.264 25.9673 147.012 25.555C146.76 25.1428 146.634 24.6847 146.634 24.1808V22.4173C146.634 21.9306 146.76 21.4783 147.012 21.0661C147.264 20.6538 147.596 20.3217 148.009 20.0698C148.421 19.8179 148.873 19.6919 149.36 19.6919H156.282C156.786 19.6919 157.244 19.8179 157.656 20.0698C158.069 20.3217 158.395 20.6538 158.641 21.0661C158.887 21.4783 159.008 21.9306 159.008 22.4173V22.7322H156.723V22.4803C156.723 22.3429 156.671 22.2169 156.574 22.1139C156.477 22.0108 156.357 21.9593 156.219 21.9593H149.423C149.285 21.9593 149.159 22.0108 149.056 22.1139C148.953 22.2169 148.902 22.3429 148.902 22.4803V24.1179C148.902 24.2553 148.953 24.3812 149.056 24.4843C149.159 24.5874 149.285 24.6389 149.423 24.6389H156.282C156.786 24.6389 157.244 24.7591 157.656 25.0053C158.069 25.2515 158.395 25.5779 158.641 25.9902C158.887 26.4024 159.008 26.8605 159.008 27.3643V29.1278C159.008 29.6202 158.887 30.0668 158.641 30.4791C158.395 30.8913 158.069 31.2234 157.656 31.4754C157.244 31.7273 156.786 31.8533 156.282 31.8533H149.36C148.867 31.8533 148.421 31.7273 148.009 31.4754Z" fill="url(#paint14_linear_339_373)"/>
<path d="M148.009 31.4754C147.596 31.2234 147.264 30.8913 147.012 30.4791C146.76 30.0668 146.634 29.6145 146.634 29.1278V28.8129H148.902V29.0648C148.902 29.2023 148.953 29.3282 149.056 29.4313C149.159 29.5344 149.285 29.5859 149.423 29.5859H156.219C156.357 29.5859 156.477 29.5344 156.574 29.4313C156.671 29.3282 156.723 29.2023 156.723 29.0648V27.4273C156.723 27.2899 156.671 27.1639 156.574 27.0609C156.477 26.9578 156.357 26.9063 156.219 26.9063H149.36C148.867 26.9063 148.421 26.786 148.009 26.5398C147.596 26.2936 147.264 25.9673 147.012 25.555C146.76 25.1428 146.634 24.6847 146.634 24.1808V22.4173C146.634 21.9306 146.76 21.4783 147.012 21.0661C147.264 20.6538 147.596 20.3217 148.009 20.0698C148.421 19.8179 148.873 19.6919 149.36 19.6919H156.282C156.786 19.6919 157.244 19.8179 157.656 20.0698C158.069 20.3217 158.395 20.6538 158.641 21.0661C158.887 21.4783 159.008 21.9306 159.008 22.4173V22.7322H156.723V22.4803C156.723 22.3429 156.671 22.2169 156.574 22.1139C156.477 22.0108 156.357 21.9593 156.219 21.9593H149.423C149.285 21.9593 149.159 22.0108 149.056 22.1139C148.953 22.2169 148.902 22.3429 148.902 22.4803V24.1179C148.902 24.2553 148.953 24.3812 149.056 24.4843C149.159 24.5874 149.285 24.6389 149.423 24.6389H156.282C156.786 24.6389 157.244 24.7591 157.656 25.0053C158.069 25.2515 158.395 25.5779 158.641 25.9902C158.887 26.4024 159.008 26.8605 159.008 27.3643V29.1278C159.008 29.6202 158.887 30.0668 158.641 30.4791C158.395 30.8913 158.069 31.2234 157.656 31.4754C157.244 31.7273 156.786 31.8533 156.282 31.8533H149.36C148.867 31.8533 148.421 31.7273 148.009 31.4754Z" fill="url(#paint15_radial_339_373)" style="mix-blend-mode:overlay"/>
<path d="M162.855 31.8532V15.6953H165.122V24.6331H167.848L172.4 19.6804H174.999V20.0984L169.858 25.7611L174.999 31.4238V31.8418H172.4L167.848 26.889H165.122V31.8418H162.855V31.8532Z" fill="url(#paint16_linear_339_373)"/>
<path d="M162.855 31.8532V15.6953H165.122V24.6331H167.848L172.4 19.6804H174.999V20.0984L169.858 25.7611L174.999 31.4238V31.8418H172.4L167.848 26.889H165.122V31.8418H162.855V31.8532Z" fill="url(#paint17_radial_339_373)" style="mix-blend-mode:overlay"/>
</g>
<defs>
<linearGradient id="paint0_linear_339_373" x1="13.6552" y1="31.5024" x2="36.2788" y2="28.1685" gradientUnits="userSpaceOnUse">
<stop offset="0.0677083" stop-color="#4D5455"/>
<stop offset="0.21875" stop-color="#9EA1A1"/>
<stop offset="0.453125" stop-color="#848B8A"/>
<stop offset="0.524381" stop-color="#535D5E"/>
<stop offset="0.796875" stop-color="#4B5355"/>
<stop offset="0.895833" stop-color="#757A7B"/>
<stop offset="1" stop-color="#4D5455"/>
</linearGradient>
<radialGradient id="paint1_radial_339_373" cx="0" cy="0" r="1" gradientUnits="userSpaceOnUse" gradientTransform="translate(13.6552 -4.11521) rotate(76.2975) scale(39.1685 22.0714)">
<stop stop-color="white"/>
<stop offset="1" stop-color="white" stop-opacity="0"/>
</radialGradient>
<linearGradient id="paint2_linear_339_373" x1="-5.62997e-07" y1="27.063" x2="32.6789" y2="0.477292" gradientUnits="userSpaceOnUse">
<stop offset="0.0677083" stop-color="#4D5455"/>
<stop offset="0.21875" stop-color="#9EA1A1"/>
<stop offset="0.453125" stop-color="#848B8A"/>
<stop offset="0.524381" stop-color="#535D5E"/>
<stop offset="0.796875" stop-color="#4B5355"/>
<stop offset="0.895833" stop-color="#757A7B"/>
<stop offset="1" stop-color="#4D5455"/>
</linearGradient>
<radialGradient id="paint3_radial_339_373" cx="0" cy="0" r="1" gradientUnits="userSpaceOnUse" gradientTransform="translate(-1.04801e-06 11.905) rotate(36.6095) scale(27.1562 31.8305)">
<stop stop-color="white"/>
<stop offset="1" stop-color="white" stop-opacity="0"/>
</radialGradient>
<linearGradient id="paint4_linear_339_373" x1="58.3669" y1="26.7584" x2="73.7728" y2="21.4218" gradientUnits="userSpaceOnUse">
<stop offset="0.0677083" stop-color="#4D5455"/>
<stop offset="0.21875" stop-color="#9EA1A1"/>
<stop offset="0.453125" stop-color="#848B8A"/>
<stop offset="0.524381" stop-color="#535D5E"/>
<stop offset="0.796875" stop-color="#4B5355"/>
<stop offset="0.895833" stop-color="#757A7B"/>
<stop offset="1" stop-color="#4D5455"/>
</linearGradient>
<radialGradient id="paint5_radial_339_373" cx="0" cy="0" r="1" gradientUnits="userSpaceOnUse" gradientTransform="translate(58.3669 15.4478) rotate(60.1817) scale(13.9283 14.713)">
<stop stop-color="white"/>
<stop offset="1" stop-color="white" stop-opacity="0"/>
</radialGradient>
<linearGradient id="paint6_linear_339_373" x1="77.7313" y1="27.744" x2="90.3052" y2="23.3142" gradientUnits="userSpaceOnUse">
<stop offset="0.0677083" stop-color="#4D5455"/>
<stop offset="0.21875" stop-color="#9EA1A1"/>
<stop offset="0.453125" stop-color="#848B8A"/>
<stop offset="0.524381" stop-color="#535D5E"/>
<stop offset="0.796875" stop-color="#4B5355"/>
<stop offset="0.895833" stop-color="#757A7B"/>
<stop offset="1" stop-color="#4D5455"/>
</linearGradient>
<radialGradient id="paint7_radial_339_373" cx="0" cy="0" r="1" gradientUnits="userSpaceOnUse" gradientTransform="translate(77.7313 18.6337) rotate(59.7624) scale(11.2662 12.0017)">
<stop stop-color="white"/>
<stop offset="1" stop-color="white" stop-opacity="0"/>
</radialGradient>
<linearGradient id="paint8_linear_339_373" x1="93.8835" y1="27.7478" x2="106.463" y2="23.316" gradientUnits="userSpaceOnUse">
<stop offset="0.0677083" stop-color="#4D5455"/>
<stop offset="0.21875" stop-color="#9EA1A1"/>
<stop offset="0.453125" stop-color="#848B8A"/>
<stop offset="0.524381" stop-color="#535D5E"/>
<stop offset="0.796875" stop-color="#4B5355"/>
<stop offset="0.895833" stop-color="#757A7B"/>
<stop offset="1" stop-color="#4D5455"/>
</linearGradient>
<radialGradient id="paint9_radial_339_373" cx="0" cy="0" r="1" gradientUnits="userSpaceOnUse" gradientTransform="translate(93.8835 18.6332) rotate(59.7626) scale(11.2715 12.0073)">
<stop stop-color="white"/>
<stop offset="1" stop-color="white" stop-opacity="0"/>
</radialGradient>
<linearGradient id="paint10_linear_339_373" x1="110.711" y1="26.7543" x2="126.12" y2="21.4209" gradientUnits="userSpaceOnUse">
<stop offset="0.0677083" stop-color="#4D5455"/>
<stop offset="0.21875" stop-color="#9EA1A1"/>
<stop offset="0.453125" stop-color="#848B8A"/>
<stop offset="0.524381" stop-color="#535D5E"/>
<stop offset="0.796875" stop-color="#4B5355"/>
<stop offset="0.895833" stop-color="#757A7B"/>
<stop offset="1" stop-color="#4D5455"/>
</linearGradient>
<radialGradient id="paint11_radial_339_373" cx="0" cy="0" r="1" gradientUnits="userSpaceOnUse" gradientTransform="translate(110.711 15.435) rotate(60.2004) scale(13.9362 14.7157)">
<stop stop-color="white"/>
<stop offset="1" stop-color="white" stop-opacity="0"/>
</radialGradient>
<linearGradient id="paint12_linear_339_373" x1="130.162" y1="27.744" x2="142.736" y2="23.3142" gradientUnits="userSpaceOnUse">
<stop offset="0.0677083" stop-color="#4D5455"/>
<stop offset="0.21875" stop-color="#9EA1A1"/>
<stop offset="0.453125" stop-color="#848B8A"/>
<stop offset="0.524381" stop-color="#535D5E"/>
<stop offset="0.796875" stop-color="#4B5355"/>
<stop offset="0.895833" stop-color="#757A7B"/>
<stop offset="1" stop-color="#4D5455"/>
</linearGradient>
<radialGradient id="paint13_radial_339_373" cx="0" cy="0" r="1" gradientUnits="userSpaceOnUse" gradientTransform="translate(130.162 18.6337) rotate(59.7624) scale(11.2662 12.0017)">
<stop stop-color="white"/>
<stop offset="1" stop-color="white" stop-opacity="0"/>
</radialGradient>
<linearGradient id="paint14_linear_339_373" x1="146.634" y1="27.7493" x2="159.208" y2="23.3196" gradientUnits="userSpaceOnUse">
<stop offset="0.0677083" stop-color="#4D5455"/>
<stop offset="0.21875" stop-color="#9EA1A1"/>
<stop offset="0.453125" stop-color="#848B8A"/>
<stop offset="0.524381" stop-color="#535D5E"/>
<stop offset="0.796875" stop-color="#4B5355"/>
<stop offset="0.895833" stop-color="#757A7B"/>
<stop offset="1" stop-color="#4D5455"/>
</linearGradient>
<radialGradient id="paint15_radial_339_373" cx="0" cy="0" r="1" gradientUnits="userSpaceOnUse" gradientTransform="translate(146.634 18.6391) rotate(59.7624) scale(11.2662 12.0017)">
<stop stop-color="white"/>
<stop offset="1" stop-color="white" stop-opacity="0"/>
</radialGradient>
<linearGradient id="paint16_linear_339_373" x1="162.855" y1="26.4006" x2="175.848" y2="23.0192" gradientUnits="userSpaceOnUse">
<stop offset="0.0677083" stop-color="#4D5455"/>
<stop offset="0.21875" stop-color="#9EA1A1"/>
<stop offset="0.453125" stop-color="#848B8A"/>
<stop offset="0.524381" stop-color="#535D5E"/>
<stop offset="0.796875" stop-color="#4B5355"/>
<stop offset="0.895833" stop-color="#757A7B"/>
<stop offset="1" stop-color="#4D5455"/>
</linearGradient>
<radialGradient id="paint17_radial_339_373" cx="0" cy="0" r="1" gradientUnits="userSpaceOnUse" gradientTransform="translate(162.855 14.2965) rotate(66.7034) scale(14.08 12.523)">
<stop stop-color="white"/>
<stop offset="1" stop-color="white" stop-opacity="0"/>
</radialGradient>
<clipPath id="clip0_339_373">
<rect width="175" height="47.5461" fill="white" transform="translate(0 0.000976562)"/>
</clipPath>
</defs>
</svg>
