<svg width="177" height="48" viewBox="0 0 177 48" fill="none" xmlns="http://www.w3.org/2000/svg">
<g clip-path="url(#clip0_226_7224)">
<g clip-path="url(#clip1_226_7224)">
<g clip-path="url(#clip2_226_7224)">
<path d="M23.9984 47.9971C18.3629 47.9971 13.7852 43.4136 13.7852 37.7839V10.2133C13.7852 4.58354 18.3629 0 23.9984 0C29.6339 0 34.2117 4.58354 34.2117 10.2133V37.7781C34.2117 43.4136 29.6281 47.9914 23.9984 47.9914V47.9971ZM23.9984 2.50852C19.7501 2.50852 16.2879 5.96496 16.2879 10.219V37.7839C16.2879 42.0322 19.7443 45.4944 23.9984 45.4944C28.2525 45.4944 31.7089 42.038 31.7089 37.7839V10.2133C31.7089 5.96496 28.2525 2.50274 23.9984 2.50274V2.50852Z" fill="#5F44FF"/>
<path d="M37.7839 34.2156H10.2133C4.58354 34.2156 0 29.6378 0 24.0023C0 18.3668 4.58354 13.7891 10.2133 13.7891H37.7781C43.4136 13.7891 47.9914 18.3726 47.9914 24.0023C47.9914 29.632 43.4078 34.2156 37.7781 34.2156H37.7839ZM10.2133 16.2918C5.96496 16.2918 2.50274 19.7482 2.50274 24.0023C2.50274 28.2564 5.95918 31.7129 10.2133 31.7129H37.7781C42.0264 31.7129 45.4886 28.2564 45.4886 24.0023C45.4886 19.7482 42.0322 16.2918 37.7781 16.2918H10.2133Z" fill="#5F44FF"/>
<path d="M61.6727 32.1559C61.164 32.1559 60.7016 32.0345 60.2855 31.786C59.8693 31.5375 59.5341 31.208 59.2913 30.7918C59.0428 30.3757 58.9214 29.9133 58.9214 29.4046V28.5145H61.2103V29.3411C61.2103 29.4798 61.2623 29.6069 61.3663 29.711C61.4704 29.815 61.5975 29.867 61.7362 29.867H71.3542C71.4929 29.867 71.6143 29.815 71.7125 29.711C71.8108 29.6069 71.8628 29.4798 71.8628 29.3411V26.2083C71.8628 26.0522 71.8108 25.9251 71.7125 25.8268C71.6143 25.7286 71.4929 25.6765 71.3542 25.6765H61.6727C61.164 25.6765 60.7016 25.5552 60.2855 25.3066C59.8693 25.0581 59.5341 24.7286 59.2913 24.3125C59.0428 23.8963 58.9214 23.4339 58.9214 22.9253V19.6653C58.9214 19.1567 59.0428 18.6943 59.2913 18.2781C59.5398 17.862 59.8693 17.5325 60.2855 17.284C60.7016 17.0354 61.164 16.9141 61.6727 16.9141H71.4177C71.9264 16.9141 72.3888 17.0354 72.805 17.284C73.2211 17.5325 73.5506 17.862 73.7991 18.2781C74.0477 18.6943 74.169 19.1567 74.169 19.6653V20.5555H71.8628V19.7289C71.8628 19.5902 71.8108 19.463 71.7125 19.359C71.6143 19.255 71.4929 19.2029 71.3542 19.2029H61.7362C61.5975 19.2029 61.4704 19.255 61.3663 19.359C61.2623 19.463 61.2103 19.5902 61.2103 19.7289V22.8617C61.2103 23.0177 61.2623 23.1449 61.3663 23.2432C61.4704 23.3414 61.5975 23.3934 61.7362 23.3934H71.4177C71.9264 23.3934 72.3888 23.5148 72.805 23.7634C73.2211 24.0119 73.5506 24.3414 73.7991 24.7575C74.0477 25.1737 74.169 25.6361 74.169 26.1447V29.4046C74.169 29.9133 74.0477 30.3757 73.7991 30.7918C73.5506 31.208 73.2211 31.5375 72.805 31.786C72.3888 32.0345 71.9264 32.1559 71.4177 32.1559H61.6727Z" fill="white"/>
<path d="M79.8564 31.776C79.4403 31.5217 79.105 31.1865 78.8507 30.7703C78.5964 30.3541 78.4692 29.8975 78.4692 29.4062V22.6263C78.4692 22.135 78.5964 21.6784 78.8507 21.2622C79.105 20.846 79.4403 20.5108 79.8564 20.2565C80.2726 20.0022 80.7292 19.875 81.2205 19.875H88.2085C88.7172 19.875 89.1796 20.0022 89.5957 20.2565C90.0119 20.5108 90.3414 20.846 90.5899 21.2622C90.8384 21.6784 90.9598 22.135 90.9598 22.6263V27.1578H80.7523V29.3369C80.7523 29.4756 80.8044 29.6027 80.9084 29.7068C81.0124 29.8108 81.1396 29.8628 81.2783 29.8628H90.9598V32.1517H81.2147C80.7177 32.1517 80.2668 32.0246 79.8507 31.7702L79.8564 31.776ZM80.7581 25.0192H88.6594V22.6899C88.6594 22.5511 88.6074 22.424 88.5091 22.3199C88.4108 22.2159 88.2895 22.1639 88.1507 22.1639H81.2899C81.1512 22.1639 81.024 22.2159 80.92 22.3199C80.8159 22.424 80.7639 22.5511 80.7639 22.6899V25.0192H80.7581Z" fill="white"/>
<path d="M96.1621 31.776C95.7459 31.5217 95.4107 31.1865 95.1564 30.7703C94.9021 30.3541 94.7749 29.8975 94.7749 29.4062V22.6263C94.7749 22.135 94.9021 21.6784 95.1564 21.2622C95.4107 20.846 95.7459 20.5108 96.1621 20.2565C96.5783 20.0022 97.0349 19.875 97.5262 19.875H107.225V22.1639H97.5898C97.451 22.1639 97.3239 22.2159 97.2198 22.3199C97.1158 22.424 97.0638 22.5511 97.0638 22.6899V29.3426C97.0638 29.4814 97.1158 29.6085 97.2198 29.7126C97.3239 29.8166 97.451 29.8686 97.5898 29.8686H107.271V32.1575H97.5262C97.0291 32.1575 96.5783 32.0303 96.1621 31.776Z" fill="white"/>
<path d="M111.762 32.1519V16.8984H124.235C124.744 16.8984 125.212 17.0198 125.634 17.2684C126.056 17.5169 126.391 17.8464 126.64 18.2625C126.888 18.6787 127.01 19.1411 127.01 19.6497V29.3948C127.01 29.9034 126.888 30.3658 126.64 30.782C126.391 31.1982 126.056 31.5276 125.634 31.7762C125.212 32.0247 124.744 32.1461 124.235 32.1461H111.762V32.1519ZM114.56 29.863H124.195C124.334 29.863 124.455 29.811 124.553 29.7069C124.652 29.6029 124.704 29.4757 124.704 29.337V19.7191C124.704 19.5804 124.652 19.4532 124.553 19.3492C124.455 19.2451 124.334 19.1931 124.195 19.1931H114.56C114.421 19.1931 114.3 19.2451 114.201 19.3492C114.103 19.4532 114.051 19.5804 114.051 19.7191V29.337C114.051 29.4757 114.103 29.6029 114.201 29.7069C114.3 29.811 114.421 29.863 114.56 29.863Z" fill="#5F44FF"/>
<path d="M132.784 31.776C132.368 31.5217 132.033 31.1865 131.778 30.7703C131.524 30.3541 131.397 29.8975 131.397 29.4062V22.6263C131.397 22.135 131.524 21.6784 131.778 21.2622C132.033 20.846 132.368 20.5108 132.784 20.2565C133.2 20.0022 133.657 19.875 134.148 19.875H141.136C141.645 19.875 142.107 20.0022 142.523 20.2565C142.94 20.5108 143.269 20.846 143.518 21.2622C143.766 21.6784 143.888 22.135 143.888 22.6263V27.1578H133.68V29.3369C133.68 29.4756 133.732 29.6027 133.836 29.7068C133.94 29.8108 134.067 29.8628 134.206 29.8628H143.888V32.1517H134.142C133.645 32.1517 133.195 32.0246 132.778 31.7702L132.784 31.776ZM133.686 25.0192H141.587V22.6899C141.587 22.5511 141.535 22.424 141.437 22.3199C141.339 22.2159 141.217 22.1639 141.078 22.1639H134.218C134.079 22.1639 133.952 22.2159 133.848 22.3199C133.744 22.424 133.692 22.5511 133.692 22.6899V25.0192H133.686Z" fill="#5F44FF"/>
<path d="M149.413 31.7702C148.997 31.5159 148.662 31.1807 148.407 30.7645C148.153 30.3484 148.026 29.8917 148.026 29.4004V29.0825H150.315V29.3369C150.315 29.4756 150.367 29.6027 150.471 29.7068C150.575 29.8108 150.702 29.8628 150.841 29.8628H157.702C157.84 29.8628 157.962 29.8108 158.06 29.7068C158.158 29.6027 158.21 29.4756 158.21 29.3369V27.6838C158.21 27.5451 158.158 27.4179 158.06 27.3139C157.962 27.2098 157.84 27.1578 157.702 27.1578H150.777C150.28 27.1578 149.829 27.0364 149.413 26.7879C148.997 26.5393 148.662 26.2099 148.407 25.7937C148.153 25.3776 148.026 24.9152 148.026 24.4065V22.6263C148.026 22.135 148.153 21.6784 148.407 21.2622C148.662 20.846 148.997 20.5108 149.413 20.2565C149.829 20.0022 150.286 19.875 150.777 19.875H157.765C158.274 19.875 158.736 20.0022 159.152 20.2565C159.569 20.5108 159.898 20.846 160.147 21.2622C160.395 21.6784 160.516 22.135 160.516 22.6263V22.9442H158.21V22.6899C158.21 22.5511 158.158 22.424 158.06 22.3199C157.962 22.2159 157.84 22.1639 157.702 22.1639H150.841C150.702 22.1639 150.575 22.2159 150.471 22.3199C150.367 22.424 150.315 22.5511 150.315 22.6899V24.3429C150.315 24.4817 150.367 24.6088 150.471 24.7129C150.575 24.8169 150.702 24.8689 150.841 24.8689H157.765C158.274 24.8689 158.736 24.9903 159.152 25.2388C159.569 25.4874 159.898 25.8168 160.147 26.233C160.395 26.6492 160.516 27.1116 160.516 27.6202V29.4004C160.516 29.8975 160.395 30.3484 160.147 30.7645C159.898 31.1807 159.569 31.5159 159.152 31.7702C158.736 32.0246 158.274 32.1517 157.765 32.1517H150.777C150.28 32.1517 149.829 32.0246 149.413 31.7702Z" fill="#5F44FF"/>
<path d="M164.401 32.1549V15.8438H166.69V24.8663H169.441L174.036 19.8666H176.66V20.2886L171.47 26.005L176.66 31.7214V32.1434H174.036L169.441 27.1437H166.69V32.1434H164.401V32.1549Z" fill="#5F44FF"/>
</g>
</g>
</g>
<defs>
<clipPath id="clip0_226_7224">
<rect width="176.66" height="48" fill="white"/>
</clipPath>
<clipPath id="clip1_226_7224">
<rect width="176.66" height="48" fill="white"/>
</clipPath>
<clipPath id="clip2_226_7224">
<rect width="176.66" height="47.9971" fill="white"/>
</clipPath>
</defs>
</svg>
