<svg width="196" height="193" viewBox="0 0 196 193" fill="none" xmlns="http://www.w3.org/2000/svg">
<g filter="url(#filter0_d_311_610)">
<circle cx="99.3333" cy="96.3333" r="80.8333" stroke="url(#paint0_linear_311_610)" stroke-width="5"/>
<circle cx="99.3333" cy="96.3333" r="80.8333" stroke="url(#paint1_radial_311_610)" stroke-width="5" style="mix-blend-mode:overlay"/>
<g filter="url(#filter1_d_311_610)">
<circle cx="38" cy="150" r="25" fill="url(#paint2_linear_311_610)"/>
</g>
<path d="M34.6946 136.977C34.6592 136.546 34.9999 136.176 35.4328 136.176H40.4635C40.8917 136.176 41.2307 136.538 41.2027 136.965L40.0575 154.435C40.032 154.825 39.7086 155.128 39.3184 155.128H36.8643C36.4786 155.128 36.1575 154.832 36.126 154.448L34.6946 136.977Z" fill="url(#paint3_linear_311_610)"/>
<path d="M34.6946 136.977C34.6592 136.546 34.9999 136.176 35.4328 136.176H40.4635C40.8917 136.176 41.2307 136.538 41.2027 136.965L40.0575 154.435C40.032 154.825 39.7086 155.128 39.3184 155.128H36.8643C36.4786 155.128 36.1575 154.832 36.126 154.448L34.6946 136.977Z" fill="url(#paint4_radial_311_610)" style="mix-blend-mode:overlay"/>
<circle cx="37.9635" cy="160.713" r="3.7037" fill="url(#paint5_linear_311_610)"/>
<circle cx="37.9635" cy="160.713" r="3.7037" fill="url(#paint6_radial_311_610)" style="mix-blend-mode:overlay"/>
</g>
<path d="M58 58.6049L98.6914 43L140.074 58.6049V96.4321C135.096 132.146 110.412 146.737 98.6914 149.568C69.0617 141.43 59.2181 110.753 58 96.4321V58.6049Z" fill="url(#paint7_linear_311_610)"/>
<path d="M58 58.6049L98.6914 43L140.074 58.6049V96.4321C135.096 132.146 110.412 146.737 98.6914 149.568C69.0617 141.43 59.2181 110.753 58 96.4321V58.6049Z" stroke="url(#paint8_linear_311_610)" stroke-width="2"/>
<path d="M58 58.6049L98.6914 43L140.074 58.6049V96.4321C135.096 132.146 110.412 146.737 98.6914 149.568C69.0617 141.43 59.2181 110.753 58 96.4321V58.6049Z" stroke="url(#paint9_radial_311_610)" stroke-width="2" style="mix-blend-mode:overlay"/>
<path d="M87 104V85.3333H91V82.6667C91 80.8222 91.6502 79.2502 92.9507 77.9507C94.2511 76.6511 95.8231 76.0009 97.6667 76C99.5102 75.9991 101.083 76.6493 102.384 77.9507C103.685 79.252 104.335 80.824 104.333 82.6667V85.3333H108.333V104H87ZM97.6667 97.3333C98.4 97.3333 99.028 97.0724 99.5507 96.5507C100.073 96.0289 100.334 95.4009 100.333 94.6667C100.332 93.9324 100.072 93.3049 99.5507 92.784C99.0298 92.2631 98.4018 92.0018 97.6667 92C96.9316 91.9982 96.304 92.2596 95.784 92.784C95.264 93.3084 95.0027 93.936 95 94.6667C94.9973 95.3973 95.2587 96.0253 95.784 96.5507C96.3093 97.076 96.9369 97.3369 97.6667 97.3333ZM93.6667 85.3333H101.667V82.6667C101.667 81.5556 101.278 80.6111 100.5 79.8333C99.7222 79.0556 98.7778 78.6667 97.6667 78.6667C96.5556 78.6667 95.6111 79.0556 94.8333 79.8333C94.0556 80.6111 93.6667 81.5556 93.6667 82.6667V85.3333Z" fill="url(#paint10_linear_311_610)"/>
<path d="M87 104V85.3333H91V82.6667C91 80.8222 91.6502 79.2502 92.9507 77.9507C94.2511 76.6511 95.8231 76.0009 97.6667 76C99.5102 75.9991 101.083 76.6493 102.384 77.9507C103.685 79.252 104.335 80.824 104.333 82.6667V85.3333H108.333V104H87ZM97.6667 97.3333C98.4 97.3333 99.028 97.0724 99.5507 96.5507C100.073 96.0289 100.334 95.4009 100.333 94.6667C100.332 93.9324 100.072 93.3049 99.5507 92.784C99.0298 92.2631 98.4018 92.0018 97.6667 92C96.9316 91.9982 96.304 92.2596 95.784 92.784C95.264 93.3084 95.0027 93.936 95 94.6667C94.9973 95.3973 95.2587 96.0253 95.784 96.5507C96.3093 97.076 96.9369 97.3369 97.6667 97.3333ZM93.6667 85.3333H101.667V82.6667C101.667 81.5556 101.278 80.6111 100.5 79.8333C99.7222 79.0556 98.7778 78.6667 97.6667 78.6667C96.5556 78.6667 95.6111 79.0556 94.8333 79.8333C94.0556 80.6111 93.6667 81.5556 93.6667 82.6667V85.3333Z" fill="url(#paint11_radial_311_610)" style="mix-blend-mode:overlay"/>
<defs>
<filter id="filter0_d_311_610" x="0.5" y="0.5" width="194.666" height="191.666" filterUnits="userSpaceOnUse" color-interpolation-filters="sRGB">
<feFlood flood-opacity="0" result="BackgroundImageFix"/>
<feColorMatrix in="SourceAlpha" type="matrix" values="0 0 0 0 0 0 0 0 0 0 0 0 0 0 0 0 0 0 127 0" result="hardAlpha"/>
<feOffset/>
<feGaussianBlur stdDeviation="6.25"/>
<feComposite in2="hardAlpha" operator="out"/>
<feColorMatrix type="matrix" values="0 0 0 0 0 0 0 0 0 0 0 0 0 0 0 0 0 0 0.1 0"/>
<feBlend mode="normal" in2="BackgroundImageFix" result="effect1_dropShadow_311_610"/>
<feBlend mode="normal" in="SourceGraphic" in2="effect1_dropShadow_311_610" result="shape"/>
</filter>
<filter id="filter1_d_311_610" x="9" y="125" width="58" height="58" filterUnits="userSpaceOnUse" color-interpolation-filters="sRGB">
<feFlood flood-opacity="0" result="BackgroundImageFix"/>
<feColorMatrix in="SourceAlpha" type="matrix" values="0 0 0 0 0 0 0 0 0 0 0 0 0 0 0 0 0 0 127 0" result="hardAlpha"/>
<feOffset dy="4"/>
<feGaussianBlur stdDeviation="2"/>
<feComposite in2="hardAlpha" operator="out"/>
<feColorMatrix type="matrix" values="0 0 0 0 0 0 0 0 0 0 0 0 0 0 0 0 0 0 0.1 0"/>
<feBlend mode="normal" in2="BackgroundImageFix" result="effect1_dropShadow_311_610"/>
<feBlend mode="normal" in="SourceGraphic" in2="effect1_dropShadow_311_610" result="shape"/>
</filter>
<linearGradient id="paint0_linear_311_610" x1="16" y1="123.424" x2="186.007" y2="64.556" gradientUnits="userSpaceOnUse">
<stop offset="0.0677083" stop-color="#4D5455"/>
<stop offset="0.21875" stop-color="#9EA1A1"/>
<stop offset="0.453125" stop-color="#848B8A"/>
<stop offset="0.524381" stop-color="#535D5E"/>
<stop offset="0.796875" stop-color="#4B5355"/>
<stop offset="0.895833" stop-color="#757A7B"/>
<stop offset="1" stop-color="#4D5455"/>
</linearGradient>
<radialGradient id="paint1_radial_311_610" cx="0" cy="0" r="1" gradientUnits="userSpaceOnUse" gradientTransform="translate(16 -1.42874) rotate(60.1911) scale(153.733 162.363)">
<stop stop-color="white"/>
<stop offset="1" stop-color="white" stop-opacity="0"/>
</radialGradient>
<linearGradient id="paint2_linear_311_610" x1="13" y1="121.236" x2="58.0712" y2="174.671" gradientUnits="userSpaceOnUse">
<stop stop-color="#FFF2D6"/>
<stop offset="0.212795" stop-color="#9D8555"/>
<stop offset="0.57751" stop-color="#D8C08F"/>
<stop offset="1" stop-color="#58400F"/>
</linearGradient>
<linearGradient id="paint3_linear_311_610" x1="34.6289" y1="148.732" x2="42.0882" y2="147.829" gradientUnits="userSpaceOnUse">
<stop offset="0.0677083" stop-color="#4D5455"/>
<stop offset="0.21875" stop-color="#9EA1A1"/>
<stop offset="0.453125" stop-color="#848B8A"/>
<stop offset="0.524381" stop-color="#535D5E"/>
<stop offset="0.796875" stop-color="#4B5355"/>
<stop offset="0.895833" stop-color="#757A7B"/>
<stop offset="1" stop-color="#4D5455"/>
</linearGradient>
<radialGradient id="paint4_radial_311_610" cx="0" cy="0" r="1" gradientUnits="userSpaceOnUse" gradientTransform="translate(34.6289 134.535) rotate(78.6742) scale(15.4695 7.29379)">
<stop stop-color="white"/>
<stop offset="1" stop-color="white" stop-opacity="0"/>
</radialGradient>
<linearGradient id="paint5_linear_311_610" x1="34.2598" y1="161.917" x2="41.8156" y2="159.301" gradientUnits="userSpaceOnUse">
<stop offset="0.0677083" stop-color="#4D5455"/>
<stop offset="0.21875" stop-color="#9EA1A1"/>
<stop offset="0.453125" stop-color="#848B8A"/>
<stop offset="0.524381" stop-color="#535D5E"/>
<stop offset="0.796875" stop-color="#4B5355"/>
<stop offset="0.895833" stop-color="#757A7B"/>
<stop offset="1" stop-color="#4D5455"/>
</linearGradient>
<radialGradient id="paint6_radial_311_610" cx="0" cy="0" r="1" gradientUnits="userSpaceOnUse" gradientTransform="translate(34.2598 156.368) rotate(60.1911) scale(6.83258 7.21613)">
<stop stop-color="white"/>
<stop offset="1" stop-color="white" stop-opacity="0"/>
</radialGradient>
<linearGradient id="paint7_linear_311_610" x1="58" y1="34.9765" x2="155.057" y2="123.597" gradientUnits="userSpaceOnUse">
<stop stop-color="#FFF2D6"/>
<stop offset="0.212795" stop-color="#9D8555"/>
<stop offset="0.57751" stop-color="#D8C08F"/>
<stop offset="1" stop-color="#58400F"/>
</linearGradient>
<linearGradient id="paint8_linear_311_610" x1="58" y1="113.606" x2="145.532" y2="90.2628" gradientUnits="userSpaceOnUse">
<stop offset="0.0677083" stop-color="#4D5455"/>
<stop offset="0.21875" stop-color="#9EA1A1"/>
<stop offset="0.453125" stop-color="#848B8A"/>
<stop offset="0.524381" stop-color="#535D5E"/>
<stop offset="0.796875" stop-color="#4B5355"/>
<stop offset="0.895833" stop-color="#757A7B"/>
<stop offset="1" stop-color="#4D5455"/>
</linearGradient>
<radialGradient id="paint9_radial_311_610" cx="0" cy="0" r="1" gradientUnits="userSpaceOnUse" gradientTransform="translate(58 33.7742) rotate(66.1913) scale(93.2256 84.305)">
<stop stop-color="white"/>
<stop offset="1" stop-color="white" stop-opacity="0"/>
</radialGradient>
<linearGradient id="paint10_linear_311_610" x1="87" y1="94.5512" x2="109.784" y2="88.5402" gradientUnits="userSpaceOnUse">
<stop offset="0.0677083" stop-color="#4D5455"/>
<stop offset="0.21875" stop-color="#9EA1A1"/>
<stop offset="0.453125" stop-color="#848B8A"/>
<stop offset="0.524381" stop-color="#535D5E"/>
<stop offset="0.796875" stop-color="#4B5355"/>
<stop offset="0.895833" stop-color="#757A7B"/>
<stop offset="1" stop-color="#4D5455"/>
</linearGradient>
<radialGradient id="paint11_radial_311_610" cx="0" cy="0" r="1" gradientUnits="userSpaceOnUse" gradientTransform="translate(87 73.576) rotate(66.4185) scale(24.4518 21.9514)">
<stop stop-color="white"/>
<stop offset="1" stop-color="white" stop-opacity="0"/>
</radialGradient>
</defs>
</svg>
