<svg width="270" height="270" viewBox="0 0 270 270" fill="none" xmlns="http://www.w3.org/2000/svg">
<path d="M145.464 136.967C145.284 136.843 145.041 136.89 144.919 137.07C144.796 137.248 144.842 137.492 145.021 137.615C148.427 139.949 150.243 142.71 150.286 145.608C150.512 145.169 150.728 144.72 150.934 144.256C150.434 141.594 148.572 139.097 145.464 136.967Z" fill="url(#paint0_linear_339_1325)"/>
<path d="M145.464 136.967C145.284 136.843 145.041 136.89 144.919 137.07C144.796 137.248 144.842 137.492 145.021 137.615C148.427 139.949 150.243 142.71 150.286 145.608C150.512 145.169 150.728 144.72 150.934 144.256C150.434 141.594 148.572 139.097 145.464 136.967Z" fill="url(#paint1_radial_339_1325)" style="mix-blend-mode:overlay"/>
<path d="M127.427 131.616C134.025 132.631 139.625 134.399 143.619 136.728C143.681 136.764 143.749 136.781 143.816 136.781C143.951 136.781 144.083 136.711 144.156 136.586C144.264 136.399 144.201 136.159 144.014 136.05C139.936 133.672 134.241 131.871 127.546 130.84C122.25 130.025 118.053 125.526 117.566 120.142C117.561 120.083 117.541 120.03 117.513 119.982C117.343 120.587 117.192 121.211 117.054 121.847C118.192 126.838 122.326 130.83 127.427 131.616Z" fill="url(#paint2_linear_339_1325)"/>
<path d="M127.427 131.616C134.025 132.631 139.625 134.399 143.619 136.728C143.681 136.764 143.749 136.781 143.816 136.781C143.951 136.781 144.083 136.711 144.156 136.586C144.264 136.399 144.201 136.159 144.014 136.05C139.936 133.672 134.241 131.871 127.546 130.84C122.25 130.025 118.053 125.526 117.566 120.142C117.561 120.083 117.541 120.03 117.513 119.982C117.343 120.587 117.192 121.211 117.054 121.847C118.192 126.838 122.326 130.83 127.427 131.616Z" fill="url(#paint3_radial_339_1325)" style="mix-blend-mode:overlay"/>
<path d="M137.615 131.139C137.41 131.072 137.188 131.187 137.122 131.393C137.056 131.599 137.169 131.82 137.376 131.887C145.118 134.369 150.048 138.047 151.665 142.443C151.799 142.075 151.928 141.7 152.049 141.319C150.059 137.069 145.105 133.54 137.615 131.139Z" fill="url(#paint4_linear_339_1325)"/>
<path d="M137.615 131.139C137.41 131.072 137.188 131.187 137.122 131.393C137.056 131.599 137.169 131.82 137.376 131.887C145.118 134.369 150.048 138.047 151.665 142.443C151.799 142.075 151.928 141.7 152.049 141.319C150.059 137.069 145.105 133.54 137.615 131.139Z" fill="url(#paint5_radial_339_1325)" style="mix-blend-mode:overlay"/>
<path d="M127.723 129.678C130.507 130.107 133.134 130.663 135.53 131.334C135.737 131.392 135.955 131.27 136.013 131.062C136.072 130.854 135.95 130.637 135.741 130.578C133.315 129.899 130.657 129.336 127.843 128.901C123.075 128.167 119.479 123.947 119.479 119.084V114.878C119.203 115.428 118.941 115.996 118.695 116.583V119.084C118.695 124.331 122.576 128.885 127.723 129.678Z" fill="url(#paint6_linear_339_1325)"/>
<path d="M127.723 129.678C130.507 130.107 133.134 130.663 135.53 131.334C135.737 131.392 135.955 131.27 136.013 131.062C136.072 130.854 135.95 130.637 135.741 130.578C133.315 129.899 130.657 129.336 127.843 128.901C123.075 128.167 119.479 123.947 119.479 119.084V114.878C119.203 115.428 118.941 115.996 118.695 116.583V119.084C118.695 124.331 122.576 128.885 127.723 129.678Z" fill="url(#paint7_radial_339_1325)" style="mix-blend-mode:overlay"/>
<path d="M121.881 122.728C122.08 122.643 122.172 122.412 122.087 122.214C121.659 121.216 121.442 120.163 121.442 119.084V111.606C121.172 111.986 120.911 112.379 120.658 112.783V119.084C120.658 120.27 120.895 121.426 121.365 122.522C121.45 122.721 121.68 122.814 121.881 122.728Z" fill="url(#paint8_linear_339_1325)"/>
<path d="M121.881 122.728C122.08 122.643 122.172 122.412 122.087 122.214C121.659 121.216 121.442 120.163 121.442 119.084V111.606C121.172 111.986 120.911 112.379 120.658 112.783V119.084C120.658 120.27 120.895 121.426 121.365 122.522C121.45 122.721 121.68 122.814 121.881 122.728Z" fill="url(#paint9_radial_339_1325)" style="mix-blend-mode:overlay"/>
<path d="M128.141 126.962C126.088 126.646 124.198 125.476 122.956 123.75C122.829 123.574 122.584 123.535 122.407 123.661C122.232 123.787 122.192 124.033 122.318 124.209C123.683 126.104 125.762 127.391 128.021 127.738C140.422 129.647 149.04 133.955 152.508 139.717C152.598 139.371 152.683 139.02 152.763 138.664C148.927 133.024 140.31 128.834 128.141 126.962Z" fill="url(#paint10_linear_339_1325)"/>
<path d="M128.141 126.962C126.088 126.646 124.198 125.476 122.956 123.75C122.829 123.574 122.584 123.535 122.407 123.661C122.232 123.787 122.192 124.033 122.318 124.209C123.683 126.104 125.762 127.391 128.021 127.738C140.422 129.647 149.04 133.955 152.508 139.717C152.598 139.371 152.683 139.02 152.763 138.664C148.927 133.024 140.31 128.834 128.141 126.962Z" fill="url(#paint11_radial_339_1325)" style="mix-blend-mode:overlay"/>
<path d="M123.013 113.948C122.796 113.948 122.62 114.124 122.62 114.341V119.084C122.62 121.93 124.404 124.497 127.061 125.473C127.105 125.489 127.151 125.497 127.196 125.497C127.356 125.497 127.506 125.398 127.565 125.24C127.64 125.037 127.535 124.812 127.332 124.737C124.984 123.874 123.405 121.602 123.405 119.085V114.342C123.405 114.124 123.23 113.948 123.013 113.948Z" fill="url(#paint12_linear_339_1325)"/>
<path d="M123.013 113.948C122.796 113.948 122.62 114.124 122.62 114.341V119.084C122.62 121.93 124.404 124.497 127.061 125.473C127.105 125.489 127.151 125.497 127.196 125.497C127.356 125.497 127.506 125.398 127.565 125.24C127.64 125.037 127.535 124.812 127.332 124.737C124.984 123.874 123.405 121.602 123.405 119.085V114.342C123.405 114.124 123.23 113.948 123.013 113.948Z" fill="url(#paint13_radial_339_1325)" style="mix-blend-mode:overlay"/>
<path d="M129.385 125.173C129.167 125.137 128.968 125.282 128.933 125.496C128.897 125.71 129.042 125.912 129.255 125.948C140.613 127.835 148.881 131.806 153.071 137.125C153.13 136.785 153.186 136.441 153.236 136.092C148.794 130.892 140.546 127.027 129.385 125.173Z" fill="url(#paint14_linear_339_1325)"/>
<path d="M129.385 125.173C129.167 125.137 128.968 125.282 128.933 125.496C128.897 125.71 129.042 125.912 129.255 125.948C140.613 127.835 148.881 131.806 153.071 137.125C153.13 136.785 153.186 136.441 153.236 136.092C148.794 130.892 140.546 127.027 129.385 125.173Z" fill="url(#paint15_radial_339_1325)" style="mix-blend-mode:overlay"/>
<path d="M123.014 111.888C123.23 111.888 123.406 111.712 123.406 111.496V109.212C123.139 109.495 122.877 109.789 122.62 110.092V111.496C122.621 111.712 122.797 111.888 123.014 111.888Z" fill="url(#paint16_linear_339_1325)"/>
<path d="M123.014 111.888C123.23 111.888 123.406 111.712 123.406 111.496V109.212C123.139 109.495 122.877 109.789 122.62 110.092V111.496C122.621 111.712 122.797 111.888 123.014 111.888Z" fill="url(#paint17_radial_339_1325)" style="mix-blend-mode:overlay"/>
<path d="M128.62 123.858C133.998 124.686 138.807 125.974 142.914 127.687C143.114 127.77 143.344 127.675 143.428 127.475C143.511 127.275 143.417 127.045 143.217 126.962C139.051 125.224 134.181 123.919 128.74 123.081C126.818 122.786 125.368 121.067 125.368 119.082V107.386C125.103 107.601 124.842 107.824 124.583 108.057V119.083C124.583 121.451 126.319 123.504 128.62 123.858Z" fill="url(#paint18_linear_339_1325)"/>
<path d="M128.62 123.858C133.998 124.686 138.807 125.974 142.914 127.687C143.114 127.77 143.344 127.675 143.428 127.475C143.511 127.275 143.417 127.045 143.217 126.962C139.051 125.224 134.181 123.919 128.74 123.081C126.818 122.786 125.368 121.067 125.368 119.082V107.386C125.103 107.601 124.842 107.824 124.583 108.057V119.083C124.583 121.451 126.319 123.504 128.62 123.858Z" fill="url(#paint19_radial_339_1325)" style="mix-blend-mode:overlay"/>
<path d="M144.908 128.143C144.813 128.338 144.895 128.573 145.09 128.668C148.541 130.344 151.323 132.309 153.427 134.515C153.461 134.17 153.493 133.823 153.518 133.471C151.414 131.402 148.711 129.553 145.433 127.962C145.236 127.869 145.002 127.949 144.908 128.143Z" fill="url(#paint20_linear_339_1325)"/>
<path d="M144.908 128.143C144.813 128.338 144.895 128.573 145.09 128.668C148.541 130.344 151.323 132.309 153.427 134.515C153.461 134.17 153.493 133.823 153.518 133.471C151.414 131.402 148.711 129.553 145.433 127.962C145.236 127.869 145.002 127.949 144.908 128.143Z" fill="url(#paint21_radial_339_1325)" style="mix-blend-mode:overlay"/>
<path d="M130.152 121.719C130.115 121.933 130.258 122.136 130.471 122.173C140.608 123.935 148.506 127.363 153.592 131.987C153.603 131.646 153.609 131.301 153.611 130.953C148.402 126.458 140.559 123.129 130.606 121.4C130.392 121.36 130.19 121.507 130.152 121.719Z" fill="url(#paint22_linear_339_1325)"/>
<path d="M130.152 121.719C130.115 121.933 130.258 122.136 130.471 122.173C140.608 123.935 148.506 127.363 153.592 131.987C153.603 131.646 153.609 131.301 153.611 130.953C148.402 126.458 140.559 123.129 130.606 121.4C130.392 121.36 130.19 121.507 130.152 121.719Z" fill="url(#paint23_radial_339_1325)" style="mix-blend-mode:overlay"/>
<path d="M128.072 121.639C128.264 121.739 128.501 121.667 128.602 121.474C128.703 121.282 128.629 121.045 128.437 120.944C127.764 120.59 127.329 119.859 127.329 119.083V105.994C127.065 106.156 126.803 106.325 126.545 106.503V119.083C126.545 120.148 127.144 121.151 128.072 121.639Z" fill="url(#paint24_linear_339_1325)"/>
<path d="M128.072 121.639C128.264 121.739 128.501 121.667 128.602 121.474C128.703 121.282 128.629 121.045 128.437 120.944C127.764 120.59 127.329 119.859 127.329 119.083V105.994C127.065 106.156 126.803 106.325 126.545 106.503V119.083C126.545 120.148 127.144 121.151 128.072 121.639Z" fill="url(#paint25_radial_339_1325)" style="mix-blend-mode:overlay"/>
<path d="M146.617 124.619C146.522 124.814 146.603 125.049 146.799 125.144C149.385 126.398 151.657 127.832 153.614 129.411C153.614 129.068 153.605 128.73 153.596 128.394C151.71 126.938 149.56 125.61 147.142 124.436C146.946 124.344 146.711 124.424 146.617 124.619Z" fill="url(#paint26_linear_339_1325)"/>
<path d="M146.617 124.619C146.522 124.814 146.603 125.049 146.799 125.144C149.385 126.398 151.657 127.832 153.614 129.411C153.614 129.068 153.605 128.73 153.596 128.394C151.71 126.938 149.56 125.61 147.142 124.436C146.946 124.344 146.711 124.424 146.617 124.619Z" fill="url(#paint27_radial_339_1325)" style="mix-blend-mode:overlay"/>
<path d="M128.9 108.123C129.117 108.123 129.293 107.948 129.293 107.731V104.966C129.03 105.082 128.768 105.207 128.507 105.339V107.731C128.507 107.948 128.684 108.123 128.9 108.123Z" fill="url(#paint28_linear_339_1325)"/>
<path d="M128.9 108.123C129.117 108.123 129.293 107.948 129.293 107.731V104.966C129.03 105.082 128.768 105.207 128.507 105.339V107.731C128.507 107.948 128.684 108.123 128.9 108.123Z" fill="url(#paint29_radial_339_1325)" style="mix-blend-mode:overlay"/>
<path d="M129.292 109.563C129.292 109.346 129.117 109.17 128.9 109.17C128.683 109.17 128.507 109.345 128.507 109.563V119.083C128.507 119.524 128.819 119.917 129.217 119.98C134.892 120.853 140.006 122.229 144.418 124.071C144.467 124.092 144.519 124.101 144.569 124.101C144.722 124.101 144.868 124.011 144.93 123.86C145.014 123.66 144.92 123.429 144.719 123.346C140.248 121.48 135.073 120.085 129.353 119.208C129.338 119.199 129.291 119.154 129.291 119.083V109.563H129.292Z" fill="url(#paint30_linear_339_1325)"/>
<path d="M129.292 109.563C129.292 109.346 129.117 109.17 128.9 109.17C128.683 109.17 128.507 109.345 128.507 109.563V119.083C128.507 119.524 128.819 119.917 129.217 119.98C134.892 120.853 140.006 122.229 144.418 124.071C144.467 124.092 144.519 124.101 144.569 124.101C144.722 124.101 144.868 124.011 144.93 123.86C145.014 123.66 144.92 123.429 144.719 123.346C140.248 121.48 135.073 120.085 129.353 119.208C129.338 119.199 129.291 119.154 129.291 119.083V109.563H129.292Z" fill="url(#paint31_radial_339_1325)" style="mix-blend-mode:overlay"/>
<path d="M130.863 116.499C131.079 116.499 131.256 116.324 131.256 116.107V104.26C130.993 104.333 130.731 104.415 130.47 104.505V116.107C130.47 116.324 130.647 116.499 130.863 116.499Z" fill="url(#paint32_linear_339_1325)"/>
<path d="M130.863 116.499C131.079 116.499 131.256 116.324 131.256 116.107V104.26C130.993 104.333 130.731 104.415 130.47 104.505V116.107C130.47 116.324 130.647 116.499 130.863 116.499Z" fill="url(#paint33_radial_339_1325)" style="mix-blend-mode:overlay"/>
<path d="M131.433 118.356C140.561 119.977 148.037 122.922 153.52 126.888C153.496 126.541 153.466 126.2 153.433 125.86C147.907 122.023 140.516 119.172 131.571 117.583C131.355 117.542 131.153 117.688 131.116 117.901C131.078 118.114 131.22 118.319 131.433 118.356Z" fill="url(#paint34_linear_339_1325)"/>
<path d="M131.433 118.356C140.561 119.977 148.037 122.922 153.52 126.888C153.496 126.541 153.466 126.2 153.433 125.86C147.907 122.023 140.516 119.172 131.571 117.583C131.355 117.542 131.153 117.688 131.116 117.901C131.078 118.114 131.22 118.319 131.433 118.356Z" fill="url(#paint35_radial_339_1325)" style="mix-blend-mode:overlay"/>
<path d="M146.21 120.15C146.125 120.349 146.217 120.58 146.416 120.665C148.925 121.745 151.2 122.967 153.251 124.308C153.202 123.955 153.148 123.606 153.088 123.262C151.157 122.049 149.036 120.939 146.726 119.945C146.526 119.857 146.296 119.95 146.21 120.15Z" fill="url(#paint36_linear_339_1325)"/>
<path d="M146.21 120.15C146.125 120.349 146.217 120.58 146.416 120.665C148.925 121.745 151.2 122.967 153.251 124.308C153.202 123.955 153.148 123.606 153.088 123.262C151.157 122.049 149.036 120.939 146.726 119.945C146.526 119.857 146.296 119.95 146.21 120.15Z" fill="url(#paint37_radial_339_1325)" style="mix-blend-mode:overlay"/>
<path d="M132.752 116.605C137.038 117.419 141.031 118.538 144.62 119.931C144.822 120.007 145.049 119.91 145.128 119.707C145.206 119.504 145.106 119.277 144.903 119.198C141.36 117.824 137.429 116.712 133.218 115.894V103.851C132.957 103.884 132.695 103.926 132.433 103.976V116.218C132.433 116.407 132.567 116.57 132.752 116.605Z" fill="url(#paint38_linear_339_1325)"/>
<path d="M132.752 116.605C137.038 117.419 141.031 118.538 144.62 119.931C144.822 120.007 145.049 119.91 145.128 119.707C145.206 119.504 145.106 119.277 144.903 119.198C141.36 117.824 137.429 116.712 133.218 115.894V103.851C132.957 103.884 132.695 103.926 132.433 103.976V116.218C132.433 116.407 132.567 116.57 132.752 116.605Z" fill="url(#paint39_radial_339_1325)" style="mix-blend-mode:overlay"/>
<path d="M134.705 114.994C141.747 116.479 147.824 118.778 152.79 121.741C152.711 121.385 152.628 121.032 152.539 120.686C147.622 117.863 141.691 115.666 134.868 114.227L134.705 114.994Z" fill="url(#paint40_linear_339_1325)"/>
<path d="M134.705 114.994C141.747 116.479 147.824 118.778 152.79 121.741C152.711 121.385 152.628 121.032 152.539 120.686C147.622 117.863 141.691 115.666 134.868 114.227L134.705 114.994Z" fill="url(#paint41_radial_339_1325)" style="mix-blend-mode:overlay"/>
<path d="M135.179 103.755C135.108 103.755 135.038 103.749 134.967 103.75C134.956 103.75 134.945 103.75 134.933 103.75C134.922 103.75 134.911 103.75 134.899 103.75C134.732 103.749 134.563 103.757 134.395 103.763V112.869H135.179V103.755Z" fill="url(#paint42_linear_339_1325)"/>
<path d="M135.179 103.755C135.108 103.755 135.038 103.749 134.967 103.75C134.956 103.75 134.945 103.75 134.933 103.75C134.922 103.75 134.911 103.75 134.899 103.75C134.732 103.749 134.563 103.757 134.395 103.763V112.869H135.179V103.755Z" fill="url(#paint43_radial_339_1325)" style="mix-blend-mode:overlay"/>
<path d="M136.661 113.418C142.49 114.769 147.66 116.69 152.086 119.091C151.97 118.726 151.85 118.367 151.724 118.014C147.48 115.803 142.6 114.014 137.143 112.724V103.93C136.881 103.886 136.619 103.85 136.357 103.823V113.035C136.357 113.218 136.483 113.376 136.661 113.418Z" fill="url(#paint44_linear_339_1325)"/>
<path d="M136.661 113.418C142.49 114.769 147.66 116.69 152.086 119.091C151.97 118.726 151.85 118.367 151.724 118.014C147.48 115.803 142.6 114.014 137.143 112.724V103.93C136.881 103.886 136.619 103.85 136.357 103.823V113.035C136.357 113.218 136.483 113.376 136.661 113.418Z" fill="url(#paint45_radial_339_1325)" style="mix-blend-mode:overlay"/>
<path d="M144.437 113.61C146.792 114.427 149.007 115.351 151.084 116.367C150.921 115.988 150.753 115.617 150.577 115.254C148.72 114.384 146.76 113.585 144.694 112.868L144.437 113.61Z" fill="url(#paint46_linear_339_1325)"/>
<path d="M144.437 113.61C146.792 114.427 149.007 115.351 151.084 116.367C150.921 115.988 150.753 115.617 150.577 115.254C148.72 114.384 146.76 113.585 144.694 112.868L144.437 113.61Z" fill="url(#paint47_radial_339_1325)" style="mix-blend-mode:overlay"/>
<path d="M138.616 111.873C139.674 112.141 140.729 112.433 141.752 112.742L141.978 111.99C141.04 111.707 140.074 111.438 139.105 111.189V104.402C138.844 104.318 138.582 104.243 138.32 104.175V111.492C138.32 111.673 138.442 111.829 138.616 111.873Z" fill="url(#paint48_linear_339_1325)"/>
<path d="M138.616 111.873C139.674 112.141 140.729 112.433 141.752 112.742L141.978 111.99C141.04 111.707 140.074 111.438 139.105 111.189V104.402C138.844 104.318 138.582 104.243 138.32 104.175V111.492C138.32 111.673 138.442 111.829 138.616 111.873Z" fill="url(#paint49_radial_339_1325)" style="mix-blend-mode:overlay"/>
<path d="M140.569 110.357C143.815 111.249 146.855 112.322 149.677 113.561C149.45 113.167 149.217 112.782 148.975 112.411C146.492 111.376 143.857 110.46 141.066 109.681V105.194C140.806 105.068 140.544 104.951 140.282 104.842V109.98C140.282 110.157 140.399 110.311 140.569 110.357Z" fill="url(#paint50_linear_339_1325)"/>
<path d="M140.569 110.357C143.815 111.249 146.855 112.322 149.677 113.561C149.45 113.167 149.217 112.782 148.975 112.411C146.492 111.376 143.857 110.46 141.066 109.681V105.194C140.806 105.068 140.544 104.951 140.282 104.842V109.98C140.282 110.157 140.399 110.311 140.569 110.357Z" fill="url(#paint51_radial_339_1325)" style="mix-blend-mode:overlay"/>
<path d="M142.524 108.876C144.312 109.405 146.032 109.995 147.694 110.633C147.352 110.202 146.998 109.793 146.636 109.4C145.462 108.978 144.262 108.578 143.028 108.207V106.308C142.769 106.137 142.507 105.975 142.243 105.82V108.5C142.244 108.674 142.357 108.827 142.524 108.876Z" fill="url(#paint52_linear_339_1325)"/>
<path d="M142.524 108.876C144.312 109.405 146.032 109.995 147.694 110.633C147.352 110.202 146.998 109.793 146.636 109.4C145.462 108.978 144.262 108.578 143.028 108.207V106.308C142.769 106.137 142.507 105.975 142.243 105.82V108.5C142.244 108.674 142.357 108.827 142.524 108.876Z" fill="url(#paint53_radial_339_1325)" style="mix-blend-mode:overlay"/>
<path d="M146.953 145.715C146.953 143.563 144.967 141.291 141.36 139.318C141.169 139.213 140.931 139.283 140.828 139.473C140.723 139.663 140.794 139.902 140.983 140.006C144.279 141.809 146.169 143.89 146.169 145.714C146.169 148.899 140.26 153.176 129.259 155.309C129.713 155.51 130.169 155.688 130.627 155.84C141.814 153.468 146.953 149.079 146.953 145.715Z" fill="url(#paint54_linear_339_1325)"/>
<path d="M146.953 145.715C146.953 143.563 144.967 141.291 141.36 139.318C141.169 139.213 140.931 139.283 140.828 139.473C140.723 139.663 140.794 139.902 140.983 140.006C144.279 141.809 146.169 143.89 146.169 145.714C146.169 148.899 140.26 153.176 129.259 155.309C129.713 155.51 130.169 155.688 130.627 155.84C141.814 153.468 146.953 149.079 146.953 145.715Z" fill="url(#paint55_radial_339_1325)" style="mix-blend-mode:overlay"/>
<path d="M126.798 135.689C131.557 136.421 135.829 137.6 139.152 139.096C139.35 139.188 139.583 139.098 139.671 138.901C139.761 138.703 139.672 138.47 139.475 138.381C136.04 136.833 131.815 135.667 126.918 134.913C122.451 134.226 118.689 131.762 116.274 128.299C116.261 128.717 116.25 129.138 116.25 129.566V129.569C118.786 132.766 122.475 135.023 126.798 135.689Z" fill="url(#paint56_linear_339_1325)"/>
<path d="M126.798 135.689C131.557 136.421 135.829 137.6 139.152 139.096C139.35 139.188 139.583 139.098 139.671 138.901C139.761 138.703 139.672 138.47 139.475 138.381C136.04 136.833 131.815 135.667 126.918 134.913C122.451 134.226 118.689 131.762 116.274 128.299C116.261 128.717 116.25 129.138 116.25 129.566V129.569C118.786 132.766 122.475 135.023 126.798 135.689Z" fill="url(#paint57_radial_339_1325)" style="mix-blend-mode:overlay"/>
<path d="M130.543 153.042C130.331 153.09 130.198 153.3 130.245 153.511C130.287 153.694 130.449 153.818 130.628 153.818C130.657 153.818 130.686 153.815 130.715 153.808C140.563 151.604 144.992 147.747 144.992 145.713C144.992 145.166 144.688 144.519 144.113 143.841C143.973 143.676 143.725 143.656 143.56 143.795C143.394 143.935 143.374 144.183 143.514 144.349C144.117 145.059 144.206 145.509 144.206 145.713C144.207 147.203 140.198 150.881 130.543 153.042Z" fill="url(#paint58_linear_339_1325)"/>
<path d="M130.543 153.042C130.331 153.09 130.198 153.3 130.245 153.511C130.287 153.694 130.449 153.818 130.628 153.818C130.657 153.818 130.686 153.815 130.715 153.808C140.563 151.604 144.992 147.747 144.992 145.713C144.992 145.166 144.688 144.519 144.113 143.841C143.973 143.676 143.725 143.656 143.56 143.795C143.394 143.935 143.374 144.183 143.514 144.349C144.117 145.059 144.206 145.509 144.206 145.713C144.207 147.203 140.198 150.881 130.543 153.042Z" fill="url(#paint59_radial_339_1325)" style="mix-blend-mode:overlay"/>
<path d="M142.201 143.131C142.273 143.186 142.357 143.212 142.441 143.212C142.558 143.212 142.675 143.16 142.752 143.059C142.884 142.888 142.853 142.641 142.681 142.509C140.754 141.023 136.105 138.313 126.62 136.852C122.602 136.234 118.969 134.28 116.263 131.396C116.27 131.783 116.279 132.167 116.296 132.545C119.048 135.217 122.599 137.028 126.501 137.628C136.159 139.116 140.699 141.972 142.201 143.131Z" fill="url(#paint60_linear_339_1325)"/>
<path d="M142.201 143.131C142.273 143.186 142.357 143.212 142.441 143.212C142.558 143.212 142.675 143.16 142.752 143.059C142.884 142.888 142.853 142.641 142.681 142.509C140.754 141.023 136.105 138.313 126.62 136.852C122.602 136.234 118.969 134.28 116.263 131.396C116.27 131.783 116.279 132.167 116.296 132.545C119.048 135.217 122.599 137.028 126.501 137.628C136.159 139.116 140.699 141.972 142.201 143.131Z" fill="url(#paint61_radial_339_1325)" style="mix-blend-mode:overlay"/>
<path d="M127.879 153.573C127.448 153.649 127.005 153.722 126.554 153.792C126.881 154.016 127.21 154.227 127.543 154.424C127.699 154.398 127.861 154.373 128.015 154.346C128.229 154.309 128.372 154.106 128.334 153.892C128.296 153.678 128.093 153.531 127.879 153.573Z" fill="url(#paint62_linear_339_1325)"/>
<path d="M127.879 153.573C127.448 153.649 127.005 153.722 126.554 153.792C126.881 154.016 127.21 154.227 127.543 154.424C127.699 154.398 127.861 154.373 128.015 154.346C128.229 154.309 128.372 154.106 128.334 153.892C128.296 153.678 128.093 153.531 127.879 153.573Z" fill="url(#paint63_radial_339_1325)" style="mix-blend-mode:overlay"/>
<path d="M124.649 138.87C124.703 138.661 124.576 138.447 124.366 138.393C121.352 137.622 118.661 136.165 116.413 134.23C116.448 134.613 116.485 134.993 116.532 135.367C118.735 137.113 121.318 138.423 124.172 139.153C124.381 139.208 124.595 139.081 124.649 138.87Z" fill="url(#paint64_linear_339_1325)"/>
<path d="M124.649 138.87C124.703 138.661 124.576 138.447 124.366 138.393C121.352 137.622 118.661 136.165 116.413 134.23C116.448 134.613 116.485 134.993 116.532 135.367C118.735 137.113 121.318 138.423 124.172 139.153C124.381 139.208 124.595 139.081 124.649 138.87Z" fill="url(#paint65_radial_339_1325)" style="mix-blend-mode:overlay"/>
<path d="M142.915 145.916C142.99 145.791 142.99 145.636 142.915 145.512C142.889 145.469 140.201 141.202 127.636 139.008C127.42 138.967 127.218 139.113 127.181 139.327C127.144 139.54 127.287 139.743 127.5 139.781C137.05 141.448 141.102 144.437 142.093 145.702C141.364 146.559 137.728 150.085 126.199 151.86C125.637 151.947 125.083 152.059 124.535 152.19C124.777 152.41 125.023 152.623 125.272 152.827C125.618 152.755 125.967 152.69 126.319 152.637C140.008 150.529 142.888 145.962 142.915 145.916Z" fill="url(#paint66_linear_339_1325)"/>
<path d="M142.915 145.916C142.99 145.791 142.99 145.636 142.915 145.512C142.889 145.469 140.201 141.202 127.636 139.008C127.42 138.967 127.218 139.113 127.181 139.327C127.144 139.54 127.287 139.743 127.5 139.781C137.05 141.448 141.102 144.437 142.093 145.702C141.364 146.559 137.728 150.085 126.199 151.86C125.637 151.947 125.083 152.059 124.535 152.19C124.777 152.41 125.023 152.623 125.272 152.827C125.618 152.755 125.967 152.69 126.319 152.637C140.008 150.529 142.888 145.962 142.915 145.916Z" fill="url(#paint67_radial_339_1325)" style="mix-blend-mode:overlay"/>
<path d="M137.768 147.33C137.963 147.232 138.041 146.996 137.944 146.803C137.847 146.608 137.612 146.533 137.417 146.627C134.506 148.085 130.632 149.194 125.904 149.921C124.89 150.077 123.902 150.299 122.943 150.58C123.141 150.803 123.343 151.018 123.547 151.229C124.353 151.009 125.178 150.828 126.023 150.697C130.832 149.958 134.784 148.824 137.768 147.33Z" fill="url(#paint68_linear_339_1325)"/>
<path d="M137.768 147.33C137.963 147.232 138.041 146.996 137.944 146.803C137.847 146.608 137.612 146.533 137.417 146.627C134.506 148.085 130.632 149.194 125.904 149.921C124.89 150.077 123.902 150.299 122.943 150.58C123.141 150.803 123.343 151.018 123.547 151.229C124.353 151.009 125.178 150.828 126.023 150.697C130.832 149.958 134.784 148.824 137.768 147.33Z" fill="url(#paint69_radial_339_1325)" style="mix-blend-mode:overlay"/>
<path d="M139.401 145.966C139.469 146.014 139.548 146.037 139.626 146.037C139.75 146.037 139.872 145.979 139.948 145.87C140.072 145.693 140.029 145.447 139.851 145.323C138.165 144.144 134.126 141.98 126.023 140.733C122.667 140.216 119.507 138.934 116.779 137.026C116.842 137.391 116.907 137.754 116.981 138.11C119.654 139.843 122.692 141.015 125.903 141.509C133.849 142.731 137.77 144.825 139.401 145.966Z" fill="url(#paint70_linear_339_1325)"/>
<path d="M139.401 145.966C139.469 146.014 139.548 146.037 139.626 146.037C139.75 146.037 139.872 145.979 139.948 145.87C140.072 145.693 140.029 145.447 139.851 145.323C138.165 144.144 134.126 141.98 126.023 140.733C122.667 140.216 119.507 138.934 116.779 137.026C116.842 137.391 116.907 137.754 116.981 138.11C119.654 139.843 122.692 141.015 125.903 141.509C133.849 142.731 137.77 144.825 139.401 145.966Z" fill="url(#paint71_radial_339_1325)" style="mix-blend-mode:overlay"/>
<path d="M135.822 146.074C135.965 146.011 136.058 145.871 136.057 145.714C136.057 145.557 135.965 145.417 135.821 145.354C133.15 144.194 129.753 143.291 125.725 142.671C122.778 142.218 119.99 141.246 117.441 139.783C117.418 139.77 117.393 139.767 117.37 139.759C117.461 140.109 117.557 140.454 117.658 140.795C120.126 142.119 122.795 143.015 125.605 143.447C129.138 143.991 132.169 144.752 134.634 145.714C132.17 146.675 129.139 147.438 125.605 147.981C124.235 148.192 122.905 148.511 121.618 148.933C121.784 149.161 121.956 149.38 122.129 149.598C123.293 149.233 124.492 148.947 125.725 148.757C129.755 148.137 133.152 147.234 135.822 146.074Z" fill="url(#paint72_linear_339_1325)"/>
<path d="M135.822 146.074C135.965 146.011 136.058 145.871 136.057 145.714C136.057 145.557 135.965 145.417 135.821 145.354C133.15 144.194 129.753 143.291 125.725 142.671C122.778 142.218 119.99 141.246 117.441 139.783C117.418 139.77 117.393 139.767 117.37 139.759C117.461 140.109 117.557 140.454 117.658 140.795C120.126 142.119 122.795 143.015 125.605 143.447C129.138 143.991 132.169 144.752 134.634 145.714C132.17 146.675 129.139 147.438 125.605 147.981C124.235 148.192 122.905 148.511 121.618 148.933C121.784 149.161 121.956 149.38 122.129 149.598C123.293 149.233 124.492 148.947 125.725 148.757C129.755 148.137 133.152 147.234 135.822 146.074Z" fill="url(#paint73_radial_339_1325)" style="mix-blend-mode:overlay"/>
<path d="M121.895 147.611C123.043 147.268 124.23 147.001 125.425 146.818C126.78 146.609 128.069 146.366 129.253 146.096C129.432 146.055 129.558 145.896 129.558 145.714C129.558 145.53 129.431 145.371 129.253 145.331C128.055 145.06 126.766 144.817 125.425 144.61C122.879 144.218 120.441 143.453 118.175 142.366C118.302 142.718 118.435 143.064 118.573 143.404C120.698 144.345 122.956 145.024 125.306 145.386C125.962 145.487 126.604 145.597 127.23 145.714C126.607 145.832 125.965 145.941 125.306 146.042C124.076 146.231 122.853 146.506 121.671 146.859C121.463 146.922 121.345 147.14 121.407 147.348C121.458 147.518 121.614 147.628 121.784 147.628C121.82 147.628 121.858 147.623 121.895 147.611Z" fill="url(#paint74_linear_339_1325)"/>
<path d="M121.895 147.611C123.043 147.268 124.23 147.001 125.425 146.818C126.78 146.609 128.069 146.366 129.253 146.096C129.432 146.055 129.558 145.896 129.558 145.714C129.558 145.53 129.431 145.371 129.253 145.331C128.055 145.06 126.766 144.817 125.425 144.61C122.879 144.218 120.441 143.453 118.175 142.366C118.302 142.718 118.435 143.064 118.573 143.404C120.698 144.345 122.956 145.024 125.306 145.386C125.962 145.487 126.604 145.597 127.23 145.714C126.607 145.832 125.965 145.941 125.306 146.042C124.076 146.231 122.853 146.506 121.671 146.859C121.463 146.922 121.345 147.14 121.407 147.348C121.458 147.518 121.614 147.628 121.784 147.628C121.82 147.628 121.858 147.623 121.895 147.611Z" fill="url(#paint75_radial_339_1325)" style="mix-blend-mode:overlay"/>
<path d="M120.229 145.343C119.905 145.232 119.585 145.113 119.268 144.99C119.468 145.407 119.677 145.813 119.893 146.208C120.006 146.169 120.116 146.124 120.229 146.085C120.387 146.031 120.494 145.882 120.494 145.714C120.494 145.546 120.388 145.397 120.229 145.343Z" fill="url(#paint76_linear_339_1325)"/>
<path d="M120.229 145.343C119.905 145.232 119.585 145.113 119.268 144.99C119.468 145.407 119.677 145.813 119.893 146.208C120.006 146.169 120.116 146.124 120.229 146.085C120.387 146.031 120.494 145.882 120.494 145.714C120.494 145.546 120.388 145.397 120.229 145.343Z" fill="url(#paint77_radial_339_1325)" style="mix-blend-mode:overlay"/>
<path d="M144.244 151.827C141.644 153.703 137.934 155.291 133.486 156.463C133.958 156.513 134.43 156.542 134.898 156.539C134.91 156.539 134.921 156.539 134.932 156.539C134.944 156.539 134.955 156.539 134.966 156.539C135.39 156.542 135.816 156.516 136.243 156.476C139.66 155.378 142.548 154.018 144.703 152.463C144.878 152.336 144.918 152.091 144.791 151.917C144.664 151.74 144.419 151.7 144.244 151.827Z" fill="url(#paint78_linear_339_1325)"/>
<path d="M144.244 151.827C141.644 153.703 137.934 155.291 133.486 156.463C133.958 156.513 134.43 156.542 134.898 156.539C134.91 156.539 134.921 156.539 134.932 156.539C134.944 156.539 134.955 156.539 134.966 156.539C135.39 156.542 135.816 156.516 136.243 156.476C139.66 155.378 142.548 154.018 144.703 152.463C144.878 152.336 144.918 152.091 144.791 151.917C144.664 151.74 144.419 151.7 144.244 151.827Z" fill="url(#paint79_radial_339_1325)" style="mix-blend-mode:overlay"/>
<path d="M132.636 133.939C132.424 133.891 132.213 134.017 132.161 134.228C132.11 134.438 132.239 134.65 132.45 134.702C142.184 137.068 148.23 141.288 148.23 145.714C148.23 147.118 147.641 148.504 146.479 149.836C146.336 149.999 146.354 150.246 146.517 150.39C146.592 150.454 146.684 150.486 146.775 150.486C146.884 150.486 146.993 150.44 147.071 150.351C148.362 148.873 149.016 147.314 149.016 145.714C149.015 140.835 142.892 136.433 132.636 133.939Z" fill="url(#paint80_linear_339_1325)"/>
<path d="M132.636 133.939C132.424 133.891 132.213 134.017 132.161 134.228C132.11 134.438 132.239 134.65 132.45 134.702C142.184 137.068 148.23 141.288 148.23 145.714C148.23 147.118 147.641 148.504 146.479 149.836C146.336 149.999 146.354 150.246 146.517 150.39C146.592 150.454 146.684 150.486 146.775 150.486C146.884 150.486 146.993 150.44 147.071 150.351C148.362 148.873 149.016 147.314 149.016 145.714C149.015 140.835 142.892 136.433 132.636 133.939Z" fill="url(#paint81_radial_339_1325)" style="mix-blend-mode:overlay"/>
<path d="M127.231 132.876C124.141 132.401 121.376 130.939 119.234 128.649C119.087 128.492 118.837 128.483 118.679 128.631C118.521 128.779 118.512 129.028 118.661 129.187C120.925 131.605 123.847 133.15 127.112 133.653C128.054 133.797 128.991 133.962 129.894 134.14C129.92 134.145 129.946 134.147 129.97 134.147C130.154 134.147 130.318 134.018 130.355 133.831C130.397 133.619 130.259 133.413 130.046 133.37C129.131 133.188 128.184 133.023 127.231 132.876Z" fill="url(#paint82_linear_339_1325)"/>
<path d="M127.231 132.876C124.141 132.401 121.376 130.939 119.234 128.649C119.087 128.492 118.837 128.483 118.679 128.631C118.521 128.779 118.512 129.028 118.661 129.187C120.925 131.605 123.847 133.15 127.112 133.653C128.054 133.797 128.991 133.962 129.894 134.14C129.92 134.145 129.946 134.147 129.97 134.147C130.154 134.147 130.318 134.018 130.355 133.831C130.397 133.619 130.259 133.413 130.046 133.37C129.131 133.188 128.184 133.023 127.231 132.876Z" fill="url(#paint83_radial_339_1325)" style="mix-blend-mode:overlay"/>
<path d="M117.38 127.309C117.453 127.309 117.527 127.288 117.593 127.246C117.775 127.129 117.826 126.885 117.709 126.703C117.266 126.021 116.895 125.303 116.58 124.564C116.516 125.049 116.46 125.541 116.414 126.042C116.612 126.411 116.821 126.777 117.05 127.131C117.125 127.245 117.251 127.309 117.38 127.309Z" fill="url(#paint84_linear_339_1325)"/>
<path d="M117.38 127.309C117.453 127.309 117.527 127.288 117.593 127.246C117.775 127.129 117.826 126.885 117.709 126.703C117.266 126.021 116.895 125.303 116.58 124.564C116.516 125.049 116.46 125.541 116.414 126.042C116.612 126.411 116.821 126.777 117.05 127.131C117.125 127.245 117.251 127.309 117.38 127.309Z" fill="url(#paint85_radial_339_1325)" style="mix-blend-mode:overlay"/>
<path d="M178.12 128.499L150 177.941H163.474L159.608 209.999L193 162.268H175.894L178.12 128.499Z" fill="url(#paint86_linear_339_1325)"/>
<path d="M178.12 128.499L150 177.941H163.474L159.608 209.999L193 162.268H175.894L178.12 128.499Z" fill="url(#paint87_radial_339_1325)" style="mix-blend-mode:overlay"/>
<path fill-rule="evenodd" clip-rule="evenodd" d="M178.12 128.499L150 177.941H163.474L159.608 209.999L193 162.268H175.894L178.12 128.499ZM188.68 164.518H173.491L175.23 138.131L153.868 175.691H166.012L162.918 201.342L188.68 164.518Z" fill="url(#paint88_linear_339_1325)"/>
<path fill-rule="evenodd" clip-rule="evenodd" d="M178.12 128.499L150 177.941H163.474L159.608 209.999L193 162.268H175.894L178.12 128.499ZM188.68 164.518H173.491L175.23 138.131L153.868 175.691H166.012L162.918 201.342L188.68 164.518Z" fill="url(#paint89_radial_339_1325)" style="mix-blend-mode:overlay"/>
<path fill-rule="evenodd" clip-rule="evenodd" d="M93.1993 179.225C104.332 194.664 118.266 205.005 135.001 210.249C143.045 207.728 150.442 204.03 157.192 199.154L158.187 190.909C151.298 196.711 143.569 200.973 135.001 203.694C119.866 198.888 107.351 189.275 97.4558 174.855C87.5603 160.436 82.6125 144.414 82.6125 126.79V85.4977L135.001 66.0531L187.389 85.4977V126.79C187.389 138.387 185.246 149.29 180.962 159.499H187.575C191.525 149.319 193.501 138.417 193.501 126.79V81.3466L135.001 59.4988L76.5006 81.3466V126.79C76.5006 146.307 82.0668 163.786 93.1993 179.225Z" fill="url(#paint90_linear_339_1325)"/>
<path fill-rule="evenodd" clip-rule="evenodd" d="M93.1993 179.225C104.332 194.664 118.266 205.005 135.001 210.249C143.045 207.728 150.442 204.03 157.192 199.154L158.187 190.909C151.298 196.711 143.569 200.973 135.001 203.694C119.866 198.888 107.351 189.275 97.4558 174.855C87.5603 160.436 82.6125 144.414 82.6125 126.79V85.4977L135.001 66.0531L187.389 85.4977V126.79C187.389 138.387 185.246 149.29 180.962 159.499H187.575C191.525 149.319 193.501 138.417 193.501 126.79V81.3466L135.001 59.4988L76.5006 81.3466V126.79C76.5006 146.307 82.0668 163.786 93.1993 179.225Z" fill="url(#paint91_radial_339_1325)" style="mix-blend-mode:overlay"/>
<defs>
<linearGradient id="paint0_linear_339_1325" x1="144.85" y1="142.669" x2="151.416" y2="141.081" gradientUnits="userSpaceOnUse">
<stop offset="0.0677083" stop-color="#4D5455"/>
<stop offset="0.21875" stop-color="#9EA1A1"/>
<stop offset="0.453125" stop-color="#848B8A"/>
<stop offset="0.524381" stop-color="#535D5E"/>
<stop offset="0.796875" stop-color="#4B5355"/>
<stop offset="0.895833" stop-color="#757A7B"/>
<stop offset="1" stop-color="#4D5455"/>
</linearGradient>
<radialGradient id="paint1_radial_339_1325" cx="0" cy="0" r="1" gradientUnits="userSpaceOnUse" gradientTransform="translate(144.85 136.144) rotate(68.1909) scale(7.50879 6.3416)">
<stop stop-color="white"/>
<stop offset="1" stop-color="white" stop-opacity="0"/>
</radialGradient>
<linearGradient id="paint2_linear_339_1325" x1="117.054" y1="131.112" x2="140.674" y2="117.891" gradientUnits="userSpaceOnUse">
<stop offset="0.0677083" stop-color="#4D5455"/>
<stop offset="0.21875" stop-color="#9EA1A1"/>
<stop offset="0.453125" stop-color="#848B8A"/>
<stop offset="0.524381" stop-color="#535D5E"/>
<stop offset="0.796875" stop-color="#4B5355"/>
<stop offset="0.895833" stop-color="#757A7B"/>
<stop offset="1" stop-color="#4D5455"/>
</linearGradient>
<radialGradient id="paint3_radial_339_1325" cx="0" cy="0" r="1" gradientUnits="userSpaceOnUse" gradientTransform="translate(117.054 118.528) rotate(47.1971) scale(18.3248 22.3684)">
<stop stop-color="white"/>
<stop offset="1" stop-color="white" stop-opacity="0"/>
</radialGradient>
<linearGradient id="paint4_linear_339_1325" x1="137.103" y1="138.622" x2="151.226" y2="132.167" gradientUnits="userSpaceOnUse">
<stop offset="0.0677083" stop-color="#4D5455"/>
<stop offset="0.21875" stop-color="#9EA1A1"/>
<stop offset="0.453125" stop-color="#848B8A"/>
<stop offset="0.524381" stop-color="#535D5E"/>
<stop offset="0.796875" stop-color="#4B5355"/>
<stop offset="0.895833" stop-color="#757A7B"/>
<stop offset="1" stop-color="#4D5455"/>
</linearGradient>
<radialGradient id="paint5_radial_339_1325" cx="0" cy="0" r="1" gradientUnits="userSpaceOnUse" gradientTransform="translate(137.103 130.14) rotate(52.9019) scale(11.3622 13.3845)">
<stop stop-color="white"/>
<stop offset="1" stop-color="white" stop-opacity="0"/>
</radialGradient>
<linearGradient id="paint6_linear_339_1325" x1="118.695" y1="125.791" x2="136.174" y2="119.421" gradientUnits="userSpaceOnUse">
<stop offset="0.0677083" stop-color="#4D5455"/>
<stop offset="0.21875" stop-color="#9EA1A1"/>
<stop offset="0.453125" stop-color="#848B8A"/>
<stop offset="0.524381" stop-color="#535D5E"/>
<stop offset="0.796875" stop-color="#4B5355"/>
<stop offset="0.895833" stop-color="#757A7B"/>
<stop offset="1" stop-color="#4D5455"/>
</linearGradient>
<radialGradient id="paint7_radial_339_1325" cx="0" cy="0" r="1" gradientUnits="userSpaceOnUse" gradientTransform="translate(118.695 113.452) rotate(58.9136) scale(15.3931 16.6659)">
<stop stop-color="white"/>
<stop offset="1" stop-color="white" stop-opacity="0"/>
</radialGradient>
<linearGradient id="paint8_linear_339_1325" x1="120.658" y1="118.996" x2="122.323" y2="118.921" gradientUnits="userSpaceOnUse">
<stop offset="0.0677083" stop-color="#4D5455"/>
<stop offset="0.21875" stop-color="#9EA1A1"/>
<stop offset="0.453125" stop-color="#848B8A"/>
<stop offset="0.524381" stop-color="#535D5E"/>
<stop offset="0.796875" stop-color="#4B5355"/>
<stop offset="0.895833" stop-color="#757A7B"/>
<stop offset="1" stop-color="#4D5455"/>
</linearGradient>
<radialGradient id="paint9_radial_339_1325" cx="0" cy="0" r="1" gradientUnits="userSpaceOnUse" gradientTransform="translate(120.658 110.641) rotate(85.7077) scale(8.95207 1.63596)">
<stop stop-color="white"/>
<stop offset="1" stop-color="white" stop-opacity="0"/>
</radialGradient>
<linearGradient id="paint10_linear_339_1325" x1="122.245" y1="134.274" x2="146.637" y2="118.293" gradientUnits="userSpaceOnUse">
<stop offset="0.0677083" stop-color="#4D5455"/>
<stop offset="0.21875" stop-color="#9EA1A1"/>
<stop offset="0.453125" stop-color="#848B8A"/>
<stop offset="0.524381" stop-color="#535D5E"/>
<stop offset="0.796875" stop-color="#4B5355"/>
<stop offset="0.895833" stop-color="#757A7B"/>
<stop offset="1" stop-color="#4D5455"/>
</linearGradient>
<radialGradient id="paint11_radial_339_1325" cx="0" cy="0" r="1" gradientUnits="userSpaceOnUse" gradientTransform="translate(122.245 122.191) rotate(42.6921) scale(19.0386 23.2326)">
<stop stop-color="white"/>
<stop offset="1" stop-color="white" stop-opacity="0"/>
</radialGradient>
<linearGradient id="paint12_linear_339_1325" x1="122.62" y1="121.6" x2="128.173" y2="120.773" gradientUnits="userSpaceOnUse">
<stop offset="0.0677083" stop-color="#4D5455"/>
<stop offset="0.21875" stop-color="#9EA1A1"/>
<stop offset="0.453125" stop-color="#848B8A"/>
<stop offset="0.524381" stop-color="#535D5E"/>
<stop offset="0.796875" stop-color="#4B5355"/>
<stop offset="0.895833" stop-color="#757A7B"/>
<stop offset="1" stop-color="#4D5455"/>
</linearGradient>
<radialGradient id="paint13_radial_339_1325" cx="0" cy="0" r="1" gradientUnits="userSpaceOnUse" gradientTransform="translate(122.62 112.949) rotate(76.1538) scale(9.51959 5.41613)">
<stop stop-color="white"/>
<stop offset="1" stop-color="white" stop-opacity="0"/>
</radialGradient>
<linearGradient id="paint14_linear_339_1325" x1="128.927" y1="133.09" x2="147.495" y2="120.019" gradientUnits="userSpaceOnUse">
<stop offset="0.0677083" stop-color="#4D5455"/>
<stop offset="0.21875" stop-color="#9EA1A1"/>
<stop offset="0.453125" stop-color="#848B8A"/>
<stop offset="0.524381" stop-color="#535D5E"/>
<stop offset="0.796875" stop-color="#4B5355"/>
<stop offset="0.895833" stop-color="#757A7B"/>
<stop offset="1" stop-color="#4D5455"/>
</linearGradient>
<radialGradient id="paint15_radial_339_1325" cx="0" cy="0" r="1" gradientUnits="userSpaceOnUse" gradientTransform="translate(128.927 124.133) rotate(40.6492) scale(14.691 17.7786)">
<stop stop-color="white"/>
<stop offset="1" stop-color="white" stop-opacity="0"/>
</radialGradient>
<linearGradient id="paint16_linear_339_1325" x1="122.62" y1="110.985" x2="123.508" y2="110.895" gradientUnits="userSpaceOnUse">
<stop offset="0.0677083" stop-color="#4D5455"/>
<stop offset="0.21875" stop-color="#9EA1A1"/>
<stop offset="0.453125" stop-color="#848B8A"/>
<stop offset="0.524381" stop-color="#535D5E"/>
<stop offset="0.796875" stop-color="#4B5355"/>
<stop offset="0.895833" stop-color="#757A7B"/>
<stop offset="1" stop-color="#4D5455"/>
</linearGradient>
<radialGradient id="paint17_radial_339_1325" cx="0" cy="0" r="1" gradientUnits="userSpaceOnUse" gradientTransform="translate(122.62 108.981) rotate(80.4551) scale(2.17162 0.869504)">
<stop stop-color="white"/>
<stop offset="1" stop-color="white" stop-opacity="0"/>
</radialGradient>
<linearGradient id="paint18_linear_339_1325" x1="124.583" y1="120.856" x2="144.125" y2="114.574" gradientUnits="userSpaceOnUse">
<stop offset="0.0677083" stop-color="#4D5455"/>
<stop offset="0.21875" stop-color="#9EA1A1"/>
<stop offset="0.453125" stop-color="#848B8A"/>
<stop offset="0.524381" stop-color="#535D5E"/>
<stop offset="0.796875" stop-color="#4B5355"/>
<stop offset="0.895833" stop-color="#757A7B"/>
<stop offset="1" stop-color="#4D5455"/>
</linearGradient>
<radialGradient id="paint19_radial_339_1325" cx="0" cy="0" r="1" gradientUnits="userSpaceOnUse" gradientTransform="translate(124.583 105.626) rotate(61.9927) scale(18.4304 18.7093)">
<stop stop-color="white"/>
<stop offset="1" stop-color="white" stop-opacity="0"/>
</radialGradient>
<linearGradient id="paint20_linear_339_1325" x1="144.868" y1="132.29" x2="153.058" y2="128.569" gradientUnits="userSpaceOnUse">
<stop offset="0.0677083" stop-color="#4D5455"/>
<stop offset="0.21875" stop-color="#9EA1A1"/>
<stop offset="0.453125" stop-color="#848B8A"/>
<stop offset="0.524381" stop-color="#535D5E"/>
<stop offset="0.796875" stop-color="#4B5355"/>
<stop offset="0.895833" stop-color="#757A7B"/>
<stop offset="1" stop-color="#4D5455"/>
</linearGradient>
<radialGradient id="paint21_radial_339_1325" cx="0" cy="0" r="1" gradientUnits="userSpaceOnUse" gradientTransform="translate(144.868 127.352) rotate(53.0638) scale(6.60028 7.76246)">
<stop stop-color="white"/>
<stop offset="1" stop-color="white" stop-opacity="0"/>
</radialGradient>
<linearGradient id="paint22_linear_339_1325" x1="130.146" y1="128.412" x2="147.024" y2="115.468" gradientUnits="userSpaceOnUse">
<stop offset="0.0677083" stop-color="#4D5455"/>
<stop offset="0.21875" stop-color="#9EA1A1"/>
<stop offset="0.453125" stop-color="#848B8A"/>
<stop offset="0.524381" stop-color="#535D5E"/>
<stop offset="0.796875" stop-color="#4B5355"/>
<stop offset="0.895833" stop-color="#757A7B"/>
<stop offset="1" stop-color="#4D5455"/>
</linearGradient>
<radialGradient id="paint23_radial_339_1325" cx="0" cy="0" r="1" gradientUnits="userSpaceOnUse" gradientTransform="translate(130.146 120.476) rotate(38.2402) scale(13.6989 16.3063)">
<stop stop-color="white"/>
<stop offset="1" stop-color="white" stop-opacity="0"/>
</radialGradient>
<linearGradient id="paint24_linear_339_1325" x1="126.545" y1="116.39" x2="128.941" y2="116.278" gradientUnits="userSpaceOnUse">
<stop offset="0.0677083" stop-color="#4D5455"/>
<stop offset="0.21875" stop-color="#9EA1A1"/>
<stop offset="0.453125" stop-color="#848B8A"/>
<stop offset="0.524381" stop-color="#535D5E"/>
<stop offset="0.796875" stop-color="#4B5355"/>
<stop offset="0.895833" stop-color="#757A7B"/>
<stop offset="1" stop-color="#4D5455"/>
</linearGradient>
<radialGradient id="paint25_radial_339_1325" cx="0" cy="0" r="1" gradientUnits="userSpaceOnUse" gradientTransform="translate(126.545 104.636) rotate(85.61) scale(12.5943 2.35355)">
<stop stop-color="white"/>
<stop offset="1" stop-color="white" stop-opacity="0"/>
</radialGradient>
<linearGradient id="paint26_linear_339_1325" x1="146.577" y1="127.719" x2="153.08" y2="124.559" gradientUnits="userSpaceOnUse">
<stop offset="0.0677083" stop-color="#4D5455"/>
<stop offset="0.21875" stop-color="#9EA1A1"/>
<stop offset="0.453125" stop-color="#848B8A"/>
<stop offset="0.524381" stop-color="#535D5E"/>
<stop offset="0.796875" stop-color="#4B5355"/>
<stop offset="0.895833" stop-color="#757A7B"/>
<stop offset="1" stop-color="#4D5455"/>
</linearGradient>
<radialGradient id="paint27_radial_339_1325" cx="0" cy="0" r="1" gradientUnits="userSpaceOnUse" gradientTransform="translate(146.577 123.964) rotate(51.1936) scale(5.14902 6.157)">
<stop stop-color="white"/>
<stop offset="1" stop-color="white" stop-opacity="0"/>
</radialGradient>
<linearGradient id="paint28_linear_339_1325" x1="128.507" y1="107.058" x2="129.398" y2="106.981" gradientUnits="userSpaceOnUse">
<stop offset="0.0677083" stop-color="#4D5455"/>
<stop offset="0.21875" stop-color="#9EA1A1"/>
<stop offset="0.453125" stop-color="#848B8A"/>
<stop offset="0.524381" stop-color="#535D5E"/>
<stop offset="0.796875" stop-color="#4B5355"/>
<stop offset="0.895833" stop-color="#757A7B"/>
<stop offset="1" stop-color="#4D5455"/>
</linearGradient>
<radialGradient id="paint29_radial_339_1325" cx="0" cy="0" r="1" gradientUnits="userSpaceOnUse" gradientTransform="translate(128.507 104.692) rotate(81.8897) scale(2.55246 0.872892)">
<stop stop-color="white"/>
<stop offset="1" stop-color="white" stop-opacity="0"/>
</radialGradient>
<linearGradient id="paint30_linear_339_1325" x1="128.507" y1="119.063" x2="144.914" y2="112.802" gradientUnits="userSpaceOnUse">
<stop offset="0.0677083" stop-color="#4D5455"/>
<stop offset="0.21875" stop-color="#9EA1A1"/>
<stop offset="0.453125" stop-color="#848B8A"/>
<stop offset="0.524381" stop-color="#535D5E"/>
<stop offset="0.796875" stop-color="#4B5355"/>
<stop offset="0.895833" stop-color="#757A7B"/>
<stop offset="1" stop-color="#4D5455"/>
</linearGradient>
<radialGradient id="paint31_radial_339_1325" cx="0" cy="0" r="1" gradientUnits="userSpaceOnUse" gradientTransform="translate(128.507 107.877) rotate(57.7353) scale(14.1326 15.6203)">
<stop stop-color="white"/>
<stop offset="1" stop-color="white" stop-opacity="0"/>
</radialGradient>
<linearGradient id="paint32_linear_339_1325" x1="130.47" y1="112.369" x2="131.367" y2="112.349" gradientUnits="userSpaceOnUse">
<stop offset="0.0677083" stop-color="#4D5455"/>
<stop offset="0.21875" stop-color="#9EA1A1"/>
<stop offset="0.453125" stop-color="#848B8A"/>
<stop offset="0.524381" stop-color="#535D5E"/>
<stop offset="0.796875" stop-color="#4B5355"/>
<stop offset="0.895833" stop-color="#757A7B"/>
<stop offset="1" stop-color="#4D5455"/>
</linearGradient>
<radialGradient id="paint33_radial_339_1325" cx="0" cy="0" r="1" gradientUnits="userSpaceOnUse" gradientTransform="translate(130.47 103.2) rotate(87.8948) scale(9.80268 0.881109)">
<stop stop-color="white"/>
<stop offset="1" stop-color="white" stop-opacity="0"/>
</radialGradient>
<linearGradient id="paint34_linear_339_1325" x1="131.11" y1="123.746" x2="146.217" y2="111.155" gradientUnits="userSpaceOnUse">
<stop offset="0.0677083" stop-color="#4D5455"/>
<stop offset="0.21875" stop-color="#9EA1A1"/>
<stop offset="0.453125" stop-color="#848B8A"/>
<stop offset="0.524381" stop-color="#535D5E"/>
<stop offset="0.796875" stop-color="#4B5355"/>
<stop offset="0.895833" stop-color="#757A7B"/>
<stop offset="1" stop-color="#4D5455"/>
</linearGradient>
<radialGradient id="paint35_radial_339_1325" cx="0" cy="0" r="1" gradientUnits="userSpaceOnUse" gradientTransform="translate(131.11 116.77) rotate(35.9508) scale(12.6937 14.7715)">
<stop stop-color="white"/>
<stop offset="1" stop-color="white" stop-opacity="0"/>
</radialGradient>
<linearGradient id="paint36_linear_339_1325" x1="146.178" y1="122.824" x2="152.344" y2="119.389" gradientUnits="userSpaceOnUse">
<stop offset="0.0677083" stop-color="#4D5455"/>
<stop offset="0.21875" stop-color="#9EA1A1"/>
<stop offset="0.453125" stop-color="#848B8A"/>
<stop offset="0.524381" stop-color="#535D5E"/>
<stop offset="0.796875" stop-color="#4B5355"/>
<stop offset="0.895833" stop-color="#757A7B"/>
<stop offset="1" stop-color="#4D5455"/>
</linearGradient>
<radialGradient id="paint37_radial_339_1325" cx="0" cy="0" r="1" gradientUnits="userSpaceOnUse" gradientTransform="translate(146.178 119.532) rotate(47.3272) scale(4.78489 5.83863)">
<stop stop-color="white"/>
<stop offset="1" stop-color="white" stop-opacity="0"/>
</radialGradient>
<linearGradient id="paint38_linear_339_1325" x1="132.433" y1="114.522" x2="145.954" y2="110.824" gradientUnits="userSpaceOnUse">
<stop offset="0.0677083" stop-color="#4D5455"/>
<stop offset="0.21875" stop-color="#9EA1A1"/>
<stop offset="0.453125" stop-color="#848B8A"/>
<stop offset="0.524381" stop-color="#535D5E"/>
<stop offset="0.796875" stop-color="#4B5355"/>
<stop offset="0.895833" stop-color="#757A7B"/>
<stop offset="1" stop-color="#4D5455"/>
</linearGradient>
<radialGradient id="paint39_radial_339_1325" cx="0" cy="0" r="1" gradientUnits="userSpaceOnUse" gradientTransform="translate(132.433 102.457) rotate(65.6529) scale(14.1487 13.012)">
<stop stop-color="white"/>
<stop offset="1" stop-color="white" stop-opacity="0"/>
</radialGradient>
<linearGradient id="paint40_linear_339_1325" x1="134.705" y1="119.206" x2="146.898" y2="109.046" gradientUnits="userSpaceOnUse">
<stop offset="0.0677083" stop-color="#4D5455"/>
<stop offset="0.21875" stop-color="#9EA1A1"/>
<stop offset="0.453125" stop-color="#848B8A"/>
<stop offset="0.524381" stop-color="#535D5E"/>
<stop offset="0.796875" stop-color="#4B5355"/>
<stop offset="0.895833" stop-color="#757A7B"/>
<stop offset="1" stop-color="#4D5455"/>
</linearGradient>
<radialGradient id="paint41_radial_339_1325" cx="0" cy="0" r="1" gradientUnits="userSpaceOnUse" gradientTransform="translate(134.705 113.576) rotate(35.9534) scale(10.2437 11.9209)">
<stop stop-color="white"/>
<stop offset="1" stop-color="white" stop-opacity="0"/>
</radialGradient>
<linearGradient id="paint42_linear_339_1325" x1="134.395" y1="109.792" x2="135.29" y2="109.765" gradientUnits="userSpaceOnUse">
<stop offset="0.0677083" stop-color="#4D5455"/>
<stop offset="0.21875" stop-color="#9EA1A1"/>
<stop offset="0.453125" stop-color="#848B8A"/>
<stop offset="0.524381" stop-color="#535D5E"/>
<stop offset="0.796875" stop-color="#4B5355"/>
<stop offset="0.895833" stop-color="#757A7B"/>
<stop offset="1" stop-color="#4D5455"/>
</linearGradient>
<radialGradient id="paint43_radial_339_1325" cx="0" cy="0" r="1" gradientUnits="userSpaceOnUse" gradientTransform="translate(134.395 102.961) rotate(87.1779) scale(7.30714 0.879828)">
<stop stop-color="white"/>
<stop offset="1" stop-color="white" stop-opacity="0"/>
</radialGradient>
<linearGradient id="paint44_linear_339_1325" x1="136.357" y1="113.939" x2="152.296" y2="108.253" gradientUnits="userSpaceOnUse">
<stop offset="0.0677083" stop-color="#4D5455"/>
<stop offset="0.21875" stop-color="#9EA1A1"/>
<stop offset="0.453125" stop-color="#848B8A"/>
<stop offset="0.524381" stop-color="#535D5E"/>
<stop offset="0.796875" stop-color="#4B5355"/>
<stop offset="0.895833" stop-color="#757A7B"/>
<stop offset="1" stop-color="#4D5455"/>
</linearGradient>
<radialGradient id="paint45_radial_339_1325" cx="0" cy="0" r="1" gradientUnits="userSpaceOnUse" gradientTransform="translate(136.357 102.501) rotate(59.4513) scale(14.1892 15.2076)">
<stop stop-color="white"/>
<stop offset="1" stop-color="white" stop-opacity="0"/>
</radialGradient>
<linearGradient id="paint46_linear_339_1325" x1="144.437" y1="115.186" x2="149.736" y2="111.7" gradientUnits="userSpaceOnUse">
<stop offset="0.0677083" stop-color="#4D5455"/>
<stop offset="0.21875" stop-color="#9EA1A1"/>
<stop offset="0.453125" stop-color="#848B8A"/>
<stop offset="0.524381" stop-color="#535D5E"/>
<stop offset="0.796875" stop-color="#4B5355"/>
<stop offset="0.895833" stop-color="#757A7B"/>
<stop offset="1" stop-color="#4D5455"/>
</linearGradient>
<radialGradient id="paint47_radial_339_1325" cx="0" cy="0" r="1" gradientUnits="userSpaceOnUse" gradientTransform="translate(144.437 112.565) rotate(42.5773) scale(4.13885 5.04893)">
<stop stop-color="white"/>
<stop offset="1" stop-color="white" stop-opacity="0"/>
</radialGradient>
<linearGradient id="paint48_linear_339_1325" x1="138.32" y1="109.851" x2="142.409" y2="109.246" gradientUnits="userSpaceOnUse">
<stop offset="0.0677083" stop-color="#4D5455"/>
<stop offset="0.21875" stop-color="#9EA1A1"/>
<stop offset="0.453125" stop-color="#848B8A"/>
<stop offset="0.524381" stop-color="#535D5E"/>
<stop offset="0.796875" stop-color="#4B5355"/>
<stop offset="0.895833" stop-color="#757A7B"/>
<stop offset="1" stop-color="#4D5455"/>
</linearGradient>
<radialGradient id="paint49_radial_339_1325" cx="0" cy="0" r="1" gradientUnits="userSpaceOnUse" gradientTransform="translate(138.32 103.433) rotate(76.255) scale(7.05862 3.98891)">
<stop stop-color="white"/>
<stop offset="1" stop-color="white" stop-opacity="0"/>
</radialGradient>
<linearGradient id="paint50_linear_339_1325" x1="140.282" y1="110.619" x2="149.703" y2="107.103" gradientUnits="userSpaceOnUse">
<stop offset="0.0677083" stop-color="#4D5455"/>
<stop offset="0.21875" stop-color="#9EA1A1"/>
<stop offset="0.453125" stop-color="#848B8A"/>
<stop offset="0.524381" stop-color="#535D5E"/>
<stop offset="0.796875" stop-color="#4B5355"/>
<stop offset="0.895833" stop-color="#757A7B"/>
<stop offset="1" stop-color="#4D5455"/>
</linearGradient>
<radialGradient id="paint51_radial_339_1325" cx="0" cy="0" r="1" gradientUnits="userSpaceOnUse" gradientTransform="translate(140.282 104.087) rotate(58.3101) scale(8.20112 8.976)">
<stop stop-color="white"/>
<stop offset="1" stop-color="white" stop-opacity="0"/>
</radialGradient>
<linearGradient id="paint52_linear_339_1325" x1="142.243" y1="109.009" x2="147.64" y2="106.892" gradientUnits="userSpaceOnUse">
<stop offset="0.0677083" stop-color="#4D5455"/>
<stop offset="0.21875" stop-color="#9EA1A1"/>
<stop offset="0.453125" stop-color="#848B8A"/>
<stop offset="0.524381" stop-color="#535D5E"/>
<stop offset="0.796875" stop-color="#4B5355"/>
<stop offset="0.895833" stop-color="#757A7B"/>
<stop offset="1" stop-color="#4D5455"/>
</linearGradient>
<radialGradient id="paint53_radial_339_1325" cx="0" cy="0" r="1" gradientUnits="userSpaceOnUse" gradientTransform="translate(142.243 105.404) rotate(57.018) scale(4.59194 5.13428)">
<stop stop-color="white"/>
<stop offset="1" stop-color="white" stop-opacity="0"/>
</radialGradient>
<linearGradient id="paint54_linear_339_1325" x1="129.259" y1="150.248" x2="147.041" y2="143.674" gradientUnits="userSpaceOnUse">
<stop offset="0.0677083" stop-color="#4D5455"/>
<stop offset="0.21875" stop-color="#9EA1A1"/>
<stop offset="0.453125" stop-color="#848B8A"/>
<stop offset="0.524381" stop-color="#535D5E"/>
<stop offset="0.796875" stop-color="#4B5355"/>
<stop offset="0.895833" stop-color="#757A7B"/>
<stop offset="1" stop-color="#4D5455"/>
</linearGradient>
<radialGradient id="paint55_radial_339_1325" cx="0" cy="0" r="1" gradientUnits="userSpaceOnUse" gradientTransform="translate(129.259 137.835) rotate(58.5443) scale(15.547 16.9457)">
<stop stop-color="white"/>
<stop offset="1" stop-color="white" stop-opacity="0"/>
</radialGradient>
<linearGradient id="paint56_linear_339_1325" x1="116.25" y1="135.477" x2="133.403" y2="122.616" gradientUnits="userSpaceOnUse">
<stop offset="0.0677083" stop-color="#4D5455"/>
<stop offset="0.21875" stop-color="#9EA1A1"/>
<stop offset="0.453125" stop-color="#848B8A"/>
<stop offset="0.524381" stop-color="#535D5E"/>
<stop offset="0.796875" stop-color="#4B5355"/>
<stop offset="0.895833" stop-color="#757A7B"/>
<stop offset="1" stop-color="#4D5455"/>
</linearGradient>
<radialGradient id="paint57_radial_339_1325" cx="0" cy="0" r="1" gradientUnits="userSpaceOnUse" gradientTransform="translate(116.25 127.361) rotate(38.8737) scale(13.815 16.5279)">
<stop stop-color="white"/>
<stop offset="1" stop-color="white" stop-opacity="0"/>
</radialGradient>
<linearGradient id="paint58_linear_339_1325" x1="130.236" y1="150.404" x2="143.665" y2="143.62" gradientUnits="userSpaceOnUse">
<stop offset="0.0677083" stop-color="#4D5455"/>
<stop offset="0.21875" stop-color="#9EA1A1"/>
<stop offset="0.453125" stop-color="#848B8A"/>
<stop offset="0.524381" stop-color="#535D5E"/>
<stop offset="0.796875" stop-color="#4B5355"/>
<stop offset="0.895833" stop-color="#757A7B"/>
<stop offset="1" stop-color="#4D5455"/>
</linearGradient>
<radialGradient id="paint59_radial_339_1325" cx="0" cy="0" r="1" gradientUnits="userSpaceOnUse" gradientTransform="translate(130.236 142.827) rotate(50.1108) scale(10.5505 12.7116)">
<stop stop-color="white"/>
<stop offset="1" stop-color="white" stop-opacity="0"/>
</radialGradient>
<linearGradient id="paint60_linear_339_1325" x1="116.263" y1="139.225" x2="135.159" y2="124.511" gradientUnits="userSpaceOnUse">
<stop offset="0.0677083" stop-color="#4D5455"/>
<stop offset="0.21875" stop-color="#9EA1A1"/>
<stop offset="0.453125" stop-color="#848B8A"/>
<stop offset="0.524381" stop-color="#535D5E"/>
<stop offset="0.796875" stop-color="#4B5355"/>
<stop offset="0.895833" stop-color="#757A7B"/>
<stop offset="1" stop-color="#4D5455"/>
</linearGradient>
<radialGradient id="paint61_radial_339_1325" cx="0" cy="0" r="1" gradientUnits="userSpaceOnUse" gradientTransform="translate(116.263 130.374) rotate(37.8178) scale(15.4228 18.2913)">
<stop stop-color="white"/>
<stop offset="1" stop-color="white" stop-opacity="0"/>
</radialGradient>
<linearGradient id="paint62_linear_339_1325" x1="126.554" y1="154.134" x2="127.897" y2="153.167" gradientUnits="userSpaceOnUse">
<stop offset="0.0677083" stop-color="#4D5455"/>
<stop offset="0.21875" stop-color="#9EA1A1"/>
<stop offset="0.453125" stop-color="#848B8A"/>
<stop offset="0.524381" stop-color="#535D5E"/>
<stop offset="0.796875" stop-color="#4B5355"/>
<stop offset="0.895833" stop-color="#757A7B"/>
<stop offset="1" stop-color="#4D5455"/>
</linearGradient>
<radialGradient id="paint63_radial_339_1325" cx="0" cy="0" r="1" gradientUnits="userSpaceOnUse" gradientTransform="translate(126.554 153.492) rotate(39.981) scale(1.06847 1.28807)">
<stop stop-color="white"/>
<stop offset="1" stop-color="white" stop-opacity="0"/>
</radialGradient>
<linearGradient id="paint64_linear_339_1325" x1="116.413" y1="137.5" x2="123.471" y2="133.415" gradientUnits="userSpaceOnUse">
<stop offset="0.0677083" stop-color="#4D5455"/>
<stop offset="0.21875" stop-color="#9EA1A1"/>
<stop offset="0.453125" stop-color="#848B8A"/>
<stop offset="0.524381" stop-color="#535D5E"/>
<stop offset="0.796875" stop-color="#4B5355"/>
<stop offset="0.895833" stop-color="#757A7B"/>
<stop offset="1" stop-color="#4D5455"/>
</linearGradient>
<radialGradient id="paint65_radial_339_1325" cx="0" cy="0" r="1" gradientUnits="userSpaceOnUse" gradientTransform="translate(116.413 133.803) rotate(46.2449) scale(5.46896 6.68912)">
<stop stop-color="white"/>
<stop offset="1" stop-color="white" stop-opacity="0"/>
</radialGradient>
<linearGradient id="paint66_linear_339_1325" x1="124.535" y1="148.161" x2="141.895" y2="140.146" gradientUnits="userSpaceOnUse">
<stop offset="0.0677083" stop-color="#4D5455"/>
<stop offset="0.21875" stop-color="#9EA1A1"/>
<stop offset="0.453125" stop-color="#848B8A"/>
<stop offset="0.524381" stop-color="#535D5E"/>
<stop offset="0.796875" stop-color="#4B5355"/>
<stop offset="0.895833" stop-color="#757A7B"/>
<stop offset="1" stop-color="#4D5455"/>
</linearGradient>
<radialGradient id="paint67_radial_339_1325" cx="0" cy="0" r="1" gradientUnits="userSpaceOnUse" gradientTransform="translate(124.535 137.804) rotate(52.6221) scale(13.9258 16.4489)">
<stop stop-color="white"/>
<stop offset="1" stop-color="white" stop-opacity="0"/>
</radialGradient>
<linearGradient id="paint68_linear_339_1325" x1="122.943" y1="149.662" x2="130.549" y2="141.127" gradientUnits="userSpaceOnUse">
<stop offset="0.0677083" stop-color="#4D5455"/>
<stop offset="0.21875" stop-color="#9EA1A1"/>
<stop offset="0.453125" stop-color="#848B8A"/>
<stop offset="0.524381" stop-color="#535D5E"/>
<stop offset="0.796875" stop-color="#4B5355"/>
<stop offset="0.895833" stop-color="#757A7B"/>
<stop offset="1" stop-color="#4D5455"/>
</linearGradient>
<radialGradient id="paint69_radial_339_1325" cx="0" cy="0" r="1" gradientUnits="userSpaceOnUse" gradientTransform="translate(122.943 146.185) rotate(28.3075) scale(7.83446 8.00877)">
<stop stop-color="white"/>
<stop offset="1" stop-color="white" stop-opacity="0"/>
</radialGradient>
<linearGradient id="paint70_linear_339_1325" x1="116.779" y1="142.996" x2="131.547" y2="129.807" gradientUnits="userSpaceOnUse">
<stop offset="0.0677083" stop-color="#4D5455"/>
<stop offset="0.21875" stop-color="#9EA1A1"/>
<stop offset="0.453125" stop-color="#848B8A"/>
<stop offset="0.524381" stop-color="#535D5E"/>
<stop offset="0.796875" stop-color="#4B5355"/>
<stop offset="0.895833" stop-color="#757A7B"/>
<stop offset="1" stop-color="#4D5455"/>
</linearGradient>
<radialGradient id="paint71_radial_339_1325" cx="0" cy="0" r="1" gradientUnits="userSpaceOnUse" gradientTransform="translate(116.779 136.246) rotate(34.0884) scale(12.8672 14.6239)">
<stop stop-color="white"/>
<stop offset="1" stop-color="white" stop-opacity="0"/>
</radialGradient>
<linearGradient id="paint72_linear_339_1325" x1="117.37" y1="146.278" x2="132.272" y2="136.478" gradientUnits="userSpaceOnUse">
<stop offset="0.0677083" stop-color="#4D5455"/>
<stop offset="0.21875" stop-color="#9EA1A1"/>
<stop offset="0.453125" stop-color="#848B8A"/>
<stop offset="0.524381" stop-color="#535D5E"/>
<stop offset="0.796875" stop-color="#4B5355"/>
<stop offset="0.895833" stop-color="#757A7B"/>
<stop offset="1" stop-color="#4D5455"/>
</linearGradient>
<radialGradient id="paint73_radial_339_1325" cx="0" cy="0" r="1" gradientUnits="userSpaceOnUse" gradientTransform="translate(117.37 138.907) rotate(42.5838) scale(11.638 14.1973)">
<stop stop-color="white"/>
<stop offset="1" stop-color="white" stop-opacity="0"/>
</radialGradient>
<linearGradient id="paint74_linear_339_1325" x1="118.175" y1="145.853" x2="126.505" y2="139.613" gradientUnits="userSpaceOnUse">
<stop offset="0.0677083" stop-color="#4D5455"/>
<stop offset="0.21875" stop-color="#9EA1A1"/>
<stop offset="0.453125" stop-color="#848B8A"/>
<stop offset="0.524381" stop-color="#535D5E"/>
<stop offset="0.796875" stop-color="#4B5355"/>
<stop offset="0.895833" stop-color="#757A7B"/>
<stop offset="1" stop-color="#4D5455"/>
</linearGradient>
<radialGradient id="paint75_radial_339_1325" cx="0" cy="0" r="1" gradientUnits="userSpaceOnUse" gradientTransform="translate(118.175 141.911) rotate(38.8983) scale(6.70632 8.02477)">
<stop stop-color="white"/>
<stop offset="1" stop-color="white" stop-opacity="0"/>
</radialGradient>
<linearGradient id="paint76_linear_339_1325" x1="119.268" y1="145.797" x2="120.517" y2="145.362" gradientUnits="userSpaceOnUse">
<stop offset="0.0677083" stop-color="#4D5455"/>
<stop offset="0.21875" stop-color="#9EA1A1"/>
<stop offset="0.453125" stop-color="#848B8A"/>
<stop offset="0.524381" stop-color="#535D5E"/>
<stop offset="0.796875" stop-color="#4B5355"/>
<stop offset="0.895833" stop-color="#757A7B"/>
<stop offset="1" stop-color="#4D5455"/>
</linearGradient>
<radialGradient id="paint77_radial_339_1325" cx="0" cy="0" r="1" gradientUnits="userSpaceOnUse" gradientTransform="translate(119.268 144.885) rotate(60.0294) scale(1.12552 1.19262)">
<stop stop-color="white"/>
<stop offset="1" stop-color="white" stop-opacity="0"/>
</radialGradient>
<linearGradient id="paint78_linear_339_1325" x1="133.486" y1="154.924" x2="141.234" y2="148.545" gradientUnits="userSpaceOnUse">
<stop offset="0.0677083" stop-color="#4D5455"/>
<stop offset="0.21875" stop-color="#9EA1A1"/>
<stop offset="0.453125" stop-color="#848B8A"/>
<stop offset="0.524381" stop-color="#535D5E"/>
<stop offset="0.796875" stop-color="#4B5355"/>
<stop offset="0.895833" stop-color="#757A7B"/>
<stop offset="1" stop-color="#4D5455"/>
</linearGradient>
<radialGradient id="paint79_radial_339_1325" cx="0" cy="0" r="1" gradientUnits="userSpaceOnUse" gradientTransform="translate(133.486 151.339) rotate(36.2839) scale(6.47285 7.56052)">
<stop stop-color="white"/>
<stop offset="1" stop-color="white" stop-opacity="0"/>
</radialGradient>
<linearGradient id="paint80_linear_339_1325" x1="132.15" y1="144.899" x2="149.285" y2="138.855" gradientUnits="userSpaceOnUse">
<stop offset="0.0677083" stop-color="#4D5455"/>
<stop offset="0.21875" stop-color="#9EA1A1"/>
<stop offset="0.453125" stop-color="#848B8A"/>
<stop offset="0.524381" stop-color="#535D5E"/>
<stop offset="0.796875" stop-color="#4B5355"/>
<stop offset="0.895833" stop-color="#757A7B"/>
<stop offset="1" stop-color="#4D5455"/>
</linearGradient>
<radialGradient id="paint81_radial_339_1325" cx="0" cy="0" r="1" gradientUnits="userSpaceOnUse" gradientTransform="translate(132.15 132.496) rotate(59.7325) scale(15.3431 16.3544)">
<stop stop-color="white"/>
<stop offset="1" stop-color="white" stop-opacity="0"/>
</radialGradient>
<linearGradient id="paint82_linear_339_1325" x1="118.555" y1="132.25" x2="127.377" y2="125.834" gradientUnits="userSpaceOnUse">
<stop offset="0.0677083" stop-color="#4D5455"/>
<stop offset="0.21875" stop-color="#9EA1A1"/>
<stop offset="0.453125" stop-color="#848B8A"/>
<stop offset="0.524381" stop-color="#535D5E"/>
<stop offset="0.796875" stop-color="#4B5355"/>
<stop offset="0.895833" stop-color="#757A7B"/>
<stop offset="1" stop-color="#4D5455"/>
</linearGradient>
<radialGradient id="paint83_radial_339_1325" cx="0" cy="0" r="1" gradientUnits="userSpaceOnUse" gradientTransform="translate(118.555 128.039) rotate(39.73) scale(7.03981 8.47315)">
<stop stop-color="white"/>
<stop offset="1" stop-color="white" stop-opacity="0"/>
</radialGradient>
<linearGradient id="paint84_linear_339_1325" x1="116.414" y1="126.383" x2="117.921" y2="126.125" gradientUnits="userSpaceOnUse">
<stop offset="0.0677083" stop-color="#4D5455"/>
<stop offset="0.21875" stop-color="#9EA1A1"/>
<stop offset="0.453125" stop-color="#848B8A"/>
<stop offset="0.524381" stop-color="#535D5E"/>
<stop offset="0.796875" stop-color="#4B5355"/>
<stop offset="0.895833" stop-color="#757A7B"/>
<stop offset="1" stop-color="#4D5455"/>
</linearGradient>
<radialGradient id="paint85_radial_339_1325" cx="0" cy="0" r="1" gradientUnits="userSpaceOnUse" gradientTransform="translate(116.414 124.326) rotate(74.1849) scale(2.28372 1.46625)">
<stop stop-color="white"/>
<stop offset="1" stop-color="white" stop-opacity="0"/>
</radialGradient>
<linearGradient id="paint86_linear_339_1325" x1="150" y1="182.497" x2="197.534" y2="173.812" gradientUnits="userSpaceOnUse">
<stop offset="0.0677083" stop-color="#4D5455"/>
<stop offset="0.21875" stop-color="#9EA1A1"/>
<stop offset="0.453125" stop-color="#848B8A"/>
<stop offset="0.524381" stop-color="#535D5E"/>
<stop offset="0.796875" stop-color="#4B5355"/>
<stop offset="0.895833" stop-color="#757A7B"/>
<stop offset="1" stop-color="#4D5455"/>
</linearGradient>
<radialGradient id="paint87_radial_339_1325" cx="0" cy="0" r="1" gradientUnits="userSpaceOnUse" gradientTransform="translate(150 121.444) rotate(73.1813) scale(68.1436 46.2123)">
<stop stop-color="white"/>
<stop offset="1" stop-color="white" stop-opacity="0"/>
</radialGradient>
<linearGradient id="paint88_linear_339_1325" x1="150" y1="182.497" x2="197.534" y2="173.812" gradientUnits="userSpaceOnUse">
<stop offset="0.0677083" stop-color="#4D5455"/>
<stop offset="0.21875" stop-color="#9EA1A1"/>
<stop offset="0.453125" stop-color="#848B8A"/>
<stop offset="0.524381" stop-color="#535D5E"/>
<stop offset="0.796875" stop-color="#4B5355"/>
<stop offset="0.895833" stop-color="#757A7B"/>
<stop offset="1" stop-color="#4D5455"/>
</linearGradient>
<radialGradient id="paint89_radial_339_1325" cx="0" cy="0" r="1" gradientUnits="userSpaceOnUse" gradientTransform="translate(150 121.444) rotate(73.1813) scale(68.1436 46.2123)">
<stop stop-color="white"/>
<stop offset="1" stop-color="white" stop-opacity="0"/>
</radialGradient>
<linearGradient id="paint90_linear_339_1325" x1="76.5006" y1="159.377" x2="201.152" y2="125.878" gradientUnits="userSpaceOnUse">
<stop offset="0.21875" stop-color="#9EA1A1"/>
<stop offset="0.453125" stop-color="#848B8A"/>
<stop offset="0.524381" stop-color="#535D5E"/>
<stop offset="0.895833" stop-color="#757A7B"/>
</linearGradient>
<radialGradient id="paint91_radial_339_1325" cx="0" cy="0" r="1" gradientUnits="userSpaceOnUse" gradientTransform="translate(76.5006 46.448) rotate(66.0277) scale(132.043 120.028)">
<stop stop-color="white"/>
<stop offset="1" stop-color="white" stop-opacity="0"/>
</radialGradient>
</defs>
</svg>
