<svg width="64" height="73" viewBox="0 0 64 73" fill="none" xmlns="http://www.w3.org/2000/svg">
<g opacity="0.8">
<path d="M31.9997 0C31.9997 0 17.6126 16.6827 0.0296993 17.4045C0.0296993 17.4045 -2.20087 63.8937 31.9997 72.5139C31.9997 72.5139 64.5923 67.126 63.9697 17.4045C63.9697 17.4045 48.2118 18.4103 31.9997 0Z" fill="#938EF0"/>
<path d="M0.512863 17.9404C0.513335 17.9202 0.51381 17.9005 0.514284 17.8814C9.26599 17.3841 17.1769 13.046 22.9045 8.83438C25.8241 6.68756 28.1893 4.56405 29.8252 2.97679C30.6433 2.18293 31.2797 1.52258 31.7124 1.05969C31.8203 0.944248 31.9156 0.841077 31.9979 0.751164C40.0351 9.73627 47.9483 14.0335 53.9018 16.079C56.9228 17.117 59.4354 17.5739 61.1987 17.7709C62.0804 17.8695 62.7747 17.903 63.2518 17.9117C63.3325 17.9132 63.4069 17.914 63.4749 17.9142C63.6714 42.3357 55.7767 55.8369 47.8763 63.2399C43.8919 66.9734 39.8902 69.1709 36.8886 70.4343C35.3879 71.0659 34.138 71.4638 33.2665 71.7031C32.8309 71.8228 32.49 71.9028 32.2599 71.9525C32.1557 71.9751 32.0742 71.9914 32.0169 72.0024C15.2369 67.7251 7.35632 54.1819 3.66935 41.5862C1.82344 35.28 1.03781 29.2365 0.714252 24.7671C0.552539 22.5333 0.506409 20.695 0.500647 19.4167C0.497767 18.7776 0.504977 18.2787 0.512863 17.9404Z" stroke="url(#paint0_linear_226_7210)" stroke-opacity="0.5"/>
</g>
<defs>
<linearGradient id="paint0_linear_226_7210" x1="-12.5" y1="-4.5" x2="110" y2="151" gradientUnits="userSpaceOnUse">
<stop offset="0.0615249" stop-color="#D9D9D9"/>
<stop offset="1" stop-color="#737373"/>
</linearGradient>
</defs>
</svg>
