<svg width="270" height="270" viewBox="0 0 270 270" fill="none" xmlns="http://www.w3.org/2000/svg">
<path fill-rule="evenodd" clip-rule="evenodd" d="M90.198 179.225C101.33 194.664 115.264 205.005 131.999 210.249C140.451 207.601 148.188 203.652 155.211 198.404C153.31 197.408 151.486 196.286 149.75 195.048C144.299 198.785 138.382 201.667 131.999 203.694C116.865 198.888 104.35 189.275 94.4545 174.855C84.559 160.436 79.6113 144.414 79.6113 126.79V85.4977L131.999 66.0531L184.387 85.4977V110.326C186.473 110.655 188.514 111.122 190.499 111.716V81.3466L131.999 59.4988L73.4993 81.3466V126.79C73.4993 146.307 79.0656 163.786 90.198 179.225Z" fill="url(#paint0_linear_339_1234)"/>
<path fill-rule="evenodd" clip-rule="evenodd" d="M90.198 179.225C101.33 194.664 115.264 205.005 131.999 210.249C140.451 207.601 148.188 203.652 155.211 198.404C153.31 197.408 151.486 196.286 149.75 195.048C144.299 198.785 138.382 201.667 131.999 203.694C116.865 198.888 104.35 189.275 94.4545 174.855C84.559 160.436 79.6113 144.414 79.6113 126.79V85.4977L131.999 66.0531L184.387 85.4977V110.326C186.473 110.655 188.514 111.122 190.499 111.716V81.3466L131.999 59.4988L73.4993 81.3466V126.79C73.4993 146.307 79.0656 163.786 90.198 179.225Z" fill="url(#paint1_radial_339_1234)" style="mix-blend-mode:overlay"/>
<mask id="mask0_339_1234" style="mask-type:alpha" maskUnits="userSpaceOnUse" x="125" y="145" width="63" height="63">
<path d="M125 145.053H187.45V207.503H125V145.053Z" fill="#D9D9D9"/>
</mask>
<g mask="url(#mask0_339_1234)">
<path d="M176.911 199.697C171.49 199.697 166.134 198.515 160.843 196.151C155.553 193.788 150.739 190.438 146.402 186.101C142.065 181.764 138.715 176.95 136.351 171.659C133.988 166.368 132.806 161.012 132.806 155.591C132.806 154.811 133.066 154.16 133.587 153.64C134.107 153.119 134.758 152.859 135.538 152.859H146.077C146.684 152.859 147.226 153.065 147.703 153.477C148.18 153.889 148.462 154.377 148.549 154.941L150.24 164.048C150.327 164.742 150.305 165.327 150.175 165.805C150.045 166.282 149.806 166.694 149.459 167.041L143.149 173.416C144.017 175.02 145.047 176.571 146.239 178.067C147.432 179.563 148.744 181.005 150.175 182.393C151.519 183.737 152.929 184.984 154.403 186.133C155.878 187.283 157.439 188.334 159.087 189.288L165.202 183.173C165.592 182.783 166.102 182.49 166.731 182.295C167.36 182.1 167.978 182.046 168.585 182.133L177.562 183.954C178.169 184.128 178.668 184.442 179.058 184.897C179.448 185.353 179.644 185.862 179.644 186.426V196.965C179.644 197.745 179.383 198.396 178.863 198.916C178.343 199.437 177.692 199.697 176.911 199.697Z" fill="url(#paint2_linear_339_1234)"/>
<path d="M176.911 199.697C171.49 199.697 166.134 198.515 160.843 196.151C155.553 193.788 150.739 190.438 146.402 186.101C142.065 181.764 138.715 176.95 136.351 171.659C133.988 166.368 132.806 161.012 132.806 155.591C132.806 154.811 133.066 154.16 133.587 153.64C134.107 153.119 134.758 152.859 135.538 152.859H146.077C146.684 152.859 147.226 153.065 147.703 153.477C148.18 153.889 148.462 154.377 148.549 154.941L150.24 164.048C150.327 164.742 150.305 165.327 150.175 165.805C150.045 166.282 149.806 166.694 149.459 167.041L143.149 173.416C144.017 175.02 145.047 176.571 146.239 178.067C147.432 179.563 148.744 181.005 150.175 182.393C151.519 183.737 152.929 184.984 154.403 186.133C155.878 187.283 157.439 188.334 159.087 189.288L165.202 183.173C165.592 182.783 166.102 182.49 166.731 182.295C167.36 182.1 167.978 182.046 168.585 182.133L177.562 183.954C178.169 184.128 178.668 184.442 179.058 184.897C179.448 185.353 179.644 185.862 179.644 186.426V196.965C179.644 197.745 179.383 198.396 178.863 198.916C178.343 199.437 177.692 199.697 176.911 199.697Z" fill="url(#paint3_radial_339_1234)" style="mix-blend-mode:overlay"/>
</g>
<path d="M193.433 163.449L199.125 152.184V152.091H192.494V149.717H202.129V152.124L196.43 163.449H193.433Z" fill="url(#paint4_linear_339_1234)"/>
<path d="M193.433 163.449L199.125 152.184V152.091H192.494V149.717H202.129V152.124L196.43 163.449H193.433Z" fill="url(#paint5_radial_339_1234)" style="mix-blend-mode:overlay"/>
<path d="M191.54 149.074L187.114 165.515H184.654L189.079 149.074H191.54Z" fill="url(#paint6_linear_339_1234)"/>
<path d="M191.54 149.074L187.114 165.515H184.654L189.079 149.074H191.54Z" fill="url(#paint7_radial_339_1234)" style="mix-blend-mode:overlay"/>
<path d="M172.528 161.035V158.749L178.261 149.717H180.232V152.882H179.065L175.451 158.601V158.708H183.598V161.035H172.528ZM179.119 163.449V160.338L179.173 159.325V149.717H181.895V163.449H179.119Z" fill="url(#paint8_linear_339_1234)"/>
<path d="M172.528 161.035V158.749L178.261 149.717H180.232V152.882H179.065L175.451 158.601V158.708H183.598V161.035H172.528ZM179.119 163.449V160.338L179.173 159.325V149.717H181.895V163.449H179.119Z" fill="url(#paint9_radial_339_1234)" style="mix-blend-mode:overlay"/>
<path d="M161.139 163.449V161.357L166.027 156.831C166.442 156.429 166.791 156.067 167.073 155.745C167.359 155.423 167.575 155.108 167.723 154.8C167.87 154.487 167.944 154.149 167.944 153.787C167.944 153.385 167.853 153.039 167.669 152.748C167.486 152.453 167.236 152.227 166.918 152.071C166.601 151.91 166.241 151.83 165.839 151.83C165.419 151.83 165.052 151.914 164.739 152.084C164.426 152.254 164.185 152.498 164.015 152.815C163.845 153.133 163.76 153.51 163.76 153.948H161.005C161.005 153.05 161.208 152.27 161.615 151.608C162.021 150.947 162.591 150.435 163.324 150.073C164.058 149.711 164.902 149.53 165.859 149.53C166.842 149.53 167.698 149.704 168.427 150.053C169.16 150.397 169.73 150.875 170.137 151.488C170.543 152.1 170.747 152.802 170.747 153.593C170.747 154.111 170.644 154.623 170.438 155.128C170.237 155.633 169.877 156.194 169.359 156.811C168.84 157.424 168.11 158.159 167.166 159.017L165.162 160.982V161.076H170.928V163.449H161.139Z" fill="url(#paint10_linear_339_1234)"/>
<path d="M161.139 163.449V161.357L166.027 156.831C166.442 156.429 166.791 156.067 167.073 155.745C167.359 155.423 167.575 155.108 167.723 154.8C167.87 154.487 167.944 154.149 167.944 153.787C167.944 153.385 167.853 153.039 167.669 152.748C167.486 152.453 167.236 152.227 166.918 152.071C166.601 151.91 166.241 151.83 165.839 151.83C165.419 151.83 165.052 151.914 164.739 152.084C164.426 152.254 164.185 152.498 164.015 152.815C163.845 153.133 163.76 153.51 163.76 153.948H161.005C161.005 153.05 161.208 152.27 161.615 151.608C162.021 150.947 162.591 150.435 163.324 150.073C164.058 149.711 164.902 149.53 165.859 149.53C166.842 149.53 167.698 149.704 168.427 150.053C169.16 150.397 169.73 150.875 170.137 151.488C170.543 152.1 170.747 152.802 170.747 153.593C170.747 154.111 170.644 154.623 170.438 155.128C170.237 155.633 169.877 156.194 169.359 156.811C168.84 157.424 168.11 158.159 167.166 159.017L165.162 160.982V161.076H170.928V163.449H161.139Z" fill="url(#paint11_radial_339_1234)" style="mix-blend-mode:overlay"/>
<path d="M186.509 197.081C193.864 195.683 200.71 192.327 206.33 187.364C211.949 182.401 216.136 176.013 218.452 168.87C220.768 161.726 221.127 154.09 219.493 146.759C217.859 139.428 214.291 132.673 209.162 127.2C204.034 121.728 197.534 117.739 190.342 115.652C183.151 113.564 175.532 113.455 168.284 115.335C161.036 117.215 154.425 121.016 149.143 126.339C143.86 131.662 140.101 138.312 138.258 145.592L140.649 146.201C142.382 139.351 145.92 133.093 150.89 128.084C155.861 123.076 162.081 119.5 168.901 117.731C175.722 115.961 182.89 116.064 189.657 118.029C196.424 119.993 202.54 123.746 207.366 128.895C212.191 134.045 215.549 140.401 217.087 147.299C218.624 154.197 218.286 161.383 216.107 168.104C213.928 174.826 209.988 180.837 204.701 185.507C199.413 190.177 192.971 193.335 186.05 194.65L186.509 197.081Z" fill="url(#paint12_linear_339_1234)"/>
<path d="M186.509 197.081C193.864 195.683 200.71 192.327 206.33 187.364C211.949 182.401 216.136 176.013 218.452 168.87C220.768 161.726 221.127 154.09 219.493 146.759C217.859 139.428 214.291 132.673 209.162 127.2C204.034 121.728 197.534 117.739 190.342 115.652C183.151 113.564 175.532 113.455 168.284 115.335C161.036 117.215 154.425 121.016 149.143 126.339C143.86 131.662 140.101 138.312 138.258 145.592L140.649 146.201C142.382 139.351 145.92 133.093 150.89 128.084C155.861 123.076 162.081 119.5 168.901 117.731C175.722 115.961 182.89 116.064 189.657 118.029C196.424 119.993 202.54 123.746 207.366 128.895C212.191 134.045 215.549 140.401 217.087 147.299C218.624 154.197 218.286 161.383 216.107 168.104C213.928 174.826 209.988 180.837 204.701 185.507C199.413 190.177 192.971 193.335 186.05 194.65L186.509 197.081Z" fill="url(#paint13_radial_339_1234)" style="mix-blend-mode:overlay"/>
<path fill-rule="evenodd" clip-rule="evenodd" d="M146.241 138.416L152.399 142.257L151.53 143.65L145.372 139.809L146.241 138.416Z" fill="url(#paint14_linear_339_1234)"/>
<path fill-rule="evenodd" clip-rule="evenodd" d="M146.241 138.416L152.399 142.257L151.53 143.65L145.372 139.809L146.241 138.416Z" fill="url(#paint15_radial_339_1234)" style="mix-blend-mode:overlay"/>
<path fill-rule="evenodd" clip-rule="evenodd" d="M162.219 122.046L165.208 129.06L163.697 129.704L160.708 122.69L162.219 122.046Z" fill="url(#paint16_linear_339_1234)"/>
<path fill-rule="evenodd" clip-rule="evenodd" d="M162.219 122.046L165.208 129.06L163.697 129.704L160.708 122.69L162.219 122.046Z" fill="url(#paint17_radial_339_1234)" style="mix-blend-mode:overlay"/>
<path fill-rule="evenodd" clip-rule="evenodd" d="M187.959 119.659L186.241 127.087L184.641 126.717L186.359 119.289L187.959 119.659Z" fill="url(#paint18_linear_339_1234)"/>
<path fill-rule="evenodd" clip-rule="evenodd" d="M187.959 119.659L186.241 127.087L184.641 126.717L186.359 119.289L187.959 119.659Z" fill="url(#paint19_radial_339_1234)" style="mix-blend-mode:overlay"/>
<path fill-rule="evenodd" clip-rule="evenodd" d="M210.272 136.293L203.53 139.854L202.763 138.402L209.505 134.841L210.272 136.293Z" fill="url(#paint20_linear_339_1234)"/>
<path fill-rule="evenodd" clip-rule="evenodd" d="M210.272 136.293L203.53 139.854L202.763 138.402L209.505 134.841L210.272 136.293Z" fill="url(#paint21_radial_339_1234)" style="mix-blend-mode:overlay"/>
<path fill-rule="evenodd" clip-rule="evenodd" d="M216.191 157.421L208.567 157.482L208.554 155.84L216.178 155.779L216.191 157.421Z" fill="url(#paint22_linear_339_1234)"/>
<path fill-rule="evenodd" clip-rule="evenodd" d="M216.191 157.421L208.567 157.482L208.554 155.84L216.178 155.779L216.191 157.421Z" fill="url(#paint23_radial_339_1234)" style="mix-blend-mode:overlay"/>
<path fill-rule="evenodd" clip-rule="evenodd" d="M208.698 178.599L202.534 174.111L203.501 172.784L209.664 177.272L208.698 178.599Z" fill="url(#paint24_linear_339_1234)"/>
<path fill-rule="evenodd" clip-rule="evenodd" d="M208.698 178.599L202.534 174.111L203.501 172.784L209.664 177.272L208.698 178.599Z" fill="url(#paint25_radial_339_1234)" style="mix-blend-mode:overlay"/>
<path fill-rule="evenodd" clip-rule="evenodd" d="M190.245 191.814L186.008 185.475L187.373 184.563L191.61 190.901L190.245 191.814Z" fill="url(#paint26_linear_339_1234)"/>
<path fill-rule="evenodd" clip-rule="evenodd" d="M190.245 191.814L186.008 185.475L187.373 184.563L191.61 190.901L190.245 191.814Z" fill="url(#paint27_radial_339_1234)" style="mix-blend-mode:overlay"/>
<defs>
<linearGradient id="paint0_linear_339_1234" x1="73.4993" y1="159.377" x2="198.151" y2="125.878" gradientUnits="userSpaceOnUse">
<stop offset="0.0677083" stop-color="#4D5455"/>
<stop offset="0.21875" stop-color="#9EA1A1"/>
<stop offset="0.453125" stop-color="#848B8A"/>
<stop offset="0.524381" stop-color="#535D5E"/>
<stop offset="0.796875" stop-color="#4B5355"/>
<stop offset="0.895833" stop-color="#757A7B"/>
<stop offset="1" stop-color="#4D5455"/>
</linearGradient>
<radialGradient id="paint1_radial_339_1234" cx="0" cy="0" r="1" gradientUnits="userSpaceOnUse" gradientTransform="translate(73.4993 46.448) rotate(66.0277) scale(132.043 120.028)">
<stop stop-color="white"/>
<stop offset="1" stop-color="white" stop-opacity="0"/>
</radialGradient>
<linearGradient id="paint2_linear_339_1234" x1="132.806" y1="183.891" x2="180.582" y2="167.348" gradientUnits="userSpaceOnUse">
<stop offset="0.0677083" stop-color="#4D5455"/>
<stop offset="0.21875" stop-color="#9EA1A1"/>
<stop offset="0.453125" stop-color="#848B8A"/>
<stop offset="0.524381" stop-color="#535D5E"/>
<stop offset="0.796875" stop-color="#4B5355"/>
<stop offset="0.895833" stop-color="#757A7B"/>
<stop offset="1" stop-color="#4D5455"/>
</linearGradient>
<radialGradient id="paint3_radial_339_1234" cx="0" cy="0" r="1" gradientUnits="userSpaceOnUse" gradientTransform="translate(132.806 148.804) rotate(60.1911) scale(43.2029 45.6282)">
<stop stop-color="white"/>
<stop offset="1" stop-color="white" stop-opacity="0"/>
</radialGradient>
<linearGradient id="paint4_linear_339_1234" x1="192.494" y1="158.815" x2="202.887" y2="156.29" gradientUnits="userSpaceOnUse">
<stop offset="0.21875" stop-color="#9EA1A1"/>
<stop offset="0.453125" stop-color="#848B8A"/>
<stop offset="0.524381" stop-color="#535D5E"/>
<stop offset="0.895833" stop-color="#757A7B"/>
</linearGradient>
<radialGradient id="paint5_radial_339_1234" cx="0" cy="0" r="1" gradientUnits="userSpaceOnUse" gradientTransform="translate(192.494 148.528) rotate(68.1004) scale(11.8449 10.0368)">
<stop stop-color="white"/>
<stop offset="1" stop-color="white" stop-opacity="0"/>
</radialGradient>
<linearGradient id="paint6_linear_339_1234" x1="184.654" y1="159.967" x2="192.358" y2="158.849" gradientUnits="userSpaceOnUse">
<stop offset="0.21875" stop-color="#9EA1A1"/>
<stop offset="0.453125" stop-color="#848B8A"/>
<stop offset="0.524381" stop-color="#535D5E"/>
<stop offset="0.895833" stop-color="#757A7B"/>
</linearGradient>
<radialGradient id="paint7_radial_339_1234" cx="0" cy="0" r="1" gradientUnits="userSpaceOnUse" gradientTransform="translate(184.654 147.651) rotate(76.5064) scale(13.5317 7.51763)">
<stop stop-color="white"/>
<stop offset="1" stop-color="white" stop-opacity="0"/>
</radialGradient>
<linearGradient id="paint8_linear_339_1234" x1="172.528" y1="158.815" x2="184.259" y2="155.54" gradientUnits="userSpaceOnUse">
<stop offset="0.21875" stop-color="#9EA1A1"/>
<stop offset="0.453125" stop-color="#848B8A"/>
<stop offset="0.524381" stop-color="#535D5E"/>
<stop offset="0.895833" stop-color="#757A7B"/>
</linearGradient>
<radialGradient id="paint9_radial_339_1234" cx="0" cy="0" r="1" gradientUnits="userSpaceOnUse" gradientTransform="translate(172.528 148.528) rotate(65.2099) scale(12.1057 11.2831)">
<stop stop-color="white"/>
<stop offset="1" stop-color="white" stop-opacity="0"/>
</radialGradient>
<linearGradient id="paint10_linear_339_1234" x1="161.005" y1="158.752" x2="171.689" y2="156.114" gradientUnits="userSpaceOnUse">
<stop offset="0.21875" stop-color="#9EA1A1"/>
<stop offset="0.453125" stop-color="#848B8A"/>
<stop offset="0.524381" stop-color="#535D5E"/>
<stop offset="0.895833" stop-color="#757A7B"/>
</linearGradient>
<radialGradient id="paint11_radial_339_1234" cx="0" cy="0" r="1" gradientUnits="userSpaceOnUse" gradientTransform="translate(161.005 148.325) rotate(67.7832) scale(12.0338 10.314)">
<stop stop-color="white"/>
<stop offset="1" stop-color="white" stop-opacity="0"/>
</radialGradient>
<linearGradient id="paint12_linear_339_1234" x1="138.258" y1="169.045" x2="222.329" y2="140.228" gradientUnits="userSpaceOnUse">
<stop offset="0.21875" stop-color="#9EA1A1"/>
<stop offset="0.453125" stop-color="#848B8A"/>
<stop offset="0.524381" stop-color="#535D5E"/>
<stop offset="0.895833" stop-color="#757A7B"/>
</linearGradient>
<radialGradient id="paint13_radial_339_1234" cx="0" cy="0" r="1" gradientUnits="userSpaceOnUse" gradientTransform="translate(138.258 106.809) rotate(60.4409) scale(76.4423 80.3175)">
<stop stop-color="white"/>
<stop offset="1" stop-color="white" stop-opacity="0"/>
</radialGradient>
<linearGradient id="paint14_linear_339_1234" x1="147.708" y1="143.262" x2="151.162" y2="139.686" gradientUnits="userSpaceOnUse">
<stop offset="0.0677083" stop-color="#4D5455"/>
<stop offset="0.21875" stop-color="#9EA1A1"/>
<stop offset="0.453125" stop-color="#848B8A"/>
<stop offset="0.524381" stop-color="#535D5E"/>
<stop offset="0.796875" stop-color="#4B5355"/>
<stop offset="0.895833" stop-color="#757A7B"/>
<stop offset="1" stop-color="#4D5455"/>
</linearGradient>
<radialGradient id="paint15_radial_339_1234" cx="0" cy="0" r="1" gradientUnits="userSpaceOnUse" gradientTransform="translate(144.644 138.734) rotate(36.6689) scale(6.18713 4.7145)">
<stop stop-color="white"/>
<stop offset="1" stop-color="white" stop-opacity="0"/>
</radialGradient>
<linearGradient id="paint16_linear_339_1234" x1="160.699" y1="127.115" x2="165.65" y2="126.115" gradientUnits="userSpaceOnUse">
<stop offset="0.0677083" stop-color="#4D5455"/>
<stop offset="0.21875" stop-color="#9EA1A1"/>
<stop offset="0.453125" stop-color="#848B8A"/>
<stop offset="0.524381" stop-color="#535D5E"/>
<stop offset="0.796875" stop-color="#4B5355"/>
<stop offset="0.895833" stop-color="#757A7B"/>
<stop offset="1" stop-color="#4D5455"/>
</linearGradient>
<radialGradient id="paint17_radial_339_1234" cx="0" cy="0" r="1" gradientUnits="userSpaceOnUse" gradientTransform="translate(160.711 121.381) rotate(71.4569) scale(6.46634 4.79988)">
<stop stop-color="white"/>
<stop offset="1" stop-color="white" stop-opacity="0"/>
</radialGradient>
<linearGradient id="paint18_linear_339_1234" x1="183.745" y1="122.858" x2="188.334" y2="124.968" gradientUnits="userSpaceOnUse">
<stop offset="0.0677083" stop-color="#4D5455"/>
<stop offset="0.21875" stop-color="#9EA1A1"/>
<stop offset="0.453125" stop-color="#848B8A"/>
<stop offset="0.524381" stop-color="#535D5E"/>
<stop offset="0.796875" stop-color="#4B5355"/>
<stop offset="0.895833" stop-color="#757A7B"/>
<stop offset="1" stop-color="#4D5455"/>
</linearGradient>
<radialGradient id="paint19_radial_339_1234" cx="0" cy="0" r="1" gradientUnits="userSpaceOnUse" gradientTransform="translate(187.133 118.232) rotate(107.562) scale(6.46634 4.79988)">
<stop stop-color="white"/>
<stop offset="1" stop-color="white" stop-opacity="0"/>
</radialGradient>
<linearGradient id="paint20_linear_339_1234" x1="205.095" y1="135.199" x2="206.502" y2="140.05" gradientUnits="userSpaceOnUse">
<stop offset="0.0677083" stop-color="#4D5455"/>
<stop offset="0.21875" stop-color="#9EA1A1"/>
<stop offset="0.453125" stop-color="#848B8A"/>
<stop offset="0.524381" stop-color="#535D5E"/>
<stop offset="0.796875" stop-color="#4B5355"/>
<stop offset="0.895833" stop-color="#757A7B"/>
<stop offset="1" stop-color="#4D5455"/>
</linearGradient>
<radialGradient id="paint21_radial_339_1234" cx="0" cy="0" r="1" gradientUnits="userSpaceOnUse" gradientTransform="translate(210.81 134.735) rotate(156.697) scale(6.46634 4.79988)">
<stop stop-color="white"/>
<stop offset="1" stop-color="white" stop-opacity="0"/>
</radialGradient>
<linearGradient id="paint22_linear_339_1234" x1="212.097" y1="154.069" x2="211.116" y2="159.023" gradientUnits="userSpaceOnUse">
<stop offset="0.0677083" stop-color="#4D5455"/>
<stop offset="0.21875" stop-color="#9EA1A1"/>
<stop offset="0.453125" stop-color="#848B8A"/>
<stop offset="0.524381" stop-color="#535D5E"/>
<stop offset="0.796875" stop-color="#4B5355"/>
<stop offset="0.895833" stop-color="#757A7B"/>
<stop offset="1" stop-color="#4D5455"/>
</linearGradient>
<radialGradient id="paint23_radial_339_1234" cx="0" cy="0" r="1" gradientUnits="userSpaceOnUse" gradientTransform="translate(217.385 156.285) rotate(-175.922) scale(6.46634 4.79988)">
<stop stop-color="white"/>
<stop offset="1" stop-color="white" stop-opacity="0"/>
</radialGradient>
<linearGradient id="paint24_linear_339_1234" x1="207.403" y1="173.469" x2="203.666" y2="176.867" gradientUnits="userSpaceOnUse">
<stop offset="0.0677083" stop-color="#4D5455"/>
<stop offset="0.21875" stop-color="#9EA1A1"/>
<stop offset="0.453125" stop-color="#848B8A"/>
<stop offset="0.524381" stop-color="#535D5E"/>
<stop offset="0.796875" stop-color="#4B5355"/>
<stop offset="0.895833" stop-color="#757A7B"/>
<stop offset="1" stop-color="#4D5455"/>
</linearGradient>
<radialGradient id="paint25_radial_339_1234" cx="0" cy="0" r="1" gradientUnits="userSpaceOnUse" gradientTransform="translate(210.334 178.397) rotate(-139.406) scale(6.46634 4.79988)">
<stop stop-color="white"/>
<stop offset="1" stop-color="white" stop-opacity="0"/>
</radialGradient>
<linearGradient id="paint26_linear_339_1234" x1="190.799" y1="186.552" x2="186.119" y2="188.452" gradientUnits="userSpaceOnUse">
<stop offset="0.0677083" stop-color="#4D5455"/>
<stop offset="0.21875" stop-color="#9EA1A1"/>
<stop offset="0.453125" stop-color="#848B8A"/>
<stop offset="0.524381" stop-color="#535D5E"/>
<stop offset="0.796875" stop-color="#4B5355"/>
<stop offset="0.895833" stop-color="#757A7B"/>
<stop offset="1" stop-color="#4D5455"/>
</linearGradient>
<radialGradient id="paint27_radial_339_1234" cx="0" cy="0" r="1" gradientUnits="userSpaceOnUse" gradientTransform="translate(191.85 192.189) rotate(-119.224) scale(6.46634 4.79988)">
<stop stop-color="white"/>
<stop offset="1" stop-color="white" stop-opacity="0"/>
</radialGradient>
</defs>
</svg>
