<svg width="33" height="33" viewBox="0 0 33 33" fill="none" xmlns="http://www.w3.org/2000/svg">
<path d="M13.8645 22.971L7.5 16.605L9.621 14.484L13.8645 18.726L22.3485 10.2405L24.471 12.363L13.8645 22.971Z" fill="url(#paint0_linear_3076_25643)"/>
<path d="M13.8645 22.971L7.5 16.605L9.621 14.484L13.8645 18.726L22.3485 10.2405L24.471 12.363L13.8645 22.971Z" fill="url(#paint1_radial_3076_25643)" style="mix-blend-mode:overlay"/>
<path fill-rule="evenodd" clip-rule="evenodd" d="M0 16.5C0 7.3875 7.3875 0 16.5 0C25.6125 0 33 7.3875 33 16.5C33 25.6125 25.6125 33 16.5 33C7.3875 33 0 25.6125 0 16.5ZM16.5 30C14.7272 30 12.9717 29.6508 11.3338 28.9724C9.69588 28.2939 8.20765 27.2995 6.95406 26.0459C5.70047 24.7923 4.70606 23.3041 4.02763 21.6662C3.34919 20.0283 3 18.2728 3 16.5C3 14.7272 3.34919 12.9717 4.02763 11.3338C4.70606 9.69588 5.70047 8.20765 6.95406 6.95406C8.20765 5.70047 9.69588 4.70606 11.3338 4.02763C12.9717 3.34919 14.7272 3 16.5 3C20.0804 3 23.5142 4.42232 26.0459 6.95406C28.5777 9.4858 30 12.9196 30 16.5C30 20.0804 28.5777 23.5142 26.0459 26.0459C23.5142 28.5777 20.0804 30 16.5 30Z" fill="url(#paint2_linear_3076_25643)"/>
<path fill-rule="evenodd" clip-rule="evenodd" d="M0 16.5C0 7.3875 7.3875 0 16.5 0C25.6125 0 33 7.3875 33 16.5C33 25.6125 25.6125 33 16.5 33C7.3875 33 0 25.6125 0 16.5ZM16.5 30C14.7272 30 12.9717 29.6508 11.3338 28.9724C9.69588 28.2939 8.20765 27.2995 6.95406 26.0459C5.70047 24.7923 4.70606 23.3041 4.02763 21.6662C3.34919 20.0283 3 18.2728 3 16.5C3 14.7272 3.34919 12.9717 4.02763 11.3338C4.70606 9.69588 5.70047 8.20765 6.95406 6.95406C8.20765 5.70047 9.69588 4.70606 11.3338 4.02763C12.9717 3.34919 14.7272 3 16.5 3C20.0804 3 23.5142 4.42232 26.0459 6.95406C28.5777 9.4858 30 12.9196 30 16.5C30 20.0804 28.5777 23.5142 26.0459 26.0459C23.5142 28.5777 20.0804 30 16.5 30Z" fill="url(#paint3_radial_3076_25643)" style="mix-blend-mode:overlay"/>
<defs>
<linearGradient id="paint0_linear_3076_25643" x1="7.5" y1="18.675" x2="23.4814" y2="11.2978" gradientUnits="userSpaceOnUse">
<stop offset="0.0677083" stop-color="#4D5455"/>
<stop offset="0.21875" stop-color="#9EA1A1"/>
<stop offset="0.453125" stop-color="#848B8A"/>
<stop offset="0.524381" stop-color="#535D5E"/>
<stop offset="0.796875" stop-color="#4B5355"/>
<stop offset="0.895833" stop-color="#757A7B"/>
<stop offset="1" stop-color="#4D5455"/>
</linearGradient>
<radialGradient id="paint1_radial_3076_25643" cx="0" cy="0" r="1" gradientUnits="userSpaceOnUse" gradientTransform="translate(7.5 9.13837) rotate(52.6293) scale(12.8207 15.1425)">
<stop stop-color="white"/>
<stop offset="1" stop-color="white" stop-opacity="0"/>
</radialGradient>
<linearGradient id="paint2_linear_3076_25643" x1="-3.90803e-07" y1="21.864" x2="33.6614" y2="10.2081" gradientUnits="userSpaceOnUse">
<stop offset="0.0677083" stop-color="#4D5455"/>
<stop offset="0.21875" stop-color="#9EA1A1"/>
<stop offset="0.453125" stop-color="#848B8A"/>
<stop offset="0.524381" stop-color="#535D5E"/>
<stop offset="0.796875" stop-color="#4B5355"/>
<stop offset="0.895833" stop-color="#757A7B"/>
<stop offset="1" stop-color="#4D5455"/>
</linearGradient>
<radialGradient id="paint3_radial_3076_25643" cx="0" cy="0" r="1" gradientUnits="userSpaceOnUse" gradientTransform="translate(-7.27475e-07 -2.85689) rotate(60.1911) scale(30.4391 32.1479)">
<stop stop-color="white"/>
<stop offset="1" stop-color="white" stop-opacity="0"/>
</radialGradient>
</defs>
</svg>
