<svg width="30" height="30" viewBox="0 0 30 30" fill="none" xmlns="http://www.w3.org/2000/svg">
<g opacity="0.6" clip-path="url(#clip0_226_7175)">
<g clip-path="url(#clip1_226_7175)">
<path d="M15 0C11.0218 0 7.20644 1.58035 4.3934 4.3934C1.58035 7.20644 0 11.0218 0 15C0 18.9782 1.58035 22.7936 4.3934 25.6066C7.20644 28.4196 11.0218 30 15 30C18.9782 30 22.7936 28.4196 25.6066 25.6066C28.4196 22.7936 30 18.9782 30 15C30 11.0218 28.4196 7.20644 25.6066 4.3934C22.7936 1.58035 18.9782 0 15 0ZM21.88 21.634C21.816 21.7392 21.7319 21.8307 21.6325 21.9033C21.533 21.9759 21.4202 22.0281 21.3005 22.0569C21.1808 22.0857 21.0566 22.0905 20.935 22.0712C20.8134 22.0518 20.6968 22.0086 20.592 21.944C17.072 19.794 12.638 19.304 7.416 20.498C7.18041 20.5377 6.93858 20.4857 6.74003 20.3529C6.54149 20.22 6.40126 20.0162 6.34808 19.7833C6.29491 19.5504 6.3328 19.306 6.454 19.1001C6.57521 18.8943 6.77054 18.7425 7 18.676C12.714 17.37 17.616 17.932 21.568 20.348C22.008 20.618 22.15 21.194 21.88 21.634ZM23.714 17.55C23.5518 17.8143 23.2914 18.0034 22.9899 18.0758C22.6884 18.1481 22.3705 18.0979 22.106 17.936C18.074 15.456 11.928 14.74 7.16 16.188C6.8684 16.2605 6.56011 16.2182 6.29879 16.0699C6.03748 15.9216 5.8431 15.6786 5.75582 15.3911C5.66854 15.1035 5.69502 14.7935 5.82979 14.5249C5.96456 14.2564 6.19732 14.0499 6.48 13.948C11.928 12.296 18.7 13.098 23.33 15.942C23.88 16.282 24.054 17.002 23.714 17.55ZM23.874 13.296C19.036 10.426 11.06 10.164 6.444 11.564C6.26777 11.6174 6.08273 11.6357 5.89946 11.6176C5.71619 11.5995 5.53826 11.5456 5.37585 11.4587C5.04785 11.2834 4.80294 10.9849 4.695 10.629C4.58706 10.2731 4.62492 9.88886 4.80027 9.56085C4.97562 9.23285 5.27408 8.98794 5.63 8.88C10.93 7.27 19.736 7.58 25.302 10.886C25.4605 10.9799 25.599 11.1041 25.7095 11.2515C25.82 11.3989 25.9004 11.5666 25.9461 11.7451C25.9917 11.9236 26.0018 12.1093 25.9757 12.2917C25.9496 12.474 25.8879 12.6495 25.794 12.808C25.7001 12.9665 25.5759 13.105 25.4285 13.2155C25.2811 13.326 25.1134 13.4064 24.9349 13.4521C24.7564 13.4977 24.5707 13.5078 24.3883 13.4817C24.206 13.4557 24.0305 13.3939 23.872 13.3L23.874 13.296Z" fill="white"/>
</g>
</g>
<defs>
<clipPath id="clip0_226_7175">
<rect width="30" height="30" fill="white"/>
</clipPath>
<clipPath id="clip1_226_7175">
<rect width="30" height="30" fill="white"/>
</clipPath>
</defs>
</svg>
