<svg width="270" height="270" viewBox="0 0 270 270" fill="none" xmlns="http://www.w3.org/2000/svg">
<path d="M120.316 68.075C107.672 71.2446 96.1818 77.9248 87.1716 87.3446L89.4838 89.5563C98.0769 80.5725 109.035 74.2015 121.094 71.1785L120.316 68.075Z" fill="url(#paint0_linear_339_1266)"/>
<path d="M120.316 68.075C107.672 71.2446 96.1818 77.9248 87.1716 87.3446L89.4838 89.5563C98.0769 80.5725 109.035 74.2015 121.094 71.1785L120.316 68.075Z" fill="url(#paint1_radial_339_1266)" style="mix-blend-mode:overlay"/>
<path d="M72.9951 109.323C67.357 123.335 66.4634 138.809 70.4511 153.377L73.5372 152.532C69.7341 138.638 70.5863 123.881 75.9635 110.518L72.9951 109.323Z" fill="url(#paint2_linear_339_1266)"/>
<path d="M72.9951 109.323C67.357 123.335 66.4634 138.809 70.4511 153.377L73.5372 152.532C69.7341 138.638 70.5863 123.881 75.9635 110.518L72.9951 109.323Z" fill="url(#paint3_radial_339_1266)" style="mix-blend-mode:overlay"/>
<path d="M82.2904 177.217C91.8068 189.614 105.243 198.42 120.408 202.199L121.181 199.095C106.719 195.491 93.9043 187.092 84.8284 175.269L82.2904 177.217Z" fill="url(#paint4_linear_339_1266)"/>
<path d="M82.2904 177.217C91.8068 189.614 105.243 198.42 120.408 202.199L121.181 199.095C106.719 195.491 93.9043 187.092 84.8284 175.269L82.2904 177.217Z" fill="url(#paint5_radial_339_1266)" style="mix-blend-mode:overlay"/>
<path d="M143.784 203.93C157.478 202.605 170.466 197.222 181.084 188.472L179.05 186.003C168.923 194.348 156.536 199.481 143.475 200.746L143.784 203.93Z" fill="url(#paint6_linear_339_1266)"/>
<path d="M143.784 203.93C157.478 202.605 170.466 197.222 181.084 188.472L179.05 186.003C168.923 194.348 156.536 199.481 143.475 200.746L143.784 203.93Z" fill="url(#paint7_radial_339_1266)" style="mix-blend-mode:overlay"/>
<path d="M182.846 83.282C172.722 74.3528 160.204 68.5836 146.838 66.6865L146.389 69.8544C159.136 71.6637 171.074 77.1659 180.73 85.6817L182.846 83.282Z" fill="url(#paint8_linear_339_1266)"/>
<path d="M182.846 83.282C172.722 74.3528 160.204 68.5836 146.838 66.6865L146.389 69.8544C159.136 71.6637 171.074 77.1659 180.73 85.6817L182.846 83.282Z" fill="url(#paint9_radial_339_1266)" style="mix-blend-mode:overlay"/>
<path fill-rule="evenodd" clip-rule="evenodd" d="M133.498 215.5C141.092 215.5 147.248 209.344 147.248 201.75C147.248 194.156 141.092 188 133.498 188C125.904 188 119.748 194.156 119.748 201.75C119.748 209.344 125.904 215.5 133.498 215.5ZM135.88 208.75V194.932H133.134L129.713 197.098V199.689L132.877 197.705H132.958V208.75H135.88Z" fill="url(#paint10_linear_339_1266)"/>
<path fill-rule="evenodd" clip-rule="evenodd" d="M133.498 215.5C141.092 215.5 147.248 209.344 147.248 201.75C147.248 194.156 141.092 188 133.498 188C125.904 188 119.748 194.156 119.748 201.75C119.748 209.344 125.904 215.5 133.498 215.5ZM135.88 208.75V194.932H133.134L129.713 197.098V199.689L132.877 197.705H132.958V208.75H135.88Z" fill="url(#paint11_radial_339_1266)" style="mix-blend-mode:overlay"/>
<path fill-rule="evenodd" clip-rule="evenodd" d="M78.7487 178C86.3426 178 92.4987 171.844 92.4987 164.25C92.4987 156.656 86.3426 150.5 78.7487 150.5C71.1548 150.5 64.9987 156.656 64.9987 164.25C64.9987 171.844 71.1548 178 78.7487 178ZM73.8687 169.145V171.25H83.7196V168.862H77.917V168.767L79.9344 166.79C80.8835 165.926 81.619 165.187 82.1408 164.57C82.6625 163.95 83.0246 163.385 83.2271 162.877C83.434 162.368 83.5374 161.853 83.5374 161.332C83.5374 160.536 83.3328 159.829 82.9234 159.213C82.5141 158.597 81.9406 158.116 81.2029 157.769C80.4697 157.418 79.6083 157.243 78.6187 157.243C77.6562 157.243 76.806 157.425 76.0683 157.789C75.3306 158.154 74.7571 158.669 74.3478 159.335C73.9385 160 73.7338 160.785 73.7338 161.689H76.5069C76.5069 161.248 76.5924 160.868 76.7633 160.549C76.9342 160.23 77.1771 159.984 77.492 159.814C77.8068 159.643 78.1757 159.557 78.5985 159.557C79.0033 159.557 79.3654 159.638 79.6848 159.8C80.0042 159.958 80.2561 160.185 80.4405 160.482C80.6249 160.774 80.7171 161.123 80.7171 161.527C80.7171 161.892 80.6429 162.231 80.4945 162.546C80.346 162.857 80.1279 163.174 79.84 163.498C79.5566 163.821 79.2057 164.186 78.7874 164.591L73.8687 169.145Z" fill="url(#paint12_linear_339_1266)"/>
<path fill-rule="evenodd" clip-rule="evenodd" d="M78.7487 178C86.3426 178 92.4987 171.844 92.4987 164.25C92.4987 156.656 86.3426 150.5 78.7487 150.5C71.1548 150.5 64.9987 156.656 64.9987 164.25C64.9987 171.844 71.1548 178 78.7487 178ZM73.8687 169.145V171.25H83.7196V168.862H77.917V168.767L79.9344 166.79C80.8835 165.926 81.619 165.187 82.1408 164.57C82.6625 163.95 83.0246 163.385 83.2271 162.877C83.434 162.368 83.5374 161.853 83.5374 161.332C83.5374 160.536 83.3328 159.829 82.9234 159.213C82.5141 158.597 81.9406 158.116 81.2029 157.769C80.4697 157.418 79.6083 157.243 78.6187 157.243C77.6562 157.243 76.806 157.425 76.0683 157.789C75.3306 158.154 74.7571 158.669 74.3478 159.335C73.9385 160 73.7338 160.785 73.7338 161.689H76.5069C76.5069 161.248 76.5924 160.868 76.7633 160.549C76.9342 160.23 77.1771 159.984 77.492 159.814C77.8068 159.643 78.1757 159.557 78.5985 159.557C79.0033 159.557 79.3654 159.638 79.6848 159.8C80.0042 159.958 80.2561 160.185 80.4405 160.482C80.6249 160.774 80.7171 161.123 80.7171 161.527C80.7171 161.892 80.6429 162.231 80.4945 162.546C80.346 162.857 80.1279 163.174 79.84 163.498C79.5566 163.821 79.2057 164.186 78.7874 164.591L73.8687 169.145Z" fill="url(#paint13_radial_339_1266)" style="mix-blend-mode:overlay"/>
<path fill-rule="evenodd" clip-rule="evenodd" d="M81.7484 113C89.3423 113 95.4984 106.844 95.4984 99.25C95.4984 91.6561 89.3423 85.5 81.7484 85.5C74.1545 85.5 67.9984 91.6561 67.9984 99.25C67.9984 106.844 74.1545 113 81.7484 113ZM78.7839 105.919C79.5711 106.266 80.4685 106.439 81.476 106.439C82.5106 106.439 83.4282 106.263 84.2289 105.913C85.0295 105.562 85.657 105.08 86.1113 104.469C86.5701 103.857 86.7973 103.158 86.7928 102.37C86.7973 101.511 86.5319 100.796 85.9966 100.225C85.4659 99.649 84.6922 99.2959 83.6756 99.1655V99.0575C84.4493 98.9181 85.0768 98.5897 85.5581 98.0724C86.0439 97.5552 86.2845 96.9097 86.28 96.136C86.2845 95.4073 86.0866 94.7506 85.6863 94.1658C85.2904 93.5766 84.7349 93.1088 84.0197 92.7624C83.3045 92.4161 82.4701 92.2429 81.5165 92.2429C80.5719 92.2429 79.724 92.4161 78.9728 92.7624C78.2262 93.1043 77.6324 93.5788 77.1916 94.1861C76.7508 94.7933 76.5236 95.495 76.5101 96.2912H79.3102C79.3237 95.9403 79.4294 95.6345 79.6273 95.3736C79.8252 95.1127 80.0884 94.9125 80.4167 94.7731C80.7451 94.6291 81.1072 94.5572 81.503 94.5572C81.8944 94.5572 82.2362 94.6314 82.5286 94.7798C82.8255 94.9283 83.0549 95.1352 83.2168 95.4006C83.3832 95.6615 83.4665 95.9651 83.4665 96.3114C83.4665 96.6758 83.372 96.9951 83.1831 97.2695C82.9942 97.5394 82.7288 97.7508 82.3869 97.9038C82.0496 98.0567 81.6605 98.1332 81.2196 98.1332H79.9309V100.279H81.2196C81.7414 100.279 82.1912 100.36 82.5691 100.522C82.9514 100.684 83.2438 100.908 83.4462 101.196C83.6531 101.48 83.7566 101.806 83.7566 102.175C83.7566 102.539 83.6599 102.861 83.4665 103.14C83.273 103.418 83.0054 103.637 82.6635 103.794C82.3217 103.951 81.9281 104.03 81.4828 104.03C81.0555 104.03 80.6709 103.96 80.329 103.821C79.9872 103.682 79.7128 103.486 79.5059 103.234C79.3035 102.978 79.1933 102.681 79.1753 102.343H76.2335C76.247 103.149 76.4786 103.859 76.9285 104.475C77.3828 105.087 78.0013 105.569 78.7839 105.919Z" fill="url(#paint14_linear_339_1266)"/>
<path fill-rule="evenodd" clip-rule="evenodd" d="M81.7484 113C89.3423 113 95.4984 106.844 95.4984 99.25C95.4984 91.6561 89.3423 85.5 81.7484 85.5C74.1545 85.5 67.9984 91.6561 67.9984 99.25C67.9984 106.844 74.1545 113 81.7484 113ZM78.7839 105.919C79.5711 106.266 80.4685 106.439 81.476 106.439C82.5106 106.439 83.4282 106.263 84.2289 105.913C85.0295 105.562 85.657 105.08 86.1113 104.469C86.5701 103.857 86.7973 103.158 86.7928 102.37C86.7973 101.511 86.5319 100.796 85.9966 100.225C85.4659 99.649 84.6922 99.2959 83.6756 99.1655V99.0575C84.4493 98.9181 85.0768 98.5897 85.5581 98.0724C86.0439 97.5552 86.2845 96.9097 86.28 96.136C86.2845 95.4073 86.0866 94.7506 85.6863 94.1658C85.2904 93.5766 84.7349 93.1088 84.0197 92.7624C83.3045 92.4161 82.4701 92.2429 81.5165 92.2429C80.5719 92.2429 79.724 92.4161 78.9728 92.7624C78.2262 93.1043 77.6324 93.5788 77.1916 94.1861C76.7508 94.7933 76.5236 95.495 76.5101 96.2912H79.3102C79.3237 95.9403 79.4294 95.6345 79.6273 95.3736C79.8252 95.1127 80.0884 94.9125 80.4167 94.7731C80.7451 94.6291 81.1072 94.5572 81.503 94.5572C81.8944 94.5572 82.2362 94.6314 82.5286 94.7798C82.8255 94.9283 83.0549 95.1352 83.2168 95.4006C83.3832 95.6615 83.4665 95.9651 83.4665 96.3114C83.4665 96.6758 83.372 96.9951 83.1831 97.2695C82.9942 97.5394 82.7288 97.7508 82.3869 97.9038C82.0496 98.0567 81.6605 98.1332 81.2196 98.1332H79.9309V100.279H81.2196C81.7414 100.279 82.1912 100.36 82.5691 100.522C82.9514 100.684 83.2438 100.908 83.4462 101.196C83.6531 101.48 83.7566 101.806 83.7566 102.175C83.7566 102.539 83.6599 102.861 83.4665 103.14C83.273 103.418 83.0054 103.637 82.6635 103.794C82.3217 103.951 81.9281 104.03 81.4828 104.03C81.0555 104.03 80.6709 103.96 80.329 103.821C79.9872 103.682 79.7128 103.486 79.5059 103.234C79.3035 102.978 79.1933 102.681 79.1753 102.343H76.2335C76.247 103.149 76.4786 103.859 76.9285 104.475C77.3828 105.087 78.0013 105.569 78.7839 105.919Z" fill="url(#paint15_radial_339_1266)" style="mix-blend-mode:overlay"/>
<path fill-rule="evenodd" clip-rule="evenodd" d="M133.498 82.0007C141.092 82.0007 147.248 75.8446 147.248 68.2507C147.248 60.6568 141.092 54.5007 133.498 54.5007C125.904 54.5007 119.748 60.6568 119.748 68.2507C119.748 75.8446 125.904 82.0007 133.498 82.0007ZM127.909 70.521V72.8218H134.541V75.2507H137.335V72.8218H139.048V70.4805H137.335V61.4326H135.661H134.595H133.678L127.909 70.521ZM134.595 64.6172H134.487L130.851 70.3725V70.4805H134.595V64.6172Z" fill="url(#paint16_linear_339_1266)"/>
<path fill-rule="evenodd" clip-rule="evenodd" d="M133.498 82.0007C141.092 82.0007 147.248 75.8446 147.248 68.2507C147.248 60.6568 141.092 54.5007 133.498 54.5007C125.904 54.5007 119.748 60.6568 119.748 68.2507C119.748 75.8446 125.904 82.0007 133.498 82.0007ZM127.909 70.521V72.8218H134.541V75.2507H137.335V72.8218H139.048V70.4805H137.335V61.4326H135.661H134.595H133.678L127.909 70.521ZM134.595 64.6172H134.487L130.851 70.3725V70.4805H134.595V64.6172Z" fill="url(#paint17_radial_339_1266)" style="mix-blend-mode:overlay"/>
<mask id="mask0_339_1266" style="mask-type:alpha" maskUnits="userSpaceOnUse" x="117" y="71" width="130" height="130">
<path d="M117.691 71.9412H246.061V200.311H117.691V71.9412Z" fill="#D9D9D9"/>
</mask>
<g mask="url(#mask0_339_1266)">
<path d="M176.26 151.412L202.777 124.894L198.961 121.078L176.26 143.779L164.821 132.341L161.005 136.157L176.26 151.412ZM181.876 184.059C171.13 180.87 162.204 174.361 155.096 164.531C147.988 154.701 144.435 143.628 144.435 131.312V102.388L181.876 88.3994L219.317 102.388V131.312C219.317 143.628 215.763 154.701 208.656 164.531C201.548 174.361 192.621 180.87 181.876 184.059ZM181.876 178.381C191.147 175.44 198.813 169.556 204.875 160.731C210.937 151.905 213.968 142.099 213.968 131.312V106.04L181.876 94.1079L149.783 106.04V131.312C149.783 142.099 152.814 151.905 158.876 160.731C164.938 169.556 172.605 175.44 181.876 178.381Z" fill="url(#paint18_linear_339_1266)"/>
<path d="M176.26 151.412L202.777 124.894L198.961 121.078L176.26 143.779L164.821 132.341L161.005 136.157L176.26 151.412ZM181.876 184.059C171.13 180.87 162.204 174.361 155.096 164.531C147.988 154.701 144.435 143.628 144.435 131.312V102.388L181.876 88.3994L219.317 102.388V131.312C219.317 143.628 215.763 154.701 208.656 164.531C201.548 174.361 192.621 180.87 181.876 184.059ZM181.876 178.381C191.147 175.44 198.813 169.556 204.875 160.731C210.937 151.905 213.968 142.099 213.968 131.312V106.04L181.876 94.1079L149.783 106.04V131.312C149.783 142.099 152.814 151.905 158.876 160.731C164.938 169.556 172.605 175.44 181.876 178.381Z" fill="url(#paint19_radial_339_1266)" style="mix-blend-mode:overlay"/>
</g>
<defs>
<linearGradient id="paint0_linear_339_1266" x1="87.1716" y1="82.3073" x2="117.003" y2="65.9952" gradientUnits="userSpaceOnUse">
<stop offset="0.21875" stop-color="#9EA1A1"/>
<stop offset="0.453125" stop-color="#848B8A"/>
<stop offset="0.524381" stop-color="#535D5E"/>
<stop offset="0.895833" stop-color="#757A7B"/>
</linearGradient>
<radialGradient id="paint1_radial_339_1266" cx="0" cy="0" r="1" gradientUnits="userSpaceOnUse" gradientTransform="translate(87.1716 66.2153) rotate(47.8639) scale(23.1846 28.2424)">
<stop stop-color="white"/>
<stop offset="1" stop-color="white" stop-opacity="0"/>
</radialGradient>
<linearGradient id="paint2_linear_339_1266" x1="67.9984" y1="138.511" x2="77.0617" y2="137.943" gradientUnits="userSpaceOnUse">
<stop offset="0.21875" stop-color="#9EA1A1"/>
<stop offset="0.453125" stop-color="#848B8A"/>
<stop offset="0.524381" stop-color="#535D5E"/>
<stop offset="0.895833" stop-color="#757A7B"/>
</linearGradient>
<radialGradient id="paint3_radial_339_1266" cx="0" cy="0" r="1" gradientUnits="userSpaceOnUse" gradientTransform="translate(67.9984 105.509) rotate(84.0861) scale(35.4471 8.89501)">
<stop stop-color="white"/>
<stop offset="1" stop-color="white" stop-opacity="0"/>
</radialGradient>
<linearGradient id="paint4_linear_339_1266" x1="82.2904" y1="193.112" x2="117.83" y2="175.34" gradientUnits="userSpaceOnUse">
<stop offset="0.21875" stop-color="#9EA1A1"/>
<stop offset="0.453125" stop-color="#848B8A"/>
<stop offset="0.524381" stop-color="#535D5E"/>
<stop offset="0.895833" stop-color="#757A7B"/>
</linearGradient>
<radialGradient id="paint5_radial_339_1266" cx="0" cy="0" r="1" gradientUnits="userSpaceOnUse" gradientTransform="translate(82.2904 172.938) rotate(50.397) scale(27.9745 33.6422)">
<stop stop-color="white"/>
<stop offset="1" stop-color="white" stop-opacity="0"/>
</radialGradient>
<linearGradient id="paint6_linear_339_1266" x1="143.475" y1="197.881" x2="171.598" y2="177.452" gradientUnits="userSpaceOnUse">
<stop offset="0.21875" stop-color="#9EA1A1"/>
<stop offset="0.453125" stop-color="#848B8A"/>
<stop offset="0.524381" stop-color="#535D5E"/>
<stop offset="0.895833" stop-color="#757A7B"/>
</linearGradient>
<radialGradient id="paint7_radial_339_1266" cx="0" cy="0" r="1" gradientUnits="userSpaceOnUse" gradientTransform="translate(143.475 184.451) rotate(39.7612) scale(22.4335 27.0065)">
<stop stop-color="white"/>
<stop offset="1" stop-color="white" stop-opacity="0"/>
</radialGradient>
<linearGradient id="paint8_linear_339_1266" x1="146.389" y1="79.2717" x2="175.276" y2="60.073" gradientUnits="userSpaceOnUse">
<stop offset="0.21875" stop-color="#9EA1A1"/>
<stop offset="0.453125" stop-color="#848B8A"/>
<stop offset="0.524381" stop-color="#535D5E"/>
<stop offset="0.895833" stop-color="#757A7B"/>
</linearGradient>
<radialGradient id="paint9_radial_339_1266" cx="0" cy="0" r="1" gradientUnits="userSpaceOnUse" gradientTransform="translate(146.389 65.0421) rotate(42.2843) scale(22.5961 27.5394)">
<stop stop-color="white"/>
<stop offset="1" stop-color="white" stop-opacity="0"/>
</radialGradient>
<linearGradient id="paint10_linear_339_1266" x1="119.748" y1="206.22" x2="147.799" y2="196.507" gradientUnits="userSpaceOnUse">
<stop offset="0.21875" stop-color="#9EA1A1"/>
<stop offset="0.453125" stop-color="#848B8A"/>
<stop offset="0.524381" stop-color="#535D5E"/>
<stop offset="0.895833" stop-color="#757A7B"/>
</linearGradient>
<radialGradient id="paint11_radial_339_1266" cx="0" cy="0" r="1" gradientUnits="userSpaceOnUse" gradientTransform="translate(119.748 185.619) rotate(60.1911) scale(25.3659 26.7899)">
<stop stop-color="white"/>
<stop offset="1" stop-color="white" stop-opacity="0"/>
</radialGradient>
<linearGradient id="paint12_linear_339_1266" x1="64.9987" y1="168.72" x2="93.0498" y2="159.007" gradientUnits="userSpaceOnUse">
<stop offset="0.21875" stop-color="#9EA1A1"/>
<stop offset="0.453125" stop-color="#848B8A"/>
<stop offset="0.524381" stop-color="#535D5E"/>
<stop offset="0.895833" stop-color="#757A7B"/>
</linearGradient>
<radialGradient id="paint13_radial_339_1266" cx="0" cy="0" r="1" gradientUnits="userSpaceOnUse" gradientTransform="translate(64.9987 148.119) rotate(60.1911) scale(25.3659 26.7899)">
<stop stop-color="white"/>
<stop offset="1" stop-color="white" stop-opacity="0"/>
</radialGradient>
<linearGradient id="paint14_linear_339_1266" x1="67.9984" y1="103.72" x2="96.0495" y2="94.0067" gradientUnits="userSpaceOnUse">
<stop offset="0.21875" stop-color="#9EA1A1"/>
<stop offset="0.453125" stop-color="#848B8A"/>
<stop offset="0.524381" stop-color="#535D5E"/>
<stop offset="0.895833" stop-color="#757A7B"/>
</linearGradient>
<radialGradient id="paint15_radial_339_1266" cx="0" cy="0" r="1" gradientUnits="userSpaceOnUse" gradientTransform="translate(67.9984 83.1193) rotate(60.1911) scale(25.3659 26.7899)">
<stop stop-color="white"/>
<stop offset="1" stop-color="white" stop-opacity="0"/>
</radialGradient>
<linearGradient id="paint16_linear_339_1266" x1="119.748" y1="72.7207" x2="147.799" y2="63.0075" gradientUnits="userSpaceOnUse">
<stop offset="0.21875" stop-color="#9EA1A1"/>
<stop offset="0.453125" stop-color="#848B8A"/>
<stop offset="0.524381" stop-color="#535D5E"/>
<stop offset="0.895833" stop-color="#757A7B"/>
</linearGradient>
<radialGradient id="paint17_radial_339_1266" cx="0" cy="0" r="1" gradientUnits="userSpaceOnUse" gradientTransform="translate(119.748 52.12) rotate(60.1911) scale(25.3659 26.7899)">
<stop stop-color="white"/>
<stop offset="1" stop-color="white" stop-opacity="0"/>
</radialGradient>
<linearGradient id="paint18_linear_339_1266" x1="144.435" y1="151.778" x2="224.121" y2="130.178" gradientUnits="userSpaceOnUse">
<stop offset="0.0677083" stop-color="#4D5455"/>
<stop offset="0.21875" stop-color="#9EA1A1"/>
<stop offset="0.453125" stop-color="#848B8A"/>
<stop offset="0.524381" stop-color="#535D5E"/>
<stop offset="0.796875" stop-color="#4B5355"/>
<stop offset="0.895833" stop-color="#757A7B"/>
<stop offset="1" stop-color="#4D5455"/>
</linearGradient>
<radialGradient id="paint19_radial_339_1266" cx="0" cy="0" r="1" gradientUnits="userSpaceOnUse" gradientTransform="translate(144.435 80.1179) rotate(65.8449) scale(83.9085 76.7114)">
<stop stop-color="white"/>
<stop offset="1" stop-color="white" stop-opacity="0"/>
</radialGradient>
</defs>
</svg>
