<svg width="205" height="193" viewBox="0 0 205 193" fill="none" xmlns="http://www.w3.org/2000/svg">
<g filter="url(#filter0_d_1498_76314)">
<circle cx="108.334" cy="96.3333" r="83.3333" fill="url(#paint0_linear_1498_76314)"/>
<g filter="url(#filter1_d_1498_76314)">
<circle cx="38" cy="155" r="25" fill="#402EA1"/>
</g>
<path d="M37.3573 170.615C36.6922 170.615 36.0688 170.473 35.4873 170.188C34.9058 169.903 34.4127 169.499 34.0079 168.976L26.2402 159.106L26.9172 158.394C27.3923 157.895 27.9624 157.598 28.6275 157.503C29.2927 157.408 29.9103 157.538 30.4804 157.895L33.1171 159.498V147.811C33.1171 147.407 33.254 147.069 33.5276 146.796C33.8013 146.524 34.1395 146.387 34.5424 146.386C34.9453 146.385 35.2897 146.522 35.5757 146.796C35.8617 147.071 36.0042 147.409 36.0033 147.811V154.937H46.6571C47.8448 154.937 48.8544 155.353 49.6858 156.184C50.5172 157.016 50.9329 158.025 50.9329 159.213V164.914C50.9329 166.482 50.3747 167.824 49.2582 168.941C48.1418 170.057 46.7996 170.615 45.2319 170.615H37.3573ZM28.3781 151.374C28.0693 150.852 27.8318 150.288 27.6655 149.682C27.4992 149.077 27.4161 148.453 27.4161 147.811C27.4161 145.839 28.1111 144.159 29.5012 142.77C30.8913 141.381 32.5717 140.686 34.5424 140.685C36.5131 140.684 38.1939 141.379 39.585 142.77C40.976 144.161 41.6706 145.841 41.6687 147.811C41.6687 148.452 41.5856 149.076 41.4193 149.682C41.253 150.289 41.0155 150.853 40.7066 151.374L38.2481 149.949C38.4381 149.616 38.5806 149.278 38.6756 148.934C38.7707 148.59 38.8182 148.216 38.8182 147.811C38.8182 146.623 38.4025 145.614 37.5711 144.782C36.7397 143.951 35.7301 143.535 34.5424 143.535C33.3547 143.535 32.3451 143.951 31.5137 144.782C30.6823 145.614 30.2666 146.623 30.2666 147.811C30.2666 148.215 30.3141 148.589 30.4091 148.934C30.5041 149.279 30.6467 149.617 30.8367 149.949L28.3781 151.374Z" fill="white"/>
<rect x="59" y="61" width="92.145" height="69" rx="10.7681" fill="white"/>
<rect x="59" y="61" width="92.145" height="69" rx="10.7681" stroke="#402EA1" stroke-width="2"/>
<path d="M61 66L103.476 90.8078C104.736 91.5432 106.295 91.5352 107.546 90.7869L149 66" stroke="#402EA1" stroke-width="2"/>
</g>
<defs>
<filter id="filter0_d_1498_76314" x="0.5" y="0.5" width="203.668" height="192" filterUnits="userSpaceOnUse" color-interpolation-filters="sRGB">
<feFlood flood-opacity="0" result="BackgroundImageFix"/>
<feColorMatrix in="SourceAlpha" type="matrix" values="0 0 0 0 0 0 0 0 0 0 0 0 0 0 0 0 0 0 127 0" result="hardAlpha"/>
<feOffset/>
<feGaussianBlur stdDeviation="6.25"/>
<feComposite in2="hardAlpha" operator="out"/>
<feColorMatrix type="matrix" values="0 0 0 0 0 0 0 0 0 0 0 0 0 0 0 0 0 0 0.1 0"/>
<feBlend mode="normal" in2="BackgroundImageFix" result="effect1_dropShadow_1498_76314"/>
<feBlend mode="normal" in="SourceGraphic" in2="effect1_dropShadow_1498_76314" result="shape"/>
</filter>
<filter id="filter1_d_1498_76314" x="9" y="130" width="58" height="58" filterUnits="userSpaceOnUse" color-interpolation-filters="sRGB">
<feFlood flood-opacity="0" result="BackgroundImageFix"/>
<feColorMatrix in="SourceAlpha" type="matrix" values="0 0 0 0 0 0 0 0 0 0 0 0 0 0 0 0 0 0 127 0" result="hardAlpha"/>
<feOffset dy="4"/>
<feGaussianBlur stdDeviation="2"/>
<feComposite in2="hardAlpha" operator="out"/>
<feColorMatrix type="matrix" values="0 0 0 0 0 0 0 0 0 0 0 0 0 0 0 0 0 0 0.1 0"/>
<feBlend mode="normal" in2="BackgroundImageFix" result="effect1_dropShadow_1498_76314"/>
<feBlend mode="normal" in="SourceGraphic" in2="effect1_dropShadow_1498_76314" result="shape"/>
</filter>
<linearGradient id="paint0_linear_1498_76314" x1="68.6021" y1="-59.9243" x2="288.916" y2="151.69" gradientUnits="userSpaceOnUse">
<stop offset="0.290144" stop-color="white"/>
<stop offset="0.973068" stop-color="#C7D5E0"/>
</linearGradient>
</defs>
</svg>
