<svg width="33" height="33" viewBox="0 0 33 33" fill="none" xmlns="http://www.w3.org/2000/svg">
<path d="M13.8645 22.9712L7.5 16.6052L9.621 14.4842L13.8645 18.7262L22.3485 10.2407L24.471 12.3632L13.8645 22.9712Z" fill="#F4C9A4"/>
<path fill-rule="evenodd" clip-rule="evenodd" d="M0 16.5C0 7.3875 7.3875 0 16.5 0C25.6125 0 33 7.3875 33 16.5C33 25.6125 25.6125 33 16.5 33C7.3875 33 0 25.6125 0 16.5ZM16.5 30C14.7272 30 12.9717 29.6508 11.3338 28.9724C9.69588 28.2939 8.20765 27.2995 6.95406 26.0459C5.70047 24.7923 4.70606 23.3041 4.02763 21.6662C3.34919 20.0283 3 18.2728 3 16.5C3 14.7272 3.34919 12.9717 4.02763 11.3338C4.70606 9.69588 5.70047 8.20765 6.95406 6.95406C8.20765 5.70047 9.69588 4.70606 11.3338 4.02763C12.9717 3.34919 14.7272 3 16.5 3C20.0804 3 23.5142 4.42232 26.0459 6.95406C28.5777 9.4858 30 12.9196 30 16.5C30 20.0804 28.5777 23.5142 26.0459 26.0459C23.5142 28.5777 20.0804 30 16.5 30Z" fill="#F4C9A4"/>
</svg>