<svg width="15" height="16" viewBox="0 0 15 16" fill="none" xmlns="http://www.w3.org/2000/svg">
<path d="M6.5625 10.5017L4.21875 8.15746L4.88109 7.49512L6.5625 9.17605L10.118 5.62012L10.7812 6.2834L6.5625 10.5017Z" fill="#013F9D"/>
<path d="M7.5 1.40137C6.20206 1.40137 4.93327 1.78625 3.85407 2.50735C2.77488 3.22844 1.93374 4.25337 1.43704 5.45251C0.940343 6.65165 0.810384 7.97115 1.0636 9.24415C1.31682 10.5171 1.94183 11.6865 2.85961 12.6043C3.7774 13.522 4.94672 14.1471 6.21972 14.4003C7.49272 14.6535 8.81222 14.5235 10.0114 14.0268C11.2105 13.5301 12.2354 12.689 12.9565 11.6098C13.6776 10.5306 14.0625 9.26181 14.0625 7.96387C14.0625 6.22338 13.3711 4.55419 12.1404 3.32348C10.9097 2.09277 9.24049 1.40137 7.5 1.40137ZM7.5 13.5889C6.38748 13.5889 5.29995 13.259 4.37492 12.6409C3.44989 12.0228 2.72892 11.1443 2.30318 10.1165C1.87744 9.08863 1.76604 7.95763 1.98309 6.86648C2.20013 5.77534 2.73586 4.77306 3.52253 3.98639C4.3092 3.19972 5.31148 2.66399 6.40262 2.44695C7.49376 2.22991 8.62476 2.3413 9.6526 2.76704C10.6804 3.19279 11.5589 3.91376 12.177 4.83878C12.7951 5.76381 13.125 6.85135 13.125 7.96387C13.125 9.45571 12.5324 10.8865 11.4775 11.9413C10.4226 12.9962 8.99185 13.5889 7.5 13.5889Z" fill="#013F9D"/>
</svg>
