<svg width="30" height="30" viewBox="0 0 30 30" fill="none" xmlns="http://www.w3.org/2000/svg">
<path opacity="0.6" d="M23.5975 7.60957C23.4232 7.51947 23.2535 7.42071 23.089 7.31364C22.6108 6.99751 22.1724 6.62502 21.7832 6.20418C20.8093 5.08988 20.4456 3.95943 20.3116 3.16796H20.317C20.2051 2.511 20.2514 2.08594 20.2583 2.08594H15.8227V19.2379C15.8227 19.4682 15.8227 19.6958 15.813 19.9207C15.813 19.9487 15.8103 19.9745 15.8087 20.0046C15.8087 20.017 15.8087 20.0299 15.806 20.0428C15.806 20.0461 15.806 20.0493 15.806 20.0525C15.7592 20.6679 15.5619 21.2624 15.2315 21.7837C14.9011 22.305 14.4476 22.7371 13.911 23.0419C13.3517 23.3601 12.7191 23.527 12.0757 23.5262C10.009 23.5262 8.33406 21.841 8.33406 19.7598C8.33406 17.6787 10.009 15.9935 12.0757 15.9935C12.4669 15.9931 12.8557 16.0547 13.2276 16.1759L13.233 11.6595C12.1038 11.5136 10.9567 11.6034 9.86394 11.923C8.77118 12.2427 7.75654 12.7854 6.88401 13.5168C6.11948 14.1811 5.47673 14.9737 4.98469 15.859C4.79745 16.1818 4.09099 17.479 4.00544 19.5844C3.95164 20.7794 4.31052 22.0175 4.48162 22.5292V22.5399C4.58923 22.8413 5.00622 23.8695 5.68577 24.7363C6.23374 25.4316 6.88115 26.0424 7.60715 26.549V26.5382L7.61791 26.549C9.76528 28.0082 12.1462 27.9124 12.1462 27.9124C12.5583 27.8957 13.9389 27.9124 15.5068 27.1693C17.2458 26.3456 18.2358 25.1183 18.2358 25.1183C18.8683 24.385 19.3712 23.5493 19.723 22.647C20.1244 21.5919 20.2583 20.3264 20.2583 19.8206V10.7211C20.3122 10.7534 21.0288 11.2274 21.0288 11.2274C21.0288 11.2274 22.0614 11.8892 23.6723 12.3202C24.828 12.6269 26.3851 12.6915 26.3851 12.6915V8.28805C25.8395 8.34724 24.7317 8.17506 23.5975 7.60957Z" fill="url(#paint0_linear_339_1635)"/>
<defs>
<linearGradient id="paint0_linear_339_1635" x1="4" y1="0.141378" x2="27.6112" y2="24.4031" gradientUnits="userSpaceOnUse">
<stop stop-color="#FFF2D6"/>
<stop offset="0.212795" stop-color="#9D8555"/>
<stop offset="0.57751" stop-color="#D8C08F"/>
<stop offset="1" stop-color="#58400F"/>
</linearGradient>
</defs>
</svg>
