<svg width="23" height="26" viewBox="0 0 23 26" fill="none" xmlns="http://www.w3.org/2000/svg">
<path opacity="0.6" d="M19.5975 5.60957C19.4232 5.51947 19.2535 5.42071 19.089 5.31364C18.6108 4.99751 18.1724 4.62502 17.7832 4.20418C16.8093 3.08988 16.4456 1.95943 16.3116 1.16796H16.317C16.2051 0.510998 16.2514 0.0859375 16.2583 0.0859375H11.8227V17.2379C11.8227 17.4682 11.8227 17.6958 11.813 17.9207C11.813 17.9487 11.8103 17.9745 11.8087 18.0046C11.8087 18.017 11.8087 18.0299 11.806 18.0428C11.806 18.0461 11.806 18.0493 11.806 18.0525C11.7592 18.6679 11.5619 19.2624 11.2315 19.7837C10.9011 20.305 10.4476 20.7371 9.91096 21.0419C9.35168 21.3601 8.71912 21.527 8.07567 21.5262C6.00901 21.5262 4.33406 19.841 4.33406 17.7598C4.33406 15.6787 6.00901 13.9935 8.07567 13.9935C8.46688 13.9931 8.85568 14.0547 9.22764 14.1759L9.23302 9.65948C8.10384 9.51362 6.95669 9.60336 5.86394 9.92304C4.77118 10.2427 3.75654 10.7854 2.88401 11.5168C2.11948 12.1811 1.47673 12.9737 0.984693 13.859C0.797452 14.1818 0.0909908 15.479 0.0054407 17.5844C-0.0483644 18.7794 0.310516 20.0175 0.481616 20.5292V20.5399C0.589226 20.8413 1.00622 21.8695 1.68577 22.7363C2.23374 23.4316 2.88115 24.0424 3.60715 24.549V24.5382L3.61791 24.549C5.76528 26.0082 8.14615 25.9124 8.14615 25.9124C8.5583 25.8957 9.93894 25.9124 11.5068 25.1693C13.2458 24.3456 14.2358 23.1183 14.2358 23.1183C14.8683 22.385 15.3712 21.5493 15.723 20.647C16.1244 19.5919 16.2583 18.3264 16.2583 17.8206V8.72112C16.3122 8.7534 17.0288 9.22742 17.0288 9.22742C17.0288 9.22742 18.0614 9.88923 19.6723 10.3202C20.828 10.6269 22.3851 10.6915 22.3851 10.6915V6.28805C21.8395 6.34724 20.7317 6.17506 19.5975 5.60957Z" fill="white"/>
</svg>
