<svg width="26" height="26" viewBox="0 0 26 26" fill="none" xmlns="http://www.w3.org/2000/svg">
<rect x="0.660156" y="0.504639" width="24.5455" height="24.5455" rx="12.2727" fill="url(#paint0_linear_339_1618)"/>
<rect x="0.660156" y="0.504639" width="24.5455" height="24.5455" rx="12.2727" fill="url(#paint1_radial_339_1618)" style="mix-blend-mode:overlay"/>
<g clip-path="url(#clip0_339_1618)">
<path fill-rule="evenodd" clip-rule="evenodd" d="M12.3862 8.39963C12.5301 8.25583 12.7251 8.17505 12.9285 8.17505C13.1319 8.17505 13.327 8.25583 13.4708 8.39963L20.3642 15.2931C20.504 15.4377 20.5813 15.6315 20.5795 15.8326C20.5778 16.0337 20.4971 16.2261 20.3549 16.3683C20.2127 16.5105 20.0203 16.5912 19.8192 16.593C19.6181 16.5947 19.4243 16.5174 19.2796 16.3777L12.9285 10.0265L6.57737 16.3777C6.43206 16.5139 6.23942 16.5883 6.04024 16.5851C5.84105 16.5819 5.65093 16.5013 5.51012 16.3603C5.3693 16.2194 5.28883 16.0292 5.28574 15.8301C5.28264 15.6309 5.35717 15.4383 5.49354 15.2931L12.3862 8.39963Z" fill="#031F30"/>
</g>
<defs>
<linearGradient id="paint0_linear_339_1618" x1="0.660156" y1="16.7671" x2="25.6975" y2="8.09742" gradientUnits="userSpaceOnUse">
<stop offset="0.0677083" stop-color="#4D5455"/>
<stop offset="0.21875" stop-color="#9EA1A1"/>
<stop offset="0.453125" stop-color="#848B8A"/>
<stop offset="0.524381" stop-color="#535D5E"/>
<stop offset="0.796875" stop-color="#4B5355"/>
<stop offset="0.895833" stop-color="#757A7B"/>
<stop offset="1" stop-color="#4D5455"/>
</linearGradient>
<radialGradient id="paint1_radial_339_1618" cx="0" cy="0" r="1" gradientUnits="userSpaceOnUse" gradientTransform="translate(0.660156 -1.62032) rotate(60.1911) scale(22.6407 23.9116)">
<stop stop-color="white"/>
<stop offset="1" stop-color="white" stop-opacity="0"/>
</radialGradient>
<clipPath id="clip0_339_1618">
<rect width="24.5455" height="24.5455" fill="white" transform="translate(0.659668 0.50415)"/>
</clipPath>
</defs>
</svg>
