<svg width="21" height="21" viewBox="0 0 21 21" fill="none" xmlns="http://www.w3.org/2000/svg">
<g clip-path="url(#clip0_226_7129)">
<path fill-rule="evenodd" clip-rule="evenodd" d="M9.69148 6.88092C9.81036 6.76207 9.97157 6.69531 10.1397 6.69531C10.3078 6.69531 10.469 6.76207 10.5878 6.88092L16.2849 12.578C16.4004 12.6975 16.4643 12.8577 16.4628 13.0239C16.4614 13.1901 16.3947 13.3491 16.2772 13.4666C16.1596 13.5841 16.0006 13.6508 15.8344 13.6523C15.6682 13.6537 15.5081 13.5898 15.3885 13.4743L10.1397 8.22546L4.89079 13.4743C4.77069 13.587 4.61149 13.6484 4.44687 13.6458C4.28225 13.6431 4.12513 13.5765 4.00876 13.46C3.89238 13.3436 3.82588 13.1864 3.82332 13.0218C3.82076 12.8571 3.88235 12.698 3.99506 12.578L9.69148 6.88092Z" fill="#031F30"/>
</g>
<defs>
<clipPath id="clip0_226_7129">
<rect width="20.2855" height="20.2855" fill="white" transform="translate(-0.000976562 0.359375)"/>
</clipPath>
</defs>
</svg>
