<svg width="565" height="716" viewBox="0 0 565 716" fill="none" xmlns="http://www.w3.org/2000/svg">
<path fill-rule="evenodd" clip-rule="evenodd" d="M279.996 702.863C203.894 679.458 140.412 632.809 89.4439 562.328C37.8018 490.916 12 410.571 12 320.92V112.927L280 12.81L548 112.927V320.92C548 372.175 539.561 420.391 522.677 465.637C526.311 467.467 529.829 469.493 533.217 471.702C551.072 424.568 560 374.307 560 320.92V104.6L280 0L0 104.6V320.92C0 413.053 26.5733 495.867 79.72 569.36C132.867 642.853 199.627 691.533 280 715.4C326.351 701.605 368.175 679.58 405.471 649.31C402.291 646.785 399.254 644.087 396.375 641.231C361.557 669.175 322.771 689.68 279.996 702.863ZM521.209 529.541L451.916 598.834L413.374 560.292L421.041 552.624L451.916 583.499L513.542 521.874L521.209 529.541ZM429.508 646.325C441.377 651.442 454.053 654 467.535 654C481.019 654 493.69 651.439 505.547 646.316C517.406 641.196 527.721 634.245 536.492 625.465C545.263 616.685 552.208 606.36 557.325 594.492C562.442 582.623 565 569.947 565 556.465C565 542.981 562.439 530.31 557.316 518.453C552.196 506.594 545.245 496.279 536.465 487.508C527.685 478.737 517.36 471.792 505.492 466.675C493.623 461.558 480.947 459 467.465 459C453.981 459 441.31 461.561 429.453 466.684C417.594 471.804 407.279 478.755 398.508 487.535C389.737 496.315 382.792 506.64 377.675 518.508C372.558 530.377 370 543.053 370 556.535C370 570.019 372.561 582.69 377.684 594.547C382.804 606.406 389.755 616.721 398.535 625.492C407.315 634.263 417.64 641.208 429.508 646.325Z" fill="url(#paint0_linear_339_400)"/>
<defs>
<linearGradient id="paint0_linear_339_400" x1="565.404" y1="-228.6" x2="-13.8723" y2="817.984" gradientUnits="userSpaceOnUse">
<stop offset="0.1" stop-color="#060C0B"/>
<stop offset="0.4" stop-color="#F2C84B"/>
<stop offset="0.5" stop-color="#F2D785"/>
<stop offset="0.6" stop-color="#D9A036"/>
<stop offset="0.9" stop-color="#060C0B"/>
</linearGradient>
</defs>
</svg>
