<svg width="196" height="193" viewBox="0 0 196 193" fill="none" xmlns="http://www.w3.org/2000/svg">
<g filter="url(#filter0_d_311_596)">
<circle cx="99.3333" cy="96.3333" r="80.8333" stroke="url(#paint0_linear_311_596)" stroke-width="5"/>
<circle cx="99.3333" cy="96.3333" r="80.8333" stroke="url(#paint1_radial_311_596)" stroke-width="5" style="mix-blend-mode:overlay"/>
<g filter="url(#filter1_d_311_596)">
<circle cx="38" cy="150" r="25" fill="url(#paint2_linear_311_596)"/>
</g>
<path d="M48.2596 163.995L38.1946 153.93C37.4906 155.118 36.5503 156.075 35.3737 156.801C34.1972 157.527 32.8714 157.89 31.3966 157.89C29.1966 157.89 27.3266 157.12 25.7866 155.58C24.2466 154.04 23.4766 152.17 23.4766 149.97C23.4766 148.518 23.8286 147.187 24.5326 145.977C25.2366 144.767 26.1826 143.81 27.3706 143.106L23.9716 139.707L25.8526 137.826L50.1406 162.114L48.2596 163.995ZM31.3966 152.61C32.1226 152.61 32.7443 152.352 33.2617 151.835C33.7792 151.319 34.0374 150.697 34.0366 149.97V149.739L31.6276 147.33H31.3966C30.6706 147.33 30.0493 147.589 29.5327 148.106C29.0162 148.624 28.7574 149.245 28.7566 149.97C28.7557 150.695 29.0144 151.317 29.5327 151.835C30.051 152.354 30.6723 152.612 31.3966 152.61ZM49.6456 157.89L39.0856 147.33H52.5166V152.61H49.8766V157.89H49.6456Z" fill="url(#paint3_linear_311_596)"/>
<path d="M48.2596 163.995L38.1946 153.93C37.4906 155.118 36.5503 156.075 35.3737 156.801C34.1972 157.527 32.8714 157.89 31.3966 157.89C29.1966 157.89 27.3266 157.12 25.7866 155.58C24.2466 154.04 23.4766 152.17 23.4766 149.97C23.4766 148.518 23.8286 147.187 24.5326 145.977C25.2366 144.767 26.1826 143.81 27.3706 143.106L23.9716 139.707L25.8526 137.826L50.1406 162.114L48.2596 163.995ZM31.3966 152.61C32.1226 152.61 32.7443 152.352 33.2617 151.835C33.7792 151.319 34.0374 150.697 34.0366 149.97V149.739L31.6276 147.33H31.3966C30.6706 147.33 30.0493 147.589 29.5327 148.106C29.0162 148.624 28.7574 149.245 28.7566 149.97C28.7557 150.695 29.0144 151.317 29.5327 151.835C30.051 152.354 30.6723 152.612 31.3966 152.61ZM49.6456 157.89L39.0856 147.33H52.5166V152.61H49.8766V157.89H49.6456Z" fill="url(#paint4_radial_311_596)" style="mix-blend-mode:overlay"/>
<path d="M117 87V59H123V55C123 52.2333 123.975 49.8753 125.926 47.926C127.877 45.9767 130.235 45.0013 133 45C135.765 44.9987 138.124 45.974 140.076 47.926C142.028 49.878 143.003 52.236 143 55V59H149V87H117ZM133 77C134.1 77 135.042 76.6087 135.826 75.826C136.61 75.0433 137.001 74.1013 137 73C136.999 71.8987 136.607 70.9573 135.826 70.176C135.045 69.3947 134.103 69.0027 133 69C131.897 68.9973 130.956 69.3893 130.176 70.176C129.396 70.9627 129.004 71.904 129 73C128.996 74.096 129.388 75.038 130.176 75.826C130.964 76.614 131.905 77.0053 133 77ZM127 59H139V55C139 53.3333 138.417 51.9167 137.25 50.75C136.083 49.5833 134.667 49 133 49C131.333 49 129.917 49.5833 128.75 50.75C127.583 51.9167 127 53.3333 127 55V59Z" fill="url(#paint5_linear_311_596)"/>
<path d="M117 87V59H123V55C123 52.2333 123.975 49.8753 125.926 47.926C127.877 45.9767 130.235 45.0013 133 45C135.765 44.9987 138.124 45.974 140.076 47.926C142.028 49.878 143.003 52.236 143 55V59H149V87H117ZM133 77C134.1 77 135.042 76.6087 135.826 75.826C136.61 75.0433 137.001 74.1013 137 73C136.999 71.8987 136.607 70.9573 135.826 70.176C135.045 69.3947 134.103 69.0027 133 69C131.897 68.9973 130.956 69.3893 130.176 70.176C129.396 70.9627 129.004 71.904 129 73C128.996 74.096 129.388 75.038 130.176 75.826C130.964 76.614 131.905 77.0053 133 77ZM127 59H139V55C139 53.3333 138.417 51.9167 137.25 50.75C136.083 49.5833 134.667 49 133 49C131.333 49 129.917 49.5833 128.75 50.75C127.583 51.9167 127 53.3333 127 55V59Z" fill="url(#paint6_radial_311_596)" style="mix-blend-mode:overlay"/>
<path d="M102.035 73.5021H92.4349V83.1018C92.4349 85.7417 90.275 83.1018 87.6351 83.1018H76.3359L78.0354 97.5013H106.834C109.474 97.5013 106.834 101.262 106.834 103.902L111.634 116.701H116.434C120.754 116.701 124.306 119.485 125.554 123.373C131.794 116.557 135.634 107.485 135.634 97.5013C135.634 95.8694 135.826 93.8056 135.634 92.2216H125.711H112.586V78.2773V62.6523C112.586 67.9322 107.314 73.5021 102.035 73.5021ZM95.0859 115.777L87.6351 109.527L63.2109 85.1523C62.587 87.9363 58.8359 94.5254 58.8359 97.5013C58.8359 117.085 80.7109 136.402 100.086 135.152V126.402C94.8061 126.402 95.0859 121.057 95.0859 115.777Z" fill="url(#paint7_linear_311_596)"/>
<path d="M102.035 73.5021H92.4349V83.1018C92.4349 85.7417 90.275 83.1018 87.6351 83.1018H76.3359L78.0354 97.5013H106.834C109.474 97.5013 106.834 101.262 106.834 103.902L111.634 116.701H116.434C120.754 116.701 124.306 119.485 125.554 123.373C131.794 116.557 135.634 107.485 135.634 97.5013C135.634 95.8694 135.826 93.8056 135.634 92.2216H125.711H112.586V78.2773V62.6523C112.586 67.9322 107.314 73.5021 102.035 73.5021ZM95.0859 115.777L87.6351 109.527L63.2109 85.1523C62.587 87.9363 58.8359 94.5254 58.8359 97.5013C58.8359 117.085 80.7109 136.402 100.086 135.152V126.402C94.8061 126.402 95.0859 121.057 95.0859 115.777Z" fill="url(#paint8_radial_311_596)" style="mix-blend-mode:overlay"/>
<path d="M124.875 121.537V124.111L126.613 122.213C132.731 115.529 136.5 106.629 136.5 96.8333C136.5 95.605 136.391 94.4089 136.259 93.25H143.518C143.61 94.4371 143.667 95.623 143.667 96.8333C143.667 121.581 123.581 141.667 98.8333 141.667C74.0856 141.667 54 121.581 54 96.8333C54 72.0856 74.0856 52 98.8333 52C103.286 52 107.535 52.6412 111.583 53.8475V72.9167H94.25H93.25V73.9167V86.6667H80.5H79.5V87.6667V96.8333V97.8333H80.5H111.583V115.167V116.167H112.583H124.875V121.537ZM94.1269 134.172L95.25 134.311V133.179V124.333V123.333H94.25H86.0833V110.583V110.169L85.7904 109.876L63.8363 87.9221L62.5509 86.6367L62.1534 88.4105C61.5448 91.1255 61.1667 93.9041 61.1667 96.8333C61.1667 116.045 75.5284 131.864 94.1269 134.172Z" fill="url(#paint9_linear_311_596)"/>
<path d="M124.875 121.537V124.111L126.613 122.213C132.731 115.529 136.5 106.629 136.5 96.8333C136.5 95.605 136.391 94.4089 136.259 93.25H143.518C143.61 94.4371 143.667 95.623 143.667 96.8333C143.667 121.581 123.581 141.667 98.8333 141.667C74.0856 141.667 54 121.581 54 96.8333C54 72.0856 74.0856 52 98.8333 52C103.286 52 107.535 52.6412 111.583 53.8475V72.9167H94.25H93.25V73.9167V86.6667H80.5H79.5V87.6667V96.8333V97.8333H80.5H111.583V115.167V116.167H112.583H124.875V121.537ZM94.1269 134.172L95.25 134.311V133.179V124.333V123.333H94.25H86.0833V110.583V110.169L85.7904 109.876L63.8363 87.9221L62.5509 86.6367L62.1534 88.4105C61.5448 91.1255 61.1667 93.9041 61.1667 96.8333C61.1667 116.045 75.5284 131.864 94.1269 134.172Z" stroke="url(#paint10_linear_311_596)" stroke-width="2"/>
<path d="M124.875 121.537V124.111L126.613 122.213C132.731 115.529 136.5 106.629 136.5 96.8333C136.5 95.605 136.391 94.4089 136.259 93.25H143.518C143.61 94.4371 143.667 95.623 143.667 96.8333C143.667 121.581 123.581 141.667 98.8333 141.667C74.0856 141.667 54 121.581 54 96.8333C54 72.0856 74.0856 52 98.8333 52C103.286 52 107.535 52.6412 111.583 53.8475V72.9167H94.25H93.25V73.9167V86.6667H80.5H79.5V87.6667V96.8333V97.8333H80.5H111.583V115.167V116.167H112.583H124.875V121.537ZM94.1269 134.172L95.25 134.311V133.179V124.333V123.333H94.25H86.0833V110.583V110.169L85.7904 109.876L63.8363 87.9221L62.5509 86.6367L62.1534 88.4105C61.5448 91.1255 61.1667 93.9041 61.1667 96.8333C61.1667 116.045 75.5284 131.864 94.1269 134.172Z" stroke="url(#paint11_radial_311_596)" stroke-width="2" style="mix-blend-mode:overlay"/>
</g>
<defs>
<filter id="filter0_d_311_596" x="0.5" y="0.5" width="194.666" height="191.666" filterUnits="userSpaceOnUse" color-interpolation-filters="sRGB">
<feFlood flood-opacity="0" result="BackgroundImageFix"/>
<feColorMatrix in="SourceAlpha" type="matrix" values="0 0 0 0 0 0 0 0 0 0 0 0 0 0 0 0 0 0 127 0" result="hardAlpha"/>
<feOffset/>
<feGaussianBlur stdDeviation="6.25"/>
<feComposite in2="hardAlpha" operator="out"/>
<feColorMatrix type="matrix" values="0 0 0 0 0 0 0 0 0 0 0 0 0 0 0 0 0 0 0.1 0"/>
<feBlend mode="normal" in2="BackgroundImageFix" result="effect1_dropShadow_311_596"/>
<feBlend mode="normal" in="SourceGraphic" in2="effect1_dropShadow_311_596" result="shape"/>
</filter>
<filter id="filter1_d_311_596" x="9" y="125" width="58" height="58" filterUnits="userSpaceOnUse" color-interpolation-filters="sRGB">
<feFlood flood-opacity="0" result="BackgroundImageFix"/>
<feColorMatrix in="SourceAlpha" type="matrix" values="0 0 0 0 0 0 0 0 0 0 0 0 0 0 0 0 0 0 127 0" result="hardAlpha"/>
<feOffset dy="4"/>
<feGaussianBlur stdDeviation="2"/>
<feComposite in2="hardAlpha" operator="out"/>
<feColorMatrix type="matrix" values="0 0 0 0 0 0 0 0 0 0 0 0 0 0 0 0 0 0 0.1 0"/>
<feBlend mode="normal" in2="BackgroundImageFix" result="effect1_dropShadow_311_596"/>
<feBlend mode="normal" in="SourceGraphic" in2="effect1_dropShadow_311_596" result="shape"/>
</filter>
<linearGradient id="paint0_linear_311_596" x1="16" y1="123.424" x2="186.007" y2="64.556" gradientUnits="userSpaceOnUse">
<stop offset="0.0677083" stop-color="#4D5455"/>
<stop offset="0.21875" stop-color="#9EA1A1"/>
<stop offset="0.453125" stop-color="#848B8A"/>
<stop offset="0.524381" stop-color="#535D5E"/>
<stop offset="0.796875" stop-color="#4B5355"/>
<stop offset="0.895833" stop-color="#757A7B"/>
<stop offset="1" stop-color="#4D5455"/>
</linearGradient>
<radialGradient id="paint1_radial_311_596" cx="0" cy="0" r="1" gradientUnits="userSpaceOnUse" gradientTransform="translate(16 -1.42874) rotate(60.1911) scale(153.733 162.363)">
<stop stop-color="white"/>
<stop offset="1" stop-color="white" stop-opacity="0"/>
</radialGradient>
<linearGradient id="paint2_linear_311_596" x1="13" y1="121.236" x2="58.0712" y2="174.671" gradientUnits="userSpaceOnUse">
<stop stop-color="#FFF2D6"/>
<stop offset="0.212795" stop-color="#9D8555"/>
<stop offset="0.57751" stop-color="#D8C08F"/>
<stop offset="1" stop-color="#58400F"/>
</linearGradient>
<linearGradient id="paint3_linear_311_596" x1="23.4766" y1="155.164" x2="52.3822" y2="144.057" gradientUnits="userSpaceOnUse">
<stop offset="0.0677083" stop-color="#4D5455"/>
<stop offset="0.21875" stop-color="#9EA1A1"/>
<stop offset="0.453125" stop-color="#848B8A"/>
<stop offset="0.524381" stop-color="#535D5E"/>
<stop offset="0.796875" stop-color="#4B5355"/>
<stop offset="0.895833" stop-color="#757A7B"/>
<stop offset="1" stop-color="#4D5455"/>
</linearGradient>
<radialGradient id="paint4_radial_311_596" cx="0" cy="0" r="1" gradientUnits="userSpaceOnUse" gradientTransform="translate(23.4766 135.561) rotate(57.5531) scale(24.8189 27.5142)">
<stop stop-color="white"/>
<stop offset="1" stop-color="white" stop-opacity="0"/>
</radialGradient>
<linearGradient id="paint5_linear_311_596" x1="117" y1="72.8269" x2="151.176" y2="63.8103" gradientUnits="userSpaceOnUse">
<stop offset="0.0677083" stop-color="#4D5455"/>
<stop offset="0.21875" stop-color="#9EA1A1"/>
<stop offset="0.453125" stop-color="#848B8A"/>
<stop offset="0.524381" stop-color="#535D5E"/>
<stop offset="0.796875" stop-color="#4B5355"/>
<stop offset="0.895833" stop-color="#757A7B"/>
<stop offset="1" stop-color="#4D5455"/>
</linearGradient>
<radialGradient id="paint6_radial_311_596" cx="0" cy="0" r="1" gradientUnits="userSpaceOnUse" gradientTransform="translate(117 41.364) rotate(66.4185) scale(36.6777 32.9271)">
<stop stop-color="white"/>
<stop offset="1" stop-color="white" stop-opacity="0"/>
</radialGradient>
<linearGradient id="paint7_linear_311_596" x1="58.8359" y1="110.725" x2="136.242" y2="82.3237" gradientUnits="userSpaceOnUse">
<stop offset="0.0677083" stop-color="#4D5455"/>
<stop offset="0.21875" stop-color="#9EA1A1"/>
<stop offset="0.453125" stop-color="#848B8A"/>
<stop offset="0.524381" stop-color="#535D5E"/>
<stop offset="0.796875" stop-color="#4B5355"/>
<stop offset="0.895833" stop-color="#757A7B"/>
<stop offset="1" stop-color="#4D5455"/>
</linearGradient>
<radialGradient id="paint8_radial_311_596" cx="0" cy="0" r="1" gradientUnits="userSpaceOnUse" gradientTransform="translate(58.8359 56.3709) rotate(58.7395) scale(67.9347 73.7867)">
<stop stop-color="white"/>
<stop offset="1" stop-color="white" stop-opacity="0"/>
</radialGradient>
<linearGradient id="paint9_linear_311_596" x1="53" y1="44.0985" x2="135.631" y2="142.064" gradientUnits="userSpaceOnUse">
<stop stop-color="#FFF2D6"/>
<stop offset="0.212795" stop-color="#9D8555"/>
<stop offset="0.57751" stop-color="#D8C08F"/>
<stop offset="1" stop-color="#58400F"/>
</linearGradient>
<linearGradient id="paint10_linear_311_596" x1="53" y1="111.733" x2="146.504" y2="79.3558" gradientUnits="userSpaceOnUse">
<stop offset="0.0677083" stop-color="#4D5455"/>
<stop offset="0.21875" stop-color="#9EA1A1"/>
<stop offset="0.453125" stop-color="#848B8A"/>
<stop offset="0.524381" stop-color="#535D5E"/>
<stop offset="0.796875" stop-color="#4B5355"/>
<stop offset="0.895833" stop-color="#757A7B"/>
<stop offset="1" stop-color="#4D5455"/>
</linearGradient>
<radialGradient id="paint11_radial_311_596" cx="0" cy="0" r="1" gradientUnits="userSpaceOnUse" gradientTransform="translate(53 43.0642) rotate(60.191) scale(84.5531 89.2996)">
<stop stop-color="white"/>
<stop offset="1" stop-color="white" stop-opacity="0"/>
</radialGradient>
</defs>
</svg>
