<svg width="130" height="130" viewBox="0 0 130 130" fill="none" xmlns="http://www.w3.org/2000/svg">
<circle cx="65.4333" cy="65.0671" r="64.4973" fill="url(#paint0_linear_1811_4337)"/>
<path fill-rule="evenodd" clip-rule="evenodd" d="M63.8645 35.511C64.1688 35.4347 64.4873 35.4347 64.7916 35.511L87.7291 41.2635C88.58 41.4769 89.177 42.2439 89.177 43.1237V68.0513C89.177 77.6148 82.8181 84.3472 76.9016 88.5513C73.9107 90.6766 70.9324 92.2313 68.7084 93.2538C67.5938 93.7663 66.6618 94.1482 66.0034 94.4038C65.674 94.5316 65.4126 94.6281 65.2304 94.6935C65.1394 94.7263 65.0681 94.7513 65.0179 94.7687L64.9588 94.789L64.9415 94.7948L64.9359 94.7967L64.934 94.7974C64.9332 94.7976 64.9325 94.7979 64.328 92.9788C63.7236 94.7979 63.7229 94.7976 63.7221 94.7974L63.7201 94.7967L63.7146 94.7948L63.6973 94.789L63.6382 94.7687C63.588 94.7513 63.5167 94.7263 63.4257 94.6935C63.2435 94.6281 62.9821 94.5316 62.6527 94.4038C61.9943 94.1482 61.0623 93.7663 59.9477 93.2538C57.7237 92.2313 54.7454 90.6766 51.7545 88.5513C45.838 84.3472 39.4791 77.6148 39.4791 68.0513V43.1237C39.4791 42.2439 40.0761 41.4769 40.927 41.2635L63.8645 35.511ZM64.328 92.9788L63.7236 94.7979C64.116 94.9291 64.5401 94.9291 64.9325 94.7979L64.328 92.9788ZM64.328 90.9404C64.4177 90.9066 64.5165 90.8689 64.6239 90.8272C65.2199 90.5959 66.0799 90.2438 67.1156 89.7675C69.1924 88.8127 71.9485 87.3712 74.6919 85.4218C80.2442 81.4765 85.3541 75.7452 85.3541 68.0513V44.6209L64.328 39.3478L43.302 44.6209V68.0513C43.302 75.7452 48.4119 81.4765 53.9642 85.4218C56.7076 87.3712 59.4637 88.8127 61.5405 89.7675C62.5762 90.2438 63.4362 90.5959 64.0322 90.8272C64.1396 90.8689 64.2384 90.9066 64.328 90.9404Z" fill="#402EA1"/>
<path fill-rule="evenodd" clip-rule="evenodd" d="M77.8016 52.4751C78.5897 53.1549 78.681 54.3491 78.0055 55.1423L62.9709 72.7974C62.6302 73.1974 62.1392 73.4363 61.6161 73.4565C61.093 73.4768 60.5852 73.2765 60.2151 72.9039L52.6978 65.3376C51.9639 64.5989 51.9639 63.4012 52.6978 62.6625C53.4317 61.9238 54.6216 61.9238 55.3556 62.6625L61.4378 68.7844L75.1517 52.6803C75.8272 51.8871 77.0136 51.7952 77.8016 52.4751Z" fill="#402EA1"/>
<defs>
<linearGradient id="paint0_linear_1811_4337" x1="34.6819" y1="-55.8712" x2="205.197" y2="107.911" gradientUnits="userSpaceOnUse">
<stop offset="0.290144" stop-color="white"/>
<stop offset="0.973068" stop-color="#C7D5E0"/>
</linearGradient>
</defs>
</svg>
