<svg width="30" height="30" viewBox="0 0 30 30" fill="none" xmlns="http://www.w3.org/2000/svg">
<g opacity="0.6" clip-path="url(#clip0_226_7167)">
<g clip-path="url(#clip1_226_7167)">
<path d="M26.9307 8.1225C27.502 10.35 27.502 15 27.502 15C27.502 15 27.502 19.65 26.9307 21.8775C26.6132 23.1088 25.6845 24.0775 24.5082 24.405C22.372 25 15.002 25 15.002 25C15.002 25 7.6357 25 5.4957 24.405C4.31445 24.0725 3.38695 23.105 3.0732 21.8775C2.50195 19.65 2.50195 15 2.50195 15C2.50195 15 2.50195 10.35 3.0732 8.1225C3.3907 6.89125 4.31945 5.9225 5.4957 5.595C7.6357 5 15.002 5 15.002 5C15.002 5 22.372 5 24.5082 5.595C25.6895 5.9275 26.617 6.895 26.9307 8.1225ZM12.502 19.375L20.002 15L12.502 10.625V19.375Z" fill="white"/>
</g>
</g>
<defs>
<clipPath id="clip0_226_7167">
<rect width="30" height="30" fill="white"/>
</clipPath>
<clipPath id="clip1_226_7167">
<rect width="30" height="30" fill="white"/>
</clipPath>
</defs>
</svg>
